{
    "asset" : {
        "generator" : "Khronos glTF Blender I/O v1.7.33",
        "version" : "2.0"
    },
    "scene" : 0,
    "scenes" : [
        {
            "name" : "Scene",
            "nodes" : [
                0
            ]
        }
    ],
    "nodes" : [
        {
            "mesh" : 0,
            "name" : "WoodenBat_Saw",
            "rotation" : [
                0.7071068286895752,
                0,
                0,
                0.7071068286895752
            ]
        }
    ],
    "materials" : [
        {
            "doubleSided" : true,
            "name" : "Atlas",
            "pbrMetallicRoughness" : {
                "baseColorTexture" : {
                    "index" : 0
                },
                "metallicFactor" : 0
            }
        }
    ],
    "meshes" : [
        {
            "name" : "CUBezierCurve.000",
            "primitives" : [
                {
                    "attributes" : {
                        "POSITION" : 0,
                        "NORMAL" : 1,
                        "TEXCOORD_0" : 2
                    },
                    "indices" : 3,
                    "material" : 0
                }
            ]
        }
    ],
    "textures" : [
        {
            "sampler" : 0,
            "source" : 0
        }
    ],
    "images" : [
        {
            "bufferView" : 4,
            "mimeType" : "image/png",
            "name" : "Zombie_Atlas"
        }
    ],
    "accessors" : [
        {
            "bufferView" : 0,
            "componentType" : 5126,
            "count" : 1798,
            "max" : [
                0.18812210857868195,
                1.0423505306243896,
                0.10281004011631012
            ],
            "min" : [
                -0.18748992681503296,
                -0.3302266299724579,
                -0.1028103157877922
            ],
            "type" : "VEC3"
        },
        {
            "bufferView" : 1,
            "componentType" : 5126,
            "count" : 1798,
            "type" : "VEC3"
        },
        {
            "bufferView" : 2,
            "componentType" : 5126,
            "count" : 1798,
            "type" : "VEC2"
        },
        {
            "bufferView" : 3,
            "componentType" : 5123,
            "count" : 6924,
            "type" : "SCALAR"
        }
    ],
    "bufferViews" : [
        {
            "buffer" : 0,
            "byteLength" : 21576,
            "byteOffset" : 0
        },
        {
            "buffer" : 0,
            "byteLength" : 21576,
            "byteOffset" : 21576
        },
        {
            "buffer" : 0,
            "byteLength" : 14384,
            "byteOffset" : 43152
        },
        {
            "buffer" : 0,
            "byteLength" : 13848,
            "byteOffset" : 57536
        },
        {
            "buffer" : 0,
            "byteLength" : 3524,
            "byteOffset" : 71384
        }
    ],
    "samplers" : [
        {
            "magFilter" : 9729,
            "minFilter" : 9987
        }
    ],
    "buffers" : [
        {
            "byteLength" : 74908,
            "uri" : "data:application/octet-stream;base64,"
        }
    ]
}
