# Blender v3.0.0 OBJ File: 'Blood_1.blend'
# www.blender.org
mtllib Blood_1.mtl
o Blood_1_Plane.009
v -1.223834 0.007244 -0.874838
v -1.621987 0.007244 0.150725
v 0.035192 0.007244 0.415057
v -0.469580 0.007245 1.355711
v -1.545517 0.007244 -0.307320
v -0.042199 0.007245 1.332755
v -0.803992 0.007244 -0.661347
v -0.910850 0.007245 0.721416
v -1.162339 0.007244 0.134745
v -1.132522 0.007244 -0.962071
v -1.359030 0.007244 0.530795
v -1.356572 0.007244 -0.025045
v -0.595402 0.007245 1.161622
v -0.718420 0.007244 0.388885
v -0.499368 0.007244 -0.365483
v 0.008713 0.007245 0.785241
v -1.282465 0.007244 -0.814153
v -0.958832 0.007244 -0.236576
v -1.156415 0.007244 -0.606294
v -0.699107 0.007244 0.094455
v -0.695395 0.007245 1.324373
v -0.966036 0.007245 1.105839
v -0.672982 0.007245 1.706234
v -1.023473 0.007245 1.707053
v -0.831406 0.007245 1.091985
v -1.001579 0.007245 1.743483
v -0.665369 0.007245 1.537718
v -1.135314 0.007245 1.364991
v -0.962371 0.007245 1.351033
v -0.674189 0.007245 1.373236
v -1.123031 0.007245 1.233403
v -0.925678 0.007245 1.271400
v -1.053238 0.007245 1.526252
v -0.949465 0.007245 1.465383
v -0.629673 0.007245 1.640624
v -0.808813 0.007245 1.743875
v -0.704869 0.007245 1.283614
v -0.848774 0.007245 1.439986
v -0.806855 0.007245 1.349994
v -0.847316 0.007245 1.526917
v -0.585031 0.007245 1.523617
v -0.619338 0.007245 1.442377
v -0.580104 0.007245 1.597232
v 1.691158 0.007244 0.258250
v 0.132046 0.007244 -0.863885
v 0.932530 0.007244 0.187279
v 0.795294 0.007244 -0.723012
v 0.448346 0.007244 -1.424356
v 1.527581 0.007244 -0.517267
v 1.364860 0.007244 -1.048761
v 1.591906 0.007244 0.444024
v 1.294657 0.007244 -0.612167
v 0.880291 0.007244 -1.097687
v 1.234861 0.007244 0.353598
v -0.130722 0.007244 -1.423485
v 1.791829 0.007244 -0.303837
v 0.270562 0.007244 -1.572323
v 0.461243 0.007244 -0.272955
v 1.728824 0.007244 -0.763927
v 1.653193 0.007244 0.333609
v -1.584463 0.007244 -0.079986
v -0.220314 0.007245 1.439714
v -1.040471 0.007244 0.418874
v -1.357293 0.007244 0.254082
v -0.648030 0.007245 0.796346
v 1.210602 0.007244 -0.197162
v 1.509066 0.007244 0.097201
v 0.864288 0.007244 -0.436129
v 1.761507 0.007244 -0.532481
v 0.007595 0.007244 -1.578513
v 1.093910 0.007244 -0.847287
v 1.445377 0.007244 -0.784015
v 0.607076 0.007244 -1.091187
v 0.427826 0.007244 -1.674217
v 0.525846 0.007244 -1.705732
v 0.329673 0.007244 -1.730653
v 0.386362 0.007244 -1.817537
v 0.507422 0.007244 -1.670160
v 0.373791 0.007244 -1.818031
v 0.370147 0.007244 -1.701416
v 0.489180 0.007244 -1.789695
v 0.464563 0.007244 -1.744624
v 0.412290 0.007244 -1.676900
v 0.519756 0.007244 -1.765296
v 0.478317 0.007244 -1.722616
v 0.435944 0.007244 -1.795556
v 0.434165 0.007244 -1.759991
v 0.338883 0.007244 -1.709284
v 0.342405 0.007244 -1.770383
v 0.439452 0.007244 -1.669946
v 0.424107 0.007244 -1.730947
v 0.439577 0.007244 -1.705964
v 0.402354 0.007244 -1.744696
v 0.360597 0.007244 -1.679242
v 0.386273 0.007244 -1.674547
v 0.341577 0.007244 -1.689972
vt 0.014648 0.580201
vt 0.014648 0.580201
vt 0.014648 0.580201
vt 0.014648 0.580201
vt 0.014648 0.580201
vt 0.014648 0.580201
vt 0.014648 0.580201
vt 0.014648 0.580201
vt 0.014648 0.580201
vt 0.014648 0.580201
vt 0.014648 0.580201
vt 0.014648 0.580201
vt 0.014648 0.580201
vt 0.014648 0.580201
vt 0.014648 0.580201
vt 0.014648 0.580201
vt 0.014648 0.580201
vt 0.014648 0.580201
vt 0.014648 0.580201
vt 0.014648 0.580201
vt 0.014648 0.580201
vt 0.014648 0.580201
vt 0.014648 0.580201
vt 0.014648 0.580201
vt 0.014648 0.580201
vt 0.014648 0.580201
vt 0.014648 0.580201
vt 0.014648 0.580201
vt 0.014648 0.580201
vt 0.014648 0.580201
vt 0.014648 0.580201
vt 0.014648 0.580201
vt 0.014648 0.580201
vt 0.014648 0.580201
vt 0.014648 0.580201
vt 0.014648 0.580201
vt 0.014648 0.580201
vt 0.014648 0.580201
vt 0.014648 0.580201
vt 0.014648 0.580201
vt 0.014648 0.580201
vt 0.014648 0.580201
vt 0.014648 0.580201
vt 0.014648 0.580201
vt 0.014648 0.580201
vt 0.014648 0.580201
vt 0.014648 0.580201
vt 0.014648 0.580201
vt 0.014648 0.580201
vt 0.014648 0.580201
vt 0.014648 0.580201
vt 0.014648 0.580201
vt 0.014648 0.580201
vt 0.014648 0.580201
vt 0.014648 0.580201
vt 0.014648 0.580201
vt 0.014648 0.580201
vt 0.014648 0.580201
vt 0.014648 0.580201
vt 0.014648 0.580201
vt 0.014648 0.580201
vt 0.014648 0.580201
vt 0.014648 0.580201
vt 0.014648 0.580201
vt 0.014648 0.580201
vt 0.014648 0.580201
vt 0.014648 0.580201
vt 0.014648 0.580201
vt 0.014648 0.580201
vt 0.014648 0.580201
vt 0.014648 0.580201
vt 0.014648 0.580201
vt 0.014648 0.580201
vt 0.014648 0.580201
vt 0.014648 0.580201
vt 0.014648 0.580201
vt 0.014648 0.580201
vt 0.014648 0.580201
vt 0.014648 0.580201
vt 0.014648 0.580201
vt 0.014648 0.580201
vt 0.014648 0.580201
vt 0.014648 0.580201
vt 0.014648 0.580201
vt 0.014648 0.580201
vt 0.014648 0.580201
vt 0.014648 0.580201
vt 0.014648 0.580201
vt 0.014648 0.580201
vt 0.014648 0.580201
vt 0.014648 0.580201
vt 0.014648 0.580201
vt 0.014648 0.580201
vt 0.014648 0.580201
vt 0.014648 0.580201
vt 0.014648 0.580201
vn -0.0000 1.0000 -0.0000
usemtl Atlas
s 1
f 65/1/1 13/2/1 4/3/1 62/4/1
f 20/5/1 14/6/1 6/7/1 16/8/1
f 19/9/1 12/10/1 9/11/1 18/12/1
f 64/13/1 11/14/1 8/15/1 63/16/1
f 61/17/1 2/18/1 11/14/1 64/13/1
f 17/19/1 5/20/1 12/10/1 19/9/1
f 18/12/1 9/11/1 14/6/1 20/5/1
f 63/16/1 8/15/1 13/2/1 65/1/1
f 7/21/1 18/12/1 20/5/1 15/22/1
f 1/23/1 17/19/1 19/9/1 10/24/1
f 10/24/1 19/9/1 18/12/1 7/21/1
f 15/22/1 20/5/1 16/8/1 3/25/1
f 15/22/1 58/26/1 45/27/1 7/21/1
f 3/25/1 46/28/1 58/26/1 15/22/1
f 34/29/1 33/30/1 24/31/1 26/32/1
f 40/33/1 34/29/1 26/32/1 36/34/1
f 39/35/1 32/36/1 29/37/1 38/38/1
f 32/36/1 31/39/1 28/40/1 29/37/1
f 25/41/1 22/42/1 31/39/1 32/36/1
f 37/43/1 25/41/1 32/36/1 39/35/1
f 38/38/1 29/37/1 34/29/1 40/33/1
f 29/37/1 28/40/1 33/30/1 34/29/1
f 27/44/1 38/38/1 40/33/1 35/45/1
f 21/46/1 37/43/1 39/35/1 30/47/1
f 30/47/1 39/35/1 38/38/1 27/44/1
f 35/45/1 40/33/1 36/34/1 23/48/1
f 30/47/1 27/44/1 41/49/1 42/50/1
f 27/44/1 35/45/1 43/51/1 41/49/1
f 66/52/1 52/53/1 47/54/1 68/55/1
f 69/56/1 59/57/1 50/58/1 72/59/1
f 67/60/1 49/61/1 52/53/1 66/52/1
f 73/62/1 48/63/1 57/64/1 70/65/1
f 44/66/1 56/67/1 49/61/1 67/60/1
f 68/55/1 47/54/1 55/68/1 45/27/1
f 54/69/1 66/52/1 68/55/1 46/28/1
f 71/70/1 53/71/1 48/63/1 73/62/1
f 72/59/1 50/58/1 53/71/1 71/70/1
f 9/11/1 63/16/1 65/1/1 14/6/1
f 5/20/1 61/17/1 64/13/1 12/10/1
f 12/10/1 64/13/1 63/16/1 9/11/1
f 14/6/1 65/1/1 62/4/1 6/7/1
f 60/72/1 44/66/1 67/60/1 51/73/1
f 51/73/1 67/60/1 66/52/1 54/69/1
f 46/28/1 68/55/1 45/27/1 58/26/1
f 16/8/1 54/69/1 46/28/1 3/25/1
f 6/7/1 51/73/1 54/69/1 16/8/1
f 52/53/1 71/70/1 73/62/1 47/54/1
f 56/67/1 69/56/1 72/59/1 49/61/1
f 49/61/1 72/59/1 71/70/1 52/53/1
f 47/54/1 73/62/1 70/65/1 55/68/1
f 7/21/1 45/27/1 55/68/1 10/24/1
f 87/74/1 86/75/1 77/76/1 79/77/1
f 93/78/1 87/74/1 79/77/1 89/79/1
f 92/80/1 85/81/1 82/82/1 91/83/1
f 85/81/1 84/84/1 81/85/1 82/82/1
f 78/86/1 75/87/1 84/84/1 85/81/1
f 90/88/1 78/86/1 85/81/1 92/80/1
f 91/83/1 82/82/1 87/74/1 93/78/1
f 82/82/1 81/85/1 86/75/1 87/74/1
f 80/89/1 91/83/1 93/78/1 88/90/1
f 74/91/1 90/88/1 92/80/1 83/92/1
f 83/92/1 92/80/1 91/83/1 80/89/1
f 88/90/1 93/78/1 89/79/1 76/93/1
f 83/92/1 80/89/1 94/94/1 95/95/1
f 80/89/1 88/90/1 96/96/1 94/94/1
