# Blender v3.0.0 OBJ File: 'CinderBlock.blend'
# www.blender.org
mtllib CinderBlock.mtl
o CinderBlock_Cube.042
v -0.235777 0.191236 0.107263
v -0.235777 0.230631 0.107263
v -0.235777 0.191236 -0.107263
v -0.235777 0.230631 -0.107263
v -0.210017 0.230631 0.107263
v -0.177070 0.230631 0.107263
v -0.210017 0.230631 -0.107263
v -0.177070 0.230631 -0.107263
v -0.015816 0.230631 -0.107263
v -0.015816 0.230631 0.107263
v -0.165066 0.191236 -0.107263
v -0.177070 0.179233 -0.107263
v -0.189073 0.191236 -0.107263
v -0.177070 0.203240 -0.107263
v -0.173554 0.187721 -0.107263
v -0.210017 0.179233 -0.107263
v -0.222020 0.191236 -0.107263
v -0.210017 0.203240 -0.107263
v -0.198013 0.191236 -0.107263
v -0.213532 0.187721 -0.107263
v -0.177070 0.179233 0.107263
v -0.165066 0.191236 0.107263
v -0.177070 0.203240 0.107263
v -0.189073 0.191236 0.107263
v -0.173554 0.187721 0.107263
v -0.222020 0.191236 0.107263
v -0.210017 0.179233 0.107263
v -0.198013 0.191236 0.107263
v -0.210017 0.203240 0.107263
v -0.213532 0.187721 0.107263
v -0.015816 0.179233 -0.107263
v -0.027820 0.191236 -0.107263
v -0.015816 0.203240 -0.107263
v -0.003813 0.191236 -0.107263
v -0.019332 0.187721 -0.107263
v -0.027820 0.191236 0.107263
v -0.015816 0.179233 0.107263
v -0.003813 0.191236 0.107263
v -0.015816 0.203240 0.107263
v -0.019332 0.187721 0.107263
v 0.235777 0.191236 0.107263
v 0.235777 0.230631 0.107263
v 0.235777 0.191236 -0.107263
v 0.235777 0.230631 -0.107263
v 0.000000 0.191236 -0.107263
v 0.000000 0.230631 -0.107263
v 0.000000 0.191236 0.107263
v 0.000000 0.230631 0.107263
v 0.210017 0.230631 0.107263
v 0.177070 0.230631 0.107263
v 0.210017 0.230631 -0.107263
v 0.177070 0.230631 -0.107263
v 0.015816 0.230631 -0.107263
v 0.015816 0.230631 0.107263
v 0.165066 0.191236 -0.107263
v 0.177070 0.179233 -0.107263
v 0.189073 0.191236 -0.107263
v 0.177070 0.203240 -0.107263
v 0.173554 0.187721 -0.107263
v 0.210017 0.179233 -0.107263
v 0.222020 0.191236 -0.107263
v 0.210017 0.203240 -0.107263
v 0.198013 0.191236 -0.107263
v 0.213532 0.187721 -0.107263
v 0.177070 0.179233 0.107263
v 0.165066 0.191236 0.107263
v 0.177070 0.203240 0.107263
v 0.189073 0.191236 0.107263
v 0.173554 0.187721 0.107263
v 0.222020 0.191236 0.107263
v 0.210017 0.179233 0.107263
v 0.198013 0.191236 0.107263
v 0.210017 0.203240 0.107263
v 0.213532 0.187721 0.107263
v 0.015816 0.179233 -0.107263
v 0.027820 0.191236 -0.107263
v 0.015816 0.203240 -0.107263
v 0.003813 0.191236 -0.107263
v 0.019332 0.187721 -0.107263
v 0.027820 0.191236 0.107263
v 0.015816 0.179233 0.107263
v 0.003813 0.191236 0.107263
v 0.015816 0.203240 0.107263
v 0.019332 0.187721 0.107263
v -0.235777 0.042646 0.107263
v -0.235777 0.003252 0.107263
v -0.235777 0.042646 -0.107263
v -0.235777 0.003252 -0.107263
v -0.210017 0.116941 0.107263
v -0.177070 0.116941 0.107263
v -0.210017 0.116941 -0.107263
v -0.177070 0.116941 -0.107263
v -0.210017 0.003252 0.107263
v -0.177070 0.003252 0.107263
v -0.210017 0.003252 -0.107263
v -0.177070 0.003252 -0.107263
v -0.015816 0.003252 -0.107263
v -0.015816 0.003252 0.107263
v -0.015816 0.116941 0.107263
v -0.015816 0.116941 -0.107263
v -0.165066 0.042646 -0.107263
v -0.177070 0.054650 -0.107263
v -0.189073 0.042646 -0.107263
v -0.177070 0.030643 -0.107263
v -0.173554 0.046162 -0.107263
v -0.210017 0.054650 -0.107263
v -0.222020 0.042646 -0.107263
v -0.210017 0.030643 -0.107263
v -0.198013 0.042646 -0.107263
v -0.213532 0.046162 -0.107263
v -0.177070 0.054650 0.107263
v -0.165066 0.042646 0.107263
v -0.177070 0.030643 0.107263
v -0.189073 0.042646 0.107263
v -0.173554 0.046162 0.107263
v -0.222020 0.042646 0.107263
v -0.210017 0.054650 0.107263
v -0.198013 0.042646 0.107263
v -0.210017 0.030643 0.107263
v -0.213532 0.046162 0.107263
v -0.015816 0.054650 -0.107263
v -0.027820 0.042646 -0.107263
v -0.015816 0.030643 -0.107263
v -0.003813 0.042646 -0.107263
v -0.019332 0.046162 -0.107263
v -0.027820 0.042646 0.107263
v -0.015816 0.054650 0.107263
v -0.003813 0.042646 0.107263
v -0.015816 0.030643 0.107263
v -0.019332 0.046162 0.107263
v 0.235777 0.042646 0.107263
v 0.235777 0.003252 0.107263
v 0.235777 0.042646 -0.107263
v 0.235777 0.003252 -0.107263
v 0.000000 0.042646 -0.107263
v 0.000000 0.003252 -0.107263
v 0.000000 0.042646 0.107263
v 0.000000 0.003252 0.107263
v 0.210017 0.116941 0.107263
v 0.177070 0.116941 0.107263
v 0.210017 0.116941 -0.107263
v 0.177070 0.116941 -0.107263
v 0.210017 0.003252 0.107263
v 0.177070 0.003252 0.107263
v 0.210017 0.003252 -0.107263
v 0.177070 0.003252 -0.107263
v 0.015816 0.003252 -0.107263
v 0.015816 0.003252 0.107263
v 0.000000 0.116941 -0.107263
v 0.000000 0.116941 0.107263
v 0.015816 0.116941 0.107263
v 0.015816 0.116941 -0.107263
v 0.165066 0.042646 -0.107263
v 0.177070 0.054650 -0.107263
v 0.189073 0.042646 -0.107263
v 0.177070 0.030643 -0.107263
v 0.173554 0.046162 -0.107263
v 0.210017 0.054650 -0.107263
v 0.222020 0.042646 -0.107263
v 0.210017 0.030643 -0.107263
v 0.198013 0.042646 -0.107263
v 0.213532 0.046162 -0.107263
v 0.177070 0.054650 0.107263
v 0.165066 0.042646 0.107263
v 0.177070 0.030643 0.107263
v 0.189073 0.042646 0.107263
v 0.173554 0.046162 0.107263
v 0.222020 0.042646 0.107263
v 0.210017 0.054650 0.107263
v 0.198013 0.042646 0.107263
v 0.210017 0.030643 0.107263
v 0.213532 0.046162 0.107263
v 0.015816 0.054650 -0.107263
v 0.027820 0.042646 -0.107263
v 0.015816 0.030643 -0.107263
v 0.003813 0.042646 -0.107263
v 0.019332 0.046162 -0.107263
v 0.027820 0.042646 0.107263
v 0.015816 0.054650 0.107263
v 0.003813 0.042646 0.107263
v 0.015816 0.030643 0.107263
v 0.019332 0.046162 0.107263
vt 0.079744 0.610352
vt 0.079744 0.610352
vt 0.079744 0.610352
vt 0.079744 0.610352
vt 0.079744 0.610352
vt 0.079744 0.610352
vt 0.079744 0.610352
vt 0.079744 0.610352
vt 0.079744 0.610352
vt 0.079744 0.610352
vt 0.079744 0.610352
vt 0.079744 0.610352
vt 0.079744 0.610352
vt 0.079744 0.610352
vt 0.079744 0.610352
vt 0.079744 0.610352
vt 0.079744 0.610352
vt 0.079744 0.610352
vt 0.079744 0.610352
vt 0.079744 0.610352
vt 0.079744 0.610352
vt 0.079744 0.610352
vt 0.079744 0.610352
vt 0.079744 0.610352
vt 0.079744 0.610352
vt 0.079744 0.610352
vt 0.079744 0.610352
vt 0.079744 0.610352
vt 0.079744 0.610352
vt 0.079744 0.610352
vt 0.079744 0.610352
vt 0.079744 0.610352
vt 0.079744 0.610352
vt 0.079744 0.610352
vt 0.079744 0.610352
vt 0.079744 0.610352
vt 0.079744 0.610352
vt 0.079744 0.610352
vt 0.079744 0.610352
vt 0.079744 0.610352
vt 0.079744 0.610352
vt 0.079744 0.610352
vt 0.079744 0.610352
vt 0.079744 0.610352
vt 0.079744 0.610352
vt 0.079744 0.610352
vt 0.079744 0.610352
vt 0.079744 0.610352
vt 0.079744 0.610352
vt 0.079744 0.610352
vt 0.079744 0.610352
vt 0.079744 0.610352
vt 0.079744 0.610352
vt 0.079744 0.610352
vt 0.079744 0.610352
vt 0.079744 0.610352
vt 0.079744 0.610352
vt 0.079744 0.610352
vt 0.079744 0.610352
vt 0.079744 0.610352
vt 0.079744 0.610352
vt 0.079744 0.610352
vt 0.079744 0.610352
vt 0.079744 0.610352
vt 0.079744 0.610352
vt 0.079744 0.610352
vt 0.079744 0.610352
vt 0.079744 0.610352
vt 0.079744 0.610352
vt 0.079744 0.610352
vt 0.079744 0.610352
vt 0.079744 0.610352
vt 0.079744 0.610352
vt 0.079744 0.610352
vt 0.079744 0.610352
vt 0.079744 0.610352
vt 0.079744 0.610352
vt 0.079744 0.610352
vt 0.079744 0.610352
vt 0.079744 0.610352
vt 0.079744 0.610352
vt 0.079744 0.610352
vt 0.079744 0.610352
vt 0.079744 0.610352
vt 0.079744 0.610352
vt 0.079744 0.610352
vt 0.079744 0.610352
vt 0.079744 0.610352
vt 0.079744 0.610352
vt 0.079744 0.610352
vt 0.079744 0.610352
vt 0.079744 0.610352
vt 0.079744 0.610352
vt 0.079744 0.610352
vt 0.079744 0.610352
vt 0.079744 0.610352
vt 0.079744 0.610352
vt 0.079744 0.610352
vt 0.079744 0.610352
vt 0.079744 0.610352
vt 0.079744 0.610352
vt 0.079744 0.610352
vt 0.079744 0.610352
vt 0.079744 0.610352
vt 0.079744 0.610352
vt 0.079744 0.610352
vt 0.079744 0.610352
vt 0.079744 0.610352
vt 0.079744 0.610352
vt 0.079744 0.610352
vt 0.079744 0.610352
vt 0.079744 0.610352
vt 0.079744 0.610352
vt 0.079744 0.610352
vt 0.079744 0.610352
vt 0.079744 0.610352
vt 0.079744 0.610352
vt 0.079744 0.610352
vt 0.079744 0.610352
vt 0.079744 0.610352
vt 0.079744 0.610352
vt 0.079744 0.610352
vt 0.079744 0.610352
vt 0.079744 0.610352
vt 0.079744 0.610352
vt 0.079744 0.610352
vt 0.079744 0.610352
vt 0.079744 0.610352
vt 0.079744 0.610352
vt 0.079744 0.610352
vt 0.079744 0.610352
vt 0.079744 0.610352
vt 0.079744 0.610352
vt 0.079744 0.610352
vt 0.079744 0.610352
vt 0.079744 0.610352
vt 0.079744 0.610352
vt 0.079744 0.610352
vt 0.079744 0.610352
vt 0.079744 0.610352
vt 0.079744 0.610352
vt 0.079744 0.610352
vt 0.079744 0.610352
vt 0.079744 0.610352
vt 0.079744 0.610352
vt 0.079744 0.610352
vt 0.079744 0.610352
vt 0.079744 0.610352
vt 0.079744 0.610352
vt 0.079744 0.610352
vt 0.079744 0.610352
vt 0.079744 0.610352
vt 0.079744 0.610352
vt 0.079744 0.610352
vt 0.079744 0.610352
vt 0.079744 0.610352
vt 0.079744 0.610352
vt 0.079744 0.610352
vt 0.079744 0.610352
vt 0.079744 0.610352
vt 0.079744 0.610352
vt 0.079744 0.610352
vt 0.079744 0.610352
vt 0.079744 0.610352
vt 0.079744 0.610352
vt 0.079744 0.610352
vt 0.079744 0.610352
vt 0.079744 0.610352
vt 0.079744 0.610352
vt 0.079744 0.610352
vt 0.079744 0.610352
vt 0.079744 0.610352
vt 0.079744 0.610352
vt 0.079744 0.610352
vt 0.079744 0.610352
vt 0.079744 0.610352
vt 0.079744 0.610352
vt 0.079744 0.610352
vt 0.079744 0.610352
vt 0.079744 0.610352
vt 0.079744 0.610352
vt 0.079744 0.610352
vn -1.0000 0.0000 0.0000
vn 0.0000 1.0000 0.0000
vn 0.0000 0.0000 1.0000
vn -0.9808 -0.1951 -0.0000
vn 0.0000 0.0000 -1.0000
vn 0.9808 -0.1951 -0.0000
vn 1.0000 0.0000 0.0000
vn 0.0000 -1.0000 -0.0000
vn -0.1951 -0.9808 -0.0000
vn 0.1951 -0.9808 -0.0000
vn 0.3827 -0.9239 -0.0000
vn 0.9239 -0.3827 -0.0000
vn -0.3827 -0.9239 -0.0000
vn -0.9239 -0.3827 -0.0000
vn -0.9808 0.1951 0.0000
vn 0.9808 0.1951 0.0000
vn -0.1951 0.9808 0.0000
vn 0.1951 0.9808 0.0000
vn 0.3827 0.9239 0.0000
vn 0.9239 0.3827 0.0000
vn -0.3827 0.9239 0.0000
vn -0.9239 0.3827 0.0000
usemtl Atlas
s 1
f 1/1/1 2/2/1 4/3/1 3/4/1
f 9/5/2 8/6/2 6/7/2 10/8/2
f 26/9/3 29/10/3 5/11/3 2/2/3 1/1/3
f 37/12/4 31/13/4 100/14/1 99/15/1
f 7/16/2 4/3/2 2/2/2 5/11/2
f 34/17/5 33/18/5 9/5/5 46/19/5 45/20/5
f 21/21/3 24/22/3 28/23/3 27/24/3 89/25/3 90/26/3
f 11/27/5 14/28/5 8/6/5 9/5/5 33/18/5 32/29/5
f 31/13/5 34/17/5 45/20/5 149/30/5 100/14/5
f 12/31/6 21/21/6 90/26/7 92/32/7
f 3/4/8 17/33/9 26/9/9 1/1/8
f 7/16/2 5/11/2 6/7/2 8/6/2
f 36/34/3 39/35/3 10/8/3 6/7/3 23/36/3 22/37/3
f 3/4/5 4/3/5 7/16/5 18/38/5 17/33/5
f 27/24/4 16/39/4 91/40/1 89/25/1
f 11/27/10 32/29/9 36/34/9 22/37/10
f 5/11/3 29/10/3 28/23/3 24/22/3 23/36/3 6/7/3
f 8/6/5 14/28/5 13/41/5 19/42/5 18/38/5 7/16/5
f 46/19/2 9/5/2 10/8/2 48/43/2
f 47/44/3 38/45/3 37/12/3 99/15/3 150/46/3
f 47/44/3 48/43/3 10/8/3 39/35/3 38/45/3
f 11/27/5 15/47/5 12/31/5 13/41/5 14/28/5
f 16/39/5 20/48/5 17/33/5 18/38/5 19/42/5
f 21/21/3 25/49/3 22/37/3 23/36/3 24/22/3
f 26/9/3 30/50/3 27/24/3 28/23/3 29/10/3
f 31/13/5 35/51/5 32/29/5 33/18/5 34/17/5
f 36/34/3 40/52/3 37/12/3 38/45/3 39/35/3
f 11/27/10 22/37/10 25/49/11 15/47/11
f 15/47/12 25/49/12 21/21/6 12/31/6
f 26/9/9 17/33/9 20/48/13 30/50/13
f 30/50/14 20/48/14 16/39/4 27/24/4
f 31/13/4 37/12/4 40/52/14 35/51/14
f 35/51/13 40/52/13 36/34/9 32/29/9
f 16/39/5 19/42/5 13/41/5 12/31/5 92/32/5 91/40/5
f 41/53/7 43/54/7 44/55/7 42/56/7
f 53/57/2 54/58/2 50/59/2 52/60/2
f 70/61/3 41/53/3 42/56/3 49/62/3 73/63/3
f 81/64/6 151/65/7 152/66/7 75/67/6
f 51/68/2 49/62/2 42/56/2 44/55/2
f 78/69/5 45/20/5 46/19/5 53/57/5 77/70/5
f 65/71/3 140/72/3 139/73/3 71/74/3 72/75/3 68/76/3
f 55/77/5 76/78/5 77/70/5 53/57/5 52/60/5 58/79/5
f 75/67/5 152/66/5 149/30/5 45/20/5 78/69/5
f 56/80/4 142/81/1 140/72/1 65/71/4
f 43/54/8 41/53/8 70/61/10 61/82/10
f 51/68/2 52/60/2 50/59/2 49/62/2
f 80/83/3 66/84/3 67/85/3 50/59/3 54/58/3 83/86/3
f 43/54/5 61/82/5 62/87/5 51/68/5 44/55/5
f 71/74/6 139/73/7 141/88/7 60/89/6
f 55/77/9 66/84/9 80/83/10 76/78/10
f 49/62/3 50/59/3 67/85/3 68/76/3 72/75/3 73/63/3
f 52/60/5 51/68/5 62/87/5 63/90/5 57/91/5 58/79/5
f 46/19/2 48/43/2 54/58/2 53/57/2
f 47/44/3 150/46/3 151/65/3 81/64/3 82/92/3
f 47/44/3 82/92/3 83/86/3 54/58/3 48/43/3
f 55/77/5 58/79/5 57/91/5 56/80/5 59/93/5
f 60/89/5 63/90/5 62/87/5 61/82/5 64/94/5
f 65/71/3 68/76/3 67/85/3 66/84/3 69/95/3
f 70/61/3 73/63/3 72/75/3 71/74/3 74/96/3
f 75/67/5 78/69/5 77/70/5 76/78/5 79/97/5
f 80/83/3 83/86/3 82/92/3 81/64/3 84/98/3
f 55/77/9 59/93/13 69/95/13 66/84/9
f 59/93/14 56/80/4 65/71/4 69/95/14
f 70/61/10 74/96/11 64/94/11 61/82/10
f 74/96/12 71/74/6 60/89/6 64/94/12
f 75/67/6 79/97/12 84/98/12 81/64/6
f 79/97/11 76/78/10 80/83/10 84/98/11
f 60/89/5 141/88/5 142/81/5 56/80/5 57/91/5 63/90/5
f 85/99/1 87/100/1 88/101/1 86/102/1
f 97/103/8 98/104/8 94/105/8 96/106/8
f 116/107/3 85/99/3 86/102/3 93/108/3 119/109/3
f 127/110/15 99/15/1 100/14/1 121/111/15
f 95/112/8 93/108/8 86/102/8 88/101/8
f 124/113/5 135/114/5 136/115/5 97/103/5 123/116/5
f 111/117/3 90/26/3 89/25/3 117/118/3 118/119/3 114/120/3
f 101/121/5 122/122/5 123/116/5 97/103/5 96/106/5 104/123/5
f 121/111/5 100/14/5 149/30/5 135/114/5 124/113/5
f 102/124/16 92/32/7 90/26/7 111/117/16
f 87/100/2 85/99/2 116/107/17 107/125/17
f 95/112/8 96/106/8 94/105/8 93/108/8
f 126/126/3 112/127/3 113/128/3 94/105/3 98/104/3 129/129/3
f 87/100/5 107/125/5 108/130/5 95/112/5 88/101/5
f 117/118/15 89/25/1 91/40/1 106/131/15
f 101/121/18 112/127/18 126/126/17 122/122/17
f 93/108/3 94/105/3 113/128/3 114/120/3 118/119/3 119/109/3
f 96/106/5 95/112/5 108/130/5 109/132/5 103/133/5 104/123/5
f 136/115/8 138/134/8 98/104/8 97/103/8
f 137/135/3 150/46/3 99/15/3 127/110/3 128/136/3
f 137/135/3 128/136/3 129/129/3 98/104/3 138/134/3
f 101/121/5 104/123/5 103/133/5 102/124/5 105/137/5
f 106/131/5 109/132/5 108/130/5 107/125/5 110/138/5
f 111/117/3 114/120/3 113/128/3 112/127/3 115/139/3
f 116/107/3 119/109/3 118/119/3 117/118/3 120/140/3
f 121/111/5 124/113/5 123/116/5 122/122/5 125/141/5
f 126/126/3 129/129/3 128/136/3 127/110/3 130/142/3
f 101/121/18 105/137/19 115/139/19 112/127/18
f 105/137/20 102/124/16 111/117/16 115/139/20
f 116/107/17 120/140/21 110/138/21 107/125/17
f 120/140/22 117/118/15 106/131/15 110/138/22
f 121/111/15 125/141/22 130/142/22 127/110/15
f 125/141/21 122/122/17 126/126/17 130/142/21
f 106/131/5 91/40/5 92/32/5 102/124/5 103/133/5 109/132/5
f 131/143/7 132/144/7 134/145/7 133/146/7
f 147/147/8 146/148/8 144/149/8 148/150/8
f 168/151/3 171/152/3 143/153/3 132/144/3 131/143/3
f 179/154/16 173/155/16 152/66/7 151/65/7
f 145/156/8 134/145/8 132/144/8 143/153/8
f 176/157/5 175/158/5 147/147/5 136/115/5 135/114/5
f 163/159/3 166/160/3 170/161/3 169/162/3 139/73/3 140/72/3
f 153/163/5 156/164/5 146/148/5 147/147/5 175/158/5 174/165/5
f 173/155/5 176/157/5 135/114/5 149/30/5 152/66/5
f 154/166/15 163/159/15 140/72/1 142/81/1
f 133/146/2 159/167/18 168/151/18 131/143/2
f 145/156/8 143/153/8 144/149/8 146/148/8
f 178/168/3 181/169/3 148/150/3 144/149/3 165/170/3 164/171/3
f 133/146/5 134/145/5 145/156/5 160/172/5 159/167/5
f 169/162/16 158/173/16 141/88/7 139/73/7
f 153/163/17 174/165/18 178/168/18 164/171/17
f 143/153/3 171/152/3 170/161/3 166/160/3 165/170/3 144/149/3
f 146/148/5 156/164/5 155/174/5 161/175/5 160/172/5 145/156/5
f 136/115/8 147/147/8 148/150/8 138/134/8
f 137/135/3 180/176/3 179/154/3 151/65/3 150/46/3
f 137/135/3 138/134/3 148/150/3 181/169/3 180/176/3
f 153/163/5 157/177/5 154/166/5 155/174/5 156/164/5
f 158/173/5 162/178/5 159/167/5 160/172/5 161/175/5
f 163/159/3 167/179/3 164/171/3 165/170/3 166/160/3
f 168/151/3 172/180/3 169/162/3 170/161/3 171/152/3
f 173/155/5 177/181/5 174/165/5 175/158/5 176/157/5
f 178/168/3 182/182/3 179/154/3 180/176/3 181/169/3
f 153/163/17 164/171/17 167/179/21 157/177/21
f 157/177/22 167/179/22 163/159/15 154/166/15
f 168/151/18 159/167/18 162/178/19 172/180/19
f 172/180/20 162/178/20 158/173/16 169/162/16
f 173/155/16 179/154/16 182/182/20 177/181/20
f 177/181/19 182/182/19 178/168/18 174/165/18
f 158/173/5 161/175/5 155/174/5 154/166/5 142/81/5 141/88/5
