# Blender v3.0.0 OBJ File: 'Street_T.blend'
# www.blender.org
mtllib Street_T.mtl
o Street_T_Cube.001
v -3.000000 0.000000 4.000000
v -4.000000 0.100000 4.000000
v -3.000000 0.100000 4.000000
v -2.800000 0.000000 4.000000
v -3.000000 0.000000 3.000000
v -4.000000 0.100000 3.000000
v -3.000000 0.100000 3.000000
v -2.800000 0.000000 1.000000
v -2.800000 0.000000 2.000000
v -2.800000 0.000000 3.000000
v -4.000000 0.000000 2.800000
v -4.000000 0.000000 2.000000
v -2.800000 0.000000 2.800000
v -4.000000 0.000000 1.000000
v -4.000000 0.000000 2.800000
v -4.000000 0.000000 3.000000
v 0.000000 0.000000 4.000000
v 3.000000 0.000000 4.000000
v 4.000000 0.100000 4.000000
v 3.000000 0.100000 4.000000
v 2.800000 0.000000 4.000000
v 0.000000 0.000000 3.000000
v 0.000000 0.000000 2.000000
v 0.000000 0.000000 1.000000
v 3.000000 0.000000 3.000000
v 4.000000 0.100000 3.000000
v 3.000000 0.100000 3.000000
v 2.800000 0.000000 1.000000
v 2.800000 0.000000 2.000000
v 2.800000 0.000000 3.000000
v 4.000000 0.100000 2.000000
v 3.000000 0.100000 -2.000000
v 0.000000 0.000000 2.800000
v 3.000000 0.100000 -1.000000
v 3.000000 0.100000 0.000000
v 3.000000 0.100000 1.000000
v -3.000000 0.000000 -4.000000
v -4.000000 0.100000 -4.000000
v -3.000000 0.100000 -4.000000
v -2.800000 0.000000 -4.000000
v -3.000000 0.000000 -3.000000
v -4.000000 0.100000 -3.000000
v -3.000000 0.100000 -3.000000
v -2.800000 0.000000 0.000000
v -2.800000 0.000000 -1.000000
v -2.800000 0.000000 -2.000000
v -2.800000 0.000000 -3.000000
v -4.000000 0.000000 -2.800000
v -4.000000 0.000000 -2.000000
v -2.800000 0.000000 -2.800000
v -4.000000 0.000000 -1.000000
v -4.000000 0.000000 0.000000
v -4.000000 0.000000 -2.800000
v -4.000000 0.000000 -3.000000
v 0.000000 0.000000 -4.000000
v 3.000000 0.000000 -4.000000
v 4.000000 0.100000 -4.000000
v 3.000000 0.100000 -4.000000
v 2.800000 0.000000 -4.000000
v 0.000000 0.000000 -3.000000
v 0.000000 0.000000 -2.000000
v 0.000000 0.000000 -1.000000
v 0.000000 0.000000 0.000000
v 3.000000 0.000000 -3.000000
v 4.000000 0.100000 -3.000000
v 3.000000 0.100000 -3.000000
v 2.800000 0.000000 0.000000
v 2.800000 0.000000 -1.000000
v 2.800000 0.000000 -2.000000
v 2.800000 0.000000 -3.000000
v 3.000000 0.100000 2.000000
v 3.000000 0.000000 -2.000000
v 0.000000 0.000000 -2.800000
v 3.000000 0.000000 -1.000000
v 3.000000 0.000000 0.000000
v 3.000000 0.000000 1.000000
v 3.000000 0.000000 2.000000
v -2.933333 0.001205 -2.309865
v -2.933333 0.001205 -2.144874
v -2.933333 0.001205 -1.814894
v -2.933333 0.001205 -1.649903
v -2.933333 0.001205 -1.319923
v -2.933333 0.001205 -1.154932
v -2.933333 0.001205 -0.824952
v -2.933333 0.001205 -0.659961
v -2.933333 0.001205 -0.329981
v -2.933333 0.001205 -0.164990
v -3.755344 0.001205 -2.309865
v -3.755344 0.001205 -2.144874
v -3.755344 0.001205 -1.814894
v -3.755344 0.001205 -1.649903
v -3.755344 0.001205 -1.319923
v -3.755344 0.001205 -1.154932
v -3.755344 0.001205 -0.824952
v -3.755344 0.001205 -0.659962
v -3.755344 0.001205 -0.329981
v -3.755344 0.001205 -0.164990
v -2.933333 0.001205 2.309864
v -2.933333 0.001205 2.144874
v -2.933333 0.001205 1.814893
v -2.933333 0.001205 1.649903
v -2.933333 0.001205 1.319922
v -2.933333 0.001205 1.154932
v -2.933333 0.001205 0.824952
v -2.933333 0.001205 0.659961
v -2.933333 0.001205 0.329981
v -2.933333 0.001205 0.164990
v -3.755344 0.001205 2.309864
v -3.755344 0.001205 2.144874
v -3.755344 0.001205 1.814893
v -3.755344 0.001205 1.649903
v -3.755344 0.001205 1.319922
v -3.755344 0.001205 1.154932
v -3.755344 0.001205 0.824951
v -3.755344 0.001205 0.659961
v -3.755344 0.001205 0.329980
v -3.755344 0.001205 0.164990
v -2.309865 0.001205 2.933333
v -2.144874 0.001205 2.933333
v -1.814893 0.001205 2.933333
v -1.649903 0.001205 2.933333
v -1.319923 0.001205 2.933333
v -1.154932 0.001205 2.933333
v -0.824952 0.001205 2.933333
v -0.659961 0.001205 2.933333
v -0.329981 0.001205 2.933333
v -0.164990 0.001205 2.933333
v -2.309865 0.001205 3.755344
v -2.144874 0.001205 3.755344
v -1.814893 0.001205 3.755344
v -1.649903 0.001205 3.755344
v -1.319923 0.001205 3.755344
v -1.154932 0.001205 3.755344
v -0.824952 0.001205 3.755344
v -0.659961 0.001205 3.755344
v -0.329981 0.001205 3.755344
v -0.164990 0.001205 3.755344
v 2.309865 0.001205 2.933333
v 2.144874 0.001205 2.933333
v 1.814893 0.001205 2.933333
v 1.649903 0.001205 2.933333
v 1.319923 0.001205 2.933333
v 1.154932 0.001205 2.933333
v 0.824952 0.001205 2.933333
v 0.659961 0.001205 2.933333
v 0.329981 0.001205 2.933333
v 0.164990 0.001205 2.933333
v 2.309865 0.001205 3.755344
v 2.144874 0.001205 3.755344
v 1.814893 0.001205 3.755344
v 1.649903 0.001205 3.755344
v 1.319923 0.001205 3.755344
v 1.154932 0.001205 3.755344
v 0.824952 0.001205 3.755344
v 0.659961 0.001205 3.755344
v 0.329981 0.001205 3.755344
v 0.164990 0.001205 3.755344
v -2.309865 0.001205 -2.933333
v -2.144874 0.001205 -2.933333
v -1.814893 0.001205 -2.933333
v -1.649903 0.001205 -2.933333
v -1.319923 0.001205 -2.933333
v -1.154932 0.001205 -2.933333
v -0.824952 0.001205 -2.933333
v -0.659961 0.001205 -2.933333
v -0.329981 0.001205 -2.933333
v -0.164990 0.001205 -2.933333
v -2.309865 0.001205 -3.755344
v -2.144874 0.001205 -3.755344
v -1.814893 0.001205 -3.755344
v -1.649903 0.001205 -3.755344
v -1.319923 0.001205 -3.755344
v -1.154932 0.001205 -3.755344
v -0.824952 0.001205 -3.755344
v -0.659961 0.001205 -3.755344
v -0.329981 0.001205 -3.755344
v -0.164990 0.001205 -3.755344
v 2.309865 0.001205 -2.933333
v 2.144874 0.001205 -2.933333
v 1.814893 0.001205 -2.933333
v 1.649903 0.001205 -2.933333
v 1.319923 0.001205 -2.933333
v 1.154932 0.001205 -2.933333
v 0.824952 0.001205 -2.933333
v 0.659961 0.001205 -2.933333
v 0.329981 0.001205 -2.933333
v 0.164990 0.001205 -2.933333
v 2.309865 0.001205 -3.755344
v 2.144874 0.001205 -3.755344
v 1.814893 0.001205 -3.755344
v 1.649903 0.001205 -3.755344
v 1.319923 0.001205 -3.755344
v 1.154932 0.001205 -3.755344
v 0.824952 0.001205 -3.755344
v 0.659961 0.001205 -3.755344
v 0.329981 0.001205 -3.755344
v 0.164990 0.001205 -3.755344
v 4.000000 0.100000 1.000000
v 4.000000 0.100000 0.000000
v 4.000000 0.100000 -1.000000
v 4.000000 0.100000 -2.000000
vt 0.079206 0.048446
vt 0.079206 0.048446
vt 0.079206 0.048446
vt 0.079206 0.048446
vt 0.048446 0.050907
vt 0.048446 0.050907
vt 0.048446 0.050907
vt 0.048446 0.050907
vt 0.048446 0.050907
vt 0.048446 0.050907
vt 0.015226 0.052137
vt 0.015226 0.052137
vt 0.015226 0.052137
vt 0.015226 0.052137
vt 0.015226 0.052137
vt 0.015226 0.052137
vt 0.015226 0.052137
vt 0.015226 0.052137
vt 0.015226 0.052137
vt 0.015226 0.052137
vt 0.015226 0.052137
vt 0.015226 0.052137
vt 0.048446 0.050907
vt 0.015226 0.052137
vt 0.015226 0.052137
vt 0.079206 0.048446
vt 0.015226 0.052137
vt 0.015226 0.052137
vt 0.079206 0.048446
vt 0.079206 0.048446
vt 0.079206 0.048446
vt 0.079206 0.048446
vt 0.079206 0.048446
vt 0.079206 0.048446
vt 0.048446 0.050907
vt 0.048446 0.050907
vt 0.048446 0.050907
vt 0.048446 0.050907
vt 0.048446 0.050907
vt 0.048446 0.050907
vt 0.015226 0.052137
vt 0.015226 0.052137
vt 0.015226 0.052137
vt 0.015226 0.052137
vt 0.015226 0.052137
vt 0.048446 0.050907
vt 0.048446 0.050907
vt 0.048446 0.050907
vt 0.048446 0.050907
vt 0.048446 0.050907
vt 0.048446 0.050907
vt 0.079206 0.048446
vt 0.079206 0.048446
vt 0.079206 0.048446
vt 0.079206 0.048446
vt 0.048446 0.050907
vt 0.048446 0.050907
vt 0.048446 0.050907
vt 0.048446 0.050907
vt 0.048446 0.050907
vt 0.079206 0.048446
vt 0.079206 0.048446
vt 0.079206 0.048446
vt 0.079206 0.048446
vt 0.048446 0.050907
vt 0.048446 0.050907
vt 0.048446 0.050907
vt 0.048446 0.050907
vt 0.048446 0.050907
vt 0.048446 0.050907
vt 0.015226 0.052137
vt 0.015226 0.052137
vt 0.015226 0.052137
vt 0.015226 0.052137
vt 0.015226 0.052137
vt 0.015226 0.052137
vt 0.015226 0.052137
vt 0.015226 0.052137
vt 0.015226 0.052137
vt 0.015226 0.052137
vt 0.048446 0.050907
vt 0.015226 0.052137
vt 0.079206 0.048446
vt 0.015226 0.052137
vt 0.015226 0.052137
vt 0.079206 0.048446
vt 0.079206 0.048446
vt 0.079206 0.048446
vt 0.079206 0.048446
vt 0.079206 0.048446
vt 0.079206 0.048446
vt 0.048446 0.050907
vt 0.048446 0.050907
vt 0.048446 0.050907
vt 0.048446 0.050907
vt 0.048446 0.050907
vt 0.048446 0.050907
vt 0.015226 0.052137
vt 0.015226 0.052137
vt 0.015226 0.052137
vt 0.015226 0.052137
vt 0.048446 0.050907
vt 0.048446 0.050907
vt 0.048446 0.050907
vt 0.048446 0.050907
vt 0.048446 0.050907
vt 0.048446 0.050907
vt 0.048446 0.050907
vt 0.048446 0.050907
vt 0.048446 0.050907
vt 0.048446 0.050907
vt 0.048446 0.050907
vt 0.048446 0.050907
vt 0.048446 0.050907
vt 0.048446 0.050907
vt 0.048446 0.050907
vt 0.048446 0.050907
vt 0.048446 0.050907
vt 0.048446 0.050907
vt 0.048446 0.050907
vt 0.048446 0.050907
vt 0.048446 0.050907
vt 0.048446 0.050907
vt 0.048446 0.050907
vt 0.048446 0.050907
vt 0.048446 0.050907
vt 0.048446 0.050907
vt 0.048446 0.050907
vt 0.048446 0.050907
vt 0.048446 0.050907
vt 0.048446 0.050907
vt 0.048446 0.050907
vt 0.048446 0.050907
vt 0.048446 0.050907
vt 0.048446 0.050907
vt 0.048446 0.050907
vt 0.048446 0.050907
vt 0.048446 0.050907
vt 0.048446 0.050907
vt 0.048446 0.050907
vt 0.048446 0.050907
vt 0.048446 0.050907
vt 0.048446 0.050907
vt 0.048446 0.050907
vt 0.048446 0.050907
vt 0.048446 0.050907
vt 0.048446 0.050907
vt 0.048446 0.050907
vt 0.048446 0.050907
vt 0.048446 0.050907
vt 0.048446 0.050907
vt 0.048446 0.050907
vt 0.048446 0.050907
vt 0.048446 0.050907
vt 0.048446 0.050907
vt 0.048446 0.050907
vt 0.048446 0.050907
vt 0.048446 0.050907
vt 0.048446 0.050907
vt 0.048446 0.050907
vt 0.048446 0.050907
vt 0.048446 0.050907
vt 0.048446 0.050907
vt 0.048446 0.050907
vt 0.048446 0.050907
vt 0.048446 0.050907
vt 0.048446 0.050907
vt 0.048446 0.050907
vt 0.048446 0.050907
vt 0.048446 0.050907
vt 0.048446 0.050907
vt 0.048446 0.050907
vt 0.048446 0.050907
vt 0.048446 0.050907
vt 0.048446 0.050907
vt 0.048446 0.050907
vt 0.048446 0.050907
vt 0.048446 0.050907
vt 0.048446 0.050907
vt 0.048446 0.050907
vt 0.048446 0.050907
vt 0.048446 0.050907
vt 0.048446 0.050907
vt 0.048446 0.050907
vt 0.048446 0.050907
vt 0.048446 0.050907
vt 0.048446 0.050907
vt 0.048446 0.050907
vt 0.048446 0.050907
vt 0.048446 0.050907
vt 0.048446 0.050907
vt 0.048446 0.050907
vt 0.048446 0.050907
vt 0.048446 0.050907
vt 0.048446 0.050907
vt 0.048446 0.050907
vt 0.048446 0.050907
vt 0.048446 0.050907
vt 0.048446 0.050907
vt 0.048446 0.050907
vt 0.048446 0.050907
vt 0.048446 0.050907
vt 0.048446 0.050907
vt 0.048446 0.050907
vt 0.048446 0.050907
vt 0.048446 0.050907
vt 0.048446 0.050907
vt 0.048446 0.050907
vt 0.048446 0.050907
vt 0.048446 0.050907
vt 0.048446 0.050907
vt 0.048446 0.050907
vt 0.048446 0.050907
vt 0.048446 0.050907
vt 0.048446 0.050907
vt 0.048446 0.050907
vt 0.048446 0.050907
vt 0.048446 0.050907
vt 0.048446 0.050907
vt 0.048446 0.050907
vt 0.048446 0.050907
vt 0.048446 0.050907
vt 0.048446 0.050907
vt 0.048446 0.050907
vt 0.048446 0.050907
vt 0.079206 0.048446
vt 0.079206 0.048446
vt 0.079206 0.048446
vt 0.079206 0.048446
vt 0.079206 0.048446
vt 0.079206 0.048446
vn 0.0000 1.0000 0.0000
vn 1.0000 0.0000 0.0000
vn 0.0000 0.0000 -1.0000
vn -1.0000 0.0000 0.0000
vn 0.0000 0.0000 1.0000
usemtl Atlas.001
s off
f 10/1/1 5/2/1 1/3/1 4/4/1
f 5/5/2 7/6/2 3/7/2 1/8/2
f 6/9/1 2/10/1 3/7/1 7/6/1
f 22/11/1 10/12/1 4/13/1 17/14/1
f 63/15/1 44/16/1 8/17/1 24/18/1
f 24/18/1 8/17/1 9/19/1 23/20/1
f 33/21/1 13/22/1 10/12/1 22/11/1
f 7/6/3 5/5/3 16/23/3 6/9/3
f 8/17/1 44/16/1 52/24/1 14/25/1
f 13/26/1 5/2/1 10/1/1
f 9/19/1 8/17/1 14/25/1 12/27/1
f 13/22/1 9/19/1 12/27/1 11/28/1
f 5/2/1 13/26/1 15/29/1 16/30/1
f 23/20/1 9/19/1 13/22/1 33/21/1
f 30/31/1 21/32/1 18/33/1 25/34/1
f 25/35/4 18/36/4 20/37/4 27/38/4
f 26/39/1 27/38/1 20/37/1 19/40/1
f 22/11/1 17/14/1 21/41/1 30/42/1
f 63/15/1 24/18/1 28/43/1 67/44/1
f 24/18/1 23/20/1 29/45/1 28/43/1
f 33/21/1 22/11/1 30/42/1
f 76/46/4 36/47/4 35/48/4 75/49/4
f 77/50/4 71/51/4 36/47/4 76/46/4
f 29/52/1 77/53/1 76/54/1 28/55/1
f 25/35/4 27/38/4 71/51/4 77/50/4
f 34/56/1 200/57/1 201/58/1 32/59/1
f 35/48/1 199/60/1 200/57/1 34/56/1
f 23/20/1 33/21/1 30/42/1 29/45/1
f 47/61/1 40/62/1 37/63/1 41/64/1
f 41/65/2 37/66/2 39/67/2 43/68/2
f 42/69/1 43/68/1 39/67/1 38/70/1
f 60/71/1 55/72/1 40/73/1 47/74/1
f 63/15/1 62/75/1 45/76/1 44/16/1
f 62/75/1 61/77/1 46/78/1 45/76/1
f 73/79/1 60/71/1 47/74/1 50/80/1
f 43/68/5 42/69/5 54/81/5 41/65/5
f 45/76/1 51/82/1 52/24/1 44/16/1
f 50/83/1 47/61/1 41/64/1
f 46/78/1 49/84/1 51/82/1 45/76/1
f 50/80/1 48/85/1 49/84/1 46/78/1
f 41/64/1 54/86/1 53/87/1 50/83/1
f 61/77/1 73/79/1 50/80/1 46/78/1
f 70/88/1 64/89/1 56/90/1 59/91/1
f 64/92/4 66/93/4 58/94/4 56/95/4
f 65/96/1 57/97/1 58/94/1 66/93/1
f 60/71/1 70/98/1 59/99/1 55/72/1
f 63/15/1 67/44/1 68/100/1 62/75/1
f 62/75/1 68/100/1 69/101/1 61/77/1
f 73/79/1 70/98/1 60/71/1
f 36/47/1 198/102/1 199/60/1 35/48/1
f 71/51/1 31/103/1 198/102/1 36/47/1
f 30/31/1 25/34/1 77/53/1 29/52/1
f 27/38/1 26/39/1 31/103/1 71/51/1
f 72/104/4 32/59/4 66/93/4 64/92/4
f 32/59/1 201/58/1 65/96/1 66/93/1
f 61/77/1 69/101/1 70/98/1 73/79/1
f 78/105/1 88/106/1 89/107/1 79/108/1
f 80/109/1 90/110/1 91/111/1 81/112/1
f 82/113/1 92/114/1 93/115/1 83/116/1
f 84/117/1 94/118/1 95/119/1 85/120/1
f 86/121/1 96/122/1 97/123/1 87/124/1
f 98/125/1 99/126/1 109/127/1 108/128/1
f 100/129/1 101/130/1 111/131/1 110/132/1
f 102/133/1 103/134/1 113/135/1 112/136/1
f 104/137/1 105/138/1 115/139/1 114/140/1
f 106/141/1 107/142/1 117/143/1 116/144/1
f 118/145/1 128/146/1 129/147/1 119/148/1
f 120/149/1 130/150/1 131/151/1 121/152/1
f 122/153/1 132/154/1 133/155/1 123/156/1
f 124/157/1 134/158/1 135/159/1 125/160/1
f 126/161/1 136/162/1 137/163/1 127/164/1
f 138/165/1 139/166/1 149/167/1 148/168/1
f 140/169/1 141/170/1 151/171/1 150/172/1
f 142/173/1 143/174/1 153/175/1 152/176/1
f 144/177/1 145/178/1 155/179/1 154/180/1
f 146/181/1 147/182/1 157/183/1 156/184/1
f 158/185/1 159/186/1 169/187/1 168/188/1
f 160/189/1 161/190/1 171/191/1 170/192/1
f 162/193/1 163/194/1 173/195/1 172/196/1
f 164/197/1 165/198/1 175/199/1 174/200/1
f 166/201/1 167/202/1 177/203/1 176/204/1
f 178/205/1 188/206/1 189/207/1 179/208/1
f 180/209/1 190/210/1 191/211/1 181/212/1
f 182/213/1 192/214/1 193/215/1 183/216/1
f 184/217/1 194/218/1 195/219/1 185/220/1
f 186/221/1 196/222/1 197/223/1 187/224/1
f 75/49/4 35/48/4 34/56/4 74/225/4
f 74/225/4 34/56/4 32/59/4 72/104/4
f 28/55/1 76/54/1 75/226/1 67/227/1
f 67/227/1 75/226/1 74/228/1 68/229/1
f 68/229/1 74/228/1 72/230/1 69/231/1
f 69/231/1 72/230/1 64/89/1 70/88/1
