# Blender v3.0.0 OBJ File: 'Street_4Way.blend'
# www.blender.org
mtllib Street_4Way.mtl
o Street_4Way_Cube.002
v -3.000000 0.000000 4.000000
v -4.000000 0.100000 4.000000
v -3.000000 0.100000 4.000000
v -2.800000 0.000000 4.000000
v -3.000000 0.000000 3.000000
v -4.000000 0.100000 3.000000
v -3.000000 0.100000 3.000000
v -2.800000 0.000000 1.000000
v -2.800000 0.000000 2.000000
v -2.800000 0.000000 3.000000
v -4.000000 0.000000 2.800000
v -4.000000 0.000000 2.000000
v -2.800000 0.000000 2.800000
v -4.000000 0.000000 1.000000
v -4.000000 0.000000 2.800000
v -4.000000 0.000000 3.000000
v 0.000000 0.000000 4.000000
v 3.000000 0.000000 4.000000
v 4.000000 0.100000 4.000000
v 3.000000 0.100000 4.000000
v 2.800000 0.000000 4.000000
v 0.000000 0.000000 3.000000
v 0.000000 0.000000 2.000000
v 0.000000 0.000000 1.000000
v 3.000000 0.000000 3.000000
v 4.000000 0.100000 3.000000
v 3.000000 0.100000 3.000000
v 2.800000 0.000000 1.000000
v 2.800000 0.000000 2.000000
v 2.800000 0.000000 3.000000
v 4.000000 0.000000 2.800000
v 4.000000 0.000000 2.000000
v 0.000000 0.000000 2.800000
v 2.800000 0.000000 2.800000
v 4.000000 0.000000 1.000000
v 4.000000 0.000000 2.800000
v 4.000000 0.000000 3.000000
v -3.000000 0.000000 -4.000000
v -4.000000 0.100000 -4.000000
v -3.000000 0.100000 -4.000000
v -2.800000 0.000000 -4.000000
v -3.000000 0.000000 -3.000000
v -4.000000 0.100000 -3.000000
v -3.000000 0.100000 -3.000000
v -2.800000 0.000000 0.000000
v -2.800000 0.000000 -1.000000
v -2.800000 0.000000 -2.000000
v -2.800000 0.000000 -3.000000
v -4.000000 0.000000 -2.800000
v -4.000000 0.000000 -2.000000
v -2.800000 0.000000 -2.800000
v -4.000000 0.000000 -1.000000
v -4.000000 0.000000 0.000000
v -4.000000 0.000000 -2.800000
v -4.000000 0.000000 -3.000000
v 0.000000 0.000000 -4.000000
v 3.000000 0.000000 -4.000000
v 4.000000 0.100000 -4.000000
v 3.000000 0.100000 -4.000000
v 2.800000 0.000000 -4.000000
v 0.000000 0.000000 -3.000000
v 0.000000 0.000000 -2.000000
v 0.000000 0.000000 -1.000000
v 0.000000 0.000000 0.000000
v 3.000000 0.000000 -3.000000
v 4.000000 0.100000 -3.000000
v 3.000000 0.100000 -3.000000
v 2.800000 0.000000 0.000000
v 2.800000 0.000000 -1.000000
v 2.800000 0.000000 -2.000000
v 2.800000 0.000000 -3.000000
v 4.000000 0.000000 -2.800000
v 4.000000 0.000000 -2.000000
v 0.000000 0.000000 -2.800000
v 2.800000 0.000000 -2.800000
v 4.000000 0.000000 -1.000000
v 4.000000 0.000000 0.000000
v 4.000000 0.000000 -2.800000
v 4.000000 0.000000 -3.000000
v -2.933333 0.001205 -2.309865
v -2.933333 0.001205 -2.144874
v -2.933333 0.001205 -1.814894
v -2.933333 0.001205 -1.649903
v -2.933333 0.001205 -1.319923
v -2.933333 0.001205 -1.154932
v -2.933333 0.001205 -0.824952
v -2.933333 0.001205 -0.659961
v -2.933333 0.001205 -0.329981
v -2.933333 0.001205 -0.164990
v -3.755344 0.001205 -2.309865
v -3.755344 0.001205 -2.144874
v -3.755344 0.001205 -1.814894
v -3.755344 0.001205 -1.649903
v -3.755344 0.001205 -1.319923
v -3.755344 0.001205 -1.154932
v -3.755344 0.001205 -0.824952
v -3.755344 0.001205 -0.659962
v -3.755344 0.001205 -0.329981
v -3.755344 0.001205 -0.164990
v -2.933333 0.001205 2.309864
v -2.933333 0.001205 2.144874
v -2.933333 0.001205 1.814893
v -2.933333 0.001205 1.649903
v -2.933333 0.001205 1.319922
v -2.933333 0.001205 1.154932
v -2.933333 0.001205 0.824952
v -2.933333 0.001205 0.659961
v -2.933333 0.001205 0.329981
v -2.933333 0.001205 0.164990
v -3.755344 0.001205 2.309864
v -3.755344 0.001205 2.144874
v -3.755344 0.001205 1.814893
v -3.755344 0.001205 1.649903
v -3.755344 0.001205 1.319922
v -3.755344 0.001205 1.154932
v -3.755344 0.001205 0.824951
v -3.755344 0.001205 0.659961
v -3.755344 0.001205 0.329980
v -3.755344 0.001205 0.164990
v 2.933333 0.001205 -2.309864
v 2.933333 0.001205 -2.144874
v 2.933333 0.001205 -1.814893
v 2.933333 0.001205 -1.649903
v 2.933333 0.001205 -1.319922
v 2.933333 0.001205 -1.154932
v 2.933333 0.001205 -0.824952
v 2.933333 0.001205 -0.659961
v 2.933333 0.001205 -0.329981
v 2.933333 0.001205 -0.164990
v 3.755344 0.001205 -2.309864
v 3.755344 0.001205 -2.144874
v 3.755344 0.001205 -1.814893
v 3.755344 0.001205 -1.649903
v 3.755344 0.001205 -1.319922
v 3.755344 0.001205 -1.154932
v 3.755344 0.001205 -0.824951
v 3.755344 0.001205 -0.659961
v 3.755344 0.001205 -0.329980
v 3.755344 0.001205 -0.164990
v 2.933333 0.001205 2.309865
v 2.933333 0.001205 2.144874
v 2.933333 0.001205 1.814894
v 2.933333 0.001205 1.649903
v 2.933333 0.001205 1.319923
v 2.933333 0.001205 1.154932
v 2.933333 0.001205 0.824952
v 2.933333 0.001205 0.659961
v 2.933333 0.001205 0.329981
v 2.933333 0.001205 0.164990
v 3.755344 0.001205 2.309865
v 3.755344 0.001205 2.144874
v 3.755344 0.001205 1.814894
v 3.755344 0.001205 1.649903
v 3.755344 0.001205 1.319923
v 3.755344 0.001205 1.154932
v 3.755344 0.001205 0.824952
v 3.755344 0.001205 0.659962
v 3.755344 0.001205 0.329981
v 3.755344 0.001205 0.164990
v -2.309865 0.001205 2.933333
v -2.144874 0.001205 2.933333
v -1.814893 0.001205 2.933333
v -1.649903 0.001205 2.933333
v -1.319923 0.001205 2.933333
v -1.154932 0.001205 2.933333
v -0.824952 0.001205 2.933333
v -0.659961 0.001205 2.933333
v -0.329981 0.001205 2.933333
v -0.164990 0.001205 2.933333
v -2.309865 0.001205 3.755344
v -2.144874 0.001205 3.755344
v -1.814893 0.001205 3.755344
v -1.649903 0.001205 3.755344
v -1.319923 0.001205 3.755344
v -1.154932 0.001205 3.755344
v -0.824952 0.001205 3.755344
v -0.659961 0.001205 3.755344
v -0.329981 0.001205 3.755344
v -0.164990 0.001205 3.755344
v 2.309865 0.001205 2.933333
v 2.144874 0.001205 2.933333
v 1.814893 0.001205 2.933333
v 1.649903 0.001205 2.933333
v 1.319923 0.001205 2.933333
v 1.154932 0.001205 2.933333
v 0.824952 0.001205 2.933333
v 0.659961 0.001205 2.933333
v 0.329981 0.001205 2.933333
v 0.164990 0.001205 2.933333
v 2.309865 0.001205 3.755344
v 2.144874 0.001205 3.755344
v 1.814893 0.001205 3.755344
v 1.649903 0.001205 3.755344
v 1.319923 0.001205 3.755344
v 1.154932 0.001205 3.755344
v 0.824952 0.001205 3.755344
v 0.659961 0.001205 3.755344
v 0.329981 0.001205 3.755344
v 0.164990 0.001205 3.755344
v -2.309865 0.001205 -2.933333
v -2.144874 0.001205 -2.933333
v -1.814893 0.001205 -2.933333
v -1.649903 0.001205 -2.933333
v -1.319923 0.001205 -2.933333
v -1.154932 0.001205 -2.933333
v -0.824952 0.001205 -2.933333
v -0.659961 0.001205 -2.933333
v -0.329981 0.001205 -2.933333
v -0.164990 0.001205 -2.933333
v -2.309865 0.001205 -3.755344
v -2.144874 0.001205 -3.755344
v -1.814893 0.001205 -3.755344
v -1.649903 0.001205 -3.755344
v -1.319923 0.001205 -3.755344
v -1.154932 0.001205 -3.755344
v -0.824952 0.001205 -3.755344
v -0.659961 0.001205 -3.755344
v -0.329981 0.001205 -3.755344
v -0.164990 0.001205 -3.755344
v 2.309865 0.001205 -2.933333
v 2.144874 0.001205 -2.933333
v 1.814893 0.001205 -2.933333
v 1.649903 0.001205 -2.933333
v 1.319923 0.001205 -2.933333
v 1.154932 0.001205 -2.933333
v 0.824952 0.001205 -2.933333
v 0.659961 0.001205 -2.933333
v 0.329981 0.001205 -2.933333
v 0.164990 0.001205 -2.933333
v 2.309865 0.001205 -3.755344
v 2.144874 0.001205 -3.755344
v 1.814893 0.001205 -3.755344
v 1.649903 0.001205 -3.755344
v 1.319923 0.001205 -3.755344
v 1.154932 0.001205 -3.755344
v 0.824952 0.001205 -3.755344
v 0.659961 0.001205 -3.755344
v 0.329981 0.001205 -3.755344
v 0.164990 0.001205 -3.755344
vt 0.077976 0.048446
vt 0.077976 0.048446
vt 0.077976 0.048446
vt 0.077976 0.048446
vt 0.047216 0.049677
vt 0.047216 0.049677
vt 0.047216 0.049677
vt 0.047216 0.049677
vt 0.047216 0.049677
vt 0.047216 0.049677
vt 0.016456 0.052137
vt 0.016456 0.052137
vt 0.016456 0.052137
vt 0.016456 0.052137
vt 0.016456 0.052137
vt 0.016456 0.052137
vt 0.016456 0.052137
vt 0.016456 0.052137
vt 0.016456 0.052137
vt 0.016456 0.052137
vt 0.016456 0.052137
vt 0.016456 0.052137
vt 0.047216 0.049677
vt 0.016456 0.052137
vt 0.016456 0.052137
vt 0.077976 0.048446
vt 0.016456 0.052137
vt 0.016456 0.052137
vt 0.077976 0.048446
vt 0.077976 0.048446
vt 0.077976 0.048446
vt 0.077976 0.048446
vt 0.077976 0.048446
vt 0.077976 0.048446
vt 0.047216 0.049677
vt 0.047216 0.049677
vt 0.047216 0.049677
vt 0.047216 0.049677
vt 0.047216 0.049677
vt 0.047216 0.049677
vt 0.016456 0.052137
vt 0.016456 0.052137
vt 0.016456 0.052137
vt 0.016456 0.052137
vt 0.016456 0.052137
vt 0.016456 0.052137
vt 0.047216 0.049677
vt 0.016456 0.052137
vt 0.016456 0.052137
vt 0.077976 0.048446
vt 0.016456 0.052137
vt 0.016456 0.052137
vt 0.077976 0.048446
vt 0.077976 0.048446
vt 0.077976 0.048446
vt 0.077976 0.048446
vt 0.077976 0.048446
vt 0.077976 0.048446
vt 0.047216 0.049677
vt 0.047216 0.049677
vt 0.047216 0.049677
vt 0.047216 0.049677
vt 0.047216 0.049677
vt 0.047216 0.049677
vt 0.016456 0.052137
vt 0.016456 0.052137
vt 0.016456 0.052137
vt 0.016456 0.052137
vt 0.016456 0.052137
vt 0.016456 0.052137
vt 0.016456 0.052137
vt 0.016456 0.052137
vt 0.016456 0.052137
vt 0.016456 0.052137
vt 0.047216 0.049677
vt 0.016456 0.052137
vt 0.077976 0.048446
vt 0.016456 0.052137
vt 0.016456 0.052137
vt 0.077976 0.048446
vt 0.077976 0.048446
vt 0.077976 0.048446
vt 0.077976 0.048446
vt 0.077976 0.048446
vt 0.077976 0.048446
vt 0.047216 0.049677
vt 0.047216 0.049677
vt 0.047216 0.049677
vt 0.047216 0.049677
vt 0.047216 0.049677
vt 0.047216 0.049677
vt 0.016456 0.052137
vt 0.016456 0.052137
vt 0.016456 0.052137
vt 0.016456 0.052137
vt 0.016456 0.052137
vt 0.047216 0.049677
vt 0.016456 0.052137
vt 0.077976 0.048446
vt 0.016456 0.052137
vt 0.016456 0.052137
vt 0.077976 0.048446
vt 0.077976 0.048446
vt 0.047216 0.049677
vt 0.047216 0.049677
vt 0.047216 0.049677
vt 0.047216 0.049677
vt 0.047216 0.049677
vt 0.047216 0.049677
vt 0.047216 0.049677
vt 0.047216 0.049677
vt 0.047216 0.049677
vt 0.047216 0.049677
vt 0.047216 0.049677
vt 0.047216 0.049677
vt 0.047216 0.049677
vt 0.047216 0.049677
vt 0.047216 0.049677
vt 0.047216 0.049677
vt 0.047216 0.049677
vt 0.047216 0.049677
vt 0.047216 0.049677
vt 0.047216 0.049677
vt 0.047216 0.049677
vt 0.047216 0.049677
vt 0.047216 0.049677
vt 0.047216 0.049677
vt 0.047216 0.049677
vt 0.047216 0.049677
vt 0.047216 0.049677
vt 0.047216 0.049677
vt 0.047216 0.049677
vt 0.047216 0.049677
vt 0.047216 0.049677
vt 0.047216 0.049677
vt 0.047216 0.049677
vt 0.047216 0.049677
vt 0.047216 0.049677
vt 0.047216 0.049677
vt 0.047216 0.049677
vt 0.047216 0.049677
vt 0.047216 0.049677
vt 0.047216 0.049677
vt 0.047216 0.049677
vt 0.047216 0.049677
vt 0.047216 0.049677
vt 0.047216 0.049677
vt 0.047216 0.049677
vt 0.047216 0.049677
vt 0.047216 0.049677
vt 0.047216 0.049677
vt 0.047216 0.049677
vt 0.047216 0.049677
vt 0.047216 0.049677
vt 0.047216 0.049677
vt 0.047216 0.049677
vt 0.047216 0.049677
vt 0.047216 0.049677
vt 0.047216 0.049677
vt 0.047216 0.049677
vt 0.047216 0.049677
vt 0.047216 0.049677
vt 0.047216 0.049677
vt 0.047216 0.049677
vt 0.047216 0.049677
vt 0.047216 0.049677
vt 0.047216 0.049677
vt 0.047216 0.049677
vt 0.047216 0.049677
vt 0.047216 0.049677
vt 0.047216 0.049677
vt 0.047216 0.049677
vt 0.047216 0.049677
vt 0.047216 0.049677
vt 0.047216 0.049677
vt 0.047216 0.049677
vt 0.047216 0.049677
vt 0.047216 0.049677
vt 0.047216 0.049677
vt 0.047216 0.049677
vt 0.047216 0.049677
vt 0.047216 0.049677
vt 0.047216 0.049677
vt 0.047216 0.049677
vt 0.047216 0.049677
vt 0.047216 0.049677
vt 0.047216 0.049677
vt 0.047216 0.049677
vt 0.047216 0.049677
vt 0.047216 0.049677
vt 0.047216 0.049677
vt 0.047216 0.049677
vt 0.047216 0.049677
vt 0.047216 0.049677
vt 0.047216 0.049677
vt 0.047216 0.049677
vt 0.047216 0.049677
vt 0.047216 0.049677
vt 0.047216 0.049677
vt 0.047216 0.049677
vt 0.047216 0.049677
vt 0.047216 0.049677
vt 0.047216 0.049677
vt 0.047216 0.049677
vt 0.047216 0.049677
vt 0.047216 0.049677
vt 0.047216 0.049677
vt 0.047216 0.049677
vt 0.047216 0.049677
vt 0.047216 0.049677
vt 0.047216 0.049677
vt 0.047216 0.049677
vt 0.047216 0.049677
vt 0.047216 0.049677
vt 0.047216 0.049677
vt 0.047216 0.049677
vt 0.047216 0.049677
vt 0.047216 0.049677
vt 0.047216 0.049677
vt 0.047216 0.049677
vt 0.047216 0.049677
vt 0.047216 0.049677
vt 0.047216 0.049677
vt 0.047216 0.049677
vt 0.047216 0.049677
vt 0.047216 0.049677
vt 0.047216 0.049677
vt 0.047216 0.049677
vt 0.047216 0.049677
vt 0.047216 0.049677
vt 0.047216 0.049677
vt 0.047216 0.049677
vt 0.047216 0.049677
vt 0.047216 0.049677
vt 0.047216 0.049677
vt 0.047216 0.049677
vt 0.047216 0.049677
vt 0.047216 0.049677
vt 0.047216 0.049677
vt 0.047216 0.049677
vt 0.047216 0.049677
vt 0.047216 0.049677
vt 0.047216 0.049677
vt 0.047216 0.049677
vt 0.047216 0.049677
vt 0.047216 0.049677
vt 0.047216 0.049677
vt 0.047216 0.049677
vt 0.047216 0.049677
vt 0.047216 0.049677
vt 0.047216 0.049677
vt 0.047216 0.049677
vt 0.047216 0.049677
vt 0.047216 0.049677
vt 0.047216 0.049677
vt 0.047216 0.049677
vt 0.047216 0.049677
vt 0.047216 0.049677
vt 0.047216 0.049677
vt 0.047216 0.049677
vt 0.047216 0.049677
vt 0.047216 0.049677
vt 0.047216 0.049677
vn 0.0000 1.0000 0.0000
vn 1.0000 0.0000 0.0000
vn 0.0000 0.0000 -1.0000
vn -1.0000 0.0000 0.0000
vn 0.0000 0.0000 1.0000
usemtl Atlas
s off
f 10/1/1 5/2/1 1/3/1 4/4/1
f 5/5/2 7/6/2 3/7/2 1/8/2
f 6/9/1 2/10/1 3/7/1 7/6/1
f 22/11/1 10/12/1 4/13/1 17/14/1
f 64/15/1 45/16/1 8/17/1 24/18/1
f 24/18/1 8/17/1 9/19/1 23/20/1
f 33/21/1 13/22/1 10/12/1 22/11/1
f 7/6/3 5/5/3 16/23/3 6/9/3
f 8/17/1 45/16/1 53/24/1 14/25/1
f 13/26/1 5/2/1 10/1/1
f 9/19/1 8/17/1 14/25/1 12/27/1
f 13/22/1 9/19/1 12/27/1 11/28/1
f 5/2/1 13/26/1 15/29/1 16/30/1
f 23/20/1 9/19/1 13/22/1 33/21/1
f 30/31/1 21/32/1 18/33/1 25/34/1
f 25/35/4 18/36/4 20/37/4 27/38/4
f 26/39/1 27/38/1 20/37/1 19/40/1
f 22/11/1 17/14/1 21/41/1 30/42/1
f 64/15/1 24/18/1 28/43/1 68/44/1
f 24/18/1 23/20/1 29/45/1 28/43/1
f 33/21/1 22/11/1 30/42/1 34/46/1
f 27/38/3 26/39/3 37/47/3 25/35/3
f 28/43/1 35/48/1 77/49/1 68/44/1
f 34/50/1 30/31/1 25/34/1
f 29/45/1 32/51/1 35/48/1 28/43/1
f 34/46/1 31/52/1 32/51/1 29/45/1
f 25/34/1 37/53/1 36/54/1 34/50/1
f 23/20/1 33/21/1 34/46/1 29/45/1
f 48/55/1 41/56/1 38/57/1 42/58/1
f 42/59/2 38/60/2 40/61/2 44/62/2
f 43/63/1 44/62/1 40/61/1 39/64/1
f 61/65/1 56/66/1 41/67/1 48/68/1
f 64/15/1 63/69/1 46/70/1 45/16/1
f 63/69/1 62/71/1 47/72/1 46/70/1
f 74/73/1 61/65/1 48/68/1 51/74/1
f 44/62/5 43/63/5 55/75/5 42/59/5
f 46/70/1 52/76/1 53/24/1 45/16/1
f 51/77/1 48/55/1 42/58/1
f 47/72/1 50/78/1 52/76/1 46/70/1
f 51/74/1 49/79/1 50/78/1 47/72/1
f 42/58/1 55/80/1 54/81/1 51/77/1
f 62/71/1 74/73/1 51/74/1 47/72/1
f 71/82/1 65/83/1 57/84/1 60/85/1
f 65/86/4 67/87/4 59/88/4 57/89/4
f 66/90/1 58/91/1 59/88/1 67/87/1
f 61/65/1 71/92/1 60/93/1 56/66/1
f 64/15/1 68/44/1 69/94/1 63/69/1
f 63/69/1 69/94/1 70/95/1 62/71/1
f 74/73/1 75/96/1 71/92/1 61/65/1
f 67/87/5 65/86/5 79/97/5 66/90/5
f 69/94/1 68/44/1 77/49/1 76/98/1
f 75/99/1 65/83/1 71/82/1
f 70/95/1 69/94/1 76/98/1 73/100/1
f 75/96/1 70/95/1 73/100/1 72/101/1
f 65/83/1 75/99/1 78/102/1 79/103/1
f 62/71/1 70/95/1 75/96/1 74/73/1
f 80/104/1 90/105/1 91/106/1 81/107/1
f 82/108/1 92/109/1 93/110/1 83/111/1
f 84/112/1 94/113/1 95/114/1 85/115/1
f 86/116/1 96/117/1 97/118/1 87/119/1
f 88/120/1 98/121/1 99/122/1 89/123/1
f 100/124/1 101/125/1 111/126/1 110/127/1
f 102/128/1 103/129/1 113/130/1 112/131/1
f 104/132/1 105/133/1 115/134/1 114/135/1
f 106/136/1 107/137/1 117/138/1 116/139/1
f 108/140/1 109/141/1 119/142/1 118/143/1
f 120/144/1 121/145/1 131/146/1 130/147/1
f 122/148/1 123/149/1 133/150/1 132/151/1
f 124/152/1 125/153/1 135/154/1 134/155/1
f 126/156/1 127/157/1 137/158/1 136/159/1
f 128/160/1 129/161/1 139/162/1 138/163/1
f 140/164/1 150/165/1 151/166/1 141/167/1
f 142/168/1 152/169/1 153/170/1 143/171/1
f 144/172/1 154/173/1 155/174/1 145/175/1
f 146/176/1 156/177/1 157/178/1 147/179/1
f 148/180/1 158/181/1 159/182/1 149/183/1
f 160/184/1 170/185/1 171/186/1 161/187/1
f 162/188/1 172/189/1 173/190/1 163/191/1
f 164/192/1 174/193/1 175/194/1 165/195/1
f 166/196/1 176/197/1 177/198/1 167/199/1
f 168/200/1 178/201/1 179/202/1 169/203/1
f 180/204/1 181/205/1 191/206/1 190/207/1
f 182/208/1 183/209/1 193/210/1 192/211/1
f 184/212/1 185/213/1 195/214/1 194/215/1
f 186/216/1 187/217/1 197/218/1 196/219/1
f 188/220/1 189/221/1 199/222/1 198/223/1
f 200/224/1 201/225/1 211/226/1 210/227/1
f 202/228/1 203/229/1 213/230/1 212/231/1
f 204/232/1 205/233/1 215/234/1 214/235/1
f 206/236/1 207/237/1 217/238/1 216/239/1
f 208/240/1 209/241/1 219/242/1 218/243/1
f 220/244/1 230/245/1 231/246/1 221/247/1
f 222/248/1 232/249/1 233/250/1 223/251/1
f 224/252/1 234/253/1 235/254/1 225/255/1
f 226/256/1 236/257/1 237/258/1 227/259/1
f 228/260/1 238/261/1 239/262/1 229/263/1
