# Blender v3.0.0 OBJ File: 'Street_Straight.blend'
# www.blender.org
mtllib Street_Straight.mtl
o Street_Straight_Cube.030
v -4.000000 0.000000 4.000000
v -4.000000 0.000000 -4.000000
v -3.000000 0.000000 -4.000000
v -3.000000 0.000000 4.000000
v -4.000000 0.100000 -4.000000
v -4.000000 0.100000 4.000000
v -3.000000 0.100000 4.000000
v -3.000000 0.100000 -4.000000
v -2.800000 0.000000 -4.000000
v -2.800000 0.000000 4.000000
v -0.050000 0.001205 3.466667
v -0.050000 0.001205 2.933333
v -0.050000 0.001205 1.866667
v -0.050000 0.001205 1.333333
v -0.050000 0.001205 0.266667
v -0.050000 0.001205 -0.266667
v -0.050000 0.001205 -1.333333
v -0.050000 0.001205 -1.866667
v -0.050000 0.001205 -2.933333
v -0.050000 0.001205 -3.466667
v -4.000000 0.000000 -3.000000
v -4.000000 0.000000 -2.000000
v -4.000000 0.000000 -1.000000
v -4.000000 0.000000 0.000000
v -4.000000 0.000000 1.000000
v -4.000000 0.000000 2.000000
v -4.000000 0.000000 3.000000
v -3.000000 0.000000 3.000000
v -3.000000 0.000000 2.000000
v -3.000000 0.000000 1.000000
v -3.000000 0.000000 0.000000
v -3.000000 0.000000 -1.000000
v -3.000000 0.000000 -2.000000
v -3.000000 0.000000 -3.000000
v -4.000000 0.100000 -3.000000
v -4.000000 0.100000 -2.000000
v -4.000000 0.100000 -1.000000
v -4.000000 0.100000 0.000000
v -4.000000 0.100000 1.000000
v -4.000000 0.100000 2.000000
v -4.000000 0.100000 3.000000
v -3.000000 0.100000 3.000000
v -3.000000 0.100000 2.000000
v -3.000000 0.100000 1.000000
v -3.000000 0.100000 0.000000
v -3.000000 0.100000 -1.000000
v -3.000000 0.100000 -2.000000
v -3.000000 0.100000 -3.000000
v -2.800000 0.000000 -3.000000
v -2.800000 0.000000 -2.000000
v -2.800000 0.000000 -1.000000
v -2.800000 0.000000 0.000000
v -2.800000 0.000000 1.000000
v -2.800000 0.000000 2.000000
v -2.800000 0.000000 3.000000
v -4.000000 0.120000 -3.000000
v -4.000000 0.120000 -2.000000
v -4.000000 0.120000 -1.000000
v -4.000000 0.120000 1.000000
v -4.000000 0.120000 2.000000
v -4.000000 0.120000 3.000000
v -3.000000 0.120000 3.000000
v -3.000000 0.120000 2.000000
v -3.000000 0.120000 1.000000
v -3.000000 0.120000 -1.000000
v -3.000000 0.120000 -2.000000
v -3.000000 0.120000 -3.000000
v 4.000000 0.000000 4.000000
v 4.000000 0.000000 -4.000000
v 0.000000 0.000000 4.000000
v 0.000000 0.000000 -4.000000
v 3.000000 0.000000 -4.000000
v 3.000000 0.000000 4.000000
v 4.000000 0.100000 -4.000000
v 4.000000 0.100000 4.000000
v 3.000000 0.100000 4.000000
v 3.000000 0.100000 -4.000000
v 2.800000 0.000000 -4.000000
v 2.800000 0.000000 4.000000
v 0.050000 0.001205 3.466667
v 0.050000 0.001205 2.933333
v 0.050000 0.001205 1.866667
v 0.050000 0.001205 1.333333
v 0.050000 0.001205 0.266667
v 0.050000 0.001205 -0.266667
v 0.050000 0.001205 -1.333333
v 0.050000 0.001205 -1.866667
v 0.050000 0.001205 -2.933333
v 0.050000 0.001205 -3.466667
v 0.000000 0.001205 3.466667
v 0.000000 0.001205 2.933333
v 0.000000 0.001205 1.866667
v 0.000000 0.001205 1.333333
v 0.000000 0.001205 0.266667
v 0.000000 0.001205 -0.266667
v 0.000000 0.001205 -1.333333
v 0.000000 0.001205 -1.866667
v 0.000000 0.001205 -2.933333
v 0.000000 0.001205 -3.466667
v 4.000000 0.000000 -3.000000
v 4.000000 0.000000 -2.000000
v 4.000000 0.000000 -1.000000
v 4.000000 0.000000 0.000000
v 4.000000 0.000000 1.000000
v 4.000000 0.000000 2.000000
v 4.000000 0.000000 3.000000
v 0.000000 0.000000 3.000000
v 0.000000 0.000000 2.000000
v 0.000000 0.000000 1.000000
v 0.000000 0.000000 0.000000
v 0.000000 0.000000 -1.000000
v 0.000000 0.000000 -2.000000
v 0.000000 0.000000 -3.000000
v 3.000000 0.000000 3.000000
v 3.000000 0.000000 2.000000
v 3.000000 0.000000 1.000000
v 3.000000 0.000000 0.000000
v 3.000000 0.000000 -1.000000
v 3.000000 0.000000 -2.000000
v 3.000000 0.000000 -3.000000
v 4.000000 0.100000 -3.000000
v 4.000000 0.100000 -2.000000
v 4.000000 0.100000 -1.000000
v 4.000000 0.100000 0.000000
v 4.000000 0.100000 1.000000
v 4.000000 0.100000 2.000000
v 4.000000 0.100000 3.000000
v 3.000000 0.100000 3.000000
v 3.000000 0.100000 2.000000
v 3.000000 0.100000 1.000000
v 3.000000 0.100000 0.000000
v 3.000000 0.100000 -1.000000
v 3.000000 0.100000 -2.000000
v 3.000000 0.100000 -3.000000
v 2.800000 0.000000 -3.000000
v 2.800000 0.000000 -2.000000
v 2.800000 0.000000 -1.000000
v 2.800000 0.000000 0.000000
v 2.800000 0.000000 1.000000
v 2.800000 0.000000 2.000000
v 2.800000 0.000000 3.000000
v 4.000000 0.120000 -3.000000
v 4.000000 0.120000 -2.000000
v 4.000000 0.120000 -1.000000
v 4.000000 0.120000 1.000000
v 4.000000 0.120000 2.000000
v 4.000000 0.120000 3.000000
v 3.000000 0.120000 3.000000
v 3.000000 0.120000 2.000000
v 3.000000 0.120000 1.000000
v 3.000000 0.120000 -1.000000
v 3.000000 0.120000 -2.000000
v 3.000000 0.120000 -3.000000
vt 0.079206 0.047216
vt 0.079206 0.047216
vt 0.079206 0.047216
vt 0.079206 0.047216
vt 0.047216 0.049677
vt 0.047216 0.049677
vt 0.047216 0.049677
vt 0.047216 0.049677
vt 0.047216 0.049677
vt 0.047216 0.049677
vt 0.047216 0.049677
vt 0.047216 0.049677
vt 0.047216 0.049677
vt 0.047216 0.049677
vt 0.016456 0.049677
vt 0.016456 0.049677
vt 0.016456 0.049677
vt 0.016456 0.049677
vt 0.047216 0.049677
vt 0.047216 0.049677
vt 0.047216 0.049677
vt 0.047216 0.049677
vt 0.047216 0.049677
vt 0.047216 0.049677
vt 0.047216 0.049677
vt 0.047216 0.049677
vt 0.047216 0.049677
vt 0.047216 0.049677
vt 0.047216 0.049677
vt 0.047216 0.049677
vt 0.047216 0.049677
vt 0.047216 0.049677
vt 0.047216 0.049677
vt 0.047216 0.049677
vt 0.047216 0.049677
vt 0.047216 0.049677
vt 0.047216 0.049677
vt 0.047216 0.049677
vt 0.016456 0.049677
vt 0.016456 0.049677
vt 0.016456 0.049677
vt 0.016456 0.049677
vt 0.016456 0.049677
vt 0.016456 0.049677
vt 0.016456 0.049677
vt 0.016456 0.049677
vt 0.016456 0.049677
vt 0.016456 0.049677
vt 0.016456 0.049677
vt 0.016456 0.049677
vt 0.016456 0.049677
vt 0.016456 0.049677
vt 0.047216 0.049677
vt 0.047216 0.049677
vt 0.047216 0.049677
vt 0.047216 0.049677
vt 0.047216 0.049677
vt 0.047216 0.049677
vt 0.047216 0.049677
vt 0.047216 0.049677
vt 0.047216 0.049677
vt 0.047216 0.049677
vt 0.047216 0.049677
vt 0.047216 0.049677
vt 0.047216 0.049677
vt 0.047216 0.049677
vt 0.047216 0.049677
vt 0.047216 0.049677
vt 0.047216 0.049677
vt 0.047216 0.049677
vt 0.047216 0.049677
vt 0.047216 0.049677
vt 0.047216 0.049677
vt 0.047216 0.049677
vt 0.047216 0.049677
vt 0.047216 0.049677
vt 0.047216 0.049677
vt 0.047216 0.049677
vt 0.047216 0.049677
vt 0.047216 0.049677
vt 0.047216 0.049677
vt 0.047216 0.049677
vt 0.047216 0.049677
vt 0.047216 0.049677
vt 0.047216 0.049677
vt 0.079206 0.047216
vt 0.079206 0.047216
vt 0.079206 0.047216
vt 0.079206 0.047216
vt 0.079206 0.047216
vt 0.079206 0.047216
vt 0.079206 0.047216
vt 0.079206 0.047216
vt 0.079206 0.047216
vt 0.079206 0.047216
vt 0.079206 0.047216
vt 0.079206 0.047216
vt 0.079206 0.047216
vt 0.079206 0.047216
vt 0.047216 0.049677
vt 0.047216 0.049677
vt 0.047216 0.049677
vt 0.047216 0.049677
vt 0.047216 0.049677
vt 0.079206 0.047216
vt 0.079206 0.047216
vt 0.079206 0.047216
vt 0.079206 0.047216
vt 0.047216 0.049677
vt 0.047216 0.049677
vt 0.047216 0.049677
vt 0.047216 0.049677
vt 0.047216 0.049677
vt 0.047216 0.049677
vt 0.047216 0.049677
vt 0.047216 0.049677
vt 0.047216 0.049677
vt 0.047216 0.049677
vt 0.016456 0.049677
vt 0.016456 0.049677
vt 0.047216 0.049677
vt 0.047216 0.049677
vt 0.047216 0.049677
vt 0.047216 0.049677
vt 0.047216 0.049677
vt 0.047216 0.049677
vt 0.047216 0.049677
vt 0.047216 0.049677
vt 0.047216 0.049677
vt 0.047216 0.049677
vt 0.016456 0.049677
vt 0.016456 0.049677
vt 0.016456 0.049677
vt 0.016456 0.049677
vt 0.016456 0.049677
vt 0.016456 0.049677
vt 0.016456 0.049677
vt 0.047216 0.049677
vt 0.047216 0.049677
vt 0.047216 0.049677
vt 0.047216 0.049677
vt 0.047216 0.049677
vt 0.047216 0.049677
vt 0.047216 0.049677
vt 0.047216 0.049677
vt 0.047216 0.049677
vt 0.047216 0.049677
vt 0.047216 0.049677
vt 0.047216 0.049677
vt 0.047216 0.049677
vt 0.047216 0.049677
vt 0.047216 0.049677
vt 0.047216 0.049677
vt 0.047216 0.049677
vt 0.047216 0.049677
vt 0.047216 0.049677
vt 0.047216 0.049677
vt 0.047216 0.049677
vt 0.047216 0.049677
vt 0.047216 0.049677
vt 0.047216 0.049677
vt 0.047216 0.049677
vt 0.047216 0.049677
vt 0.047216 0.049677
vt 0.047216 0.049677
vt 0.047216 0.049677
vt 0.047216 0.049677
vt 0.047216 0.049677
vt 0.047216 0.049677
vt 0.047216 0.049677
vt 0.079206 0.047216
vt 0.079206 0.047216
vt 0.079206 0.047216
vt 0.079206 0.047216
vt 0.079206 0.047216
vt 0.079206 0.047216
vt 0.079206 0.047216
vt 0.079206 0.047216
vt 0.079206 0.047216
vt 0.079206 0.047216
vt 0.079206 0.047216
vt 0.079206 0.047216
vt 0.079206 0.047216
vt 0.079206 0.047216
vt 0.047216 0.049677
vt 0.047216 0.049677
vt 0.047216 0.049677
vt 0.047216 0.049677
vt 0.047216 0.049677
vn 0.0000 1.0000 0.0000
vn 1.0000 0.0000 0.0000
vn -1.0000 0.0000 0.0000
vn 0.0000 0.0000 1.0000
vn 0.0000 0.0000 -1.0000
usemtl Atlas
s off
f 55/1/1 28/2/1 4/3/1 10/4/1
f 28/5/2 42/6/2 7/7/2 4/8/2
f 41/9/1 6/10/1 7/7/1 42/6/1
f 21/11/3 35/12/3 5/13/3 2/14/3
f 107/15/1 55/16/1 10/17/1 70/18/1
f 20/19/1 19/20/1 98/21/1 99/22/1
f 18/23/1 17/24/1 96/25/1 97/26/1
f 16/27/1 15/28/1 94/29/1 95/30/1
f 14/31/1 13/32/1 92/33/1 93/34/1
f 12/35/1 11/36/1 90/37/1 91/38/1
f 71/39/1 9/40/1 49/41/1 113/42/1
f 113/42/1 49/41/1 50/43/1 112/44/1
f 112/44/1 50/43/1 51/45/1 111/46/1
f 111/46/1 51/45/1 52/47/1 110/48/1
f 110/48/1 52/47/1 53/49/1 109/50/1
f 109/50/1 53/49/1 54/51/1 108/52/1
f 108/52/1 54/51/1 55/16/1 107/15/1
f 1/53/3 6/10/3 41/9/3 27/54/3
f 27/54/3 41/9/3 40/55/3 26/56/3
f 26/56/3 40/55/3 39/57/3 25/58/3
f 25/58/3 39/57/3 38/59/3 24/60/3
f 24/60/3 38/59/3 37/61/3 23/62/3
f 23/62/3 37/61/3 36/63/3 22/64/3
f 22/64/3 36/63/3 35/12/3 21/11/3
f 5/13/1 35/12/1 48/65/1 8/66/1
f 41/9/4 42/6/4 62/67/4 61/68/4
f 37/61/4 46/69/4 65/70/4 58/71/4
f 37/61/1 38/59/1 45/72/1 46/69/1
f 38/59/1 39/57/1 44/73/1 45/72/1
f 47/74/2 48/65/2 67/75/2 66/76/2
f 40/55/3 41/9/3 61/68/3 60/77/3
f 3/78/2 8/66/2 48/65/2 34/79/2
f 34/79/2 48/65/2 47/74/2 33/80/2
f 33/80/2 47/74/2 46/69/2 32/81/2
f 32/81/2 46/69/2 45/72/2 31/82/2
f 31/82/2 45/72/2 44/73/2 30/83/2
f 30/83/2 44/73/2 43/84/2 29/85/2
f 29/85/2 43/84/2 42/6/2 28/5/2
f 9/86/1 3/87/1 34/88/1 49/89/1
f 49/89/1 34/88/1 33/90/1 50/91/1
f 50/91/1 33/90/1 32/92/1 51/93/1
f 51/93/1 32/92/1 31/94/1 52/95/1
f 52/95/1 31/94/1 30/96/1 53/97/1
f 53/97/1 30/96/1 29/98/1 54/99/1
f 54/99/1 29/98/1 28/2/1 55/1/1
f 56/100/1 57/101/1 66/76/1 67/75/1
f 57/101/1 58/71/1 65/70/1 66/76/1
f 59/102/1 60/77/1 63/103/1 64/104/1
f 60/77/1 61/68/1 62/67/1 63/103/1
f 35/12/3 36/63/3 57/101/3 56/100/3
f 48/65/5 35/12/5 56/100/5 67/75/5
f 42/6/2 43/84/2 63/103/2 62/67/2
f 44/73/5 39/57/5 59/102/5 64/104/5
f 39/57/3 40/55/3 60/77/3 59/102/3
f 46/69/2 47/74/2 66/76/2 65/70/2
f 36/63/3 37/61/3 58/71/3 57/101/3
f 43/84/2 44/73/2 64/104/2 63/103/2
f 141/105/1 79/106/1 73/107/1 114/108/1
f 114/109/3 73/110/3 76/111/3 128/112/3
f 127/113/1 128/112/1 76/111/1 75/114/1
f 100/115/2 69/116/2 74/117/2 121/118/2
f 107/15/1 70/18/1 79/119/1 141/120/1
f 89/121/1 99/22/1 98/21/1 88/122/1
f 87/123/1 97/26/1 96/25/1 86/124/1
f 85/125/1 95/30/1 94/29/1 84/126/1
f 83/127/1 93/34/1 92/33/1 82/128/1
f 81/129/1 91/38/1 90/37/1 80/130/1
f 71/39/1 113/42/1 135/131/1 78/132/1
f 113/42/1 112/44/1 136/133/1 135/131/1
f 112/44/1 111/46/1 137/134/1 136/133/1
f 111/46/1 110/48/1 138/135/1 137/134/1
f 110/48/1 109/50/1 139/136/1 138/135/1
f 109/50/1 108/52/1 140/137/1 139/136/1
f 108/52/1 107/15/1 141/120/1 140/137/1
f 68/138/2 106/139/2 127/113/2 75/114/2
f 106/139/2 105/140/2 126/141/2 127/113/2
f 105/140/2 104/142/2 125/143/2 126/141/2
f 104/142/2 103/144/2 124/145/2 125/143/2
f 103/144/2 102/146/2 123/147/2 124/145/2
f 102/146/2 101/148/2 122/149/2 123/147/2
f 101/148/2 100/115/2 121/118/2 122/149/2
f 74/117/1 77/150/1 134/151/1 121/118/1
f 127/113/4 147/152/4 148/153/4 128/112/4
f 123/147/4 144/154/4 151/155/4 132/156/4
f 123/147/1 132/156/1 131/157/1 124/145/1
f 124/145/1 131/157/1 130/158/1 125/143/1
f 133/159/3 152/160/3 153/161/3 134/151/3
f 126/141/2 146/162/2 147/152/2 127/113/2
f 72/163/3 120/164/3 134/151/3 77/150/3
f 120/164/3 119/165/3 133/159/3 134/151/3
f 119/165/3 118/166/3 132/156/3 133/159/3
f 118/166/3 117/167/3 131/157/3 132/156/3
f 117/167/3 116/168/3 130/158/3 131/157/3
f 116/168/3 115/169/3 129/170/3 130/158/3
f 115/169/3 114/109/3 128/112/3 129/170/3
f 78/171/1 135/172/1 120/173/1 72/174/1
f 135/172/1 136/175/1 119/176/1 120/173/1
f 136/175/1 137/177/1 118/178/1 119/176/1
f 137/177/1 138/179/1 117/180/1 118/178/1
f 138/179/1 139/181/1 116/182/1 117/180/1
f 139/181/1 140/183/1 115/184/1 116/182/1
f 140/183/1 141/105/1 114/108/1 115/184/1
f 142/185/1 153/161/1 152/160/1 143/186/1
f 143/186/1 152/160/1 151/155/1 144/154/1
f 145/187/1 150/188/1 149/189/1 146/162/1
f 146/162/1 149/189/1 148/153/1 147/152/1
f 121/118/2 142/185/2 143/186/2 122/149/2
f 134/151/5 153/161/5 142/185/5 121/118/5
f 128/112/3 148/153/3 149/189/3 129/170/3
f 130/158/5 150/188/5 145/187/5 125/143/5
f 125/143/2 145/187/2 146/162/2 126/141/2
f 132/156/3 151/155/3 152/160/3 133/159/3
f 122/149/2 143/186/2 144/154/2 123/147/2
f 129/170/3 149/189/3 150/188/3 130/158/3
