# Blender v2.79 (sub 0) OBJ File: 'Barrel_Pistol_1.blend'
# www.blender.org
mtllib Barrel_Pistol_1.mtl
o Barrel_Pistol_1_Cylinder.021
v 0.465719 0.000050 -0.070586
v 0.447277 0.027051 -0.065215
v 0.431642 0.049942 -0.049920
v 0.421196 0.065237 -0.027029
v 0.417528 0.070608 -0.000028
v 0.421196 0.065237 0.026973
v 0.431642 0.049942 0.049864
v 0.447277 0.027051 0.065159
v 0.465719 0.000050 0.070530
v 0.484161 -0.026952 0.065159
v 0.499795 -0.049842 0.049864
v 0.510241 -0.065138 0.026973
v 0.513910 -0.070508 -0.000028
v 0.510241 -0.065138 -0.027030
v 0.499795 -0.049842 -0.049920
v 0.484161 -0.026952 -0.065215
v 0.481524 -0.023091 -0.055895
v 0.494923 -0.042709 -0.042787
v 0.503876 -0.055817 -0.023169
v 0.507020 -0.060420 -0.000028
v 0.503876 -0.055817 0.023113
v 0.494923 -0.042709 0.042731
v 0.481524 -0.023091 0.055839
v 0.465719 0.000050 0.060442
v 0.449914 0.023191 0.055839
v 0.436515 0.042809 0.042731
v 0.427562 0.055917 0.023113
v 0.424418 0.060520 -0.000028
v 0.427562 0.055917 -0.023169
v 0.436515 0.042809 -0.042787
v 0.465719 0.000050 -0.060498
v 0.449914 0.023191 -0.055895
v 0.574993 0.000050 -0.046437
v 0.574993 -0.017710 -0.042905
v 0.574993 -0.032767 -0.032844
v 0.574993 -0.042827 -0.017788
v 0.574993 -0.046360 -0.000028
v 0.574993 -0.042827 0.017732
v 0.574993 -0.032767 0.032788
v 0.574993 -0.017710 0.042849
v 0.574993 0.000050 0.046381
v 0.574993 0.017810 0.042849
v 0.574993 0.032866 0.032788
v 0.574993 0.042926 0.017732
v 0.574993 0.046459 -0.000028
v 0.574993 0.042926 -0.017788
v 0.574993 0.032866 -0.032844
v 0.574993 0.017810 -0.042905
v 0.349757 0.000050 -0.046437
v 0.349757 -0.017710 -0.042905
v 0.349757 -0.032767 -0.032845
v 0.349757 -0.042827 -0.017788
v 0.349757 -0.046360 -0.000028
v 0.349757 -0.042827 0.017732
v 0.349757 -0.032767 0.032788
v 0.349757 -0.017710 0.042849
v 0.349757 0.000050 0.046381
v 0.349757 0.017810 0.042849
v 0.349757 0.032866 0.032788
v 0.349757 0.042926 0.017732
v 0.349757 0.046459 -0.000028
v 0.349757 0.042926 -0.017788
v 0.349757 0.032866 -0.032844
v 0.349757 0.017810 -0.042905
v -0.026251 0.000050 -0.061518
v -0.017357 0.000050 -0.070586
v -0.026251 0.023581 -0.056837
v -0.017357 0.027051 -0.065215
v -0.026251 0.043530 -0.043508
v -0.017357 0.049942 -0.049920
v -0.026251 0.056859 -0.023559
v -0.017357 0.065237 -0.027029
v -0.026251 0.061540 -0.000028
v -0.017357 0.070608 -0.000028
v -0.026251 0.056859 0.023503
v -0.017357 0.065237 0.026973
v -0.026251 0.043530 0.043452
v -0.017357 0.049942 0.049864
v -0.026251 0.023581 0.056781
v -0.017357 0.027051 0.065159
v -0.026251 0.000050 0.061462
v -0.017357 0.000050 0.070530
v -0.026251 -0.023481 0.056781
v -0.017357 -0.026952 0.065159
v -0.026251 -0.043430 0.043452
v -0.017357 -0.049842 0.049864
v -0.026251 -0.056759 0.023503
v -0.017357 -0.065138 0.026973
v -0.026251 -0.061440 -0.000028
v -0.017357 -0.070508 -0.000028
v -0.026251 -0.056759 -0.023559
v -0.017357 -0.065138 -0.027029
v -0.026251 -0.043430 -0.043508
v -0.017357 -0.049842 -0.049920
v -0.026251 -0.023481 -0.056837
v -0.017357 -0.026952 -0.065215
v 0.569114 0.000050 -0.060498
v 0.574993 0.000050 -0.054504
v 0.574993 -0.020797 -0.050357
v 0.569114 -0.023091 -0.055895
v 0.574993 -0.038470 -0.038548
v 0.569114 -0.042709 -0.042787
v 0.574993 -0.050279 -0.020875
v 0.569114 -0.055817 -0.023169
v 0.574993 -0.054426 -0.000028
v 0.569114 -0.060420 -0.000028
v 0.574993 -0.050279 0.020819
v 0.569114 -0.055817 0.023113
v 0.574993 -0.038470 0.038492
v 0.569114 -0.042709 0.042731
v 0.574993 -0.020797 0.050301
v 0.569114 -0.023091 0.055839
v 0.574993 0.000050 0.054448
v 0.569114 0.000050 0.060442
v 0.574993 0.020897 0.050301
v 0.569114 0.023191 0.055839
v 0.574993 0.038570 0.038492
v 0.569114 0.042809 0.042731
v 0.574993 0.050379 0.020819
v 0.569114 0.055917 0.023113
v 0.574993 0.054526 -0.000028
v 0.569114 0.060520 -0.000028
v 0.574993 0.050379 -0.020875
v 0.569114 0.055917 -0.023169
v 0.574993 0.038570 -0.038548
v 0.569114 0.042809 -0.042787
v 0.574993 0.020897 -0.050357
v 0.569114 0.023191 -0.055895
v 0.546467 0.000050 -0.060498
v 0.546467 -0.023091 -0.055895
v 0.546467 0.023191 -0.055895
v 0.546467 -0.042709 -0.042787
v 0.546467 -0.055817 -0.023169
v 0.546467 -0.060420 -0.000028
v 0.546467 -0.055817 0.023113
v 0.546467 -0.042709 0.042731
v 0.546467 -0.023091 0.055839
v 0.546467 0.000050 0.060442
v 0.546467 0.023191 0.055839
v 0.546467 0.042809 0.042731
v 0.546467 0.055917 0.023113
v 0.546467 0.060520 -0.000028
v 0.546467 0.055917 -0.023169
v 0.546467 0.042809 -0.042787
v 0.554501 0.000050 -0.060498
v 0.554501 0.023191 -0.055895
v 0.554501 -0.023091 -0.055895
v 0.554501 -0.042709 -0.042787
v 0.554501 -0.055817 -0.023169
v 0.554501 -0.060420 -0.000028
v 0.554501 -0.055817 0.023113
v 0.554501 -0.042709 0.042731
v 0.554501 -0.023091 0.055839
v 0.554501 0.000050 0.060442
v 0.554501 0.023191 0.055839
v 0.554501 0.042809 0.042731
v 0.554501 0.055917 0.023113
v 0.554501 0.060520 -0.000028
v 0.554501 0.055917 -0.023169
v 0.554501 0.042809 -0.042787
v 0.554149 -0.021790 -0.051863
v 0.546504 -0.021790 -0.051863
v 0.554149 -0.040051 -0.039662
v 0.546504 -0.040051 -0.039662
v 0.554149 -0.052252 -0.021400
v 0.546504 -0.052252 -0.021400
v 0.554149 -0.056537 0.000140
v 0.546504 -0.056537 0.000140
v 0.554149 -0.052252 0.021681
v 0.546504 -0.052252 0.021681
v 0.554149 -0.040051 0.039942
v 0.546504 -0.040051 0.039942
v 0.554149 -0.021790 0.052144
v 0.546504 -0.021790 0.052144
v 0.554149 -0.000249 0.056428
v 0.546504 -0.000249 0.056428
v 0.554149 0.021292 0.052144
v 0.546504 0.021292 0.052144
v 0.554149 0.039553 0.039942
v 0.546504 0.039553 0.039942
v 0.554149 0.051755 0.021681
v 0.546504 0.051755 0.021681
v 0.554149 0.056039 0.000140
v 0.546504 0.056039 0.000140
v 0.554149 0.051755 -0.021400
v 0.546504 0.051755 -0.021400
v 0.554149 0.039553 -0.039662
v 0.546504 0.039553 -0.039662
v 0.546504 0.021292 -0.051863
v 0.546504 -0.000249 -0.056148
v 0.554149 -0.000249 -0.056148
v 0.554149 0.021292 -0.051863
vn -0.0000 -0.3827 -0.9239
vn -0.0000 -0.0000 -1.0000
vn -0.0000 -0.0745 -0.9972
vn -0.0000 -0.4478 -0.8941
vn 0.0000 0.7071 -0.7071
vn 0.0000 0.9239 -0.3827
vn 0.0000 0.9123 -0.4095
vn 0.0000 0.6686 -0.7436
vn 0.0000 1.0000 0.0000
vn 0.0000 0.9239 0.3827
vn 0.0000 0.9123 0.4095
vn 0.0000 0.7071 0.7071
vn 0.0000 0.6686 0.7436
vn 0.0000 0.3827 0.9239
vn 0.0000 0.3187 0.9479
vn 0.0000 -0.0000 1.0000
vn 0.0000 -0.0745 0.9972
vn 0.0000 -0.3827 0.9239
vn 0.0000 -0.4478 0.8941
vn -0.0000 -0.7071 0.7071
vn -0.0000 -0.7472 0.6646
vn -0.0000 -0.9239 0.3827
vn -0.0000 -0.9363 0.3512
vn -0.0000 -1.0000 0.0000
vn -0.0000 -0.9239 -0.3827
vn -0.0000 -0.9363 -0.3512
vn -0.0000 -0.7071 -0.7071
vn -0.0000 -0.7472 -0.6646
vn 0.8258 0.5640 -0.0000
vn -0.0000 0.3827 -0.9239
vn -0.0000 0.3187 -0.9479
vn 1.0000 0.0000 0.0000
vn -0.7139 -0.0000 -0.7002
vn -0.7139 0.2680 -0.6469
vn -0.7139 0.4951 -0.4951
vn -0.7139 0.6469 -0.2680
vn -0.7139 0.7002 0.0000
vn -0.7139 0.6469 0.2680
vn -0.7139 0.4951 0.4951
vn -0.7139 0.2680 0.6469
vn -0.7139 0.0000 0.7002
vn -0.7139 -0.2680 0.6469
vn -0.7139 -0.4951 0.4951
vn -0.7139 -0.6469 0.2680
vn -0.7139 -0.7002 0.0000
vn -0.7139 -0.6469 -0.2680
vn -0.7139 -0.4951 -0.4951
vn -0.7139 -0.2680 -0.6469
vn -1.0000 -0.0000 0.0000
vn 0.7139 -0.0000 -0.7002
vn 0.7139 -0.2680 -0.6469
vn 0.7139 -0.4951 -0.4951
vn 0.7139 -0.6469 -0.2680
vn 0.7139 -0.7002 0.0000
vn 0.7139 -0.6469 0.2680
vn 0.7139 -0.4951 0.4951
vn 0.7139 -0.2680 0.6469
vn 0.7139 -0.0000 0.7002
vn 0.7139 0.2680 0.6469
vn 0.7139 0.4951 0.4951
vn 0.7139 0.6469 0.2680
vn 0.7139 0.7002 0.0000
vn 0.7139 0.6469 -0.2680
vn 0.7139 0.4951 -0.4951
vn 0.7139 0.2680 -0.6469
vn -0.0000 0.9363 -0.3512
vn -0.0000 -0.9123 0.4095
vn 0.0000 0.9363 0.3512
vn 0.0000 -0.9123 -0.4095
vn 0.0000 0.7472 0.6646
vn 0.0000 -0.6686 -0.7436
vn 0.0000 0.4478 0.8941
vn 0.0000 -0.3187 -0.9479
vn 0.0000 0.0745 0.9972
vn 0.0000 0.4478 -0.8941
vn 0.0000 0.0745 -0.9972
vn -0.0000 -0.3187 0.9479
vn 0.0000 0.7472 -0.6646
vn -0.0000 -0.6686 0.7436
vn -0.9967 0.0006 -0.0806
vn -0.9965 -0.0311 -0.0769
vn -0.9965 -0.0327 -0.0764
vn -0.9967 -0.0008 -0.0807
vn 1.0000 -0.0067 0.0068
vn 1.0000 -0.0089 0.0037
vn 1.0000 -0.0088 0.0037
vn 1.0000 -0.0068 0.0067
vn 1.0000 -0.0095 -0.0000
vn 1.0000 -0.0095 0.0001
vn -0.9969 0.0305 -0.0726
vn -0.9969 0.0296 -0.0731
vn 1.0000 0.0058 -0.0058
vn 1.0000 0.0075 -0.0031
vn 1.0000 0.0057 -0.0058
vn 1.0000 0.0082 -0.0000
vn -0.9962 0.0007 0.0873
vn -0.9964 0.0331 0.0779
vn -0.9964 0.0315 0.0787
vn -0.9962 -0.0010 0.0874
vn 1.0000 -0.0035 0.0087
vn 1.0000 -0.0037 0.0087
vn -0.9963 -0.0601 -0.0611
vn -0.9963 -0.0614 -0.0599
vn 1.0000 0.0032 -0.0076
vn 1.0000 0.0031 -0.0077
vn -0.9966 0.0585 0.0575
vn -0.9966 0.0574 0.0588
vn 1.0000 0.0001 0.0092
vn 1.0000 -0.0001 0.0092
vn -0.9961 -0.0813 -0.0344
vn -0.9961 -0.0820 -0.0330
vn 1.0000 -0.0033 -0.0081
vn 1.0000 0.0001 -0.0085
vn 1.0000 -0.0001 -0.0085
vn 1.0000 -0.0034 -0.0080
vn -0.9968 0.0739 0.0301
vn -0.9968 0.0735 0.0313
vn 1.0000 0.0078 0.0032
vn 1.0000 0.0077 0.0033
vn -0.9960 -0.0338 0.0829
vn -0.9960 -0.0350 0.0825
vn 1.0000 -0.0085 -0.0036
vn 1.0000 -0.0086 -0.0035
vn -0.9970 0.0551 -0.0549
vn -0.9970 0.0548 -0.0552
vn 1.0000 0.0061 0.0060
vn 1.0000 0.0060 0.0062
vn -0.9959 -0.0642 0.0645
vn -0.9959 -0.0646 0.0641
vn 1.0000 -0.0063 -0.0064
vn 1.0000 -0.0064 -0.0063
vn -0.9969 0.0783 -0.0003
vn -0.9970 0.0717 -0.0298
vn -0.9970 0.0717 -0.0296
vn -0.9969 0.0783 0.0004
vn 1.0000 0.0035 0.0082
vn 1.0000 0.0033 0.0083
vn -0.9959 -0.0902 -0.0004
vn -0.9958 -0.0843 0.0348
vn -0.9958 -0.0842 0.0350
vn -0.9959 -0.0903 0.0006
usemtl Grey
s 1
f 96//1 66//2 1//3 16//4
f 70//5 72//6 4//7 3//8
f 72//6 74//9 5//9 4//7
f 74//9 76//10 6//11 5//9
f 76//10 78//12 7//13 6//11
f 78//12 80//14 8//15 7//13
f 80//14 82//16 9//17 8//15
f 82//16 84//18 10//19 9//17
f 84//18 86//20 11//21 10//19
f 86//20 88//22 12//23 11//21
f 88//22 90//24 13//24 12//23
f 90//24 92//25 14//26 13//24
f 92//25 94//27 15//28 14//26
f 94//27 96//1 16//4 15//28
f 14//29 19//29 20//29 13//29
f 68//30 70//5 3//8 2//31
f 66//2 68//30 2//31 1//3
f 12//29 21//29 22//29 11//29
f 6//29 27//29 28//29 5//29
f 10//29 23//29 24//29 9//29
f 7//29 26//29 27//29 6//29
f 16//29 17//29 18//29 15//29
f 3//29 30//29 32//29 2//29
f 9//29 24//29 25//29 8//29
f 13//29 20//29 21//29 12//29
f 5//29 28//29 29//29 4//29
f 2//29 32//29 31//29 1//29
f 11//29 22//29 23//29 10//29
f 15//29 18//29 19//29 14//29
f 4//29 29//29 30//29 3//29
f 8//29 25//29 26//29 7//29
f 1//29 31//29 17//29 16//29
f 64//32 63//32 62//32 61//32 60//32 59//32 58//32 57//32 56//32 55//32 54//32 53//32 52//32 51//32 50//32 49//32
f 65//33 67//34 68//34 66//33
f 67//34 69//35 70//35 68//34
f 69//35 71//36 72//36 70//35
f 71//36 73//37 74//37 72//36
f 73//37 75//38 76//38 74//37
f 75//38 77//39 78//39 76//38
f 77//39 79//40 80//40 78//39
f 79//40 81//41 82//41 80//40
f 81//41 83//42 84//42 82//41
f 83//42 85//43 86//43 84//42
f 85//43 87//44 88//44 86//43
f 87//44 89//45 90//45 88//44
f 89//45 91//46 92//46 90//45
f 91//46 93//47 94//47 92//46
f 93//47 95//48 96//48 94//47
f 95//48 65//33 66//33 96//48
f 65//49 95//49 93//49 91//49 89//49 87//49 85//49 83//49 81//49 79//49 77//49 75//49 73//49 71//49 69//49 67//49
usemtl Black
f 109//32 39//32 40//32 111//32
f 111//32 40//32 41//32 113//32
f 113//32 41//32 42//32 115//32
f 127//32 48//32 33//32 98//32
f 99//32 34//32 35//32 101//32
f 115//32 42//32 43//32 117//32
f 101//32 35//32 36//32 103//32
f 117//32 43//32 44//32 119//32
f 103//32 36//32 37//32 105//32
f 119//32 44//32 45//32 121//32
f 105//32 37//32 38//32 107//32
f 121//32 45//32 46//32 123//32
f 151//22 108//22 110//20 152//20
f 123//32 46//32 47//32 125//32
f 107//32 38//32 39//32 109//32
f 125//32 47//32 48//32 127//32
f 43//27 59//27 60//25 44//25
f 159//6 124//6 126//5 160//5
f 152//20 110//20 112//18 153//18
f 160//5 126//5 128//30 146//30
f 153//18 112//18 114//16 154//16
f 145//2 97//2 100//1 147//1
f 146//30 128//30 97//2 145//2
f 154//16 114//16 116//14 155//14
f 147//1 100//1 102//27 148//27
f 155//14 116//14 118//12 156//12
f 148//27 102//27 104//25 149//25
f 156//12 118//12 120//10 157//10
f 149//25 104//25 106//24 150//24
f 157//10 120//10 122//9 158//9
f 150//24 106//24 108//22 151//22
f 158//9 122//9 124//6 159//6
f 36//10 52//10 53//9 37//9
f 44//25 60//25 61//24 45//24
f 37//9 53//9 54//6 38//6
f 45//24 61//24 62//22 46//22
f 38//6 54//6 55//5 39//5
f 46//22 62//22 63//20 47//20
f 39//5 55//5 56//30 40//30
f 47//20 63//20 64//18 48//18
f 40//30 56//30 57//2 41//2
f 33//16 49//16 50//14 34//14
f 48//18 64//18 49//16 33//16
f 41//2 57//2 58//1 42//1
f 34//14 50//14 51//12 35//12
f 42//1 58//1 59//27 43//27
f 35//12 51//12 52//10 36//10
f 98//50 99//51 100//51 97//50
f 99//51 101//52 102//52 100//51
f 101//52 103//53 104//53 102//52
f 103//53 105//54 106//54 104//53
f 105//54 107//55 108//55 106//54
f 107//55 109//56 110//56 108//55
f 109//56 111//57 112//57 110//56
f 111//57 113//58 114//58 112//57
f 113//58 115//59 116//59 114//58
f 115//59 117//60 118//60 116//59
f 117//60 119//61 120//61 118//60
f 119//61 121//62 122//62 120//61
f 121//62 123//63 124//63 122//62
f 123//63 125//64 126//64 124//63
f 125//64 127//65 128//65 126//64
f 127//65 98//50 97//50 128//65
f 98//32 33//32 34//32 99//32
f 28//9 142//9 143//6 29//66
f 20//24 134//24 135//22 21//67
f 27//68 141//10 142//9 28//9
f 19//69 133//25 134//24 20//24
f 26//70 140//12 141//10 27//68
f 18//71 132//27 133//25 19//69
f 25//72 139//14 140//12 26//70
f 17//73 130//1 132//27 18//71
f 24//74 138//16 139//14 25//72
f 32//75 131//30 129//2 31//76
f 31//76 129//2 130//1 17//73
f 23//77 137//18 138//16 24//74
f 30//78 144//5 131//30 32//75
f 22//79 136//20 137//18 23//77
f 29//66 143//6 144//5 30//78
f 21//67 135//22 136//20 22//79
f 145//80 147//81 161//82 191//83
f 136//84 135//85 170//86 172//87
f 135//85 134//88 168//89 170//86
f 146//90 145//80 191//83 192//91
f 144//92 143//93 186//93 188//94
f 143//93 142//95 184//95 186//93
f 154//96 155//97 177//98 175//99
f 137//100 136//84 172//87 174//101
f 147//81 148//102 163//103 161//82
f 131//104 144//92 188//94 189//105
f 155//97 156//106 179//107 177//98
f 138//108 137//100 174//101 176//109
f 148//102 149//110 165//111 163//103
f 130//112 129//113 190//114 162//115
f 156//106 157//116 181//117 179//107
f 129//113 131//104 189//105 190//114
f 184//9 183//9 185//6 186//6
f 168//24 167//24 169//22 170//22
f 182//10 181//10 183//9 184//9
f 166//25 165//25 167//24 168//24
f 180//12 179//12 181//10 182//10
f 164//27 163//27 165//25 166//25
f 178//14 177//14 179//12 180//12
f 162//1 161//1 163//27 164//27
f 176//16 175//16 177//14 178//14
f 189//30 192//30 191//2 190//2
f 190//2 191//2 161//1 162//1
f 174//18 173//18 175//16 176//16
f 188//5 187//5 192//30 189//30
f 172//20 171//20 173//18 174//18
f 186//6 185//6 187//5 188//5
f 170//22 169//22 171//20 172//20
f 142//95 141//118 182//119 184//95
f 153//120 154//96 175//99 173//121
f 134//88 133//122 166//123 168//89
f 160//124 146//90 192//91 187//125
f 141//118 140//126 180//127 182//119
f 152//128 153//120 173//121 171//129
f 133//122 132//130 164//131 166//123
f 158//132 159//133 185//134 183//135
f 159//133 160//124 187//125 185//134
f 140//126 139//136 178//137 180//127
f 150//138 151//139 169//140 167//141
f 151//139 152//128 171//129 169//140
f 132//130 130//112 162//115 164//131
f 157//116 158//132 183//135 181//117
f 139//136 138//108 176//109 178//137
f 149//110 150//138 167//141 165//111
