# Blender v2.79 (sub 0) OBJ File: 'Barrel_Single.blend'
# www.blender.org
mtllib Barrel_Single.mtl
o Barrel_Single_Cylinder.001
v -0.000000 -0.012393 -0.029920
v -0.000000 -0.022900 -0.022900
v -0.000000 -0.029920 -0.012393
v -0.000000 -0.032385 -0.000000
v -0.000000 -0.029920 0.012393
v -0.000000 -0.022900 0.022900
v -0.000000 -0.012393 0.029920
v -0.000000 -0.000000 0.032385
v -0.000000 0.012393 0.029920
v -0.000000 0.022900 0.022900
v -0.000000 0.029920 0.012393
v -0.000000 0.032385 -0.000000
v -0.000000 0.029920 -0.012393
v -0.000000 0.022900 -0.022900
v -0.000000 -0.000000 -0.032385
v -0.000000 0.012393 -0.029920
v 0.167180 -0.000000 -0.024855
v 0.167180 -0.009512 -0.022963
v 0.167180 -0.017575 -0.017575
v 0.167180 -0.022963 -0.009512
v 0.167180 -0.024855 -0.000000
v 0.167180 -0.022963 0.009512
v 0.167180 -0.017575 0.017575
v 0.167180 -0.009512 0.022963
v 0.167180 -0.000000 0.024855
v 0.167180 0.009512 0.022963
v 0.167180 0.017575 0.017575
v 0.167180 0.022963 0.009512
v 0.167180 0.024855 -0.000000
v 0.167180 0.022963 -0.009512
v 0.167180 0.017575 -0.017575
v 0.167180 0.009512 -0.022963
v 0.127634 -0.000000 -0.024855
v 0.127634 -0.009512 -0.022963
v 0.127634 -0.017575 -0.017575
v 0.127634 -0.022963 -0.009512
v 0.127634 -0.024855 -0.000000
v 0.127634 -0.022963 0.009512
v 0.127634 -0.017575 0.017575
v 0.127634 -0.009512 0.022963
v 0.127634 -0.000000 0.024855
v 0.127634 0.009512 0.022963
v 0.127634 0.017575 0.017575
v 0.127634 0.022963 0.009512
v 0.127634 0.024855 -0.000000
v 0.127634 0.022963 -0.009512
v 0.127634 0.017575 -0.017575
v 0.127634 0.009512 -0.022963
v 0.164031 -0.000000 -0.032385
v 0.167180 -0.000000 -0.029175
v 0.167180 -0.011165 -0.026954
v 0.164031 -0.012393 -0.029920
v 0.167180 -0.020630 -0.020630
v 0.164031 -0.022900 -0.022900
v 0.167180 -0.026954 -0.011165
v 0.164031 -0.029920 -0.012393
v 0.167180 -0.029175 -0.000000
v 0.164031 -0.032385 -0.000000
v 0.167180 -0.026954 0.011165
v 0.164031 -0.029920 0.012393
v 0.167180 -0.020630 0.020630
v 0.164031 -0.022900 0.022900
v 0.167180 -0.011165 0.026954
v 0.164031 -0.012393 0.029920
v 0.167180 -0.000000 0.029175
v 0.164031 -0.000000 0.032385
v 0.167180 0.011165 0.026954
v 0.164031 0.012393 0.029920
v 0.167180 0.020630 0.020630
v 0.164031 0.022900 0.022900
v 0.167180 0.026954 0.011165
v 0.164031 0.029920 0.012393
v 0.167180 0.029175 -0.000000
v 0.164031 0.032385 -0.000000
v 0.167180 0.026954 -0.011165
v 0.164031 0.029920 -0.012393
v 0.167180 0.020630 -0.020630
v 0.164031 0.022900 -0.022900
v 0.167180 0.011165 -0.026954
v 0.164031 0.012393 -0.029920
v 0.151903 -0.000000 -0.032385
v 0.151903 -0.012393 -0.029920
v 0.151903 0.012393 -0.029920
v 0.151903 -0.022900 -0.022900
v 0.151903 -0.029920 -0.012393
v 0.151903 -0.032385 -0.000000
v 0.151903 -0.029920 0.012393
v 0.151903 -0.022900 0.022900
v 0.151903 -0.012393 0.029920
v 0.151903 -0.000000 0.032385
v 0.151903 0.012393 0.029920
v 0.151903 0.022900 0.022900
v 0.151903 0.029920 0.012393
v 0.151903 0.032385 -0.000000
v 0.151903 0.029920 -0.012393
v 0.151903 0.022900 -0.022900
v 0.156205 -0.000000 -0.032385
v 0.156205 0.012393 -0.029920
v 0.156205 -0.012393 -0.029920
v 0.156205 -0.022900 -0.022900
v 0.156205 -0.029920 -0.012393
v 0.156205 -0.032385 -0.000000
v 0.156205 -0.029920 0.012393
v 0.156205 -0.022900 0.022900
v 0.156205 -0.012393 0.029920
v 0.156205 -0.000000 0.032385
v 0.156205 0.012393 0.029920
v 0.156205 0.022900 0.022900
v 0.156205 0.029920 0.012393
v 0.156205 0.032385 -0.000000
v 0.156205 0.029920 -0.012393
v 0.156205 0.022900 -0.022900
v 0.156017 -0.011696 -0.027761
v 0.151922 -0.011696 -0.027761
v 0.156017 -0.021476 -0.021226
v 0.151922 -0.021476 -0.021226
v 0.156017 -0.028011 -0.011446
v 0.151922 -0.028011 -0.011446
v 0.156017 -0.030305 0.000090
v 0.151922 -0.030305 0.000090
v 0.156017 -0.028011 0.011626
v 0.151922 -0.028011 0.011626
v 0.156017 -0.021476 0.021406
v 0.151922 -0.021476 0.021406
v 0.156017 -0.011696 0.027941
v 0.151922 -0.011696 0.027941
v 0.156017 -0.000160 0.030236
v 0.151922 -0.000160 0.030236
v 0.156017 0.011376 0.027941
v 0.151922 0.011376 0.027941
v 0.156017 0.021156 0.021406
v 0.151922 0.021156 0.021406
v 0.156017 0.027691 0.011626
v 0.151922 0.027691 0.011626
v 0.156017 0.029985 0.000090
v 0.151922 0.029985 0.000090
v 0.156017 0.027691 -0.011446
v 0.151922 0.027691 -0.011446
v 0.156017 0.021156 -0.021226
v 0.151922 0.021156 -0.021226
v 0.151922 0.011376 -0.027761
v 0.151922 -0.000160 -0.030056
v 0.156017 -0.000160 -0.030056
v 0.156017 0.011376 -0.027761
vn 1.0000 0.0000 0.0000
vn 0.0000 -0.9239 0.3827
vn 0.0000 -0.7071 0.7071
vn 0.0000 -0.7071 -0.7071
vn 0.0000 -0.9239 -0.3827
vn 0.0000 0.9239 -0.3827
vn 0.0000 0.7071 -0.7071
vn 0.0000 -0.3827 0.9239
vn 0.0000 0.3827 -0.9239
vn 0.0000 -0.0000 1.0000
vn 0.0000 -0.0000 -1.0000
vn 0.0000 -0.3827 -0.9239
vn 0.0000 0.3827 0.9239
vn 0.0000 0.7071 0.7071
vn 0.0000 0.9239 0.3827
vn 0.0000 -1.0000 0.0000
vn 0.0000 1.0000 -0.0000
vn 0.7139 -0.0000 -0.7002
vn 0.7139 -0.2680 -0.6469
vn 0.7139 -0.4951 -0.4951
vn 0.7139 -0.6469 -0.2680
vn 0.7139 -0.7002 0.0000
vn 0.7139 -0.6469 0.2680
vn 0.7139 -0.4951 0.4951
vn 0.7139 -0.2680 0.6469
vn 0.7139 -0.0000 0.7002
vn 0.7139 0.2680 0.6469
vn 0.7139 0.4951 0.4951
vn 0.7139 0.6469 0.2680
vn 0.7139 0.7002 0.0000
vn 0.7139 0.6469 -0.2680
vn 0.7139 0.4951 -0.4951
vn 0.7139 0.2680 -0.6469
vn -0.9967 0.0006 -0.0806
vn -0.9965 -0.0311 -0.0770
vn -0.9965 -0.0328 -0.0764
vn -0.9967 -0.0008 -0.0807
vn 1.0000 -0.0067 0.0068
vn 1.0000 -0.0088 0.0036
vn 1.0000 -0.0088 0.0037
vn 1.0000 -0.0068 0.0067
vn 1.0000 -0.0094 -0.0000
vn 1.0000 -0.0095 0.0001
vn -0.9969 0.0305 -0.0727
vn -0.9969 0.0297 -0.0731
vn 1.0000 0.0058 -0.0057
vn 1.0000 0.0075 -0.0031
vn 1.0000 0.0057 -0.0058
vn 1.0000 0.0082 -0.0000
vn -0.9962 0.0007 0.0873
vn -0.9964 0.0331 0.0779
vn -0.9964 0.0315 0.0787
vn -0.9962 -0.0010 0.0874
vn 1.0000 -0.0035 0.0087
vn 1.0000 -0.0037 0.0086
vn -0.9963 -0.0601 -0.0611
vn -0.9963 -0.0614 -0.0600
vn 1.0000 0.0032 -0.0076
vn 1.0000 0.0031 -0.0076
vn -0.9966 0.0585 0.0575
vn -0.9966 0.0574 0.0588
vn 1.0000 0.0001 0.0091
vn 1.0000 -0.0001 0.0092
vn -0.9961 -0.0813 -0.0344
vn -0.9961 -0.0820 -0.0330
vn 1.0000 -0.0033 -0.0081
vn 1.0000 0.0001 -0.0084
vn 1.0000 -0.0001 -0.0084
vn 1.0000 -0.0034 -0.0080
vn -0.9968 0.0740 0.0301
vn -0.9968 0.0736 0.0313
vn 1.0000 0.0077 0.0031
vn 1.0000 0.0077 0.0033
vn -0.9960 -0.0338 0.0830
vn -0.9960 -0.0350 0.0826
vn 1.0000 -0.0085 -0.0036
vn 1.0000 -0.0086 -0.0035
vn -0.9970 0.0551 -0.0549
vn -0.9970 0.0548 -0.0552
vn 1.0000 0.0061 0.0060
vn 1.0000 0.0060 0.0061
vn -0.9958 -0.0642 0.0645
vn -0.9958 -0.0646 0.0641
vn 1.0000 -0.0063 -0.0064
vn 1.0000 -0.0064 -0.0063
vn -0.9969 0.0783 -0.0003
vn -0.9970 0.0717 -0.0298
vn -0.9970 0.0717 -0.0296
vn -0.9969 0.0783 0.0004
vn 1.0000 0.0035 0.0082
vn 1.0000 0.0033 0.0082
vn -0.9959 -0.0903 -0.0004
vn -0.9958 -0.0844 0.0348
vn -0.9958 -0.0843 0.0351
vn -0.9959 -0.0903 0.0006
usemtl Grey
s 1
f 48//1 47//1 46//1 45//1 44//1 43//1 42//1 41//1 40//1 39//1 38//1 37//1 36//1 35//1 34//1 33//1
usemtl Black
f 61//1 23//1 24//1 63//1
f 63//1 24//1 25//1 65//1
f 65//1 25//1 26//1 67//1
f 79//1 32//1 17//1 50//1
f 51//1 18//1 19//1 53//1
f 67//1 26//1 27//1 69//1
f 53//1 19//1 20//1 55//1
f 69//1 27//1 28//1 71//1
f 55//1 20//1 21//1 57//1
f 71//1 28//1 29//1 73//1
f 57//1 21//1 22//1 59//1
f 73//1 29//1 30//1 75//1
f 103//2 60//2 62//3 104//3
f 75//1 30//1 31//1 77//1
f 59//1 22//1 23//1 61//1
f 77//1 31//1 32//1 79//1
f 27//4 43//4 44//5 28//5
f 111//6 76//6 78//7 112//7
f 104//3 62//3 64//8 105//8
f 112//7 78//7 80//9 98//9
f 105//8 64//8 66//10 106//10
f 97//11 49//11 52//12 99//12
f 98//9 80//9 49//11 97//11
f 106//10 66//10 68//13 107//13
f 99//12 52//12 54//4 100//4
f 107//13 68//13 70//14 108//14
f 100//4 54//4 56//5 101//5
f 108//14 70//14 72//15 109//15
f 101//5 56//5 58//16 102//16
f 109//15 72//15 74//17 110//17
f 102//16 58//16 60//2 103//2
f 110//17 74//17 76//6 111//6
f 20//15 36//15 37//17 21//17
f 28//5 44//5 45//16 29//16
f 21//17 37//17 38//6 22//6
f 29//16 45//16 46//2 30//2
f 22//6 38//6 39//7 23//7
f 30//2 46//2 47//3 31//3
f 23//7 39//7 40//9 24//9
f 31//3 47//3 48//8 32//8
f 24//9 40//9 41//11 25//11
f 17//10 33//10 34//13 18//13
f 32//8 48//8 33//10 17//10
f 25//11 41//11 42//12 26//12
f 18//13 34//13 35//14 19//14
f 26//12 42//12 43//4 27//4
f 19//14 35//14 36//15 20//15
f 50//18 51//19 52//19 49//18
f 51//19 53//20 54//20 52//19
f 53//20 55//21 56//21 54//20
f 55//21 57//22 58//22 56//21
f 57//22 59//23 60//23 58//22
f 59//23 61//24 62//24 60//23
f 61//24 63//25 64//25 62//24
f 63//25 65//26 66//26 64//25
f 65//26 67//27 68//27 66//26
f 67//27 69//28 70//28 68//27
f 69//28 71//29 72//29 70//28
f 71//29 73//30 74//30 72//29
f 73//30 75//31 76//31 74//30
f 75//31 77//32 78//32 76//31
f 77//32 79//33 80//33 78//32
f 79//33 50//18 49//18 80//33
f 50//1 17//1 18//1 51//1
f 12//17 94//17 95//6 13//6
f 4//16 86//16 87//2 5//2
f 11//15 93//15 94//17 12//17
f 3//5 85//5 86//16 4//16
f 10//14 92//14 93//15 11//15
f 2//4 84//4 85//5 3//5
f 9//13 91//13 92//14 10//14
f 1//12 82//12 84//4 2//4
f 8//10 90//10 91//13 9//13
f 16//9 83//9 81//11 15//11
f 15//11 81//11 82//12 1//12
f 7//8 89//8 90//10 8//10
f 14//7 96//7 83//9 16//9
f 6//3 88//3 89//8 7//8
f 13//6 95//6 96//7 14//7
f 5//2 87//2 88//3 6//3
f 97//34 99//35 113//36 143//37
f 88//38 87//39 122//40 124//41
f 87//39 86//42 120//43 122//40
f 98//44 97//34 143//37 144//45
f 96//46 95//47 138//47 140//48
f 95//47 94//49 136//49 138//47
f 106//50 107//51 129//52 127//53
f 89//54 88//38 124//41 126//55
f 99//35 100//56 115//57 113//36
f 83//58 96//46 140//48 141//59
f 107//51 108//60 131//61 129//52
f 90//62 89//54 126//55 128//63
f 100//56 101//64 117//65 115//57
f 82//66 81//67 142//68 114//69
f 108//60 109//70 133//71 131//61
f 81//67 83//58 141//59 142//68
f 136//17 135//17 137//6 138//6
f 120//16 119//16 121//2 122//2
f 134//15 133//15 135//17 136//17
f 118//5 117//5 119//16 120//16
f 132//14 131//14 133//15 134//15
f 116//4 115//4 117//5 118//5
f 130//13 129//13 131//14 132//14
f 114//12 113//12 115//4 116//4
f 128//10 127//10 129//13 130//13
f 141//9 144//9 143//11 142//11
f 142//11 143//11 113//12 114//12
f 126//8 125//8 127//10 128//10
f 140//7 139//7 144//9 141//9
f 124//3 123//3 125//8 126//8
f 138//6 137//6 139//7 140//7
f 122//2 121//2 123//3 124//3
f 94//49 93//72 134//73 136//49
f 105//74 106//50 127//53 125//75
f 86//42 85//76 118//77 120//43
f 112//78 98//44 144//45 139//79
f 93//72 92//80 132//81 134//73
f 104//82 105//74 125//75 123//83
f 85//76 84//84 116//85 118//77
f 110//86 111//87 137//88 135//89
f 111//87 112//78 139//79 137//88
f 92//80 91//90 130//91 132//81
f 102//92 103//93 121//94 119//95
f 103//93 104//82 123//83 121//94
f 84//84 82//66 114//69 116//85
f 109//70 110//86 135//89 133//71
f 91//90 90//62 128//63 130//91
f 101//64 102//92 119//95 117//65
