# Blender v2.79 (sub 0) OBJ File: 'Body_Grenade_1.blend'
# www.blender.org
mtllib Body_Grenade_1.mtl
o Body_Grenade_1_Cube.234
v -0.315648 -0.047174 0.054718
v 0.242740 -0.047174 0.054718
v -0.129860 -0.047174 0.054718
v -0.342774 -0.215512 0.054718
v 0.242740 -0.064299 0.054718
v -0.129860 -0.215512 0.054718
v -0.430703 -0.215512 0.054718
v -0.351426 -0.047174 0.054718
v -0.430703 -0.149227 0.054718
v -0.420525 -0.149227 0.054718
v -0.356686 -0.106571 0.054718
v -0.371665 -0.128988 0.054718
v -0.394082 -0.143967 0.054718
v -0.350779 -0.076872 0.054718
v -0.294631 0.013906 0.049807
v -0.334689 -0.248052 0.049807
v 0.101406 0.013906 0.049807
v -0.123750 -0.248052 0.049807
v -0.334689 -0.157726 0.049807
v 0.101406 -0.157726 0.049807
v 0.379064 -0.157726 0.049807
v -0.315648 0.109291 0.054718
v -0.315648 0.155606 0.008403
v -0.315648 0.132448 0.048513
v -0.315648 0.149401 0.031561
v 0.242740 0.155606 0.008403
v 0.242740 0.109291 0.054718
v 0.242740 0.149401 0.031561
v 0.242740 0.132448 0.048513
v -0.129860 0.155606 0.008403
v -0.129860 0.109291 0.054718
v -0.129860 0.149401 0.031561
v -0.129860 0.132448 0.048513
v 0.379064 -0.115059 0.049807
v 0.250098 0.013906 0.049807
v 0.372752 -0.075207 0.049807
v 0.354434 -0.039255 0.049807
v 0.325902 -0.010724 0.049807
v 0.289951 0.007594 0.049807
v 0.242740 -0.060132 0.050087
v 0.242740 -0.042791 0.050087
v 0.242740 0.105509 0.050087
v 0.242740 0.127458 0.044309
v 0.242740 0.143526 0.028524
v 0.242740 0.149407 0.006961
v -0.315648 0.051399 0.054718
v -0.129860 0.051399 0.054718
v 0.242740 0.051399 0.054718
v 0.242740 0.054297 0.050087
v -0.315648 0.073105 0.054718
v -0.315648 0.098697 0.054718
v -0.129860 0.073105 0.054718
v -0.129860 0.098697 0.054718
v 0.242740 0.098697 0.054718
v 0.242740 0.073105 0.054718
v 0.242740 0.097765 0.050087
v 0.242740 0.073508 0.050087
v 0.242740 0.027692 0.054718
v 0.242740 0.031828 0.050087
v -0.315648 0.027692 0.054718
v -0.129860 0.027692 0.054718
v 0.221461 -0.047174 0.054718
v 0.221461 -0.072934 0.054718
v 0.221461 0.109291 0.054718
v 0.221461 0.132448 0.048513
v 0.221461 0.149401 0.031561
v 0.221461 0.155606 0.008403
v 0.221461 0.051399 0.054718
v 0.221461 0.098697 0.054718
v 0.221461 0.073105 0.054718
v 0.221461 0.027692 0.054718
v 0.045801 -0.047174 0.054718
v 0.045801 -0.144223 0.054718
v 0.045801 0.132448 0.048513
v 0.045801 0.149401 0.031561
v 0.045801 0.155606 0.008403
v 0.045801 0.109291 0.054718
v 0.045801 0.051399 0.054718
v 0.045801 0.098697 0.054718
v 0.045801 0.073105 0.054718
v 0.045801 0.027692 0.054718
v -0.210258 -0.189843 0.054718
v -0.315878 -0.189843 0.054718
v -0.315878 -0.106336 0.054718
v -0.315648 -0.047174 -0.054718
v 0.242740 -0.047174 -0.054718
v -0.129860 -0.047174 -0.054718
v -0.342774 -0.215512 -0.054718
v 0.242740 -0.064299 -0.054718
v -0.129860 -0.215512 -0.054718
v -0.430703 -0.149227 0.000000
v -0.430703 -0.215512 -0.054718
v 0.242740 0.155606 0.000000
v -0.129860 0.155606 0.000000
v -0.315648 0.155606 0.000000
v -0.315648 -0.047174 0.000000
v -0.129860 -0.215512 0.000000
v -0.342774 -0.215512 0.000000
v 0.242740 -0.064299 0.000000
v -0.430703 -0.215512 0.000000
v -0.351426 -0.047174 0.000000
v -0.351426 -0.047174 -0.054718
v -0.430703 -0.149227 -0.054718
v -0.350779 -0.076872 0.000000
v -0.420525 -0.149227 -0.054718
v -0.356686 -0.106571 -0.054718
v -0.371665 -0.128988 -0.054718
v -0.394082 -0.143967 -0.054718
v -0.420525 -0.149227 0.000000
v -0.350779 -0.076872 -0.054718
v -0.394082 -0.143967 0.000000
v -0.371665 -0.128988 0.000000
v -0.356686 -0.106571 0.000000
v -0.294631 0.013906 -0.049807
v -0.334689 -0.248052 -0.049807
v -0.294631 0.013906 0.000000
v -0.334689 -0.248052 0.000000
v 0.101406 0.013906 0.000000
v 0.101406 0.013906 -0.049807
v -0.123750 -0.248052 -0.049807
v -0.123750 -0.248052 0.000000
v -0.334689 -0.157726 -0.049807
v -0.334689 -0.157726 0.000000
v 0.101406 -0.157726 -0.049807
v 0.101406 -0.157726 0.000000
v 0.379064 -0.157726 0.000000
v 0.379064 -0.157726 -0.049807
v -0.315648 0.109291 -0.054718
v -0.315648 0.155606 -0.008403
v -0.315648 0.132448 -0.048513
v -0.315648 0.149401 -0.031561
v 0.242740 0.155606 -0.008403
v 0.242740 0.109291 -0.054718
v 0.242740 0.149401 -0.031561
v 0.242740 0.132448 -0.048513
v -0.129860 0.155606 -0.008403
v -0.129860 0.109291 -0.054718
v -0.129860 0.149401 -0.031561
v -0.129860 0.132448 -0.048513
v 0.250098 0.013906 0.000000
v 0.379064 -0.115059 0.000000
v 0.289951 0.007594 0.000000
v 0.325902 -0.010724 0.000000
v 0.354434 -0.039255 0.000000
v 0.372752 -0.075207 0.000000
v 0.379064 -0.115059 -0.049807
v 0.250098 0.013906 -0.049807
v 0.372752 -0.075207 -0.049807
v 0.354434 -0.039255 -0.049807
v 0.325902 -0.010724 -0.049807
v 0.289951 0.007594 -0.049807
v 0.242740 -0.042791 0.000000
v 0.242740 0.149407 0.000000
v 0.242740 -0.060132 0.000000
v 0.242740 -0.060132 -0.050087
v 0.242740 -0.042791 -0.050087
v 0.242740 0.105509 -0.050087
v 0.242740 0.127458 -0.044309
v 0.242740 0.143526 -0.028524
v 0.242740 0.149407 -0.006961
v -0.315648 0.051399 -0.054718
v -0.129860 0.051399 -0.054718
v 0.242740 0.051399 -0.054718
v 0.242740 0.054297 -0.050087
v -0.315648 0.073105 -0.054718
v -0.315648 0.098697 -0.054718
v -0.129860 0.073105 -0.054718
v -0.129860 0.098697 -0.054718
v 0.242740 0.098697 -0.054718
v 0.242740 0.073105 -0.054718
v 0.242740 0.097765 -0.050087
v 0.242740 0.073508 -0.050087
v 0.242740 0.027692 -0.054718
v 0.242740 0.031828 -0.050087
v -0.315648 0.027692 -0.054718
v -0.129860 0.027692 -0.054718
v 0.221461 -0.047174 -0.054718
v 0.221461 -0.072934 -0.054718
v 0.221461 0.155606 0.000000
v 0.221461 -0.072934 0.000000
v 0.221461 0.109291 -0.054718
v 0.221461 0.132448 -0.048513
v 0.221461 0.149401 -0.031561
v 0.221461 0.155606 -0.008403
v 0.221461 0.051399 -0.054718
v 0.221461 0.098697 -0.054718
v 0.221461 0.073105 -0.054718
v 0.221461 0.027692 -0.054718
v 0.045801 -0.047174 -0.054718
v 0.045801 -0.144223 -0.054718
v 0.045801 -0.144223 0.000000
v 0.045801 0.132448 -0.048513
v 0.045801 0.149401 -0.031561
v 0.045801 0.155606 -0.008403
v 0.045801 0.155606 0.000000
v 0.045801 0.109291 -0.054718
v 0.045801 0.051399 -0.054718
v 0.045801 0.098697 -0.054718
v 0.045801 0.073105 -0.054718
v 0.045801 0.027692 -0.054718
v -0.210258 -0.189843 -0.054718
v -0.315878 -0.189843 -0.054718
v -0.315878 -0.106336 -0.054718
vn -0.9934 0.1144 0.0000
vn -1.0000 0.0000 0.0000
vn 0.1896 -0.9819 0.0000
vn 0.0000 0.0000 1.0000
vn 0.0000 -1.0000 0.0000
vn 0.0000 1.0000 0.0000
vn -0.9738 0.2273 0.0000
vn 0.0785 0.9969 0.0000
vn 0.3090 0.9511 0.0000
vn 0.5878 0.8090 -0.0000
vn 0.8090 0.5878 -0.0000
vn 0.9511 0.3090 -0.0000
vn 0.9969 0.0785 0.0000
vn 1.0000 0.0000 0.0000
vn 0.0000 0.0000 -1.0000
vn 0.0000 0.9914 0.1305
vn -0.9962 0.0872 0.0000
vn -0.9998 -0.0218 -0.0000
vn 0.3760 -0.9266 0.0000
vn 0.1916 -0.9815 0.0000
vn -0.9239 0.3827 0.0000
vn -0.7071 0.7071 0.0000
vn -0.3827 0.9239 0.0000
vn -0.0980 0.9952 0.0000
vn -0.0000 0.1305 0.9914
vn -0.0000 0.5000 0.8660
vn -0.0000 0.8660 0.5000
vn -0.0000 0.9914 -0.1305
vn -0.0000 0.1305 -0.9914
vn -0.0000 0.5000 -0.8660
vn -0.0000 0.8660 -0.5000
usemtl Black
s 1
f 123//1 117//2 16//2 19//1
f 125//3 20//3 18//3 121//3
f 19//4 20//4 17//4 15//4
f 117//5 121//3 18//3 16//5
f 15//6 17//6 118//6 116//6
f 16//4 18//4 20//4 19//4
f 20//4 21//4 34//4 36//4 37//4 38//4 39//4 35//4 17//4
f 116//7 123//1 19//1 15//7
f 17//6 35//8 140//8 118//6
f 125//3 126//5 21//5 20//3
f 140//8 35//8 39//9 142//9
f 142//9 39//9 38//10 143//10
f 143//10 38//10 37//11 144//11
f 144//11 37//11 36//12 145//12
f 145//12 36//12 34//13 141//13
f 141//13 34//13 21//14 126//14
f 45//14 44//14 43//14 42//14 56//14 57//14 49//14 59//14 41//14 152//14 153//14
f 41//14 40//14 154//14 152//14
f 123//1 122//1 115//2 117//2
f 125//3 121//3 120//3 124//3
f 122//15 114//15 119//15 124//15
f 117//5 115//5 120//3 121//3
f 114//6 116//6 118//6 119//6
f 115//15 122//15 124//15 120//15
f 124//15 119//15 147//15 151//15 150//15 149//15 148//15 146//15 127//15
f 116//7 114//7 122//1 123//1
f 119//6 118//6 140//8 147//8
f 125//3 124//3 127//5 126//5
f 140//8 142//9 151//9 147//8
f 142//9 143//10 150//10 151//9
f 143//10 144//11 149//11 150//10
f 144//11 145//12 148//12 149//11
f 145//12 141//13 146//13 148//12
f 141//13 126//14 127//14 146//13
f 160//14 153//14 152//14 156//14 174//14 164//14 172//14 171//14 157//14 158//14 159//14
f 156//14 152//14 154//14 155//14
usemtl White
f 23//16 30//16 94//6 95//6
f 14//17 8//18 101//18 104//17
f 73//19 6//20 97//20 191//19
f 61//4 60//4 1//4 3//4
f 8//6 1//6 96//6 101//6
f 6//4 1//4 84//4 82//4
f 81//4 61//4 3//4 72//4
f 6//20 4//5 98//5 97//20
f 4//5 7//5 100//5 98//5
f 11//21 14//17 104//17 113//21
f 1//4 8//4 14//4 11//4 84//4
f 4//4 10//4 9//4 7//4
f 7//2 9//2 91//2 100//2
f 11//21 113//21 112//22 12//22
f 12//22 112//22 111//23 13//23
f 13//23 111//23 109//24 10//24
f 9//6 10//24 109//24 91//6
f 22//25 31//25 33//26 24//26
f 24//26 33//26 32//27 25//27
f 25//27 32//27 30//16 23//16
f 1//2 60//2 46//2 50//2 51//2 22//2 24//2 25//2 23//2 95//2 96//2
f 80//4 52//4 47//4 78//4
f 52//4 50//4 46//4 47//4
f 31//25 22//25 51//4 53//4
f 53//4 51//4 50//4 52//4
f 77//25 31//25 53//4 79//4
f 78//4 47//4 61//4 81//4
f 47//4 46//4 60//4 61//4
f 75//27 66//27 67//16 76//16
f 74//26 65//26 66//27 75//27
f 77//25 64//25 65//26 74//26
f 72//4 73//4 63//4 62//4
f 76//16 67//16 179//6 195//6
f 30//16 76//16 195//6 94//6
f 3//4 6//4 73//4 72//4
f 31//25 77//25 74//26 33//26
f 33//26 74//26 75//27 32//27
f 32//27 75//27 76//16 30//16
f 64//25 77//25 79//4 69//4
f 70//4 80//4 78//4 68//4
f 71//4 81//4 72//4 62//4
f 63//19 73//19 191//19 180//19
f 6//4 3//4 1//4
f 4//4 6//4 82//4 83//4
f 84//4 11//4 12//4 13//4 10//4 4//4
f 84//4 4//4 83//4
f 129//28 95//6 94//6 136//28
f 110//17 104//17 101//18 102//18
f 190//19 191//19 97//20 90//20
f 176//15 87//15 85//15 175//15
f 102//6 101//6 96//6 85//6
f 90//15 201//15 203//15 85//15
f 200//15 189//15 87//15 176//15
f 90//20 97//20 98//5 88//5
f 88//5 98//5 100//5 92//5
f 106//21 113//21 104//17 110//17
f 85//15 203//15 106//15 110//15 102//15
f 88//15 92//15 103//15 105//15
f 92//2 100//2 91//2 103//2
f 106//21 107//22 112//22 113//21
f 107//22 108//23 111//23 112//22
f 108//23 105//24 109//24 111//23
f 103//6 91//6 109//24 105//24
f 128//29 130//30 139//30 137//29
f 130//30 131//31 138//31 139//30
f 131//31 129//28 136//28 138//31
f 85//2 96//2 95//2 129//2 131//2 130//2 128//2 166//2 165//2 161//2 175//2
f 199//15 197//15 162//15 167//15
f 167//15 162//15 161//15 165//15
f 137//29 168//15 166//15 128//29
f 168//15 167//15 165//15 166//15
f 196//29 198//15 168//15 137//29
f 197//15 200//15 176//15 162//15
f 162//15 176//15 175//15 161//15
f 193//31 194//28 184//28 183//31
f 192//30 193//31 183//31 182//30
f 196//29 192//30 182//30 181//29
f 189//15 177//15 178//15 190//15
f 194//28 195//6 179//6 184//28
f 136//28 94//6 195//6 194//28
f 87//15 189//15 190//15 90//15
f 137//29 139//30 192//30 196//29
f 139//30 138//31 193//31 192//30
f 138//31 136//28 194//28 193//31
f 181//29 186//15 198//15 196//29
f 187//15 185//15 197//15 199//15
f 188//15 177//15 189//15 200//15
f 178//19 180//19 191//19 190//19
f 90//15 85//15 87//15
f 88//15 202//15 201//15 90//15
f 203//15 88//15 105//15 108//15 107//15 106//15
f 203//15 202//15 88//15
usemtl Main
f 67//16 26//16 93//6 179//6
f 62//4 63//4 5//4 2//4
f 58//14 2//14 41//14 59//14
f 28//14 29//14 43//14 44//14
f 64//25 27//25 29//26 65//26
f 65//26 29//26 28//27 66//27
f 66//27 28//27 26//16 67//16
f 2//14 5//14 40//14 41//14
f 29//14 27//14 42//14 43//14
f 5//14 99//14 154//14 40//14
f 93//14 26//14 45//14 153//14
f 26//14 28//14 44//14 45//14
f 55//14 48//14 49//14 57//14
f 79//4 53//4 52//4 80//4
f 27//14 54//14 56//14 42//14
f 54//14 55//14 57//14 56//14
f 48//14 58//14 59//14 49//14
f 48//4 68//4 71//4 58//4
f 54//4 69//4 70//4 55//4
f 27//25 64//25 69//4 54//4
f 55//4 70//4 68//4 48//4
f 58//4 71//4 62//4 2//4
f 5//19 63//19 180//19 99//19
f 68//4 78//4 81//4 71//4
f 69//4 79//4 80//4 70//4
f 84//4 83//4 82//4
f 184//28 179//6 93//6 132//28
f 177//15 86//15 89//15 178//15
f 173//14 174//14 156//14 86//14
f 134//14 159//14 158//14 135//14
f 181//29 182//30 135//30 133//29
f 182//30 183//31 134//31 135//30
f 183//31 184//28 132//28 134//31
f 86//14 156//14 155//14 89//14
f 135//14 158//14 157//14 133//14
f 89//14 155//14 154//14 99//14
f 93//14 153//14 160//14 132//14
f 132//14 160//14 159//14 134//14
f 170//14 172//14 164//14 163//14
f 198//15 199//15 167//15 168//15
f 133//14 157//14 171//14 169//14
f 169//14 171//14 172//14 170//14
f 163//14 164//14 174//14 173//14
f 163//15 173//15 188//15 185//15
f 169//15 170//15 187//15 186//15
f 133//29 169//15 186//15 181//29
f 170//15 163//15 185//15 187//15
f 173//15 86//15 177//15 188//15
f 89//19 99//19 180//19 178//19
f 185//15 188//15 200//15 197//15
f 186//15 187//15 199//15 198//15
f 203//15 201//15 202//15
