# Blender v2.79 (sub 0) OBJ File: 'Body_AR_5.blend'
# www.blender.org
mtllib Body_AR_5.mtl
o Body_AR_5_Cube.035
v -0.554922 -0.010521 0.047384
v -0.554922 -0.010521 -0.047384
v 0.375859 -0.011570 0.047384
v 0.375859 -0.011570 -0.047384
v -0.435458 0.071973 0.047384
v -0.435458 0.112066 0.023123
v -0.435458 0.112066 -0.023123
v -0.435458 0.071973 -0.047384
v 0.325112 0.112066 0.023123
v 0.338692 0.071973 0.047384
v 0.338692 0.071973 -0.047384
v 0.325112 0.112066 -0.023123
v 0.109331 -0.011570 -0.047384
v 0.109331 -0.011570 0.047384
v 0.109974 0.112066 -0.023123
v 0.109974 0.071973 -0.047384
v 0.109974 0.112066 0.023123
v 0.109974 0.071973 0.047384
v -0.107588 -0.010521 -0.047384
v -0.107588 0.071973 -0.047384
v -0.107588 0.112066 0.023123
v -0.107588 -0.010521 0.047384
v -0.107588 0.112066 -0.023123
v -0.107588 0.071973 0.047384
v -0.085125 0.028031 0.047384
v 0.093045 0.028031 0.047384
v -0.085125 0.112066 -0.023123
v 0.093045 0.112066 -0.023123
v -0.085125 0.071973 0.047384
v 0.093045 0.071973 0.047384
v 0.093045 0.028031 -0.047384
v -0.085125 0.028031 -0.047384
v 0.093045 0.071973 -0.047384
v -0.085125 0.071973 -0.047384
v 0.093045 0.112066 0.023123
v -0.085124 0.112066 0.023123
v 0.442919 -0.023490 0.045627
v 0.442919 -0.023490 -0.045627
v 0.490007 -0.142902 0.031417
v 0.503587 -0.102810 0.045627
v 0.503587 -0.102810 -0.045627
v 0.490007 -0.142902 -0.031417
v 0.109974 -0.023490 -0.045708
v 0.109974 -0.023490 0.045708
v 0.109974 -0.142902 -0.031473
v 0.109974 -0.102810 -0.045708
v 0.109974 -0.142902 0.031473
v 0.109974 -0.102810 0.045708
v -0.241624 -0.057999 0.045708
v 0.093045 -0.057999 0.045708
v -0.241624 -0.142902 -0.031473
v 0.093045 -0.142902 -0.031473
v -0.241624 -0.102810 0.045708
v 0.093045 -0.102810 0.045708
v 0.093045 -0.057999 -0.045708
v -0.241624 -0.057999 -0.045708
v 0.093045 -0.102810 -0.045708
v -0.241624 -0.102810 -0.045708
v 0.093045 -0.142902 0.031473
v -0.241624 -0.142902 0.031473
v 0.373407 -0.004316 0.041884
v 0.373407 -0.004316 -0.041884
v 0.328191 0.103450 -0.020439
v 0.340194 0.068012 -0.041884
v 0.340194 0.068012 0.041884
v 0.328191 0.103450 0.020439
v 0.349652 0.043025 0.047384
v -0.554922 0.043025 0.047384
v -0.554922 0.043025 -0.047384
v 0.349652 0.043025 -0.047384
v 0.109652 0.043025 0.047384
v 0.109652 0.043025 -0.047384
v -0.107588 0.043025 -0.047384
v -0.107588 0.043025 0.047384
v 0.093045 0.043025 0.047384
v -0.085125 0.043025 0.047384
v -0.085125 0.043025 -0.047384
v 0.093045 0.043025 -0.047384
v 0.349177 0.043025 0.041884
v 0.349177 0.043025 -0.041884
v -0.554522 -0.004927 -0.043532
v -0.554522 -0.004927 0.043532
v -0.435858 0.072011 -0.043532
v -0.435858 0.108844 -0.021243
v -0.435858 0.108844 0.021243
v -0.435858 0.072011 0.043532
v -0.554522 0.042597 0.043532
v -0.554522 0.042597 -0.043532
v -0.499141 -0.064800 -0.035322
v -0.499141 -0.064800 0.035312
v 0.372638 -0.064800 -0.035322
v 0.372638 -0.064800 0.035312
v -0.670652 -0.064800 0.001466
v -0.646262 -0.064800 0.035312
v -0.667384 -0.064800 0.018389
v -0.658457 -0.064800 0.030777
v -0.646262 -0.064800 -0.035322
v -0.670652 -0.064800 -0.001477
v -0.658457 -0.064800 -0.030788
v -0.667384 -0.064800 -0.018400
v -0.485489 0.101349 -0.001477
v -0.487924 0.080295 -0.035322
v -0.485815 0.098528 -0.018400
v -0.486707 0.090822 -0.030788
v -0.487924 0.080295 0.035312
v -0.485489 0.101349 0.001466
v -0.486707 0.090822 0.030777
v -0.485815 0.098528 0.018389
v 0.317867 0.080295 0.035312
v 0.308070 0.101349 0.001466
v 0.312968 0.090822 0.030777
v 0.309382 0.098528 0.018389
v 0.308070 0.101349 -0.001477
v 0.317867 0.080295 -0.035322
v 0.309382 0.098528 -0.018400
v 0.312968 0.090822 -0.030788
v -0.576026 0.072263 0.035312
v -0.599343 0.082581 0.001466
v -0.587684 0.077422 0.030777
v -0.596219 0.081199 0.018389
v -0.568449 0.078013 0.035312
v -0.575895 0.100376 0.001466
v -0.572172 0.089195 0.030777
v -0.574897 0.097380 0.018389
v -0.568449 0.078013 -0.035322
v -0.575895 0.100376 -0.001477
v -0.572172 0.089195 -0.030788
v -0.574897 0.097380 -0.018400
v -0.576026 0.072263 -0.035322
v -0.599343 0.082581 -0.001477
v -0.587684 0.077422 -0.030788
v -0.596219 0.081199 -0.018400
v -0.675824 -0.083803 -0.053716
v -0.675824 -0.083803 0.037954
v -0.729046 -0.162863 0.053705
v -0.729046 -0.162863 -0.053716
v -0.729046 -0.257473 -0.022577
v -0.729046 -0.225725 -0.053716
v -0.729046 -0.253220 -0.038146
v -0.729046 -0.241599 -0.049544
v -0.729046 -0.225725 0.053705
v -0.729046 -0.257473 0.022566
v -0.729046 -0.241599 0.049533
v -0.729046 -0.253220 0.038135
v -0.662180 -0.162863 0.053705
v -0.662180 -0.241599 0.049533
v -0.662180 -0.253220 0.038135
v -0.662180 -0.257473 0.022566
v -0.662180 -0.253220 -0.038146
v -0.662180 -0.241599 -0.049544
v -0.662180 -0.225725 -0.053716
v -0.662180 -0.083803 0.037954
v -0.662180 -0.083803 -0.053716
v -0.662180 -0.162863 -0.053716
v -0.662180 -0.225725 0.053705
v -0.662180 -0.257473 -0.022577
v -0.266416 -0.162863 0.053705
v -0.632872 -0.162863 0.053705
v -0.266416 -0.225318 0.049533
v -0.632872 -0.225318 0.049533
v -0.266416 -0.236939 0.038135
v -0.632872 -0.236939 0.038135
v -0.266416 -0.241193 0.022566
v -0.632872 -0.241193 0.022566
v -0.266416 -0.236939 -0.038146
v -0.632872 -0.236939 -0.038146
v -0.266416 -0.225318 -0.049544
v -0.632872 -0.225318 -0.049544
v -0.266416 -0.209444 -0.053716
v -0.632872 -0.209444 -0.053716
v -0.588470 -0.083803 0.037954
v -0.266416 -0.083803 0.037954
v -0.588470 -0.083803 -0.053716
v -0.266416 -0.083803 -0.053716
v -0.632872 -0.162863 -0.053716
v -0.266416 -0.162863 -0.053716
v -0.632872 -0.209444 0.053705
v -0.266416 -0.209444 0.053705
v -0.632872 -0.241193 -0.022577
v -0.266416 -0.241193 -0.022577
v -0.702435 -0.123333 -0.053716
v -0.702435 -0.123333 0.053705
v -0.662180 -0.123333 0.053705
v -0.662180 -0.123333 -0.053716
v -0.588470 -0.123333 0.053705
v -0.266416 -0.123333 0.053705
v -0.266416 -0.123333 -0.053716
v -0.588470 -0.123333 -0.053716
v 0.321327 0.072858 0.035312
v -0.488855 0.072244 0.035312
v 0.321730 0.071994 -0.035322
v -0.489096 0.070161 -0.035322
v -0.306896 -0.125341 0.057903
v -0.216844 -0.125341 -0.057913
v -0.216844 -0.125341 0.057903
v -0.306896 -0.125341 -0.057913
v -0.707703 -0.094012 0.057903
v -0.676373 -0.125341 0.057903
v -0.703506 -0.109677 0.057903
v -0.692038 -0.121144 0.057903
v -0.676373 -0.125341 -0.057913
v -0.707703 -0.094012 -0.057913
v -0.692038 -0.121144 -0.057913
v -0.703506 -0.109677 -0.057913
v -0.333081 -0.231172 -0.057913
v -0.339058 -0.254593 -0.020328
v -0.336069 -0.242882 -0.052878
v -0.338257 -0.251455 -0.039121
v -0.257242 -0.257460 -0.020328
v -0.250760 -0.234158 -0.057913
v -0.256374 -0.254338 -0.039121
v -0.254001 -0.245809 -0.052878
v -0.250760 -0.234158 0.057903
v -0.257242 -0.257460 0.020317
v -0.254001 -0.245809 0.052867
v -0.256374 -0.254338 0.039110
v -0.339058 -0.254593 0.020317
v -0.333081 -0.231172 0.057903
v -0.338257 -0.251455 0.039110
v -0.336069 -0.242882 0.052867
v -0.299824 -0.093348 -0.057913
v -0.286972 -0.039837 -0.016700
v -0.291527 -0.060444 -0.052392
v -0.288193 -0.045358 -0.037307
v -0.194007 -0.039837 0.016689
v -0.208499 -0.093348 0.057903
v -0.195447 -0.045358 0.037296
v -0.199382 -0.060444 0.052381
v -0.208499 -0.093348 -0.057913
v -0.194007 -0.039837 -0.016700
v -0.199382 -0.060444 -0.052392
v -0.195447 -0.045358 -0.037307
v -0.286972 -0.039837 0.016689
v -0.299824 -0.093348 0.057903
v -0.288193 -0.045358 0.037296
v -0.291527 -0.060444 0.052381
v -0.707703 -0.039837 -0.016700
v -0.707703 -0.093348 -0.057913
v -0.707703 -0.045358 -0.037307
v -0.707703 -0.060444 -0.052392
v -0.707703 -0.093348 0.057903
v -0.707703 -0.039837 0.016689
v -0.707703 -0.060444 0.052381
v -0.707703 -0.045358 0.037296
vn 0.9434 0.3312 0.0192
vn -0.9947 0.0000 -0.1032
vn 0.0000 -1.0000 0.0000
vn 0.0000 0.0000 -1.0000
vn 0.0000 0.5177 -0.8555
vn 0.0000 1.0000 0.0000
vn 0.0000 0.5177 0.8555
vn 0.0000 0.0000 1.0000
vn -0.9926 0.0627 -0.1036
vn 0.8950 0.4428 0.0539
vn -0.9249 -0.3803 0.0000
vn 0.8640 -0.5034 0.0000
vn 0.9373 0.3466 0.0372
vn 0.9434 0.3312 -0.0192
vn 0.9473 0.3203 0.0000
vn 0.9417 0.3365 0.0000
vn 0.8950 0.4428 -0.0539
vn 0.9373 0.3466 -0.0372
vn -0.9947 0.0000 0.1032
vn -0.9975 0.0713 0.0000
vn -0.2378 0.9701 -0.0492
vn -0.9924 0.1231 0.0000
vn -0.2378 0.9701 0.0492
vn -0.9926 0.0627 0.1036
vn 0.0000 0.1885 0.9821
vn 0.0242 -0.1076 0.9939
vn -0.0000 -0.1281 0.9918
vn 0.1185 -0.4571 0.8815
vn 0.0000 -0.4937 0.8696
vn 0.2243 -0.8289 0.5124
vn 0.0000 -0.7002 0.7139
vn 0.2541 -0.9582 0.1312
vn 0.0000 -0.9911 0.1329
vn 0.0000 -0.9646 0.2635
vn 0.2541 -0.9582 -0.1312
vn 0.2243 -0.8289 -0.5124
vn 0.0000 -0.9647 -0.2635
vn 0.0000 -0.9911 -0.1329
vn 0.1185 -0.4571 -0.8815
vn 0.0000 -0.4937 -0.8696
vn 0.0000 -0.7002 -0.7139
vn 0.0242 -0.1076 -0.9939
vn -0.0000 -0.1281 -0.9918
vn 0.9410 0.3383 0.0000
vn 0.9471 0.3208 0.0000
vn 0.8902 0.4556 0.0000
vn -0.2406 0.9706 0.0000
vn -1.0000 -0.0000 0.0000
vn -0.0726 0.2081 -0.9754
vn -0.0025 0.2005 -0.9797
vn -0.1549 0.1398 -0.9780
vn -0.6023 0.7937 -0.0856
vn -0.7727 0.6282 -0.0913
vn -0.7727 0.6282 0.0913
vn -0.6023 0.7937 0.0856
vn 0.0000 0.1483 -0.9889
vn -0.0025 0.2005 0.9797
vn -0.0726 0.2081 0.9754
vn -0.1549 0.1398 0.9780
vn -0.2103 0.1062 0.9719
vn -0.0112 0.9964 -0.0836
vn -0.0112 0.9964 0.0836
vn -0.0056 0.9965 0.0838
vn -0.0056 0.9965 -0.0838
vn 0.0000 0.9964 0.0844
vn 0.0000 0.9964 -0.0844
vn 0.0000 0.1483 0.9889
vn -0.8962 0.4344 -0.0901
vn -0.8962 0.4344 0.0901
vn 0.0000 0.9287 -0.3708
vn -0.0063 0.9340 -0.3573
vn 0.0000 0.8491 -0.5282
vn -0.0070 0.8450 -0.5347
vn 0.0000 0.3956 -0.9184
vn -0.0042 0.3905 -0.9206
vn -0.0063 0.9340 0.3573
vn 0.0000 0.9287 0.3708
vn -0.0070 0.8450 0.5347
vn 0.0000 0.8491 0.5282
vn -0.0042 0.3905 0.9206
vn 0.0000 0.3956 0.9184
vn -0.2835 0.2183 -0.9338
vn -0.1181 0.3450 -0.9311
vn -0.6203 0.5376 -0.5711
vn -0.7190 0.5842 -0.3765
vn -0.5653 0.7449 -0.3543
vn -0.5047 0.6650 -0.5504
vn -0.1181 0.3450 0.9311
vn -0.2835 0.2183 0.9338
vn -0.5047 0.6650 0.5504
vn -0.5653 0.7449 0.3543
vn -0.7190 0.5842 0.3765
vn -0.6203 0.5376 0.5711
vn -0.0134 0.8412 -0.5405
vn -0.0127 0.9375 -0.3479
vn -0.0127 0.9375 0.3479
vn -0.0134 0.8412 0.5405
vn -0.3200 0.1616 0.9335
vn -0.8367 0.4086 0.3645
vn -0.7351 0.3620 0.5732
vn -0.2103 0.1062 -0.9719
vn -0.3200 0.1616 -0.9335
vn -0.7351 0.3620 -0.5732
vn -0.8367 0.4086 -0.3645
vn 0.0464 -0.1480 -0.9879
vn -0.8295 0.5584 0.0000
vn 0.2442 -0.9614 -0.1267
vn 0.2442 -0.9614 0.1267
vn 0.1446 -0.5157 -0.8445
vn 0.2178 -0.8500 -0.4797
vn 0.0000 -0.9646 -0.2635
vn 0.2178 -0.8500 0.4797
vn 0.1446 -0.5157 0.8445
vn 0.0464 -0.1480 0.9879
vn 0.0000 0.1198 0.9928
vn 0.0000 0.3702 0.9290
vn 0.9328 0.3603 0.0005
vn 0.7943 0.6075 0.0000
vn 0.0002 0.0001 -1.0000
vn 0.9471 -0.3208 0.0000
vn 0.0000 -0.3346 -0.9424
vn -0.8978 0.4404 0.0000
vn 0.0000 -0.3346 0.9424
vn 0.0002 0.0001 1.0000
vn 0.0002 -0.3343 0.9424
vn 0.0002 -0.3343 -0.9424
vn -0.9705 0.2413 0.0000
vn 0.9561 -0.2931 0.0000
vn 0.9612 -0.2758 -0.0000
vn -0.0000 0.0830 -0.9965
vn 0.0000 0.9914 -0.1305
vn 0.0000 0.9914 0.1305
vn -0.0000 0.0830 0.9965
vn 0.0000 0.9918 -0.1277
vn 0.0000 0.9918 0.1277
vn -0.0349 -0.9958 0.0842
vn -0.0349 -0.9960 0.0822
vn -0.0349 -0.9960 -0.0822
vn -0.0349 -0.9958 -0.0842
vn -0.0081 -0.2261 0.9741
vn -0.0061 -0.1700 0.9854
vn 0.9661 -0.2583 -0.0000
vn -0.1305 -0.9914 0.0000
vn -0.0000 0.0968 0.9953
vn -0.9914 -0.1305 0.0000
vn -0.5000 -0.8660 0.0000
vn -0.7071 -0.7071 0.0000
vn -0.9659 -0.2588 0.0000
vn -0.0141 -0.3927 0.9196
vn -0.0300 -0.8467 0.5312
vn -0.0331 -0.9376 0.3461
vn -0.0328 -0.9305 0.3649
vn -0.0331 -0.9376 -0.3461
vn -0.0328 -0.9305 -0.3649
vn -0.0300 -0.8467 -0.5312
vn -0.0141 -0.3927 -0.9196
vn -0.0081 -0.2261 -0.9741
vn -0.0061 -0.1700 -0.9854
vn 0.0000 0.9659 -0.2588
vn -0.0000 0.7071 -0.7071
vn -0.0000 0.1655 -0.9862
vn 0.0000 0.0968 -0.9953
vn -0.0000 0.1655 0.9862
vn -0.0000 0.7071 0.7071
vn 0.0000 0.9659 0.2588
usemtl White
s off
f 9//1 10//1 65//1 66//1
f 1//2 68//2 87//2 82//2
f 13//3 4//3 3//3 14//3
f 72//4 16//4 11//4 70//4
f 15//5 12//5 11//5 16//5
f 23//6 7//6 6//6 21//6
f 21//7 6//7 5//7 24//7
f 67//8 10//8 18//8 71//8
f 7//9 8//9 83//9 84//9
f 67//10 3//10 61//10 79//10
f 9//7 17//7 18//7 10//7
f 28//5 15//5 16//5 33//5
f 78//4 33//4 16//4 72//4
f 31//11 13//11 14//11 26//11
f 12//6 15//6 17//6 9//6
f 74//8 24//8 5//8 68//8
f 2//3 19//3 22//3 1//3
f 69//4 8//4 20//4 73//4
f 76//8 29//8 24//8 74//8
f 36//7 21//7 24//7 29//7
f 27//6 23//6 21//6 36//6
f 15//6 28//6 35//6 17//6
f 28//6 27//6 36//6 35//6
f 17//7 35//7 30//7 18//7
f 35//7 36//7 29//7 30//7
f 71//8 18//8 30//8 75//8
f 75//8 30//8 29//8 76//8
f 19//12 32//12 25//12 22//12
f 32//3 31//3 26//3 25//3
f 73//4 20//4 34//4 77//4
f 77//4 34//4 33//4 78//4
f 23//5 27//5 34//5 20//5
f 27//5 28//5 33//5 34//5
f 70//13 11//13 64//13 80//13
f 11//14 12//14 63//14 64//14
f 3//15 4//15 62//15 61//15
f 12//16 9//16 66//16 63//16
f 4//17 70//17 80//17 62//17
f 32//4 77//4 78//4 31//4
f 19//4 73//4 77//4 32//4
f 26//8 75//8 76//8 25//8
f 14//8 71//8 75//8 26//8
f 25//8 76//8 74//8 22//8
f 7//5 23//5 20//5 8//5
f 31//4 78//4 72//4 13//4
f 10//18 67//18 79//18 65//18
f 3//8 67//8 71//8 14//8
f 2//4 69//4 73//4 19//4
f 13//4 72//4 70//4 4//4
f 69//19 2//19 81//19 88//19
f 2//20 1//20 82//20 81//20
f 68//21 5//21 86//21 87//21
f 6//22 7//22 84//22 85//22
f 8//23 69//23 88//23 83//23
f 5//24 6//24 85//24 86//24
f 22//8 74//8 68//8 1//8
s 1
f 185//25 158//8 157//8 186//25
f 158//8 177//26 178//27 157//8
f 177//26 160//28 159//29 178//27
f 160//28 162//30 161//31 159//29
f 162//30 164//32 163//33 161//34
f 179//35 166//36 165//37 180//38
f 166//36 168//39 167//40 165//41
f 168//39 170//42 169//43 167//40
f 176//4 169//43 170//42 175//4
f 187//4 176//4 175//4 188//4
f 180//38 163//33 164//32 179//35
usemtl Black
s off
f 80//44 64//44 65//44 79//44
f 65//45 64//45 63//45 66//45
f 62//46 80//46 79//46 61//46
f 87//47 86//47 83//47 88//47
f 83//48 86//48 85//48 84//48
f 82//48 87//48 88//48 81//48
s 1
f 125//49 102//50 192//4 129//51
f 126//52 130//53 118//54 122//55
f 102//50 114//56 191//4 192//4
f 105//57 121//58 117//59 190//8
f 117//59 94//60 90//8 190//8
f 190//8 90//8 92//8 189//8
f 126//61 122//62 106//63 101//64
f 101//64 106//63 110//65 113//66
f 109//67 105//57 190//8 189//8
f 118//54 130//53 98//68 93//69
f 113//66 115//70 103//71 101//64
f 115//70 116//72 104//73 103//71
f 116//74 114//56 102//50 104//75
f 106//63 108//76 112//77 110//65
f 108//76 107//78 111//79 112//77
f 107//80 105//57 109//67 111//81
f 129//51 131//82 127//83 125//49
f 131//84 132//85 128//86 127//87
f 132//85 130//53 126//52 128//86
f 121//58 123//88 119//89 117//59
f 123//90 124//91 120//92 119//93
f 124//91 122//55 118//54 120//92
f 125//49 127//83 104//75 102//50
f 127//94 128//95 103//71 104//73
f 128//95 126//61 101//64 103//71
f 105//57 107//80 123//88 121//58
f 107//78 108//76 124//96 123//97
f 108//76 106//63 122//62 124//96
f 117//59 119//89 96//98 94//60
f 119//93 120//92 95//99 96//100
f 120//92 118//54 93//69 95//99
f 97//101 99//102 131//82 129//51
f 99//103 100//104 132//85 131//84
f 100//104 98//68 130//53 132//85
f 153//6 133//6 134//6 152//6
f 154//4 151//105 138//43 136//4
f 184//4 154//4 136//4 181//4
f 136//48 138//48 140//48 139//48 137//48 142//48 144//48 143//48 141//48 135//48
f 181//106 136//106 135//106 182//106
f 156//107 148//108 142//33 137//38
f 140//40 138//43 151//105 150//109
f 139//41 140//40 150//109 149//110
f 137//38 139//111 149//110 156//107
f 144//34 142//33 148//108 147//112
f 143//29 144//31 147//112 146//113
f 141//27 143//29 146//113 155//114
f 135//8 141//27 155//114 145//8
f 182//115 135//8 145//8 183//25
f 179//35 164//32 148//108 156//107
f 188//4 175//4 154//4 184//4
f 175//4 170//42 151//105 154//4
f 173//6 153//6 152//6 171//6
f 183//25 145//8 158//8 185//25
f 145//8 155//114 177//26 158//8
f 155//114 146//113 160//28 177//26
f 146//113 147//112 162//30 160//28
f 147//112 148//108 164//32 162//30
f 156//107 149//110 166//36 179//35
f 149//110 150//109 168//39 166//36
f 150//109 151//105 170//42 168//39
f 174//6 173//6 171//6 172//6
f 174//4 187//4 188//4 173//4
f 171//116 185//25 186//25 172//116
f 152//116 183//25 185//25 171//116
f 173//4 188//4 184//4 153//4
f 134//116 182//115 183//25 152//116
f 133//106 181//106 182//106 134//106
f 153//4 184//4 181//4 133//4
f 192//4 89//4 97//101 129//51
f 191//4 91//4 89//4 192//4
f 109//117 189//117 92//117 91//117 191//117 114//117 116//117 115//117 113//117 110//117 112//117 111//117
usemtl Main
s off
f 38//118 37//118 40//118 41//118
f 44//6 37//6 38//6 43//6
f 43//119 38//119 41//119 46//119
f 40//120 39//120 42//120 41//120
f 52//121 57//121 46//121 45//121
f 55//4 43//4 46//4 57//4
f 55//122 50//122 44//122 43//122
f 45//3 47//3 59//3 52//3
f 52//3 59//3 60//3 51//3
f 47//123 48//123 54//123 59//123
f 59//123 54//123 53//123 60//123
f 44//8 50//8 54//8 48//8
f 50//8 49//8 53//8 54//8
f 56//6 49//6 50//6 55//6
f 56//4 55//4 57//4 58//4
f 51//121 58//121 57//121 52//121
f 37//124 44//124 48//124 40//124
f 40//125 48//125 47//125 39//125
f 47//3 45//3 42//3 39//3
f 46//126 41//126 42//126 45//126
f 49//48 56//48 58//48 53//48
f 51//48 60//48 53//48 58//48
usemtl Grey
s 1
f 217//127 219//127 220//127 218//127 193//127 196//127 205//127 207//127 208//127 206//127
f 213//128 215//128 216//128 214//128 209//128 211//128 212//128 210//128 194//129 195//129
f 196//4 201//4 203//4 204//4 202//4 238//130 221//130
f 222//131 237//131 242//132 233//132
f 234//133 241//133 197//8 199//8 200//8 198//8 193//8
f 230//134 222//131 233//132 225//135
f 214//136 217//137 206//138 209//139
f 195//8 193//8 218//140 213//141
f 195//129 194//129 229//142 231//142 232//142 230//142 225//142 227//142 228//142 226//142
f 193//3 198//143 201//143 196//3
f 226//144 234//133 193//8 195//8
f 197//145 241//48 243//48 244//48 242//48 237//48 239//48 240//48 238//48 202//145
f 201//143 198//143 200//146 203//146
f 203//146 200//146 199//147 204//147
f 204//148 199//148 197//145 202//145
f 213//141 218//140 220//149 215//149
f 215//150 220//150 219//151 216//152
f 216//152 219//151 217//137 214//136
f 209//139 206//138 208//153 211//154
f 211//154 208//153 207//155 212//155
f 212//156 207//156 205//157 210//158
f 210//158 205//157 196//4 194//4
f 222//131 230//134 232//159 224//159
f 224//160 232//160 231//160 223//160
f 223//161 231//161 229//162 221//130
f 234//133 226//144 228//163 236//163
f 236//164 228//164 227//164 235//164
f 235//165 227//165 225//135 233//132
f 241//133 234//133 236//163 243//163
f 243//164 236//164 235//164 244//164
f 244//165 235//165 233//132 242//132
f 237//131 222//131 224//159 239//159
f 239//160 224//160 223//160 240//160
f 240//161 223//161 221//130 238//130
f 194//4 196//4 221//130 229//162
