# Blender v2.79 (sub 0) OBJ File: 'Sight_2.blend'
# www.blender.org
mtllib Sight_2.mtl
o Sight_2_Cube.217
v -0.074930 0.027046 0.050837
v 0.063132 0.027046 0.043873
v -0.074930 0.027046 -0.050837
v 0.063132 0.027046 -0.043873
v 0.065691 0.027046 0.050837
v -0.072371 0.027046 0.043873
v 0.065691 0.027046 -0.050837
v -0.072371 0.027046 -0.043873
v -0.074930 0.034658 0.050837
v -0.074930 0.059363 0.032975
v -0.074930 0.047011 0.048444
v -0.074930 0.056054 0.041906
v -0.074930 0.059363 -0.032975
v -0.074930 0.034658 -0.050837
v -0.074930 0.056054 -0.041906
v -0.074930 0.047011 -0.048444
v 0.065691 0.052119 0.032975
v 0.065691 0.034658 0.050837
v 0.065691 0.048809 0.041906
v 0.065691 0.047011 0.048444
v 0.065691 0.034658 -0.050837
v 0.065691 0.052119 -0.032975
v 0.065691 0.047011 -0.048444
v 0.065691 0.048809 -0.041906
v -0.072371 -0.000000 0.043873
v 0.063132 -0.000000 0.043873
v -0.072371 -0.000000 -0.043873
v 0.063132 -0.000000 -0.043873
v -0.024137 0.083978 -0.045578
v -0.024137 0.083978 0.045578
v -0.033933 0.083978 -0.045578
v -0.033933 0.083978 0.045578
v -0.024137 0.057489 -0.031265
v -0.024137 0.057489 0.031265
v -0.033933 0.057489 -0.031265
v -0.033933 0.057489 0.031265
v -0.024137 0.141757 0.025494
v -0.024137 0.118486 0.045578
v -0.033933 0.118486 0.045578
v -0.033933 0.141757 0.025494
v -0.024137 0.118486 -0.045578
v -0.024137 0.141757 -0.025494
v -0.033933 0.141757 -0.025494
v -0.033933 0.118486 -0.045578
v -0.033933 0.086156 -0.039544
v -0.033933 0.063174 -0.027126
v -0.033933 0.086156 0.039544
v -0.024137 0.086156 0.039544
v -0.024137 0.086156 -0.039544
v -0.033933 0.063174 0.027126
v -0.024137 0.063174 0.027126
v -0.024137 0.063174 -0.027126
v -0.033933 0.116095 -0.039544
v -0.033933 0.136285 -0.022119
v -0.024137 0.136285 -0.022119
v -0.024137 0.116095 -0.039544
v -0.024137 0.116095 0.039544
v -0.024137 0.136285 0.022119
v -0.033933 0.136285 0.022119
v -0.033933 0.116095 0.039544
v -0.031221 0.062360 -0.028071
v -0.031221 0.062360 0.028071
v -0.026849 0.062360 0.028071
v -0.026849 0.062360 -0.028071
v -0.031221 0.090308 0.043001
v -0.031221 0.090308 -0.043001
v -0.026849 0.090308 0.043001
v -0.026849 0.090308 -0.043001
v -0.031221 0.116579 0.043001
v -0.031221 0.116579 -0.043001
v -0.026849 0.116579 0.043001
v -0.026849 0.116579 -0.043001
v -0.031221 0.138751 0.023875
v -0.031221 0.138751 -0.023875
v -0.026849 0.138751 0.023875
v -0.026849 0.138751 -0.023875
v -0.004619 0.027046 -0.050837
v -0.004619 0.027046 0.043873
v -0.004619 0.027046 -0.043873
v -0.004619 0.027046 0.050837
v -0.004619 0.059363 -0.032975
v -0.004619 0.056054 -0.041906
v -0.004619 0.047011 -0.048444
v -0.004619 0.034658 -0.050837
v -0.004619 0.059363 0.032975
v -0.004619 0.056054 0.041906
v -0.004619 0.047011 0.048444
v -0.004619 0.034658 0.050837
v -0.004619 -0.000000 0.043873
v -0.004619 -0.000000 -0.043873
v 0.004619 0.027046 0.043873
v 0.004968 0.027046 0.050837
v 0.004968 0.052119 -0.032975
v 0.004968 0.048809 0.041906
v 0.004968 0.047011 0.048444
v 0.004968 0.034658 0.050837
v 0.004619 -0.000000 0.043873
v 0.004968 0.027046 -0.050837
v 0.004619 0.027046 -0.043873
v 0.004968 0.048809 -0.041906
v 0.004968 0.047011 -0.048444
v 0.004968 0.034658 -0.050837
v 0.004968 0.052119 0.032975
v 0.004619 -0.000000 -0.043873
vn 0.0000 0.9843 -0.1765
vn 0.0000 0.9843 0.1765
vn 1.0000 0.0000 0.0000
vn 0.0000 0.0000 1.0000
vn -1.0000 0.0000 0.0000
vn 0.0000 -1.0000 0.0000
vn 0.0000 0.0000 -1.0000
vn 0.0000 0.0955 -0.9954
vn 0.0000 0.9518 -0.3066
vn 0.2128 0.8897 -0.4038
vn 0.0000 0.9642 -0.2652
vn 0.1442 0.8796 -0.4534
vn 0.0000 0.1902 -0.9817
vn 0.0000 0.9377 0.3475
vn 0.3210 0.7426 0.5878
vn 0.0000 0.5859 0.8104
vn 0.0000 0.3974 0.9176
vn 0.0734 0.4486 0.8907
vn 0.0000 0.0955 0.9954
vn 0.0000 -0.2452 0.9695
vn 0.0000 -0.4754 -0.8798
vn 0.0000 -0.2452 -0.9695
vn 0.0000 1.0000 0.0000
vn 0.0000 -0.4754 0.8798
vn 0.0000 0.6534 -0.7571
vn 0.0000 0.6534 0.7571
vn 0.0000 0.2452 0.9695
vn 0.0000 -0.6534 0.7571
vn 0.0000 -0.6534 -0.7571
vn 0.0000 0.2452 -0.9695
vn 0.0000 0.4754 -0.8798
vn 0.0000 0.4754 0.8798
vn 0.0000 0.1902 0.9817
vn 0.2128 0.8897 0.4038
vn 0.1442 0.8796 0.4534
vn 0.5958 0.7886 0.1523
vn 0.5975 0.7908 0.1329
vn 0.0000 0.3974 -0.9176
vn 0.0734 0.4486 -0.8907
vn 0.0000 0.5859 -0.8104
vn 0.3210 0.7426 -0.5878
vn 0.0000 0.9377 -0.3475
vn 0.5958 0.7886 -0.1523
vn 0.5975 0.7908 -0.1329
vn 0.0000 0.9518 0.3066
vn 0.0000 0.9642 0.2652
vn 0.0000 -0.2429 -0.9701
vn 0.0000 -0.4712 -0.8820
vn 0.0000 -0.4712 0.8820
vn 0.0000 -0.2429 0.9701
vn 0.0000 0.6532 0.7572
vn 0.0000 0.6532 -0.7572
usemtl White
s 1
f 81//1 13//1 10//2 85//2
f 7//3 21//3 23//3 24//3 22//3 17//3 19//3 20//3 18//3 5//3
f 78//4 6//4 25//4 89//4
f 1//5 9//5 11//5 12//5 10//5 13//5 15//5 16//5 14//5 3//5
f 7//6 5//6 2//6 4//6
f 98//7 102//8 21//8 7//7
f 93//1 22//1 24//9 100//10
f 100//10 24//9 23//11 101//12
f 101//13 23//13 21//8 102//8
f 85//2 10//2 12//14 86//14
f 86//15 12//16 11//17 87//18
f 87//18 11//17 9//19 88//19
f 80//4 88//19 9//19 1//4
f 80//6 1//6 6//6 78//6
f 98//6 7//6 4//6 99//6
f 1//6 3//6 8//6 6//6
f 104//6 28//6 26//6 97//6
f 4//3 2//3 26//3 28//3
f 6//5 8//5 27//5 25//5
f 99//7 4//7 28//7 104//7
f 42//3 37//3 58//3 55//3
f 41//3 42//3 55//3 56//3
f 32//20 30//20 38//4 39//4
f 33//21 35//21 31//22 29//22
f 33//6 34//6 36//6 35//6
f 42//23 43//23 40//23 37//23
f 29//3 41//3 56//3 49//3
f 36//24 34//24 30//20 32//20
f 29//22 31//22 44//7 41//7
f 43//25 42//25 41//25 44//25
f 37//26 40//26 39//26 38//26
f 34//3 33//3 52//3 51//3
f 31//5 35//5 46//5 45//5
f 32//5 39//5 60//5 47//5
f 37//3 38//3 57//3 58//3
f 36//5 32//5 47//5 50//5
f 40//5 43//5 54//5 59//5
f 33//3 29//3 49//3 52//3
f 44//5 31//5 45//5 53//5
f 39//5 40//5 59//5 60//5
f 30//3 34//3 51//3 48//3
f 43//5 44//5 53//5 54//5
f 35//5 36//5 50//5 46//5
f 38//3 30//3 48//3 57//3
f 45//27 49//27 56//4 53//4
f 53//28 56//28 55//28 54//28
f 54//6 55//6 58//6 59//6
f 59//29 58//29 57//29 60//29
f 60//7 57//7 48//30 47//30
f 47//30 48//30 51//31 50//31
f 50//23 51//23 52//23 46//23
f 46//32 52//32 49//27 45//27
f 8//7 79//7 90//7 27//7
f 27//6 90//6 89//6 25//6
f 3//6 77//6 79//6 8//6
f 92//6 80//6 78//6 91//6
f 92//4 96//19 88//19 80//4
f 95//33 87//18 88//19 96//19
f 94//34 86//15 87//18 95//35
f 103//36 85//37 86//15 94//34
f 16//38 83//39 84//8 14//8
f 15//40 82//41 83//39 16//38
f 13//1 81//1 82//42 15//42
f 3//7 14//8 84//8 77//7
f 91//4 78//4 89//4 97//4
f 93//43 81//44 85//37 103//36
f 22//1 93//1 103//2 17//2
f 2//4 91//4 97//4 26//4
f 17//2 103//2 94//34 19//45
f 19//45 94//34 95//35 20//46
f 20//33 95//33 96//19 18//19
f 5//4 18//19 96//19 92//4
f 5//6 92//6 91//6 2//6
f 79//7 99//7 104//7 90//7
f 90//6 104//6 97//6 89//6
f 77//6 98//6 99//6 79//6
f 83//39 101//13 102//8 84//8
f 82//41 100//10 101//12 83//39
f 81//44 93//43 100//10 82//41
f 77//7 84//8 102//8 98//7
usemtl Glass
f 62//6 61//6 64//6 63//6
f 68//47 66//47 70//7 72//7
f 64//48 61//48 66//47 68//47
f 63//3 64//3 68//3 67//3
f 62//49 63//49 67//50 65//50
f 61//5 62//5 65//5 66//5
f 69//51 71//51 75//51 73//51
f 67//3 68//3 72//3 71//3
f 65//50 67//50 71//4 69//4
f 66//5 65//5 69//5 70//5
f 73//23 75//23 76//23 74//23
f 70//5 69//5 73//5 74//5
f 72//52 70//52 74//52 76//52
f 71//3 72//3 76//3 75//3
