# Blender v2.79 (sub 0) OBJ File: 'Stock_Grenade_2.blend'
# www.blender.org
mtllib Stock_Grenade_2.mtl
o Stock_Grenade_2_Cube.009
v -0.394348 0.178538 0.020036
v -0.329272 0.113116 0.049908
v -0.369635 -0.077867 0.024954
v -0.357567 0.019804 0.024954
v -0.319878 -0.035548 0.049908
v -0.327268 -0.104981 0.024954
v -0.337412 0.190796 0.015118
v -0.337412 0.178538 0.040072
v -0.325056 -0.077867 0.049908
v -0.359278 -0.035548 0.024954
v -0.378068 0.113116 0.024954
v -0.319022 0.019804 0.049908
v -0.394348 0.178538 -0.020036
v -0.329272 0.113116 -0.049908
v -0.369635 -0.077867 -0.024954
v -0.357567 0.019804 -0.024954
v -0.319878 -0.035548 -0.049908
v -0.327268 -0.104981 -0.024954
v -0.337412 0.190796 -0.015118
v -0.337412 0.178538 -0.040072
v -0.325056 -0.077867 -0.049908
v -0.359278 -0.035548 -0.024954
v -0.378068 0.113116 -0.024954
v -0.319022 0.019804 -0.049908
v -0.280477 0.178538 0.040072
v -0.378068 0.113116 0.000000
v -0.280477 -0.104981 0.024954
v -0.280477 0.190796 0.015118
v -0.280477 -0.035548 0.049908
v -0.365869 0.113116 0.043670
v -0.280477 0.113116 0.049908
v -0.380114 0.178538 0.035063
v -0.394348 0.178538 0.000000
v -0.361255 -0.098202 0.024954
v -0.380114 0.187731 0.016348
v -0.349428 -0.035548 0.043670
v -0.359278 -0.035548 0.000000
v -0.355884 -0.014107 0.024954
v -0.318181 -0.014107 0.049908
v -0.326715 -0.098202 0.043670
v -0.327268 -0.104981 0.000000
v -0.337412 0.190796 0.000000
v -0.337412 0.187731 0.028916
v -0.335377 0.156054 0.047449
v -0.390278 0.156054 0.023725
v -0.280477 -0.077867 0.049908
v -0.358490 -0.077867 0.043670
v -0.369635 -0.077867 0.000000
v -0.322655 -0.053731 0.049908
v -0.364833 -0.053731 0.024954
v -0.357567 0.019804 0.000000
v -0.347930 0.019804 0.043670
v -0.280477 0.019804 0.049908
v -0.364802 0.063205 0.024954
v -0.322640 0.063205 0.049908
v -0.280477 0.178538 -0.040072
v -0.280477 -0.104981 -0.024954
v -0.280477 0.190796 -0.015118
v -0.280477 -0.035548 -0.049908
v -0.365869 0.113116 -0.043670
v -0.280477 0.113116 -0.049908
v -0.380114 0.178538 -0.035063
v -0.361255 -0.098202 -0.024954
v -0.380114 0.187731 -0.016348
v -0.349428 -0.035548 -0.043670
v -0.355884 -0.014107 -0.024954
v -0.318181 -0.014107 -0.049908
v -0.326715 -0.098202 -0.043670
v -0.337412 0.187731 -0.028916
v -0.335377 0.156054 -0.047449
v -0.390278 0.156054 -0.023725
v -0.280477 -0.077867 -0.049908
v -0.358490 -0.077867 -0.043670
v -0.322655 -0.053731 -0.049908
v -0.364833 -0.053731 -0.024954
v -0.347930 0.019804 -0.043670
v -0.280477 0.019804 -0.049908
v -0.364802 0.063205 -0.024954
v -0.322640 0.063205 -0.049908
v -0.280477 -0.098202 0.043670
v -0.280477 0.187731 0.028916
v -0.280477 -0.014107 0.049908
v -0.280477 0.156054 0.047449
v -0.346458 -0.014107 0.043670
v -0.369043 0.185348 0.027342
v -0.351543 -0.092930 0.038818
v -0.376553 0.156054 0.041518
v -0.280477 -0.053731 0.049908
v -0.354289 -0.053731 0.043670
v -0.354262 0.063205 0.043670
v -0.280477 0.063205 0.049908
v -0.280477 -0.098202 -0.043670
v -0.280477 0.187731 -0.028916
v -0.280477 0.190796 0.000000
v -0.280477 -0.104981 0.000000
v -0.280477 -0.014107 -0.049908
v -0.280477 0.156054 -0.047449
v -0.346458 -0.014107 -0.043670
v -0.369043 0.185348 -0.027342
v -0.355884 -0.014107 0.000000
v -0.380114 0.187731 0.000000
v -0.351543 -0.092930 -0.038818
v -0.361255 -0.098202 0.000000
v -0.376553 0.156054 -0.041518
v -0.390278 0.156054 0.000000
v -0.280477 -0.053731 -0.049908
v -0.354289 -0.053731 -0.043670
v -0.364833 -0.053731 0.000000
v -0.364802 0.063205 0.000000
v -0.354262 0.063205 -0.043670
v -0.280477 0.063205 -0.049908
v -0.005210 0.009268 0.080195
v 0.151174 -0.076654 0.080195
v -0.005210 -0.197367 0.021238
v -0.005210 -0.138410 0.080195
v -0.005210 -0.189468 0.050717
v -0.005210 -0.167888 0.072296
v 0.151174 -0.138410 0.080195
v 0.151174 -0.197367 0.021238
v 0.151174 -0.167888 0.072296
v 0.151174 -0.189468 0.050717
v -0.005210 0.214885 0.016343
v -0.005210 0.151033 0.080195
v -0.005210 0.206330 0.048269
v -0.005210 0.182959 0.071641
v -0.312269 0.019864 0.069600
v -0.312269 -0.001327 0.069600
v -0.301673 0.009268 0.080195
v -0.312269 -0.109339 0.019843
v -0.301673 -0.119934 0.021238
v -0.312269 -0.059583 0.069600
v -0.301673 -0.060978 0.080195
v -0.312269 -0.102536 0.045232
v -0.301673 -0.112036 0.050717
v -0.312269 -0.084971 0.062797
v -0.301673 -0.090456 0.072296
v -0.312269 0.149638 0.069600
v -0.301673 0.151033 0.080195
v -0.312269 0.204290 0.014948
v -0.301673 0.214885 0.016343
v -0.312269 0.177474 0.062141
v -0.301673 0.182959 0.071641
v -0.312269 0.196831 0.042785
v -0.301673 0.206330 0.048269
v -0.243223 0.214885 0.016343
v -0.243223 -0.119934 0.021238
v -0.243223 0.151033 0.080195
v -0.243223 0.009268 0.080195
v -0.243223 -0.060978 0.080195
v -0.243223 -0.112036 0.050717
v -0.243223 -0.090456 0.072296
v -0.243223 0.182959 0.071641
v -0.243223 0.206330 0.048269
v 0.151174 -0.084101 0.072343
v 0.151174 -0.192408 0.019445
v 0.151174 -0.185321 0.045894
v 0.151174 -0.165959 0.065256
v 0.151174 -0.139510 0.072343
v 0.147536 -0.084101 0.072343
v 0.147536 -0.192408 0.019445
v 0.147536 -0.185321 0.045894
v 0.147536 -0.165959 0.065256
v 0.147536 -0.139510 0.072343
v 0.151174 -0.076654 0.080195
v 0.151174 -0.197367 0.021238
v 0.151174 -0.189468 0.050717
v 0.151174 -0.167888 0.072296
v 0.151174 -0.138410 0.080195
v -0.005210 -0.197367 0.000000
v -0.005210 0.214885 0.000000
v -0.005210 0.009268 -0.080195
v -0.005210 0.009268 0.000000
v 0.151174 -0.197367 0.000000
v 0.151174 -0.076654 -0.080195
v 0.151174 -0.076654 0.000000
v -0.005210 -0.197367 -0.021238
v -0.005210 -0.138410 -0.080195
v -0.005210 -0.189468 -0.050717
v -0.005210 -0.167888 -0.072296
v 0.151174 -0.138410 -0.080195
v 0.151174 -0.197367 -0.021238
v 0.151174 -0.167888 -0.072296
v 0.151174 -0.189468 -0.050717
v -0.005210 0.214885 -0.016343
v -0.005210 0.151033 -0.080195
v -0.005210 0.206330 -0.048269
v -0.005210 0.182959 -0.071641
v -0.312269 0.204290 0.000000
v -0.301673 0.214885 0.000000
v -0.301673 -0.119934 0.000000
v -0.312269 -0.109339 0.000000
v -0.312269 0.019864 -0.069600
v -0.312269 -0.001327 -0.069600
v -0.301673 0.009268 -0.080195
v -0.312269 -0.001327 0.000000
v -0.312269 0.019864 0.000000
v -0.312269 -0.109339 -0.019843
v -0.301673 -0.119934 -0.021238
v -0.312269 -0.059583 -0.069600
v -0.301673 -0.060978 -0.080195
v -0.312269 -0.102536 -0.045232
v -0.301673 -0.112036 -0.050717
v -0.312269 -0.084971 -0.062797
v -0.301673 -0.090456 -0.072296
v -0.312269 0.149638 -0.069600
v -0.301673 0.151033 -0.080195
v -0.312269 0.204290 -0.014948
v -0.301673 0.214885 -0.016343
v -0.312269 0.177474 -0.062141
v -0.301673 0.182959 -0.071641
v -0.312269 0.196831 -0.042785
v -0.301673 0.206330 -0.048269
v -0.243223 0.214885 -0.016343
v -0.243223 0.214885 0.000000
v -0.243223 -0.119934 -0.021238
v -0.243223 -0.119934 0.000000
v -0.243223 0.151033 -0.080195
v -0.243223 0.009268 -0.080195
v -0.243223 -0.060978 -0.080195
v -0.243223 -0.112036 -0.050717
v -0.243223 -0.090456 -0.072296
v -0.243223 0.182959 -0.071641
v -0.243223 0.206330 -0.048269
v 0.151174 -0.192408 0.000000
v 0.151174 -0.084101 0.000000
v 0.151174 -0.084101 -0.072343
v 0.151174 -0.192408 -0.019445
v 0.151174 -0.185321 -0.045894
v 0.151174 -0.165959 -0.065256
v 0.151174 -0.139510 -0.072343
v 0.147536 -0.192408 0.000000
v 0.147536 -0.084101 0.000000
v 0.147536 -0.084101 -0.072343
v 0.147536 -0.192408 -0.019445
v 0.147536 -0.185321 -0.045894
v 0.147536 -0.165959 -0.065256
v 0.147536 -0.139510 -0.072343
v 0.151174 -0.076654 -0.080195
v 0.151174 -0.197367 0.000000
v 0.151174 -0.076654 0.000000
v 0.151174 -0.197367 -0.021238
v 0.151174 -0.189468 -0.050717
v 0.151174 -0.167888 -0.072296
v 0.151174 -0.138410 -0.080195
vn -0.4647 0.8638 0.1948
vn -0.2615 0.8333 0.4870
vn -0.1432 0.8876 0.4377
vn -0.3088 0.9356 0.1713
vn -0.3170 0.9484 0.0000
vn -0.5425 0.8400 0.0000
vn -0.9840 -0.1781 0.0000
vn -0.9741 -0.2261 0.0000
vn -0.9734 -0.2291 0.0000
vn -0.7611 0.0171 0.6484
vn -0.7831 -0.0735 0.6176
vn -0.7889 -0.1049 0.6055
vn -0.0841 0.0119 0.9964
vn -0.0948 -0.0137 0.9954
vn 0.0000 0.0000 1.0000
vn 0.0000 0.0286 0.9996
vn 0.0000 0.1860 0.9825
vn -0.0720 0.1680 0.9832
vn -0.1384 0.1696 0.9757
vn -0.1654 -0.0009 0.9862
vn -0.1896 -0.0285 0.9814
vn -0.9512 0.1839 0.2476
vn -0.8542 0.1593 0.4950
vn -0.8537 0.2046 0.4789
vn -0.9418 0.2286 0.2465
vn -0.9698 0.2440 0.0000
vn -0.9808 0.1951 0.0000
vn -0.9246 -0.3810 0.0000
vn -0.7430 -0.3957 0.5397
vn -0.9654 -0.1017 0.2402
vn -0.8825 -0.0876 0.4621
vn -0.8559 -0.1703 0.4883
vn -0.9461 -0.1992 0.2555
vn -0.9775 -0.2109 0.0000
vn -0.9942 -0.1072 0.0000
vn -0.9986 0.0537 0.0000
vn -0.9700 0.0513 0.2378
vn -0.8892 0.0437 0.4553
vn -0.1010 0.0156 0.9948
vn -0.0993 0.0176 0.9949
vn -0.1031 0.0037 0.9947
vn -0.2120 0.0083 0.9772
vn -0.2046 0.0336 0.9783
vn -0.1932 0.0327 0.9806
vn -0.1050 -0.9767 0.1870
vn -0.0983 -0.9952 0.0000
vn 0.0000 -1.0000 0.0000
vn 0.0000 -0.9849 0.1729
vn 0.0000 -0.9402 0.3405
vn -0.1027 -0.9233 0.3700
vn -0.2155 -0.8918 0.3978
vn -0.2079 -0.9642 0.1646
vn -0.1956 -0.9807 0.0000
vn -0.0361 0.9927 0.1148
vn -0.0387 0.8969 0.4404
vn -0.0000 0.8988 0.4385
vn -0.0000 0.9940 0.1091
vn 0.0000 1.0000 0.0000
vn -0.0358 0.9994 0.0000
vn -0.0663 0.2941 0.9535
vn 0.0000 0.3117 0.9502
vn -0.0387 0.7778 0.6273
vn 0.0000 0.7717 0.6359
vn -0.1243 0.2776 0.9526
vn -0.0997 -0.1475 0.9840
vn -0.1035 -0.3086 0.9455
vn 0.0000 -0.2933 0.9560
vn 0.0000 -0.1483 0.9889
vn -0.1992 -0.1375 0.9703
vn -0.2050 -0.3204 0.9248
vn -0.9471 0.2140 0.2392
vn -0.8689 0.1843 0.4594
vn -0.9744 0.2248 0.0000
vn -0.9277 -0.2416 0.2848
vn -0.8204 -0.2006 0.5355
vn -0.9642 -0.2652 0.0000
vn -0.1025 -0.0074 0.9947
vn -0.2072 -0.0157 0.9782
vn -0.4647 0.8638 -0.1948
vn -0.3088 0.9356 -0.1713
vn -0.1432 0.8876 -0.4377
vn -0.2615 0.8333 -0.4870
vn -0.7611 0.0171 -0.6484
vn -0.7889 -0.1049 -0.6055
vn -0.7831 -0.0735 -0.6176
vn -0.0841 0.0119 -0.9964
vn 0.0000 0.0286 -0.9996
vn 0.0000 0.0000 -1.0000
vn -0.0948 -0.0137 -0.9954
vn -0.1896 -0.0285 -0.9814
vn -0.1654 -0.0009 -0.9862
vn -0.1384 0.1696 -0.9757
vn -0.0720 0.1680 -0.9832
vn 0.0000 0.1860 -0.9825
vn -0.9512 0.1839 -0.2476
vn -0.9418 0.2286 -0.2465
vn -0.8537 0.2046 -0.4789
vn -0.8542 0.1593 -0.4950
vn -0.7430 -0.3957 -0.5397
vn -0.9654 -0.1017 -0.2402
vn -0.9461 -0.1992 -0.2555
vn -0.8559 -0.1703 -0.4883
vn -0.8825 -0.0876 -0.4621
vn -0.8892 0.0437 -0.4553
vn -0.9700 0.0513 -0.2378
vn -0.1010 0.0156 -0.9948
vn -0.0993 0.0176 -0.9949
vn -0.1932 0.0327 -0.9806
vn -0.2046 0.0336 -0.9783
vn -0.2120 0.0083 -0.9772
vn -0.1031 0.0037 -0.9947
vn -0.1050 -0.9767 -0.1870
vn 0.0000 -0.9849 -0.1729
vn -0.2079 -0.9642 -0.1646
vn -0.2155 -0.8918 -0.3978
vn -0.1027 -0.9233 -0.3700
vn 0.0000 -0.9402 -0.3405
vn -0.0361 0.9927 -0.1148
vn -0.0000 0.9940 -0.1091
vn -0.0000 0.8988 -0.4385
vn -0.0387 0.8969 -0.4404
vn -0.0663 0.2941 -0.9535
vn 0.0000 0.3117 -0.9502
vn -0.1243 0.2776 -0.9526
vn -0.0387 0.7778 -0.6273
vn -0.0000 0.7717 -0.6359
vn -0.0997 -0.1475 -0.9840
vn 0.0000 -0.1483 -0.9889
vn 0.0000 -0.2933 -0.9560
vn -0.1035 -0.3086 -0.9455
vn -0.2050 -0.3204 -0.9248
vn -0.1992 -0.1375 -0.9703
vn -0.9471 0.2140 -0.2392
vn -0.8689 0.1843 -0.4594
vn -0.9277 -0.2416 -0.2848
vn -0.8204 -0.2006 -0.5355
vn -0.1025 -0.0074 -0.9947
vn -0.2072 -0.0157 -0.9782
vn 1.0000 -0.0000 0.0000
vn 0.0000 -0.0651 0.9979
vn -0.1573 -0.9789 0.1306
vn -0.1566 -0.9877 0.0000
vn -0.1535 -0.9799 0.1275
vn 0.0000 0.1305 0.9914
vn -1.0000 0.0000 0.0000
vn -0.1379 -0.8509 0.5070
vn 0.0000 -0.8660 0.5000
vn 0.0000 -0.9914 0.1305
vn -0.0751 -0.4783 0.8750
vn 0.0000 -0.5000 0.8660
vn -0.0000 0.5000 0.8660
vn -0.0170 -0.1176 0.9929
vn 0.0000 -0.1305 0.9914
vn 0.0000 -0.2543 0.9671
vn -0.0000 0.8660 0.5000
vn -0.0000 0.9914 0.1305
vn -0.7071 0.0000 0.7071
vn -0.7101 -0.0919 0.6980
vn -0.7193 -0.3474 0.6017
vn -0.7193 -0.6017 0.3474
vn -0.7101 -0.6980 0.0919
vn -0.7071 -0.7071 0.0000
vn -0.7193 0.3474 0.6017
vn -0.7101 0.0919 0.6980
vn -0.7193 0.6017 0.3474
vn -0.7101 0.6980 0.0919
vn -0.7071 0.7071 0.0000
vn -0.0253 -0.1432 0.9894
vn -0.0852 -0.5162 0.8522
vn -0.1356 -0.8637 0.4855
vn 0.0000 0.9914 -0.1305
vn 0.0000 0.5000 -0.8660
vn 0.0000 0.8660 -0.5000
vn 0.0000 0.1305 -0.9914
vn 0.4815 0.8764 0.0000
vn -0.1573 -0.9789 -0.1306
vn -0.1535 -0.9799 -0.1275
vn -0.1379 -0.8509 -0.5070
vn 0.0000 -0.9914 -0.1305
vn 0.0000 -0.8660 -0.5000
vn -0.0751 -0.4783 -0.8750
vn 0.0000 -0.5000 -0.8660
vn -0.0170 -0.1176 -0.9929
vn 0.0000 -0.1305 -0.9914
vn -0.7071 0.0000 -0.7071
vn -0.7101 -0.0919 -0.6980
vn -0.7193 -0.3474 -0.6017
vn -0.7193 -0.6017 -0.3474
vn -0.7101 -0.6980 -0.0919
vn -0.7193 0.3474 -0.6017
vn -0.7101 0.0919 -0.6980
vn -0.7193 0.6017 -0.3474
vn -0.7101 0.6980 -0.0919
vn -0.0253 -0.1432 -0.9894
vn -0.0852 -0.5162 -0.8522
vn -0.1356 -0.8637 -0.4855
usemtl Black
s 1
f 1//1 32//2 85//3 35//4
f 1//1 35//4 101//5 33//6
f 1//7 33//7 105//8 45//9
f 1//10 45//11 87//12 32//10
f 2//13 55//14 91//15 31//16
f 2//13 31//16 83//17 44//18
f 2//13 44//18 87//19 30//20
f 2//13 30//20 90//21 55//14
f 3//22 47//23 89//24 50//25
f 3//22 50//25 108//26 48//27
f 3//28 48//28 103//28 34//28
f 3//29 34//29 86//29 47//29
f 4//30 52//31 90//32 54//33
f 4//30 54//33 109//34 51//35
f 4//30 51//35 100//36 38//37
f 4//30 38//37 84//38 52//31
f 5//39 49//40 88//15 29//15
f 5//39 29//15 82//15 39//41
f 5//39 39//41 84//42 36//43
f 5//39 36//43 89//44 49//40
f 6//45 41//46 95//47 27//48
f 6//45 27//48 80//49 40//50
f 6//45 40//50 86//51 34//52
f 6//45 34//52 103//53 41//46
f 7//54 43//55 81//56 28//57
f 7//54 28//57 94//58 42//59
f 7//54 42//59 101//5 35//4
f 7//54 35//4 85//3 43//55
f 8//60 44//18 83//17 25//61
f 8//62 25//63 81//56 43//55
f 8//62 43//55 85//3 32//2
f 8//60 32//64 87//19 44//18
f 9//65 40//66 80//67 46//68
f 9//65 46//68 88//15 49//40
f 9//65 49//40 89//44 47//69
f 9//65 47//69 86//70 40//66
f 10//71 36//72 84//38 38//37
f 10//71 38//37 100//36 37//73
f 10//71 37//73 108//26 50//25
f 10//71 50//25 89//24 36//72
f 11//74 30//75 87//12 45//11
f 11//74 45//9 105//8 26//76
f 11//74 26//76 109//34 54//33
f 11//74 54//33 90//32 30//75
f 12//77 39//41 82//15 53//15
f 12//77 53//15 91//15 55//14
f 12//77 55//14 90//21 52//78
f 12//77 52//78 84//42 39//41
f 13//79 64//80 99//81 62//82
f 13//83 62//83 104//84 71//85
f 13//7 71//9 105//8 33//7
f 13//79 33//6 101//5 64//80
f 14//86 61//87 111//88 79//89
f 14//86 79//89 110//90 60//91
f 14//86 60//91 104//92 70//93
f 14//86 70//93 97//94 61//87
f 15//95 75//96 107//97 73//98
f 15//99 73//99 102//99 63//99
f 15//28 63//28 103//28 48//28
f 15//95 48//27 108//26 75//96
f 16//100 78//101 110//102 76//103
f 16//100 76//103 98//104 66//105
f 16//100 66//105 100//36 51//35
f 16//100 51//35 109//34 78//101
f 17//106 59//88 106//88 74//107
f 17//106 74//107 107//108 65//109
f 17//106 65//109 98//110 67//111
f 17//106 67//111 96//88 59//88
f 18//112 57//113 95//47 41//46
f 18//112 41//46 103//53 63//114
f 18//112 63//114 102//115 68//116
f 18//112 68//116 92//117 57//113
f 19//118 58//119 93//120 69//121
f 19//118 69//121 99//81 64//80
f 19//118 64//80 101//5 42//59
f 19//118 42//59 94//58 58//119
f 20//122 56//123 97//94 70//93
f 20//122 70//93 104//92 62//124
f 20//125 62//82 99//81 69//121
f 20//125 69//121 93//120 56//126
f 21//127 72//128 92//129 68//130
f 21//127 68//130 102//131 73//132
f 21//127 73//132 107//108 74//107
f 21//127 74//107 106//88 72//128
f 22//133 66//105 98//104 65//134
f 22//133 65//134 107//97 75//96
f 22//133 75//96 108//26 37//73
f 22//133 37//73 100//36 66//105
f 23//135 71//85 104//84 60//136
f 23//135 60//136 110//102 78//101
f 23//135 78//101 109//34 26//76
f 23//135 26//76 105//8 71//9
f 24//137 77//88 96//88 67//111
f 24//137 67//111 98//110 76//138
f 24//137 76//138 110//90 79//89
f 24//137 79//89 111//88 77//88
f 163//139 162//139 161//139 160//139 231//139 232//139 159//139
f 237//139 233//139 232//139 231//139 234//139 235//139 236//139
usemtl White
f 164//15 168//140 118//15 113//15
f 113//139 118//139 158//139 154//139
f 112//139 172//139 170//139 122//139 124//139 125//139 123//139
f 165//15 239//15 173//15 119//15
f 146//141 216//142 169//142 114//143
f 147//144 138//144 128//15 148//15
f 137//145 141//145 143//145 139//145 188//145 196//145 126//145
f 150//146 134//147 130//148 146//141
f 240//15 164//15 113//15 175//15
f 151//149 136//150 134//147 150//146
f 147//144 123//144 125//151 152//151
f 149//152 132//153 136//150 151//149
f 165//15 119//15 121//15 166//15
f 166//15 121//15 120//15 167//154
f 167//154 120//15 118//15 168//140
f 127//145 195//145 191//145 129//145 133//145 135//145 131//145
f 153//155 124//155 122//156 145//156
f 152//151 125//151 124//155 153//155
f 148//15 128//15 132//153 149//152
f 126//157 127//157 128//157
f 195//145 127//145 126//145 196//145
f 131//158 135//159 136//159 132//158
f 135//159 133//160 134//160 136//159
f 133//160 129//161 130//161 134//160
f 129//161 191//162 190//162 130//161
f 127//157 131//158 132//158 128//157
f 141//163 137//164 138//164 142//163
f 143//165 141//163 142//163 144//165
f 139//166 143//165 144//165 140//166
f 137//164 126//157 128//157 138//164
f 188//167 139//166 140//166 189//167
f 145//156 214//58 189//58 140//156
f 122//156 170//58 214//58 145//156
f 112//15 148//15 149//152 115//168
f 142//151 152//151 153//155 144//155
f 144//155 153//155 145//156 140//156
f 115//168 149//152 151//149 117//169
f 138//144 147//144 152//151 142//151
f 117//169 151//149 150//146 116//170
f 116//170 150//146 146//141 114//143
f 123//144 147//144 148//15 112//15
f 130//148 190//47 216//142 146//141
f 155//171 224//58 231//58 160//171
f 119//139 173//139 224//139 155//139
f 118//139 120//139 157//139 158//139
f 120//139 121//139 156//139 157//139
f 175//139 113//139 154//139 225//139
f 121//139 119//139 155//139 156//139
f 157//172 156//173 161//173 162//172
f 225//47 154//47 159//47 232//47
f 154//88 158//174 163//174 159//88
f 158//174 157//172 162//172 163//174
f 156//173 155//171 160//171 161//173
f 117//169 167//154 168//140 115//168
f 116//170 166//147 167//154 117//169
f 114//143 165//148 166//147 116//170
f 172//175 112//175 164//175 240//175
f 114//143 169//142 239//47 165//148
f 112//15 115//168 168//140 164//15
f 238//15 174//15 180//15 244//15
f 174//139 226//139 230//139 180//139
f 171//139 185//139 187//139 186//139 184//139 170//139 172//139
f 241//15 181//15 173//15 239//15
f 215//176 176//177 169//142 216//142
f 217//174 218//88 194//88 206//174
f 205//145 192//145 196//145 188//145 207//145 211//145 209//145
f 220//178 215//176 198//179 202//180
f 240//15 175//15 174//15 238//15
f 221//181 220//178 202//180 204//182
f 217//174 222//172 187//172 185//174
f 219//183 221//181 204//182 200//184
f 241//15 242//15 183//15 181//15
f 242//15 243//15 182//15 183//15
f 243//15 244//15 180//15 182//15
f 193//145 199//145 203//145 201//145 197//145 191//145 195//145
f 223//173 213//171 184//171 186//173
f 222//172 223//173 186//173 187//172
f 218//88 219//183 200//184 194//88
f 192//185 194//185 193//185
f 195//145 196//145 192//145 193//145
f 199//186 200//186 204//187 203//187
f 203//187 204//187 202//188 201//188
f 201//188 202//188 198//189 197//189
f 197//189 198//189 190//162 191//162
f 193//185 194//185 200//186 199//186
f 209//190 210//190 206//191 205//191
f 211//192 212//192 210//190 209//190
f 207//193 208//193 212//192 211//192
f 205//191 206//191 194//185 192//185
f 188//167 189//167 208//193 207//193
f 213//171 208//171 189//58 214//58
f 184//171 213//171 214//58 170//58
f 171//88 177//194 219//183 218//88
f 210//172 212//173 223//173 222//172
f 212//173 208//171 213//171 223//173
f 177//194 179//195 221//181 219//183
f 206//174 210//172 222//172 217//174
f 179//195 178//196 220//178 221//181
f 178//196 176//177 215//176 220//178
f 185//174 171//88 218//88 217//174
f 198//179 215//176 216//142 190//47
f 227//156 234//156 231//58 224//58
f 181//139 227//139 224//139 173//139
f 180//139 230//139 229//139 182//139
f 182//139 229//139 228//139 183//139
f 175//139 225//139 226//139 174//139
f 183//139 228//139 227//139 181//139
f 229//151 236//151 235//155 228//155
f 225//47 232//47 233//47 226//47
f 226//15 233//15 237//144 230//144
f 230//144 237//144 236//151 229//151
f 228//155 235//155 234//156 227//156
f 179//195 177//194 244//184 243//182
f 178//196 179//195 243//182 242//180
f 176//177 178//196 242//180 241//179
f 172//175 240//175 238//175 171//175
f 176//177 241//179 239//47 169//142
f 171//88 238//88 244//184 177//194
