# Blender v2.79 (sub 0) OBJ File: 'Stock_SMG_1.blend'
# www.blender.org
mtllib Stock_SMG_1.mtl
o Stock_SMG_1_Cube.011
v -0.538292 -0.290242 0.048500
v -0.538292 0.047394 0.048500
v -0.455397 0.047394 0.048500
v -0.455397 -0.230127 0.048500
v -0.515512 -0.290242 0.048500
v -0.459973 -0.253132 0.048500
v -0.473004 -0.272635 0.048500
v -0.492507 -0.285666 0.048500
v -0.466817 0.060735 0.037475
v -0.466817 -0.188752 0.037475
v -0.304059 0.060735 0.037475
v -0.360764 -0.188752 0.037475
v -0.466817 -0.119552 0.037475
v -0.304059 -0.119552 0.037475
v -0.232829 0.060735 0.037475
v -0.232829 -0.039218 0.037475
v -0.475344 -0.020312 0.041457
v -0.305313 -0.020312 0.041457
v -0.475344 -0.055470 0.041457
v -0.417582 -0.020312 0.041457
v -0.417582 -0.055470 0.041457
v -0.475344 -0.240783 0.041457
v -0.417582 -0.240783 0.041457
v -0.249947 0.040091 0.031349
v -0.032195 0.040091 0.031349
v -0.249947 -0.017645 0.031349
v -0.249947 -0.035549 0.013445
v -0.032195 -0.035549 0.013445
v -0.032195 -0.017645 0.031349
v -0.117691 0.052094 0.037475
v -0.117691 -0.011177 0.037475
v 0.002099 0.052094 0.037475
v 0.002099 -0.011177 0.037475
v -0.117691 -0.018309 0.037475
v -0.117691 -0.049204 0.006581
v -0.117691 -0.033756 0.033336
v -0.117691 -0.045065 0.022028
v 0.002099 -0.049204 0.006581
v 0.002099 -0.018309 0.037475
v 0.002099 -0.045065 0.022028
v 0.002099 -0.033756 0.033336
v -0.326722 -0.055470 0.041457
v -0.305313 -0.030307 0.041457
v -0.407135 -0.188752 0.037475
v -0.407135 0.060735 0.037475
v -0.407135 -0.119552 0.037475
v -0.466817 -0.237715 0.037475
v -0.407135 -0.237715 0.037475
v -0.515512 0.047394 0.048500
v -0.538292 0.081354 0.048500
v -0.538292 0.122766 0.007087
v -0.538292 0.102060 0.042952
v -0.538292 0.117218 0.027794
v -0.455397 0.081354 0.048500
v -0.455397 0.122766 0.007087
v -0.455397 0.102060 0.042952
v -0.455397 0.117218 0.027794
v -0.209432 0.047394 0.007087
v -0.250845 0.047394 0.048500
v -0.214980 0.047394 0.027794
v -0.230138 0.047394 0.042952
v -0.209432 0.081354 0.007087
v -0.250845 0.122766 0.007087
v -0.250845 0.081354 0.048500
v -0.214964 0.102033 0.007087
v -0.214964 0.081354 0.027767
v -0.220338 0.101158 0.026892
v -0.250845 0.117234 0.027767
v -0.230165 0.117234 0.007087
v -0.231040 0.111860 0.026892
v -0.230165 0.081354 0.042968
v -0.250845 0.102033 0.042968
v -0.231040 0.101158 0.037594
v -0.515512 0.122766 0.007087
v -0.515512 0.081354 0.048500
v -0.515512 0.117218 0.027794
v -0.515512 0.102060 0.042952
v -0.538292 -0.290242 -0.048500
v -0.538292 0.047394 -0.048500
v -0.455397 0.047394 -0.048500
v -0.455397 -0.230127 -0.048500
v -0.515512 -0.290242 -0.048500
v -0.459973 -0.253132 -0.048500
v -0.473004 -0.272635 -0.048500
v -0.492507 -0.285666 -0.048500
v -0.538292 0.122766 -0.000000
v -0.538292 -0.290242 -0.000000
v -0.455397 0.122766 -0.000000
v -0.455397 0.047394 -0.000000
v -0.538292 0.047394 -0.000000
v -0.209432 0.047394 -0.000000
v -0.515512 -0.290242 -0.000000
v -0.492507 -0.285666 -0.000000
v -0.473004 -0.272635 -0.000000
v -0.459973 -0.253132 -0.000000
v -0.455397 -0.230127 -0.000000
v -0.466817 0.060735 -0.037475
v -0.466817 -0.188752 -0.037475
v -0.466817 0.060735 -0.000000
v -0.466817 -0.188752 -0.000000
v -0.304059 0.060735 -0.000000
v -0.304059 0.060735 -0.037475
v -0.360764 -0.188752 -0.037475
v -0.360764 -0.188752 -0.000000
v -0.466817 -0.119552 -0.037475
v -0.466817 -0.119552 -0.000000
v -0.304059 -0.119552 -0.037475
v -0.304059 -0.119552 -0.000000
v -0.232829 0.060735 -0.000000
v -0.232829 0.060735 -0.037475
v -0.232829 -0.039218 -0.000000
v -0.232829 -0.039218 -0.037475
v -0.475344 -0.020312 -0.000000
v -0.475344 -0.020312 -0.041457
v -0.305313 -0.020312 -0.000000
v -0.305313 -0.020312 -0.041457
v -0.475344 -0.055470 -0.000000
v -0.475344 -0.055470 -0.041457
v -0.407135 0.060735 -0.000000
v -0.407135 -0.188752 -0.000000
v -0.417582 -0.020312 -0.000000
v -0.417582 -0.020312 -0.041457
v -0.417582 -0.055470 -0.000000
v -0.417582 -0.055470 -0.041457
v -0.475344 -0.240783 -0.000000
v -0.475344 -0.240783 -0.041457
v -0.417582 -0.240783 -0.041457
v -0.417582 -0.240783 -0.000000
v -0.249947 0.040091 -0.000000
v -0.249947 0.040091 -0.031349
v -0.249947 -0.035549 -0.000000
v -0.032195 0.040091 -0.000000
v -0.032195 0.040091 -0.031349
v -0.032195 -0.035549 -0.000000
v -0.249947 -0.017645 -0.031349
v -0.249947 -0.035549 -0.013445
v -0.032195 -0.035549 -0.013445
v -0.032195 -0.017645 -0.031349
v -0.117691 0.052094 -0.037475
v -0.117691 0.052094 -0.000000
v -0.117691 -0.011177 -0.000000
v -0.117691 -0.011177 -0.037475
v 0.002099 0.052094 -0.037476
v 0.002099 0.052094 -0.000000
v 0.002099 -0.011177 -0.037475
v -0.117691 -0.049204 -0.000000
v 0.002099 -0.049204 -0.000000
v -0.117691 -0.018309 -0.037475
v -0.117691 -0.049204 -0.006581
v -0.117691 -0.033756 -0.033336
v -0.117691 -0.045065 -0.022028
v 0.002099 -0.049204 -0.006581
v 0.002099 -0.018309 -0.037475
v 0.002099 -0.045065 -0.022028
v 0.002099 -0.033756 -0.033336
v -0.305313 -0.030307 -0.000000
v -0.326722 -0.055470 -0.000000
v -0.326722 -0.055470 -0.041457
v -0.305313 -0.030307 -0.041457
v -0.407135 -0.188752 -0.037475
v -0.407135 0.060735 -0.037475
v -0.407135 -0.119552 -0.037475
v -0.466817 -0.237715 -0.037475
v -0.466817 -0.237715 -0.000000
v -0.407135 -0.237715 -0.037475
v -0.407135 -0.237715 -0.000000
v -0.515512 0.047394 -0.048500
v -0.515512 0.122766 -0.000000
v -0.538292 0.081354 -0.048500
v -0.538292 0.122766 -0.007088
v -0.538292 0.102060 -0.042952
v -0.538292 0.117218 -0.027794
v -0.455397 0.081354 -0.048500
v -0.455397 0.122766 -0.007088
v -0.455397 0.102060 -0.042952
v -0.455397 0.117218 -0.027794
v -0.209432 0.047394 -0.007088
v -0.250845 0.047394 -0.048500
v -0.214980 0.047394 -0.027794
v -0.230138 0.047394 -0.042952
v -0.209432 0.081354 -0.007088
v -0.250845 0.122766 -0.007088
v -0.250845 0.081354 -0.048500
v -0.214964 0.102033 -0.007088
v -0.214964 0.081354 -0.027767
v -0.220338 0.101158 -0.026892
v -0.250845 0.117234 -0.027767
v -0.230165 0.117234 -0.007088
v -0.231040 0.111860 -0.026892
v -0.230165 0.081354 -0.042968
v -0.250845 0.102033 -0.042968
v -0.231040 0.101158 -0.037594
v -0.250845 0.122766 -0.000000
v -0.209432 0.081354 -0.000000
v -0.230138 0.117218 -0.000000
v -0.214980 0.102060 -0.000000
v -0.515512 0.122766 -0.007088
v -0.515512 0.081354 -0.048500
v -0.515512 0.117218 -0.027794
v -0.515512 0.102060 -0.042952
v -0.514286 -0.285147 0.040910
v -0.514286 -0.285147 -0.040910
v -0.552685 -0.285147 0.040910
v -0.552685 -0.285147 -0.040910
v -0.514286 -0.228721 0.040910
v -0.514286 -0.172294 0.040910
v -0.514286 -0.115868 0.040910
v -0.514286 -0.059442 0.040910
v -0.514286 -0.003015 0.040910
v -0.514286 0.053411 0.040910
v -0.514286 0.053411 -0.040910
v -0.514286 -0.003015 -0.040910
v -0.514286 -0.059442 -0.040910
v -0.514286 -0.115868 -0.040910
v -0.514286 -0.172294 -0.040910
v -0.514286 -0.228721 -0.040910
v -0.552685 -0.228721 0.040910
v -0.552685 -0.172294 0.040910
v -0.552685 -0.115868 0.040910
v -0.552685 -0.059442 0.040910
v -0.552685 -0.003015 0.040910
v -0.552685 0.053411 0.040910
v -0.552685 0.053411 -0.040910
v -0.552685 -0.003015 -0.040910
v -0.552685 -0.059442 -0.040910
v -0.552685 -0.115868 -0.040910
v -0.552685 -0.172294 -0.040910
v -0.552685 -0.228721 -0.040910
v -0.576066 -0.278549 0.040910
v -0.576066 -0.235319 0.040910
v -0.576066 -0.235319 -0.040910
v -0.576066 -0.278549 -0.040910
v -0.576066 -0.222122 0.040910
v -0.576066 -0.178892 0.040910
v -0.576066 -0.178892 -0.040910
v -0.576066 -0.222122 -0.040910
v -0.576066 -0.165696 0.040910
v -0.576066 -0.122466 0.040910
v -0.576066 -0.122466 -0.040910
v -0.576066 -0.165696 -0.040910
v -0.576066 -0.109270 0.040910
v -0.576066 -0.066040 0.040910
v -0.576066 -0.066040 -0.040910
v -0.576066 -0.109270 -0.040910
v -0.576066 -0.052843 0.040910
v -0.576066 -0.009613 0.040910
v -0.576066 -0.009613 -0.040910
v -0.576066 -0.052843 -0.040910
v -0.576066 0.003583 0.040910
v -0.576066 0.046813 0.040910
v -0.576066 0.046813 -0.040910
v -0.576066 0.003583 -0.040910
v -0.576066 0.060009 0.040910
v -0.576066 0.060009 -0.040910
v -0.514286 0.107370 0.023643
v -0.514286 0.088312 0.040910
v -0.514286 0.088312 -0.040910
v -0.514286 0.107370 -0.023643
v -0.552685 0.107370 0.023643
v -0.552685 0.088312 0.040910
v -0.552685 0.088312 -0.040910
v -0.552685 0.107370 -0.023643
v -0.576066 0.081714 0.040910
v -0.576066 0.100772 0.023643
v -0.576066 0.100772 -0.023643
v -0.576066 0.081714 -0.040910
v -0.514286 0.114204 -0.000000
v -0.552685 0.114204 -0.000000
v -0.576066 0.107606 -0.000000
vn 0.0000 0.0000 -1.0000
vn 0.0000 -1.0000 0.0000
vn 0.0000 0.0000 1.0000
vn -0.0000 0.9607 -0.2777
vn 1.0000 0.0000 0.0000
vn -1.0000 0.0000 0.0000
vn -0.2716 0.9624 0.0000
vn -0.2716 -0.9624 0.0000
vn -0.2617 0.9272 0.2680
vn -0.0000 0.6714 0.7411
vn -0.0000 0.6714 -0.7411
vn -0.1862 0.6597 0.7281
vn -0.1862 0.6597 -0.7281
vn -0.2617 0.9272 -0.2680
vn -0.0000 0.9607 0.2777
vn 0.7610 -0.6488 0.0000
vn 0.7735 -0.6338 0.0000
vn 0.0000 1.0000 0.0000
vn 0.7482 -0.6634 0.0000
vn -0.0000 -0.1305 0.9914
vn -0.0000 -0.5000 0.8660
vn -0.0000 -0.8660 0.5000
vn -0.0000 -0.9914 0.1305
vn -0.0000 -0.1305 -0.9914
vn -0.0000 -0.5000 -0.8660
vn -0.0000 -0.8660 -0.5000
vn -0.0000 -0.9914 -0.1305
vn 0.0000 -0.7071 0.7071
vn 0.7616 -0.6480 0.0000
vn 0.0000 -0.7071 -0.7071
vn 0.9952 -0.0980 0.0000
vn 0.1304 -0.0001 0.9915
vn 0.1296 0.1296 0.9831
vn -0.0000 0.1305 0.9915
vn -0.0000 0.9915 0.1305
vn 0.1296 0.9831 0.1295
vn 0.1304 0.9915 0.0000
vn -0.0000 0.1305 0.9914
vn 0.0980 -0.9952 0.0000
vn 0.3827 -0.9239 0.0000
vn 0.7071 -0.7071 0.0000
vn 0.9239 -0.3827 0.0000
vn 0.0000 0.9914 0.1305
vn 0.9831 0.1296 0.1295
vn 0.9915 -0.0001 0.1304
vn 0.9915 0.1304 -0.0000
vn 0.8625 0.4913 0.1217
vn 0.7744 0.4473 0.4473
vn 0.8623 0.1216 0.4915
vn 0.4913 0.8625 0.1217
vn 0.4473 0.7744 0.4473
vn 0.1216 0.8623 0.4916
vn 0.1216 0.4916 0.8623
vn 0.4473 0.4473 0.7744
vn 0.4915 0.1216 0.8623
vn 0.0000 0.5000 0.8660
vn 0.0000 0.8660 0.5000
vn 0.8660 0.0001 0.5001
vn 0.5000 0.0001 0.8660
vn 0.8657 0.5005 -0.0000
vn 0.5005 0.8657 -0.0000
vn -0.0000 0.1305 -0.9915
vn 0.1296 0.1296 -0.9831
vn 0.1304 -0.0001 -0.9915
vn -0.0000 0.9915 -0.1305
vn 0.1296 0.9831 -0.1295
vn -0.0000 0.1305 -0.9914
vn 0.0000 0.9914 -0.1305
vn 0.9831 0.1296 -0.1295
vn 0.9915 -0.0001 -0.1304
vn 0.8623 0.1216 -0.4915
vn 0.7744 0.4473 -0.4473
vn 0.8625 0.4913 -0.1217
vn 0.4473 0.7744 -0.4474
vn 0.4913 0.8625 -0.1217
vn 0.1216 0.8623 -0.4916
vn 0.4473 0.4473 -0.7744
vn 0.1216 0.4916 -0.8623
vn 0.4915 0.1216 -0.8623
vn -0.0000 0.5000 -0.8660
vn -0.0000 0.8660 -0.5000
vn 0.8660 0.0001 -0.5001
vn 0.5000 0.0001 -0.8660
usemtl Black
s off
f 216//1 202//1 204//1 228//1
f 202//2 201//2 203//2 204//2
f 201//3 205//3 217//3 203//3
f 205//3 206//3 218//3 217//3
f 206//3 207//3 219//3 218//3
f 207//3 208//3 220//3 219//3
f 208//3 209//3 221//3 220//3
f 209//3 210//3 222//3 221//3
f 268//4 267//4 258//4 262//4
f 260//3 263//3 253//3 222//3
f 211//1 212//1 224//1 223//1
f 212//1 213//1 225//1 224//1
f 213//1 214//1 226//1 225//1
f 214//1 215//1 227//1 226//1
f 215//1 216//1 228//1 227//1
f 201//5 202//5 216//5 205//5
f 205//5 216//5 215//5 206//5
f 206//5 215//5 214//5 207//5
f 207//5 214//5 213//5 208//5
f 208//5 213//5 212//5 209//5
f 209//5 212//5 211//5 210//5
f 210//3 256//3 260//3 222//3
f 257//1 211//1 223//1 261//1
f 229//6 230//6 231//6 232//6
f 217//3 230//3 229//3 203//3
f 228//7 231//7 230//7 217//7
f 204//1 232//1 231//1 228//1
f 203//8 229//8 232//8 204//8
f 233//6 234//6 235//6 236//6
f 218//3 234//3 233//3 217//3
f 227//7 235//7 234//7 218//7
f 228//1 236//1 235//1 227//1
f 217//8 233//8 236//8 228//8
f 237//6 238//6 239//6 240//6
f 219//3 238//3 237//3 218//3
f 226//7 239//7 238//7 219//7
f 227//1 240//1 239//1 226//1
f 218//8 237//8 240//8 227//8
f 241//6 242//6 243//6 244//6
f 220//3 242//3 241//3 219//3
f 225//7 243//7 242//7 220//7
f 226//1 244//1 243//1 225//1
f 219//8 241//8 244//8 226//8
f 245//6 246//6 247//6 248//6
f 221//3 246//3 245//3 220//3
f 224//7 247//7 246//7 221//7
f 225//1 248//1 247//1 224//1
f 220//8 245//8 248//8 225//8
f 249//6 250//6 251//6 252//6
f 222//3 250//3 249//3 221//3
f 223//7 251//7 250//7 222//7
f 224//1 252//1 251//1 223//1
f 221//8 249//8 252//8 224//8
f 268//9 269//9 264//9 259//9
f 223//1 254//1 266//1 261//1
f 253//6 263//6 264//6 269//6 265//6 266//6 254//6
f 222//8 253//8 254//8 223//8
f 255//10 259//10 260//10 256//10
f 257//11 261//11 262//11 258//11
f 259//12 264//12 263//12 260//12
f 261//13 266//13 265//13 262//13
f 210//5 211//5 257//5 258//5 267//5 255//5 256//5
f 262//14 265//14 269//14 268//14
f 259//15 255//15 267//15 268//15
s 1
f 106//6 100//6 10//6 13//6
f 108//16 14//16 12//17 104//17
f 46//3 14//3 11//3 45//3
f 120//2 104//2 12//2 44//2
f 45//18 11//18 101//18 119//18
f 44//3 12//3 14//3 46//3
f 11//18 15//18 109//18 101//18
f 99//6 106//6 13//6 9//6
f 109//5 15//5 16//5 111//5
f 14//3 16//3 15//3 11//3
f 108//16 111//19 16//19 14//16
f 10//3 44//3 46//3 13//3
f 32//3 30//3 31//3 33//3
f 30//6 140//6 141//6 31//6
f 140//18 30//18 32//18 144//18
f 33//3 31//3 34//20 39//20
f 31//6 141//6 146//6 35//6 37//6 36//6 34//6
f 34//20 36//21 41//21 39//20
f 36//21 37//22 40//22 41//21
f 37//22 35//23 38//23 40//22
f 146//2 147//2 38//23 35//23
f 9//18 45//18 119//18 99//18
f 44//3 10//3 47//3 48//3
f 13//3 46//3 45//3 9//3
f 164//2 166//2 48//2 47//2
f 10//6 100//6 164//6 47//6
f 120//5 44//5 48//5 166//5
f 106//6 105//6 98//6 100//6
f 108//16 104//17 103//17 107//16
f 162//1 161//1 102//1 107//1
f 120//2 160//2 103//2 104//2
f 161//18 119//18 101//18 102//18
f 160//1 162//1 107//1 103//1
f 102//18 101//18 109//18 110//18
f 99//6 97//6 105//6 106//6
f 109//5 111//5 112//5 110//5
f 107//1 102//1 110//1 112//1
f 108//16 107//16 112//19 111//19
f 98//1 105//1 162//1 160//1
f 143//1 145//1 142//1 139//1
f 139//6 142//6 141//6 140//6
f 140//18 144//18 143//18 139//18
f 145//1 153//24 148//24 142//1
f 142//6 148//6 150//6 151//6 149//6 146//6 141//6
f 148//24 153//24 155//25 150//25
f 150//25 155//25 154//26 151//26
f 151//26 154//26 152//27 149//27
f 146//2 149//27 152//27 147//2
f 97//18 99//18 119//18 161//18
f 160//1 165//1 163//1 98//1
f 105//1 97//1 161//1 162//1
f 164//2 163//2 165//2 166//2
f 98//6 163//6 164//6 100//6
f 120//5 166//5 165//5 160//5
usemtl Grey
f 20//18 18//18 115//18 121//18
f 18//3 20//3 21//3 42//3 43//3
f 17//6 113//6 117//6 19//6
f 20//3 17//3 19//3 21//3
f 21//2 123//2 157//2 42//2
f 19//3 22//3 23//3 21//3
f 17//18 20//18 121//18 113//18
f 22//2 125//2 128//2 23//2
f 21//5 23//5 128//5 123//5
f 117//6 125//6 22//6 19//6
f 131//2 134//2 28//2 27//2
f 129//6 131//6 27//6 26//6 24//6
f 24//18 25//18 132//18 129//18
f 26//28 27//28 28//28 29//28
f 26//3 29//3 25//3 24//3
f 156//29 43//29 42//29 157//29
f 115//5 18//5 43//5 156//5
f 122//18 121//18 115//18 116//18
f 116//1 159//1 158//1 124//1 122//1
f 114//6 118//6 117//6 113//6
f 122//1 124//1 118//1 114//1
f 124//2 158//2 157//2 123//2
f 118//1 124//1 127//1 126//1
f 114//18 113//18 121//18 122//18
f 126//2 127//2 128//2 125//2
f 124//5 123//5 128//5 127//5
f 117//6 118//6 126//6 125//6
f 131//2 136//2 137//2 134//2
f 129//6 130//6 135//6 136//6 131//6
f 130//18 129//18 132//18 133//18
f 135//30 138//30 137//30 136//30
f 135//1 130//1 133//1 138//1
f 156//29 157//29 158//29 159//29
f 115//5 156//5 159//5 116//5
usemtl White
f 89//5 3//5 4//31 96//31
f 3//3 59//32 64//33 54//34
f 55//35 63//36 193//37 88//18
f 54//34 75//38 49//3 3//3
f 92//39 93//40 8//40 5//39
f 93//40 94//41 7//41 8//40
f 94//41 95//42 6//42 7//41
f 95//42 96//31 4//31 6//42
f 4//3 3//3 49//3 5//3 8//3 7//3 6//3
f 89//2 91//2 58//2 60//2 61//2 59//2 3//2
f 168//18 74//43 55//35 88//18
f 62//44 58//45 91//5 194//46
f 62//44 65//47 67//48 66//49
f 65//47 69//50 70//51 67//48
f 63//36 68//52 70//51 69//50
f 68//52 72//53 73//54 70//51
f 64//33 71//55 73//54 72//53
f 71//55 66//49 67//48 73//54
f 67//48 70//51 73//54
f 75//38 54//34 56//56 77//56
f 77//56 56//56 57//57 76//57
f 76//57 57//57 55//35 74//43
f 58//45 62//44 66//49 60//58
f 60//58 66//49 71//55 61//59
f 61//59 71//55 64//33 59//32
f 63//36 55//35 57//57 68//52
f 68//52 57//57 56//56 72//53
f 72//53 56//56 54//34 64//33
f 62//44 194//46 196//60 65//47
f 65//47 196//60 195//61 69//50
f 69//50 195//61 193//37 63//36
f 89//5 96//31 81//31 80//5
f 80//1 173//62 183//63 178//64
f 174//65 88//18 193//37 182//66
f 173//62 80//1 167//1 198//67
f 92//39 82//39 85//40 93//40
f 93//40 85//40 84//41 94//41
f 94//41 84//41 83//42 95//42
f 95//42 83//42 81//31 96//31
f 81//1 83//1 84//1 85//1 82//1 167//1 80//1
f 89//2 80//2 178//2 180//2 179//2 177//2 91//2
f 168//18 88//18 174//65 197//68
f 181//69 194//46 91//5 177//70
f 181//69 185//71 186//72 184//73
f 184//73 186//72 189//74 188//75
f 182//66 188//75 189//74 187//76
f 187//76 189//74 192//77 191//78
f 183//63 191//78 192//77 190//79
f 190//79 192//77 186//72 185//71
f 186//72 192//77 189//74
f 198//67 200//80 175//80 173//62
f 200//80 199//81 176//81 175//80
f 199//81 197//68 174//65 176//81
f 177//70 179//82 185//71 181//69
f 179//82 180//83 190//79 185//71
f 180//83 178//64 183//63 190//79
f 182//66 187//76 176//81 174//65
f 187//76 191//78 175//80 176//81
f 191//78 183//63 173//62 175//80
f 181//69 184//73 196//60 194//46
f 184//73 188//75 195//61 196//60
f 188//75 182//66 193//37 195//61
usemtl Main
f 92//39 5//39 1//2 87//2
f 49//3 75//38 50//38 2//3
f 2//6 90//6 87//6 1//6
f 5//3 49//3 2//3 1//3
f 86//18 51//43 74//43 168//18
f 50//38 75//38 77//56 52//56
f 52//56 77//56 76//57 53//57
f 53//57 76//57 74//43 51//43
f 50//6 52//6 53//6 51//6 86//6 90//6 2//6
f 92//39 87//2 78//2 82//39
f 167//1 79//1 169//67 198//67
f 79//6 78//6 87//6 90//6
f 82//1 78//1 79//1 167//1
f 86//18 168//18 197//68 170//68
f 169//67 171//80 200//80 198//67
f 171//80 172//81 199//81 200//80
f 172//81 170//68 197//68 199//81
f 169//6 79//6 90//6 86//6 170//6 172//6 171//6
