{
    "asset" : {
        "generator" : "Khronos glTF Blender I/O v1.7.33",
        "version" : "2.0"
    },
    "scene" : 0,
    "scenes" : [
        {
            "name" : "Scene",
            "nodes" : [
                0,
                1,
                2,
                3
            ]
        }
    ],
    "nodes" : [
        {
            "mesh" : 0,
            "name" : "BackWheels"
        },
        {
            "mesh" : 1,
            "name" : "FrontWheel_R"
        },
        {
            "mesh" : 2,
            "name" : "FrontWheel_L"
        },
        {
            "mesh" : 3,
            "name" : "Pickup"
        }
    ],
    "materials" : [
        {
            "doubleSided" : true,
            "name" : "Atlas",
            "pbrMetallicRoughness" : {
                "baseColorTexture" : {
                    "index" : 0
                },
                "metallicFactor" : 0
            }
        },
        {
            "doubleSided" : true,
            "name" : "BrakeLight",
            "pbrMetallicRoughness" : {}
        },
        {
            "doubleSided" : true,
            "name" : "Headlights",
            "pbrMetallicRoughness" : {}
        }
    ],
    "meshes" : [
        {
            "name" : "Cylinder.002",
            "primitives" : [
                {
                    "attributes" : {
                        "POSITION" : 0,
                        "NORMAL" : 1,
                        "TEXCOORD_0" : 2
                    },
                    "indices" : 3,
                    "material" : 0
                }
            ]
        },
        {
            "name" : "Cylinder.001",
            "primitives" : [
                {
                    "attributes" : {
                        "POSITION" : 4,
                        "NORMAL" : 5,
                        "TEXCOORD_0" : 6
                    },
                    "indices" : 7,
                    "material" : 0
                }
            ]
        },
        {
            "name" : "Cylinder.003",
            "primitives" : [
                {
                    "attributes" : {
                        "POSITION" : 8,
                        "NORMAL" : 9,
                        "TEXCOORD_0" : 10
                    },
                    "indices" : 11,
                    "material" : 0
                }
            ]
        },
        {
            "name" : "Cube.003",
            "primitives" : [
                {
                    "attributes" : {
                        "POSITION" : 12,
                        "NORMAL" : 13,
                        "TEXCOORD_0" : 14
                    },
                    "indices" : 15,
                    "material" : 0
                },
                {
                    "attributes" : {
                        "POSITION" : 16,
                        "NORMAL" : 17,
                        "TEXCOORD_0" : 18
                    },
                    "indices" : 19,
                    "material" : 1
                },
                {
                    "attributes" : {
                        "POSITION" : 20,
                        "NORMAL" : 21,
                        "TEXCOORD_0" : 22
                    },
                    "indices" : 23,
                    "material" : 2
                }
            ]
        }
    ],
    "textures" : [
        {
            "sampler" : 0,
            "source" : 0
        }
    ],
    "images" : [
        {
            "bufferView" : 4,
            "mimeType" : "image/png",
            "name" : "Zombie_Atlas"
        }
    ],
    "accessors" : [
        {
            "bufferView" : 0,
            "componentType" : 5126,
            "count" : 2210,
            "max" : [
                1.1394755840301514,
                0.8709945678710938,
                -0.7868782877922058
            ],
            "min" : [
                -1.1394752264022827,
                -0.005935788154602051,
                -1.663808822631836
            ],
            "type" : "VEC3"
        },
        {
            "bufferView" : 1,
            "componentType" : 5126,
            "count" : 2210,
            "type" : "VEC3"
        },
        {
            "bufferView" : 2,
            "componentType" : 5126,
            "count" : 2210,
            "type" : "VEC2"
        },
        {
            "bufferView" : 3,
            "componentType" : 5123,
            "count" : 5736,
            "type" : "SCALAR"
        },
        {
            "bufferView" : 5,
            "componentType" : 5126,
            "count" : 1117,
            "max" : [
                -0.7395389080047607,
                0.8709945678710938,
                2.3270461559295654
            ],
            "min" : [
                -1.139475703239441,
                -0.005935788154602051,
                1.4501159191131592
            ],
            "type" : "VEC3"
        },
        {
            "bufferView" : 6,
            "componentType" : 5126,
            "count" : 1117,
            "type" : "VEC3"
        },
        {
            "bufferView" : 7,
            "componentType" : 5126,
            "count" : 1117,
            "type" : "VEC2"
        },
        {
            "bufferView" : 8,
            "componentType" : 5123,
            "count" : 2868,
            "type" : "SCALAR"
        },
        {
            "bufferView" : 9,
            "componentType" : 5126,
            "count" : 1110,
            "max" : [
                1.1394751071929932,
                0.8709944486618042,
                2.3270466327667236
            ],
            "min" : [
                0.7395382523536682,
                -0.005935788154602051,
                1.4501161575317383
            ],
            "type" : "VEC3"
        },
        {
            "bufferView" : 10,
            "componentType" : 5126,
            "count" : 1110,
            "type" : "VEC3"
        },
        {
            "bufferView" : 11,
            "componentType" : 5126,
            "count" : 1110,
            "type" : "VEC2"
        },
        {
            "bufferView" : 12,
            "componentType" : 5123,
            "count" : 2868,
            "type" : "SCALAR"
        },
        {
            "bufferView" : 13,
            "componentType" : 5126,
            "count" : 2158,
            "max" : [
                1.1560866832733154,
                1.8425095081329346,
                2.6930861473083496
            ],
            "min" : [
                -1.1560873985290527,
                0.5176767110824585,
                -2.487295389175415
            ],
            "type" : "VEC3"
        },
        {
            "bufferView" : 14,
            "componentType" : 5126,
            "count" : 2158,
            "type" : "VEC3"
        },
        {
            "bufferView" : 15,
            "componentType" : 5126,
            "count" : 2158,
            "type" : "VEC2"
        },
        {
            "bufferView" : 16,
            "componentType" : 5123,
            "count" : 6144,
            "type" : "SCALAR"
        },
        {
            "bufferView" : 17,
            "componentType" : 5126,
            "count" : 122,
            "max" : [
                0.9962179064750671,
                1.0411977767944336,
                -2.410240411758423
            ],
            "min" : [
                -0.9962170720100403,
                0.8973025679588318,
                -2.4491024017333984
            ],
            "type" : "VEC3"
        },
        {
            "bufferView" : 18,
            "componentType" : 5126,
            "count" : 122,
            "type" : "VEC3"
        },
        {
            "bufferView" : 19,
            "componentType" : 5126,
            "count" : 122,
            "type" : "VEC2"
        },
        {
            "bufferView" : 20,
            "componentType" : 5123,
            "count" : 600,
            "type" : "SCALAR"
        },
        {
            "bufferView" : 21,
            "componentType" : 5126,
            "count" : 247,
            "max" : [
                1.011626958847046,
                1.0883586406707764,
                2.5897183418273926
            ],
            "min" : [
                -1.0116276741027832,
                0.8280675411224365,
                2.4830851554870605
            ],
            "type" : "VEC3"
        },
        {
            "bufferView" : 22,
            "componentType" : 5126,
            "count" : 247,
            "type" : "VEC3"
        },
        {
            "bufferView" : 23,
            "componentType" : 5126,
            "count" : 247,
            "type" : "VEC2"
        },
        {
            "bufferView" : 24,
            "componentType" : 5123,
            "count" : 1080,
            "type" : "SCALAR"
        }
    ],
    "bufferViews" : [
        {
            "buffer" : 0,
            "byteLength" : 26520,
            "byteOffset" : 0
        },
        {
            "buffer" : 0,
            "byteLength" : 26520,
            "byteOffset" : 26520
        },
        {
            "buffer" : 0,
            "byteLength" : 17680,
            "byteOffset" : 53040
        },
        {
            "buffer" : 0,
            "byteLength" : 11472,
            "byteOffset" : 70720
        },
        {
            "buffer" : 0,
            "byteLength" : 3524,
            "byteOffset" : 82192
        },
        {
            "buffer" : 0,
            "byteLength" : 13404,
            "byteOffset" : 85716
        },
        {
            "buffer" : 0,
            "byteLength" : 13404,
            "byteOffset" : 99120
        },
        {
            "buffer" : 0,
            "byteLength" : 8936,
            "byteOffset" : 112524
        },
        {
            "buffer" : 0,
            "byteLength" : 5736,
            "byteOffset" : 121460
        },
        {
            "buffer" : 0,
            "byteLength" : 13320,
            "byteOffset" : 127196
        },
        {
            "buffer" : 0,
            "byteLength" : 13320,
            "byteOffset" : 140516
        },
        {
            "buffer" : 0,
            "byteLength" : 8880,
            "byteOffset" : 153836
        },
        {
            "buffer" : 0,
            "byteLength" : 5736,
            "byteOffset" : 162716
        },
        {
            "buffer" : 0,
            "byteLength" : 25896,
            "byteOffset" : 168452
        },
        {
            "buffer" : 0,
            "byteLength" : 25896,
            "byteOffset" : 194348
        },
        {
            "buffer" : 0,
            "byteLength" : 17264,
            "byteOffset" : 220244
        },
        {
            "buffer" : 0,
            "byteLength" : 12288,
            "byteOffset" : 237508
        },
        {
            "buffer" : 0,
            "byteLength" : 1464,
            "byteOffset" : 249796
        },
        {
            "buffer" : 0,
            "byteLength" : 1464,
            "byteOffset" : 251260
        },
        {
            "buffer" : 0,
            "byteLength" : 976,
            "byteOffset" : 252724
        },
        {
            "buffer" : 0,
            "byteLength" : 1200,
            "byteOffset" : 253700
        },
        {
            "buffer" : 0,
            "byteLength" : 2964,
            "byteOffset" : 254900
        },
        {
            "buffer" : 0,
            "byteLength" : 2964,
            "byteOffset" : 257864
        },
        {
            "buffer" : 0,
            "byteLength" : 1976,
            "byteOffset" : 260828
        },
        {
            "buffer" : 0,
            "byteLength" : 2160,
            "byteOffset" : 262804
        }
    ],
    "samplers" : [
        {
            "magFilter" : 9729,
            "minFilter" : 9987
        }
    ],
    "buffers" : [
        {
            "byteLength" : 264964,
            "uri" : "data:application/octet-stream;base64,"
        }
    ]
}
