{
    "asset" : {
        "generator" : "Khronos glTF Blender I/O v1.7.33",
        "version" : "2.0"
    },
    "scene" : 0,
    "scenes" : [
        {
            "name" : "Scene",
            "nodes" : [
                0,
                1,
                2,
                3
            ]
        }
    ],
    "nodes" : [
        {
            "mesh" : 0,
            "name" : "Pickup_Armored"
        },
        {
            "mesh" : 1,
            "name" : "BackWheels"
        },
        {
            "mesh" : 2,
            "name" : "FrontWheel_R"
        },
        {
            "mesh" : 3,
            "name" : "FrontWheel_L"
        }
    ],
    "materials" : [
        {
            "doubleSided" : true,
            "name" : "Atlas",
            "pbrMetallicRoughness" : {
                "baseColorTexture" : {
                    "index" : 0
                },
                "metallicFactor" : 0
            }
        },
        {
            "doubleSided" : true,
            "name" : "Headlights",
            "pbrMetallicRoughness" : {}
        }
    ],
    "meshes" : [
        {
            "name" : "Cylinder.007",
            "primitives" : [
                {
                    "attributes" : {
                        "POSITION" : 0,
                        "NORMAL" : 1,
                        "TEXCOORD_0" : 2
                    },
                    "indices" : 3,
                    "material" : 0
                },
                {
                    "attributes" : {
                        "POSITION" : 4,
                        "NORMAL" : 5,
                        "TEXCOORD_0" : 6
                    },
                    "indices" : 7,
                    "material" : 1
                }
            ]
        },
        {
            "name" : "Cylinder.002",
            "primitives" : [
                {
                    "attributes" : {
                        "POSITION" : 8,
                        "NORMAL" : 9,
                        "TEXCOORD_0" : 10
                    },
                    "indices" : 11,
                    "material" : 0
                }
            ]
        },
        {
            "name" : "Cylinder.001",
            "primitives" : [
                {
                    "attributes" : {
                        "POSITION" : 12,
                        "NORMAL" : 13,
                        "TEXCOORD_0" : 14
                    },
                    "indices" : 15,
                    "material" : 0
                }
            ]
        },
        {
            "name" : "Cylinder.003",
            "primitives" : [
                {
                    "attributes" : {
                        "POSITION" : 16,
                        "NORMAL" : 17,
                        "TEXCOORD_0" : 18
                    },
                    "indices" : 19,
                    "material" : 0
                }
            ]
        }
    ],
    "textures" : [
        {
            "sampler" : 0,
            "source" : 0
        }
    ],
    "images" : [
        {
            "bufferView" : 4,
            "mimeType" : "image/png",
            "name" : "Zombie_Atlas"
        }
    ],
    "accessors" : [
        {
            "bufferView" : 0,
            "componentType" : 5126,
            "count" : 11386,
            "max" : [
                1.325020432472229,
                1.9913249015808105,
                2.9083449840545654
            ],
            "min" : [
                -1.3250210285186768,
                0.2388058304786682,
                -2.597126007080078
            ],
            "type" : "VEC3"
        },
        {
            "bufferView" : 1,
            "componentType" : 5126,
            "count" : 11386,
            "type" : "VEC3"
        },
        {
            "bufferView" : 2,
            "componentType" : 5126,
            "count" : 11386,
            "type" : "VEC2"
        },
        {
            "bufferView" : 3,
            "componentType" : 5123,
            "count" : 26928,
            "type" : "SCALAR"
        },
        {
            "bufferView" : 5,
            "componentType" : 5126,
            "count" : 242,
            "max" : [
                1.011626958847046,
                1.099574327468872,
                2.5897183418273926
            ],
            "min" : [
                -1.0116276741027832,
                0.8392831683158875,
                2.4830851554870605
            ],
            "type" : "VEC3"
        },
        {
            "bufferView" : 6,
            "componentType" : 5126,
            "count" : 242,
            "type" : "VEC3"
        },
        {
            "bufferView" : 7,
            "componentType" : 5126,
            "count" : 242,
            "type" : "VEC2"
        },
        {
            "bufferView" : 8,
            "componentType" : 5123,
            "count" : 1080,
            "type" : "SCALAR"
        },
        {
            "bufferView" : 9,
            "componentType" : 5126,
            "count" : 2210,
            "max" : [
                1.1394755840301514,
                0.8709945678710938,
                -0.7868782877922058
            ],
            "min" : [
                -1.1394752264022827,
                -0.005935788154602051,
                -1.663808822631836
            ],
            "type" : "VEC3"
        },
        {
            "bufferView" : 10,
            "componentType" : 5126,
            "count" : 2210,
            "type" : "VEC3"
        },
        {
            "bufferView" : 11,
            "componentType" : 5126,
            "count" : 2210,
            "type" : "VEC2"
        },
        {
            "bufferView" : 12,
            "componentType" : 5123,
            "count" : 5736,
            "type" : "SCALAR"
        },
        {
            "bufferView" : 13,
            "componentType" : 5126,
            "count" : 1117,
            "max" : [
                -0.7395389080047607,
                0.8709945678710938,
                2.3270461559295654
            ],
            "min" : [
                -1.139475703239441,
                -0.005935788154602051,
                1.4501159191131592
            ],
            "type" : "VEC3"
        },
        {
            "bufferView" : 14,
            "componentType" : 5126,
            "count" : 1117,
            "type" : "VEC3"
        },
        {
            "bufferView" : 15,
            "componentType" : 5126,
            "count" : 1117,
            "type" : "VEC2"
        },
        {
            "bufferView" : 16,
            "componentType" : 5123,
            "count" : 2868,
            "type" : "SCALAR"
        },
        {
            "bufferView" : 17,
            "componentType" : 5126,
            "count" : 1110,
            "max" : [
                1.1394751071929932,
                0.8709944486618042,
                2.3270466327667236
            ],
            "min" : [
                0.7395382523536682,
                -0.005935788154602051,
                1.4501161575317383
            ],
            "type" : "VEC3"
        },
        {
            "bufferView" : 18,
            "componentType" : 5126,
            "count" : 1110,
            "type" : "VEC3"
        },
        {
            "bufferView" : 19,
            "componentType" : 5126,
            "count" : 1110,
            "type" : "VEC2"
        },
        {
            "bufferView" : 20,
            "componentType" : 5123,
            "count" : 2868,
            "type" : "SCALAR"
        }
    ],
    "bufferViews" : [
        {
            "buffer" : 0,
            "byteLength" : 136632,
            "byteOffset" : 0
        },
        {
            "buffer" : 0,
            "byteLength" : 136632,
            "byteOffset" : 136632
        },
        {
            "buffer" : 0,
            "byteLength" : 91088,
            "byteOffset" : 273264
        },
        {
            "buffer" : 0,
            "byteLength" : 53856,
            "byteOffset" : 364352
        },
        {
            "buffer" : 0,
            "byteLength" : 3524,
            "byteOffset" : 418208
        },
        {
            "buffer" : 0,
            "byteLength" : 2904,
            "byteOffset" : 421732
        },
        {
            "buffer" : 0,
            "byteLength" : 2904,
            "byteOffset" : 424636
        },
        {
            "buffer" : 0,
            "byteLength" : 1936,
            "byteOffset" : 427540
        },
        {
            "buffer" : 0,
            "byteLength" : 2160,
            "byteOffset" : 429476
        },
        {
            "buffer" : 0,
            "byteLength" : 26520,
            "byteOffset" : 431636
        },
        {
            "buffer" : 0,
            "byteLength" : 26520,
            "byteOffset" : 458156
        },
        {
            "buffer" : 0,
            "byteLength" : 17680,
            "byteOffset" : 484676
        },
        {
            "buffer" : 0,
            "byteLength" : 11472,
            "byteOffset" : 502356
        },
        {
            "buffer" : 0,
            "byteLength" : 13404,
            "byteOffset" : 513828
        },
        {
            "buffer" : 0,
            "byteLength" : 13404,
            "byteOffset" : 527232
        },
        {
            "buffer" : 0,
            "byteLength" : 8936,
            "byteOffset" : 540636
        },
        {
            "buffer" : 0,
            "byteLength" : 5736,
            "byteOffset" : 549572
        },
        {
            "buffer" : 0,
            "byteLength" : 13320,
            "byteOffset" : 555308
        },
        {
            "buffer" : 0,
            "byteLength" : 13320,
            "byteOffset" : 568628
        },
        {
            "buffer" : 0,
            "byteLength" : 8880,
            "byteOffset" : 581948
        },
        {
            "buffer" : 0,
            "byteLength" : 5736,
            "byteOffset" : 590828
        }
    ],
    "samplers" : [
        {
            "magFilter" : 9729,
            "minFilter" : 9987
        }
    ],
    "buffers" : [
        {
            "byteLength" : 596564,
            "uri" : "data:application/octet-stream;base64,"
        }
    ]
}
