# Blender 4.0.2
# www.blender.org
mtllib muzzleFlash.mtl
o SA_FX_GunFlash
v -0.033689 -0.033688 1.465235
v 0.033689 -0.033688 1.465235
v -0.033689 0.033689 1.465235
v 0.033689 0.033689 1.465235
v -0.084798 0.084798 -0.000000
v 0.084798 0.084798 -0.000000
v -0.084798 -0.084798 0.000000
v 0.084798 -0.084798 0.000000
v -0.232224 -0.232224 0.203485
v -0.232224 0.232224 0.203485
v 0.232224 0.232224 0.203485
v 0.232224 -0.232224 0.203485
vn -0.0000 -0.0000 1.0000
vn -0.0000 0.8098 -0.5867
vn -0.0000 -0.0000 -1.0000
vn -0.0000 -0.8098 -0.5867
vn 0.8098 -0.0000 -0.5867
vn -0.8098 -0.0000 -0.5867
vn -0.9878 -0.0000 0.1554
vn -0.0000 0.9878 0.1554
vn 0.9878 -0.0000 0.1554
vn -0.0000 -0.9878 0.1554
vt 0.485027 0.480137
vt 0.485027 0.480137
vt 0.485027 0.480137
vt 0.485027 0.480137
vt 0.485027 0.480137
vt 0.485027 0.480137
vt 0.485027 0.480137
vt 0.485027 0.480137
s 1
usemtl lambert1
f 1/1/1 2/2/1 4/3/1 3/4/1
f 10/4/2 11/3/2 6/3/2 5/4/2
f 5/4/3 6/3/3 8/2/3 7/1/3
f 7/1/4 8/2/4 12/5/4 9/6/4
f 11/7/5 12/8/5 8/2/5 6/3/5
f 7/8/6 9/2/6 10/3/6 5/7/6
f 10/3/7 9/2/7 1/1/7 3/4/7
f 3/4/8 4/3/8 11/3/8 10/4/8
f 2/2/9 12/8/9 11/7/9 4/3/9
f 9/6/10 12/5/10 2/2/10 1/1/10
