# Blender v3.0.0 OBJ File: 'Blood_3.blend'
# www.blender.org
mtllib Blood_3.mtl
o Blood_3_Plane.008
v -0.312447 0.006708 -0.918402
v -0.879904 0.006708 -0.294936
v 0.609041 0.006708 -0.157938
v 0.244236 0.006708 0.842914
v -0.760932 0.006708 -0.652040
v 0.672253 0.006708 0.821468
v 0.212206 0.006708 -0.530022
v -0.136168 0.006708 0.353178
v -0.323044 0.006708 -0.080039
v -0.184028 0.006708 -0.917508
v -0.608267 0.006708 0.105746
v -0.536823 0.006708 -0.286251
v 0.133501 0.006708 0.684658
v 0.126897 0.006708 0.188405
v 0.429046 0.006708 -0.334767
v 0.674524 0.006708 0.181422
v -0.396100 0.006708 -0.917145
v -0.023582 0.006708 -0.223466
v -0.214103 0.006708 -0.576412
v 0.201175 0.006708 0.024515
v 0.414417 0.006708 -0.732383
v 0.096529 0.006708 -0.884593
v 0.528126 0.006708 -0.552919
v 0.017900 0.006708 0.810340
v -0.244160 0.006708 0.612184
v 0.037773 0.006708 1.186169
v -0.312717 0.006708 1.186988
v -0.102332 0.006708 0.615424
v -0.290824 0.006708 1.223418
v 0.045387 0.006708 1.017653
v -0.424559 0.006708 0.844926
v -0.251615 0.006708 0.830968
v 0.037323 0.006708 0.854967
v -0.412225 0.006708 0.713458
v -0.213495 0.006708 0.754725
v -0.342482 0.006708 1.006187
v -0.238709 0.006708 0.945318
v 0.081082 0.006708 1.120559
v -0.098057 0.006708 1.223810
v 0.010688 0.006708 0.774953
v -0.138019 0.006708 0.919921
v -0.095707 0.006708 0.830861
v -0.136560 0.006708 1.006852
v 0.125725 0.006708 1.003552
v 0.091418 0.006708 0.922312
v 0.130652 0.006708 1.077167
v 0.741112 0.006708 -0.552774
v 0.838839 0.006708 -0.403505
v 0.746399 0.006708 -0.232208
v 0.678908 0.006708 -0.586946
v 0.764167 0.006708 -0.232067
v 0.758281 0.006708 -0.532834
v 0.636057 0.006708 -0.382210
v 0.681103 0.006708 -0.481821
v 0.657998 0.006708 -0.270254
v 0.720165 0.006708 -0.363407
v 0.828426 0.006708 -0.443961
v 0.818029 0.006708 -0.325995
v 0.708241 0.006708 -0.607194
v 0.733809 0.006708 -0.486900
v 0.755694 0.006708 -0.383318
v 0.780299 0.006708 -0.525192
v 0.825393 0.006708 -0.482341
v -0.820418 0.006708 -0.473488
v 0.490634 0.006708 0.920106
v -0.229606 0.006708 0.136569
v -0.572545 0.006708 -0.090253
v 0.130199 0.006708 0.436531
vt 0.014648 0.580201
vt 0.014648 0.580201
vt 0.014648 0.580201
vt 0.014648 0.580201
vt 0.014648 0.580201
vt 0.014648 0.580201
vt 0.014648 0.580201
vt 0.014648 0.580201
vt 0.014648 0.580201
vt 0.014648 0.580201
vt 0.014648 0.580201
vt 0.014648 0.580201
vt 0.014648 0.580201
vt 0.014648 0.580201
vt 0.014648 0.580201
vt 0.014648 0.580201
vt 0.014648 0.580201
vt 0.014648 0.580201
vt 0.014648 0.580201
vt 0.014648 0.580201
vt 0.014648 0.580201
vt 0.014648 0.580201
vt 0.014648 0.580201
vt 0.014648 0.580201
vt 0.014648 0.580201
vt 0.014648 0.580201
vt 0.014648 0.580201
vt 0.014648 0.580201
vt 0.014648 0.580201
vt 0.014648 0.580201
vt 0.014648 0.580201
vt 0.014648 0.580201
vt 0.014648 0.580201
vt 0.014648 0.580201
vt 0.014648 0.580201
vt 0.014648 0.580201
vt 0.014648 0.580201
vt 0.014648 0.580201
vt 0.014648 0.580201
vt 0.014648 0.580201
vt 0.014648 0.580201
vt 0.014648 0.580201
vt 0.014648 0.580201
vt 0.014648 0.580201
vt 0.014648 0.580201
vt 0.014648 0.580201
vt 0.014648 0.580201
vt 0.014648 0.580201
vt 0.014648 0.580201
vt 0.014648 0.580201
vt 0.014648 0.580201
vt 0.014648 0.580201
vt 0.014648 0.580201
vt 0.014648 0.580201
vt 0.014648 0.580201
vt 0.014648 0.580201
vt 0.014648 0.580201
vt 0.014648 0.580201
vt 0.014648 0.580201
vt 0.014648 0.580201
vt 0.014648 0.580201
vt 0.014648 0.580201
vt 0.014648 0.580201
vt 0.014648 0.580201
vt 0.014648 0.580201
vt 0.014648 0.580201
vt 0.014648 0.580201
vt 0.014648 0.580201
vn -0.0000 1.0000 -0.0000
usemtl Atlas
s 1
f 68/1/1 13/2/1 4/3/1 65/4/1
f 20/5/1 14/6/1 6/7/1 16/8/1
f 19/9/1 12/10/1 9/11/1 18/12/1
f 67/13/1 11/14/1 8/15/1 66/16/1
f 64/17/1 2/18/1 11/14/1 67/13/1
f 17/19/1 5/20/1 12/10/1 19/9/1
f 18/12/1 9/11/1 14/6/1 20/5/1
f 66/16/1 8/15/1 13/2/1 68/1/1
f 7/21/1 18/12/1 20/5/1 15/22/1
f 1/23/1 17/19/1 19/9/1 10/24/1
f 10/24/1 19/9/1 18/12/1 7/21/1
f 15/22/1 20/5/1 16/8/1 3/25/1
f 10/24/1 7/21/1 21/26/1 22/27/1
f 7/21/1 15/22/1 23/28/1 21/26/1
f 37/29/1 36/30/1 27/31/1 29/32/1
f 43/33/1 37/29/1 29/32/1 39/34/1
f 42/35/1 35/36/1 32/37/1 41/38/1
f 35/36/1 34/39/1 31/40/1 32/37/1
f 28/41/1 25/42/1 34/39/1 35/36/1
f 40/43/1 28/41/1 35/36/1 42/35/1
f 41/38/1 32/37/1 37/29/1 43/33/1
f 32/37/1 31/40/1 36/30/1 37/29/1
f 30/44/1 41/38/1 43/33/1 38/45/1
f 24/46/1 40/43/1 42/35/1 33/47/1
f 33/47/1 42/35/1 41/38/1 30/44/1
f 38/45/1 43/33/1 39/34/1 26/48/1
f 33/47/1 30/44/1 44/49/1 45/50/1
f 30/44/1 38/45/1 46/51/1 44/49/1
f 56/52/1 55/53/1 49/54/1 51/55/1
f 61/56/1 56/52/1 51/55/1 58/57/1
f 57/58/1 63/59/1 62/60/1 52/61/1
f 54/62/1 56/52/1 61/56/1 60/63/1
f 59/64/1 50/65/1 54/62/1 60/63/1
f 53/66/1 55/53/1 56/52/1 54/62/1
f 47/67/1 59/64/1 60/63/1 52/61/1
f 57/58/1 61/56/1 58/57/1 48/68/1
f 52/61/1 60/63/1 61/56/1 57/58/1
f 9/11/1 66/16/1 68/1/1 14/6/1
f 5/20/1 64/17/1 67/13/1 12/10/1
f 12/10/1 67/13/1 66/16/1 9/11/1
f 14/6/1 68/1/1 65/4/1 6/7/1
