# Blender v3.0.0 OBJ File: 'Blood_2.blend'
# www.blender.org
mtllib Blood_2.mtl
o Blood_2_Plane.005
v -0.485013 0.006708 0.336949
v 0.290261 0.006708 0.416023
v -0.403108 0.006708 -0.337832
v 0.108861 0.006708 -0.600032
v -0.076505 0.006708 0.500642
v 0.050480 0.006708 -0.651556
v -0.349900 0.006708 0.057011
v 0.493329 0.006708 -0.064404
v 0.173443 0.006708 0.067772
v -0.527794 0.006708 0.275687
v 0.544473 0.006708 0.172043
v 0.113925 0.006708 0.237628
v 0.260812 0.006708 -0.300692
v 0.101707 0.006708 -0.129218
v -0.329103 0.006708 -0.097027
v -0.286295 0.006708 -0.545586
v -0.455711 0.006708 0.384233
v -0.073722 0.006708 0.052220
v -0.225234 0.006708 0.246423
v -0.055517 0.006708 -0.113524
v -0.631442 0.006708 0.046653
v -0.613416 0.006708 0.176927
v -0.531762 0.006708 -0.045398
v 0.419395 0.006708 -0.379002
v 0.703916 0.006708 -0.223354
v 0.356924 0.006708 -0.744526
v 0.705156 0.006708 -0.784263
v 0.566599 0.006708 -0.234252
v 0.679352 0.006708 -0.818036
v 0.368072 0.006708 -0.576207
v 0.854292 0.006708 -0.456737
v 0.683969 0.006708 -0.423660
v 0.394310 0.006708 -0.416347
v 0.856635 0.006708 -0.324712
v 0.654653 0.006708 -0.344256
v 0.754815 0.006708 -0.607886
v 0.658444 0.006708 -0.535869
v 0.321169 0.006708 -0.674512
v 0.487734 0.006708 -0.797019
v 0.431570 0.006708 -0.350961
v 0.561196 0.006708 -0.499448
v 0.529043 0.006708 -0.406277
v 0.550093 0.006708 -0.585679
v 0.289797 0.006708 -0.553272
v 0.332913 0.006708 -0.476344
v 0.276725 0.006708 -0.625884
v -0.765688 0.006708 -0.188017
v -0.806846 0.006708 -0.423757
v -0.592716 0.006708 -0.448192
v -0.695753 0.006708 -0.111359
v -0.608583 0.006708 -0.468959
v -0.783857 0.006708 -0.221958
v -0.509130 0.006708 -0.190196
v -0.612793 0.006708 -0.162536
v -0.506394 0.006708 -0.310728
v -0.621440 0.006708 -0.295453
v -0.828832 0.006708 -0.380705
v -0.726410 0.006708 -0.456035
v -0.759573 0.006708 -0.128239
v -0.701009 0.006708 -0.215766
v -0.688065 0.006708 -0.326081
v -0.821610 0.006708 -0.258851
v -0.856161 0.006708 -0.350803
vt 0.014648 0.580201
vt 0.014648 0.580201
vt 0.014648 0.580201
vt 0.014648 0.580201
vt 0.014648 0.580201
vt 0.014648 0.580201
vt 0.014648 0.580201
vt 0.014648 0.580201
vt 0.014648 0.580201
vt 0.014648 0.580201
vt 0.014648 0.580201
vt 0.014648 0.580201
vt 0.014648 0.580201
vt 0.014648 0.580201
vt 0.014648 0.580201
vt 0.014648 0.580201
vt 0.014648 0.580201
vt 0.014648 0.580201
vt 0.014648 0.580201
vt 0.014648 0.580201
vt 0.014648 0.580201
vt 0.014648 0.580201
vt 0.014648 0.580201
vt 0.014648 0.580201
vt 0.014648 0.580201
vt 0.014648 0.580201
vt 0.014648 0.580201
vt 0.014648 0.580201
vt 0.014648 0.580201
vt 0.014648 0.580201
vt 0.014648 0.580201
vt 0.014648 0.580201
vt 0.014648 0.580201
vt 0.014648 0.580201
vt 0.014648 0.580201
vt 0.014648 0.580201
vt 0.014648 0.580201
vt 0.014648 0.580201
vt 0.014648 0.580201
vt 0.014648 0.580201
vt 0.014648 0.580201
vt 0.014648 0.580201
vt 0.014648 0.580201
vt 0.014648 0.580201
vt 0.014648 0.580201
vt 0.014648 0.580201
vt 0.014648 0.580201
vt 0.014648 0.580201
vt 0.014648 0.580201
vt 0.014648 0.580201
vt 0.014648 0.580201
vt 0.014648 0.580201
vt 0.014648 0.580201
vt 0.014648 0.580201
vt 0.014648 0.580201
vt 0.014648 0.580201
vt 0.014648 0.580201
vt 0.014648 0.580201
vt 0.014648 0.580201
vt 0.014648 0.580201
vt 0.014648 0.580201
vt 0.014648 0.580201
vt 0.014648 0.580201
vn -0.0000 1.0000 -0.0000
usemtl Atlas
s 1
f 14/1/1 13/2/1 4/3/1 6/4/1
f 20/5/1 14/1/1 6/4/1 16/6/1
f 19/7/1 12/8/1 9/9/1 18/10/1
f 12/8/1 11/11/1 8/12/1 9/9/1
f 5/13/1 2/14/1 11/11/1 12/8/1
f 17/15/1 5/13/1 12/8/1 19/7/1
f 18/10/1 9/9/1 14/1/1 20/5/1
f 9/9/1 8/12/1 13/2/1 14/1/1
f 7/16/1 18/10/1 20/5/1 15/17/1
f 1/18/1 17/15/1 19/7/1 10/19/1
f 10/19/1 19/7/1 18/10/1 7/16/1
f 15/17/1 20/5/1 16/6/1 3/20/1
f 10/19/1 7/16/1 21/21/1 22/22/1
f 7/16/1 15/17/1 23/23/1 21/21/1
f 37/24/1 36/25/1 27/26/1 29/27/1
f 43/28/1 37/24/1 29/27/1 39/29/1
f 42/30/1 35/31/1 32/32/1 41/33/1
f 35/31/1 34/34/1 31/35/1 32/32/1
f 28/36/1 25/37/1 34/34/1 35/31/1
f 40/38/1 28/36/1 35/31/1 42/30/1
f 41/33/1 32/32/1 37/24/1 43/28/1
f 32/32/1 31/35/1 36/25/1 37/24/1
f 30/39/1 41/33/1 43/28/1 38/40/1
f 24/41/1 40/38/1 42/30/1 33/42/1
f 33/42/1 42/30/1 41/33/1 30/39/1
f 38/40/1 43/28/1 39/29/1 26/43/1
f 33/42/1 30/39/1 44/44/1 45/45/1
f 30/39/1 38/40/1 46/46/1 44/44/1
f 56/47/1 55/48/1 49/49/1 51/50/1
f 61/51/1 56/47/1 51/50/1 58/52/1
f 57/53/1 63/54/1 62/55/1 52/56/1
f 54/57/1 56/47/1 61/51/1 60/58/1
f 59/59/1 50/60/1 54/57/1 60/58/1
f 53/61/1 55/48/1 56/47/1 54/57/1
f 47/62/1 59/59/1 60/58/1 52/56/1
f 57/53/1 61/51/1 58/52/1 48/63/1
f 52/56/1 60/58/1 61/51/1 57/53/1
