# Blender v3.0.0 OBJ File: 'Street_Turn.blend'
# www.blender.org
mtllib Street_Turn.mtl
o Street_Turn_Cube.041
v -4.000000 0.000000 -4.000000
v 4.000000 0.000000 -4.000000
v 4.000000 0.000000 -3.000000
v 4.000000 0.100000 -4.000000
v -4.000000 0.100000 -4.000000
v -4.000000 0.100000 -3.000000
v 4.000000 0.100000 -3.000000
v 4.000000 0.000000 -2.800000
v 1.333333 0.001205 -0.050000
v 1.866667 0.001205 -0.050000
v 2.933333 0.001205 -0.050000
v 3.466667 0.001205 -0.050000
v 3.000000 0.000000 -4.000000
v 2.000000 0.000000 -4.000000
v 1.000000 0.000000 -4.000000
v 0.000000 0.000000 -4.000000
v -1.000000 0.000000 -4.000000
v -2.000000 0.000000 -4.000000
v -3.000000 0.000000 -4.000000
v -3.000000 0.000000 -3.000000
v -2.000000 0.000000 -3.000000
v -1.000000 0.000000 -3.000000
v 0.000000 0.000000 -3.000000
v 1.000000 0.000000 -3.000000
v 2.000000 0.000000 -3.000000
v 3.000000 0.000000 -3.000000
v 3.000000 0.100000 -4.000000
v 2.000000 0.100000 -4.000000
v 1.000000 0.100000 -4.000000
v 0.000000 0.100000 -4.000000
v -1.000000 0.100000 -4.000000
v -2.000000 0.100000 -4.000000
v -3.000000 0.100000 -4.000000
v -3.000000 0.100000 -3.000000
v -2.000000 0.100000 -3.000000
v -1.000000 0.100000 -3.000000
v 0.000000 0.100000 -3.000000
v 1.000000 0.100000 -3.000000
v 2.000000 0.100000 -3.000000
v 3.000000 0.100000 -3.000000
v 3.000000 0.000000 -2.800000
v 2.000000 0.000000 -2.800000
v 1.000000 0.000000 -2.800000
v 0.000000 0.000000 -2.800000
v -1.000000 0.000000 -2.800000
v -2.000000 0.000000 -2.800000
v -2.800000 0.000000 -2.800000
v 3.000000 0.120000 -4.000000
v 2.000000 0.120000 -4.000000
v 1.000000 0.120000 -4.000000
v -1.000000 0.120000 -4.000000
v -2.000000 0.120000 -4.000000
v -3.000000 0.120000 -4.000000
v -2.000000 0.120000 -3.000000
v -1.000000 0.120000 -3.000000
v 1.000000 0.120000 -3.000000
v 2.000000 0.120000 -3.000000
v 3.000000 0.120000 -3.000000
v 4.000000 0.000000 0.000000
v 4.000000 0.000000 2.800000
v 1.333333 0.001205 0.050000
v 1.866667 0.001205 0.050000
v 2.933333 0.001205 0.050000
v 3.466667 0.001205 0.050000
v 1.333333 0.001205 0.000000
v 1.866667 0.001205 0.000000
v 2.933333 0.001205 0.000000
v 3.466667 0.001205 0.000000
v 0.000000 0.000000 0.000000
v 1.000000 0.000000 0.000000
v 2.000000 0.000000 0.000000
v 3.000000 0.000000 0.000000
v -0.000000 0.000000 2.800000
v 4.000000 0.000000 3.000001
v 2.999999 0.000000 4.000001
v 3.999999 0.100000 4.000001
v 2.999999 0.100000 4.000001
v 2.799999 0.000000 4.000001
v 0.050000 0.001205 1.333333
v 0.049999 0.001205 1.866667
v 0.049999 0.001205 2.933333
v 0.049999 0.001205 3.466667
v 2.999999 0.000000 3.000001
v 3.999999 0.100000 3.000001
v 2.999999 0.100000 3.000001
v 2.799999 0.000000 2.800000
v -4.000001 0.000000 3.999999
v -0.000001 0.000000 4.000000
v -3.000001 0.000000 3.999999
v -4.000001 0.100000 3.999999
v -3.000001 0.100000 3.999999
v -2.800001 0.000000 3.999999
v -0.050000 0.001205 1.333333
v -0.050001 0.001205 1.866667
v -0.050001 0.001205 2.933333
v -0.050001 0.001205 3.466667
v -0.000000 0.001205 1.333333
v -0.000001 0.001205 1.866667
v -0.000001 0.001205 2.933333
v -0.000001 0.001205 3.466667
v -4.000001 0.000000 2.999999
v -4.000000 0.000000 1.999999
v -4.000000 0.000000 0.999999
v -4.000000 0.000000 -0.000001
v -4.000000 0.000000 -1.000001
v -3.999999 0.000000 -2.000001
v -3.999999 0.000000 -3.000001
v -2.999999 0.000000 -2.000001
v -3.000000 0.000000 -1.000001
v -3.000000 0.000000 -0.000001
v -3.000000 0.000000 0.999999
v -3.000001 0.000000 1.999999
v -3.000001 0.000000 2.999999
v -4.000001 0.100000 2.999999
v -4.000000 0.100000 1.999999
v -4.000000 0.100000 0.999999
v -4.000000 0.100000 -0.000001
v -4.000000 0.100000 -1.000001
v -3.999999 0.100000 -2.000001
v -2.999999 0.100000 -2.000001
v -3.000000 0.100000 -1.000001
v -3.000000 0.100000 -0.000001
v -3.000000 0.100000 0.999999
v -3.000001 0.100000 1.999999
v -3.000001 0.100000 2.999999
v -2.800001 0.000000 2.999999
v -2.800001 0.000000 1.999999
v -2.800000 0.000000 0.999999
v -2.800000 0.000000 -0.000001
v -2.800000 0.000000 -1.000001
v -2.799999 0.000000 -2.000001
v -4.000001 0.120000 2.999999
v -4.000000 0.120000 1.999999
v -4.000000 0.120000 0.999999
v -4.000000 0.120000 -1.000001
v -3.999999 0.120000 -2.000001
v -3.999999 0.120000 -3.000001
v -2.999999 0.120000 -3.000001
v -2.999999 0.120000 -2.000001
v -3.000000 0.120000 -1.000001
v -3.000000 0.120000 0.999999
v -3.000001 0.120000 1.999999
v -3.000001 0.120000 2.999999
vt 0.043525 0.049677
vt 0.043525 0.049677
vt 0.043525 0.049677
vt 0.043525 0.049677
vt 0.043525 0.049677
vt 0.043525 0.049677
vt 0.043525 0.049677
vt 0.043525 0.049677
vt 0.043525 0.049677
vt 0.043525 0.049677
vt 0.043525 0.049677
vt 0.043525 0.049677
vt 0.043525 0.049677
vt 0.043525 0.049677
vt 0.043525 0.049677
vt 0.043525 0.049677
vt 0.015226 0.048446
vt 0.015226 0.048446
vt 0.015226 0.048446
vt 0.015226 0.048446
vt 0.015226 0.048446
vt 0.015226 0.048446
vt 0.015226 0.048446
vt 0.015226 0.048446
vt 0.015226 0.048446
vt 0.015226 0.048446
vt 0.015226 0.048446
vt 0.015226 0.048446
vt 0.015226 0.048446
vt 0.015226 0.048446
vt 0.043525 0.049677
vt 0.043525 0.049677
vt 0.043525 0.049677
vt 0.043525 0.049677
vt 0.043525 0.049677
vt 0.043525 0.049677
vt 0.043525 0.049677
vt 0.043525 0.049677
vt 0.043525 0.049677
vt 0.043525 0.049677
vt 0.043525 0.049677
vt 0.043525 0.049677
vt 0.043525 0.049677
vt 0.043525 0.049677
vt 0.043525 0.049677
vt 0.043525 0.049677
vt 0.043525 0.049677
vt 0.043525 0.049677
vt 0.043525 0.049677
vt 0.043525 0.049677
vt 0.043525 0.049677
vt 0.043525 0.049677
vt 0.043525 0.049677
vt 0.043525 0.049677
vt 0.043525 0.049677
vt 0.043525 0.049677
vt 0.043525 0.049677
vt 0.043525 0.049677
vt 0.043525 0.049677
vt 0.043525 0.049677
vt 0.043525 0.049677
vt 0.043525 0.049677
vt 0.043525 0.049677
vt 0.043525 0.049677
vt 0.079206 0.049677
vt 0.079206 0.049677
vt 0.079206 0.049677
vt 0.079206 0.049677
vt 0.079206 0.049677
vt 0.079206 0.049677
vt 0.079206 0.049677
vt 0.079206 0.049677
vt 0.079206 0.049677
vt 0.079206 0.049677
vt 0.079206 0.049677
vt 0.079206 0.049677
vt 0.079206 0.049677
vt 0.079206 0.049677
vt 0.079206 0.049677
vt 0.079206 0.049677
vt 0.043525 0.049677
vt 0.043525 0.049677
vt 0.043525 0.049677
vt 0.043525 0.049677
vt 0.043525 0.049677
vt 0.043525 0.049677
vt 0.043525 0.049677
vt 0.043525 0.049677
vt 0.043525 0.049677
vt 0.015226 0.048446
vt 0.015226 0.048446
vt 0.015226 0.048446
vt 0.043525 0.049677
vt 0.043525 0.049677
vt 0.043525 0.049677
vt 0.043525 0.049677
vt 0.043525 0.049677
vt 0.043525 0.049677
vt 0.043525 0.049677
vt 0.043525 0.049677
vt 0.015226 0.048446
vt 0.015226 0.048446
vt 0.043525 0.049677
vt 0.043525 0.049677
vt 0.043525 0.049677
vt 0.043525 0.049677
vt 0.043525 0.049677
vt 0.043525 0.049677
vt 0.079206 0.049677
vt 0.079206 0.049677
vt 0.079206 0.049677
vt 0.079206 0.049677
vt 0.043525 0.049677
vt 0.043525 0.049677
vt 0.043525 0.049677
vt 0.043525 0.049677
vt 0.043525 0.049677
vt 0.043525 0.049677
vt 0.043525 0.049677
vt 0.043525 0.049677
vt 0.043525 0.049677
vt 0.015226 0.048446
vt 0.015226 0.048446
vt 0.015226 0.048446
vt 0.015226 0.048446
vt 0.043525 0.049677
vt 0.043525 0.049677
vt 0.043525 0.049677
vt 0.043525 0.049677
vt 0.043525 0.049677
vt 0.043525 0.049677
vt 0.043525 0.049677
vt 0.043525 0.049677
vt 0.043525 0.049677
vt 0.043525 0.049677
vt 0.043525 0.049677
vt 0.043525 0.049677
vt 0.043525 0.049677
vt 0.043525 0.049677
vt 0.043525 0.049677
vt 0.043525 0.049677
vt 0.043525 0.049677
vt 0.043525 0.049677
vt 0.043525 0.049677
vt 0.043525 0.049677
vt 0.043525 0.049677
vt 0.043525 0.049677
vt 0.043525 0.049677
vt 0.043525 0.049677
vt 0.043525 0.049677
vt 0.043525 0.049677
vt 0.043525 0.049677
vt 0.043525 0.049677
vt 0.043525 0.049677
vt 0.043525 0.049677
vt 0.043525 0.049677
vt 0.079206 0.049677
vt 0.079206 0.049677
vt 0.079206 0.049677
vt 0.079206 0.049677
vt 0.079206 0.049677
vt 0.079206 0.049677
vt 0.079206 0.049677
vt 0.079206 0.049677
vt 0.079206 0.049677
vt 0.079206 0.049677
vt 0.079206 0.049677
vt 0.079206 0.049677
vt 0.079206 0.049677
vt 0.079206 0.049677
vt 0.043525 0.049677
vt 0.043525 0.049677
vt 0.043525 0.049677
vt 0.043525 0.049677
vt 0.043525 0.049677
vt 0.079206 0.049677
vt 0.079206 0.049677
vt 0.015226 0.048446
vt 0.015226 0.048446
vn 0.0000 1.0000 0.0000
vn 0.0000 0.0000 -1.0000
vn -1.0000 0.0000 0.0000
vn -0.0000 0.0000 1.0000
vn 1.0000 0.0000 0.0000
usemtl Atlas
s off
f 33/1/1 5/2/1 6/3/1 34/4/1
f 13/5/2 27/6/2 4/7/2 2/8/2
f 12/9/1 11/10/1 67/11/1 68/12/1
f 10/13/1 9/14/1 65/15/1 66/16/1
f 59/17/1 8/18/1 41/19/1 72/20/1
f 72/20/1 41/19/1 42/21/1 71/22/1
f 71/22/1 42/21/1 43/23/1 70/24/1
f 70/24/1 43/23/1 44/25/1 69/26/1
f 69/26/1 44/25/1 45/27/1
f 69/26/1 45/27/1 46/28/1
f 69/26/1 130/29/1 129/30/1
f 1/31/2 5/2/2 33/1/2 19/32/2
f 19/32/2 33/1/2 32/33/2 18/34/2
f 18/34/2 32/33/2 31/35/2 17/36/2
f 17/36/2 31/35/2 30/37/2 16/38/2
f 16/38/2 30/37/2 29/39/2 15/40/2
f 15/40/2 29/39/2 28/41/2 14/42/2
f 14/42/2 28/41/2 27/6/2 13/5/2
f 4/7/1 27/6/1 40/43/1 7/44/1
f 33/1/3 34/4/3 138/45/3 53/46/3
f 29/39/3 38/47/3 56/48/3 50/49/3
f 29/39/1 30/37/1 37/50/1 38/47/1
f 30/37/1 31/35/1 36/51/1 37/50/1
f 39/52/4 40/43/4 58/53/4 57/54/4
f 32/33/2 33/1/2 53/46/2 52/55/2
f 3/56/4 7/44/4 40/43/4 26/57/4
f 26/57/4 40/43/4 39/52/4 25/58/4
f 25/58/4 39/52/4 38/47/4 24/59/4
f 24/59/4 38/47/4 37/50/4 23/60/4
f 23/60/4 37/50/4 36/51/4 22/61/4
f 22/61/4 36/51/4 35/62/4 21/63/4
f 21/63/4 35/62/4 34/4/4 20/64/4
f 8/65/1 3/66/1 26/67/1 41/68/1
f 41/68/1 26/67/1 25/69/1 42/70/1
f 42/70/1 25/69/1 24/71/1 43/72/1
f 43/72/1 24/71/1 23/73/1 44/74/1
f 44/74/1 23/73/1 22/75/1 45/76/1
f 45/76/1 22/75/1 21/77/1 46/78/1
f 46/78/1 21/77/1 20/79/1 47/80/1
f 48/81/1 49/82/1 57/54/1 58/53/1
f 49/82/1 50/49/1 56/48/1 57/54/1
f 51/83/1 52/55/1 54/84/1 55/85/1
f 52/55/1 53/46/1 138/45/1 54/84/1
f 27/6/2 28/41/2 49/82/2 48/81/2
f 40/43/5 27/6/5 48/81/5 58/53/5
f 34/4/4 35/62/4 54/84/4 138/45/4
f 36/51/5 31/35/5 51/83/5 55/85/5
f 31/35/2 32/33/2 52/55/2 51/83/2
f 38/47/4 39/52/4 57/54/4 56/48/4
f 28/41/2 29/39/2 50/49/2 49/82/2
f 35/62/4 36/51/4 55/85/4 54/84/4
f 64/86/1 68/12/1 67/11/1 63/87/1
f 62/88/1 66/16/1 65/15/1 61/89/1
f 59/17/1 72/20/1 86/90/1 60/91/1
f 71/22/1 70/24/1 73/92/1
f 70/24/1 69/26/1 73/92/1
f 82/93/1 81/94/1 99/95/1 100/96/1
f 80/97/1 79/98/1 97/99/1 98/100/1
f 88/101/1 78/102/1 86/90/1 73/92/1
f 76/103/1 84/104/1 85/105/1 77/106/1
f 75/107/3 77/106/3 85/105/3 83/108/3
f 78/109/1 75/110/1 83/111/1 86/112/1
f 74/113/2 83/108/2 85/105/2 84/104/2
f 101/114/3 87/115/3 90/116/3 114/117/3
f 96/118/1 100/96/1 99/95/1 95/119/1
f 94/120/1 98/100/1 97/99/1 93/121/1
f 88/101/1 73/92/1 126/122/1 92/123/1
f 73/92/1 69/26/1 127/124/1 126/122/1
f 69/26/1 128/125/1 127/124/1
f 69/26/1 129/30/1 128/125/1
f 107/126/3 106/127/3 119/128/3 6/3/3
f 106/127/3 105/129/3 118/130/3 119/128/3
f 105/129/3 104/131/3 117/132/3 118/130/3
f 104/131/3 103/133/3 116/134/3 117/132/3
f 103/133/3 102/135/3 115/136/3 116/134/3
f 102/135/3 101/114/3 114/117/3 115/136/3
f 90/116/1 91/137/1 125/138/1 114/117/1
f 116/134/2 134/139/2 141/140/2 123/141/2
f 116/134/1 123/141/1 122/142/1 117/132/1
f 117/132/1 122/142/1 121/143/1 118/130/1
f 124/144/5 142/145/5 143/146/5 125/138/5
f 119/128/3 136/147/3 137/148/3 6/3/3
f 89/149/5 113/150/5 125/138/5 91/137/5
f 113/150/5 112/151/5 124/144/5 125/138/5
f 112/151/5 111/152/5 123/141/5 124/144/5
f 111/152/5 110/153/5 122/142/5 123/141/5
f 110/153/5 109/154/5 121/143/5 122/142/5
f 109/154/5 108/155/5 120/156/5 121/143/5
f 108/155/5 20/64/5 34/4/5 120/156/5
f 92/157/1 126/158/1 113/159/1 89/160/1
f 126/158/1 127/161/1 112/162/1 113/159/1
f 127/161/1 128/163/1 111/164/1 112/162/1
f 128/163/1 129/165/1 110/166/1 111/164/1
f 129/165/1 130/167/1 109/168/1 110/166/1
f 130/167/1 131/169/1 108/170/1 109/168/1
f 131/169/1 47/80/1 20/79/1 108/170/1
f 132/171/1 143/146/1 142/145/1 133/172/1
f 133/172/1 142/145/1 141/140/1 134/139/1
f 135/173/1 140/174/1 139/175/1 136/147/1
f 136/147/1 139/175/1 138/45/1 137/148/1
f 114/117/3 132/171/3 133/172/3 115/136/3
f 125/138/4 143/146/4 132/171/4 114/117/4
f 34/4/5 138/45/5 139/175/5 120/156/5
f 121/143/4 140/174/4 135/173/4 118/130/4
f 118/130/3 135/173/3 136/147/3 119/128/3
f 123/141/5 141/140/5 142/145/5 124/144/5
f 115/136/3 133/172/3 134/139/3 116/134/3
f 120/156/5 139/175/5 140/174/5 121/143/5
f 86/112/1 83/111/1 74/176/1 60/177/1
f 86/90/1 72/20/1 71/22/1 73/92/1
f 130/29/1 69/26/1 131/178/1
f 131/178/1 69/26/1 46/28/1
f 46/28/1 47/179/1 131/178/1
f 6/3/3 5/2/3 1/31/3 107/126/3
f 6/3/2 137/148/2 138/45/2 34/4/2
