{
    "asset" : {
        "generator" : "Khronos glTF Blender I/O v1.7.33",
        "version" : "2.0"
    },
    "scene" : 0,
    "scenes" : [
        {
            "name" : "Scene",
            "nodes" : [
                0,
                1,
                2,
                3
            ]
        }
    ],
    "nodes" : [
        {
            "mesh" : 0,
            "name" : "Sports_Armored"
        },
        {
            "mesh" : 1,
            "name" : "BackWheels"
        },
        {
            "mesh" : 2,
            "name" : "FrontWheel_R",
            "translation" : [
                -0.9845539927482605,
                0.4365701675415039,
                1.762541651725769
            ]
        },
        {
            "mesh" : 3,
            "name" : "FrontWheel_L",
            "translation" : [
                0.984551727771759,
                0.43657028675079346,
                1.7625428438186646
            ]
        }
    ],
    "materials" : [
        {
            "doubleSided" : true,
            "name" : "Atlas",
            "pbrMetallicRoughness" : {
                "baseColorTexture" : {
                    "index" : 0
                },
                "metallicFactor" : 0
            }
        },
        {
            "doubleSided" : true,
            "name" : "Headlights",
            "pbrMetallicRoughness" : {}
        },
        {
            "doubleSided" : true,
            "name" : "BrakeLight",
            "pbrMetallicRoughness" : {}
        }
    ],
    "meshes" : [
        {
            "name" : "Cube.016",
            "primitives" : [
                {
                    "attributes" : {
                        "POSITION" : 0,
                        "NORMAL" : 1,
                        "TEXCOORD_0" : 2
                    },
                    "indices" : 3,
                    "material" : 0
                },
                {
                    "attributes" : {
                        "POSITION" : 4,
                        "NORMAL" : 5,
                        "TEXCOORD_0" : 6
                    },
                    "indices" : 7,
                    "material" : 1
                },
                {
                    "attributes" : {
                        "POSITION" : 8,
                        "NORMAL" : 9,
                        "TEXCOORD_0" : 10
                    },
                    "indices" : 11,
                    "material" : 2
                }
            ]
        },
        {
            "name" : "Cube.004",
            "primitives" : [
                {
                    "attributes" : {
                        "POSITION" : 12,
                        "NORMAL" : 13,
                        "TEXCOORD_0" : 14
                    },
                    "indices" : 15,
                    "material" : 0
                }
            ]
        },
        {
            "name" : "Cube.001",
            "primitives" : [
                {
                    "attributes" : {
                        "POSITION" : 16,
                        "NORMAL" : 17,
                        "TEXCOORD_0" : 18
                    },
                    "indices" : 19,
                    "material" : 0
                }
            ]
        },
        {
            "name" : "Cube.002",
            "primitives" : [
                {
                    "attributes" : {
                        "POSITION" : 20,
                        "NORMAL" : 21,
                        "TEXCOORD_0" : 22
                    },
                    "indices" : 23,
                    "material" : 0
                }
            ]
        }
    ],
    "textures" : [
        {
            "sampler" : 0,
            "source" : 0
        }
    ],
    "images" : [
        {
            "bufferView" : 4,
            "mimeType" : "image/png",
            "name" : "Zombie_Atlas"
        }
    ],
    "accessors" : [
        {
            "bufferView" : 0,
            "componentType" : 5126,
            "count" : 7854,
            "max" : [
                1.4767568111419678,
                1.8529654741287231,
                2.9393157958984375
            ],
            "min" : [
                -1.4767576456069946,
                0.40898799896240234,
                -2.715784788131714
            ],
            "type" : "VEC3"
        },
        {
            "bufferView" : 1,
            "componentType" : 5126,
            "count" : 7854,
            "type" : "VEC3"
        },
        {
            "bufferView" : 2,
            "componentType" : 5126,
            "count" : 7854,
            "type" : "VEC2"
        },
        {
            "bufferView" : 3,
            "componentType" : 5123,
            "count" : 18492,
            "type" : "SCALAR"
        },
        {
            "bufferView" : 5,
            "componentType" : 5126,
            "count" : 18,
            "max" : [
                0.9744892120361328,
                0.9373760223388672,
                2.7878119945526123
            ],
            "min" : [
                -0.9744921922683716,
                0.7720491886138916,
                2.53755521774292
            ],
            "type" : "VEC3"
        },
        {
            "bufferView" : 6,
            "componentType" : 5126,
            "count" : 18,
            "type" : "VEC3"
        },
        {
            "bufferView" : 7,
            "componentType" : 5126,
            "count" : 18,
            "type" : "VEC2"
        },
        {
            "bufferView" : 8,
            "componentType" : 5123,
            "count" : 30,
            "type" : "SCALAR"
        },
        {
            "bufferView" : 9,
            "componentType" : 5126,
            "count" : 40,
            "max" : [
                0.9662035703659058,
                1.1855183839797974,
                -2.141838312149048
            ],
            "min" : [
                -0.9662013053894043,
                0.9615085124969482,
                -2.427476167678833
            ],
            "type" : "VEC3"
        },
        {
            "bufferView" : 10,
            "componentType" : 5126,
            "count" : 40,
            "type" : "VEC3"
        },
        {
            "bufferView" : 11,
            "componentType" : 5126,
            "count" : 40,
            "type" : "VEC2"
        },
        {
            "bufferView" : 12,
            "componentType" : 5123,
            "count" : 96,
            "type" : "SCALAR"
        },
        {
            "bufferView" : 13,
            "componentType" : 5126,
            "count" : 2208,
            "max" : [
                1.1985812187194824,
                0.8849011659622192,
                -1.1351208686828613
            ],
            "min" : [
                -1.1985794305801392,
                -0.011760701425373554,
                -2.0317838191986084
            ],
            "type" : "VEC3"
        },
        {
            "bufferView" : 14,
            "componentType" : 5126,
            "count" : 2208,
            "type" : "VEC3"
        },
        {
            "bufferView" : 15,
            "componentType" : 5126,
            "count" : 2208,
            "type" : "VEC2"
        },
        {
            "bufferView" : 16,
            "componentType" : 5123,
            "count" : 5736,
            "type" : "SCALAR"
        },
        {
            "bufferView" : 17,
            "componentType" : 5126,
            "count" : 1104,
            "max" : [
                0.21402615308761597,
                0.4483308792114258,
                0.44833093881607056
            ],
            "min" : [
                -0.21402740478515625,
                -0.4483308792114258,
                -0.44833093881607056
            ],
            "type" : "VEC3"
        },
        {
            "bufferView" : 18,
            "componentType" : 5126,
            "count" : 1104,
            "type" : "VEC3"
        },
        {
            "bufferView" : 19,
            "componentType" : 5126,
            "count" : 1104,
            "type" : "VEC2"
        },
        {
            "bufferView" : 20,
            "componentType" : 5123,
            "count" : 2868,
            "type" : "SCALAR"
        },
        {
            "bufferView" : 21,
            "componentType" : 5126,
            "count" : 1104,
            "max" : [
                0.2140275239944458,
                0.4483308792114258,
                0.44833099842071533
            ],
            "min" : [
                -0.2140258550643921,
                -0.4483308792114258,
                -0.44833099842071533
            ],
            "type" : "VEC3"
        },
        {
            "bufferView" : 22,
            "componentType" : 5126,
            "count" : 1104,
            "type" : "VEC3"
        },
        {
            "bufferView" : 23,
            "componentType" : 5126,
            "count" : 1104,
            "type" : "VEC2"
        },
        {
            "bufferView" : 24,
            "componentType" : 5123,
            "count" : 2868,
            "type" : "SCALAR"
        }
    ],
    "bufferViews" : [
        {
            "buffer" : 0,
            "byteLength" : 94248,
            "byteOffset" : 0
        },
        {
            "buffer" : 0,
            "byteLength" : 94248,
            "byteOffset" : 94248
        },
        {
            "buffer" : 0,
            "byteLength" : 62832,
            "byteOffset" : 188496
        },
        {
            "buffer" : 0,
            "byteLength" : 36984,
            "byteOffset" : 251328
        },
        {
            "buffer" : 0,
            "byteLength" : 3524,
            "byteOffset" : 288312
        },
        {
            "buffer" : 0,
            "byteLength" : 216,
            "byteOffset" : 291836
        },
        {
            "buffer" : 0,
            "byteLength" : 216,
            "byteOffset" : 292052
        },
        {
            "buffer" : 0,
            "byteLength" : 144,
            "byteOffset" : 292268
        },
        {
            "buffer" : 0,
            "byteLength" : 60,
            "byteOffset" : 292412
        },
        {
            "buffer" : 0,
            "byteLength" : 480,
            "byteOffset" : 292472
        },
        {
            "buffer" : 0,
            "byteLength" : 480,
            "byteOffset" : 292952
        },
        {
            "buffer" : 0,
            "byteLength" : 320,
            "byteOffset" : 293432
        },
        {
            "buffer" : 0,
            "byteLength" : 192,
            "byteOffset" : 293752
        },
        {
            "buffer" : 0,
            "byteLength" : 26496,
            "byteOffset" : 293944
        },
        {
            "buffer" : 0,
            "byteLength" : 26496,
            "byteOffset" : 320440
        },
        {
            "buffer" : 0,
            "byteLength" : 17664,
            "byteOffset" : 346936
        },
        {
            "buffer" : 0,
            "byteLength" : 11472,
            "byteOffset" : 364600
        },
        {
            "buffer" : 0,
            "byteLength" : 13248,
            "byteOffset" : 376072
        },
        {
            "buffer" : 0,
            "byteLength" : 13248,
            "byteOffset" : 389320
        },
        {
            "buffer" : 0,
            "byteLength" : 8832,
            "byteOffset" : 402568
        },
        {
            "buffer" : 0,
            "byteLength" : 5736,
            "byteOffset" : 411400
        },
        {
            "buffer" : 0,
            "byteLength" : 13248,
            "byteOffset" : 417136
        },
        {
            "buffer" : 0,
            "byteLength" : 13248,
            "byteOffset" : 430384
        },
        {
            "buffer" : 0,
            "byteLength" : 8832,
            "byteOffset" : 443632
        },
        {
            "buffer" : 0,
            "byteLength" : 5736,
            "byteOffset" : 452464
        }
    ],
    "samplers" : [
        {
            "magFilter" : 9729,
            "minFilter" : 9987
        }
    ],
    "buffers" : [
        {
            "byteLength" : 458200,
            "uri" : "data:application/octet-stream;base64,"
        }
    ]
}
