{
    "asset" : {
        "generator" : "Khronos glTF Blender I/O v1.7.33",
        "version" : "2.0"
    },
    "scene" : 0,
    "scenes" : [
        {
            "name" : "Scene",
            "nodes" : [
                0,
                1,
                2,
                3
            ]
        }
    ],
    "nodes" : [
        {
            "mesh" : 0,
            "name" : "FrontWheel_R"
        },
        {
            "mesh" : 1,
            "name" : "BackWheels"
        },
        {
            "mesh" : 2,
            "name" : "FrontWheel_L"
        },
        {
            "mesh" : 3,
            "name" : "Truck_Armored"
        }
    ],
    "materials" : [
        {
            "doubleSided" : true,
            "name" : "Atlas",
            "pbrMetallicRoughness" : {
                "baseColorTexture" : {
                    "index" : 0
                },
                "metallicFactor" : 0
            }
        },
        {
            "doubleSided" : true,
            "name" : "BrakeLight",
            "pbrMetallicRoughness" : {}
        },
        {
            "doubleSided" : true,
            "name" : "Headlights",
            "pbrMetallicRoughness" : {}
        }
    ],
    "meshes" : [
        {
            "name" : "Cylinder.000",
            "primitives" : [
                {
                    "attributes" : {
                        "POSITION" : 0,
                        "NORMAL" : 1,
                        "TEXCOORD_0" : 2
                    },
                    "indices" : 3,
                    "material" : 0
                }
            ]
        },
        {
            "name" : "Cylinder.001",
            "primitives" : [
                {
                    "attributes" : {
                        "POSITION" : 4,
                        "NORMAL" : 5,
                        "TEXCOORD_0" : 6
                    },
                    "indices" : 7,
                    "material" : 0
                }
            ]
        },
        {
            "name" : "Cylinder.002",
            "primitives" : [
                {
                    "attributes" : {
                        "POSITION" : 8,
                        "NORMAL" : 9,
                        "TEXCOORD_0" : 10
                    },
                    "indices" : 11,
                    "material" : 0
                }
            ]
        },
        {
            "name" : "Cylinder.035",
            "primitives" : [
                {
                    "attributes" : {
                        "POSITION" : 12,
                        "NORMAL" : 13,
                        "TEXCOORD_0" : 14
                    },
                    "indices" : 15,
                    "material" : 0
                },
                {
                    "attributes" : {
                        "POSITION" : 16,
                        "NORMAL" : 17,
                        "TEXCOORD_0" : 18
                    },
                    "indices" : 19,
                    "material" : 1
                },
                {
                    "attributes" : {
                        "POSITION" : 20,
                        "NORMAL" : 21,
                        "TEXCOORD_0" : 22
                    },
                    "indices" : 23,
                    "material" : 2
                }
            ]
        }
    ],
    "textures" : [
        {
            "sampler" : 0,
            "source" : 0
        }
    ],
    "images" : [
        {
            "bufferView" : 4,
            "mimeType" : "image/png",
            "name" : "Zombie_Atlas"
        }
    ],
    "accessors" : [
        {
            "bufferView" : 0,
            "componentType" : 5126,
            "count" : 1079,
            "max" : [
                -0.7395386695861816,
                0.8776045441627502,
                1.6011608839035034
            ],
            "min" : [
                -1.1394753456115723,
                0.0006742338882759213,
                0.7242305278778076
            ],
            "type" : "VEC3"
        },
        {
            "bufferView" : 1,
            "componentType" : 5126,
            "count" : 1079,
            "type" : "VEC3"
        },
        {
            "bufferView" : 2,
            "componentType" : 5126,
            "count" : 1079,
            "type" : "VEC2"
        },
        {
            "bufferView" : 3,
            "componentType" : 5123,
            "count" : 2868,
            "type" : "SCALAR"
        },
        {
            "bufferView" : 5,
            "componentType" : 5126,
            "count" : 2132,
            "max" : [
                1.1394753456115723,
                0.8776040077209473,
                -1.7076573371887207
            ],
            "min" : [
                -1.1394752264022827,
                0.0006736948271282017,
                -2.584587812423706
            ],
            "type" : "VEC3"
        },
        {
            "bufferView" : 6,
            "componentType" : 5126,
            "count" : 2132,
            "type" : "VEC3"
        },
        {
            "bufferView" : 7,
            "componentType" : 5126,
            "count" : 2132,
            "type" : "VEC2"
        },
        {
            "bufferView" : 8,
            "componentType" : 5123,
            "count" : 5736,
            "type" : "SCALAR"
        },
        {
            "bufferView" : 9,
            "componentType" : 5126,
            "count" : 1067,
            "max" : [
                1.1394752264022827,
                0.8776045441627502,
                1.6011608839035034
            ],
            "min" : [
                0.7395385503768921,
                0.0006742338882759213,
                0.7242306470870972
            ],
            "type" : "VEC3"
        },
        {
            "bufferView" : 10,
            "componentType" : 5126,
            "count" : 1067,
            "type" : "VEC3"
        },
        {
            "bufferView" : 11,
            "componentType" : 5126,
            "count" : 1067,
            "type" : "VEC2"
        },
        {
            "bufferView" : 12,
            "componentType" : 5123,
            "count" : 2868,
            "type" : "SCALAR"
        },
        {
            "bufferView" : 13,
            "componentType" : 5126,
            "count" : 15753,
            "max" : [
                1.4881125688552856,
                2.904345989227295,
                2.5235073566436768
            ],
            "min" : [
                -1.4881125688552856,
                0.179564967751503,
                -3.0528857707977295
            ],
            "type" : "VEC3"
        },
        {
            "bufferView" : 14,
            "componentType" : 5126,
            "count" : 15753,
            "type" : "VEC3"
        },
        {
            "bufferView" : 15,
            "componentType" : 5126,
            "count" : 15753,
            "type" : "VEC2"
        },
        {
            "bufferView" : 16,
            "componentType" : 5123,
            "count" : 36282,
            "type" : "SCALAR"
        },
        {
            "bufferView" : 17,
            "componentType" : 5126,
            "count" : 122,
            "max" : [
                1.150559425354004,
                0.9570072293281555,
                -3.0386173725128174
            ],
            "min" : [
                -1.150559425354004,
                0.813112199306488,
                -3.062991142272949
            ],
            "type" : "VEC3"
        },
        {
            "bufferView" : 18,
            "componentType" : 5126,
            "count" : 122,
            "type" : "VEC3"
        },
        {
            "bufferView" : 19,
            "componentType" : 5126,
            "count" : 122,
            "type" : "VEC2"
        },
        {
            "bufferView" : 20,
            "componentType" : 5123,
            "count" : 600,
            "type" : "SCALAR"
        },
        {
            "bufferView" : 21,
            "componentType" : 5126,
            "count" : 32,
            "max" : [
                1.1350438594818115,
                1.0745171308517456,
                2.090270519256592
            ],
            "min" : [
                -1.1350438594818115,
                0.7753145098686218,
                1.9068092107772827
            ],
            "type" : "VEC3"
        },
        {
            "bufferView" : 22,
            "componentType" : 5126,
            "count" : 32,
            "type" : "VEC3"
        },
        {
            "bufferView" : 23,
            "componentType" : 5126,
            "count" : 32,
            "type" : "VEC2"
        },
        {
            "bufferView" : 24,
            "componentType" : 5123,
            "count" : 48,
            "type" : "SCALAR"
        }
    ],
    "bufferViews" : [
        {
            "buffer" : 0,
            "byteLength" : 12948,
            "byteOffset" : 0
        },
        {
            "buffer" : 0,
            "byteLength" : 12948,
            "byteOffset" : 12948
        },
        {
            "buffer" : 0,
            "byteLength" : 8632,
            "byteOffset" : 25896
        },
        {
            "buffer" : 0,
            "byteLength" : 5736,
            "byteOffset" : 34528
        },
        {
            "buffer" : 0,
            "byteLength" : 3524,
            "byteOffset" : 40264
        },
        {
            "buffer" : 0,
            "byteLength" : 25584,
            "byteOffset" : 43788
        },
        {
            "buffer" : 0,
            "byteLength" : 25584,
            "byteOffset" : 69372
        },
        {
            "buffer" : 0,
            "byteLength" : 17056,
            "byteOffset" : 94956
        },
        {
            "buffer" : 0,
            "byteLength" : 11472,
            "byteOffset" : 112012
        },
        {
            "buffer" : 0,
            "byteLength" : 12804,
            "byteOffset" : 123484
        },
        {
            "buffer" : 0,
            "byteLength" : 12804,
            "byteOffset" : 136288
        },
        {
            "buffer" : 0,
            "byteLength" : 8536,
            "byteOffset" : 149092
        },
        {
            "buffer" : 0,
            "byteLength" : 5736,
            "byteOffset" : 157628
        },
        {
            "buffer" : 0,
            "byteLength" : 189036,
            "byteOffset" : 163364
        },
        {
            "buffer" : 0,
            "byteLength" : 189036,
            "byteOffset" : 352400
        },
        {
            "buffer" : 0,
            "byteLength" : 126024,
            "byteOffset" : 541436
        },
        {
            "buffer" : 0,
            "byteLength" : 72564,
            "byteOffset" : 667460
        },
        {
            "buffer" : 0,
            "byteLength" : 1464,
            "byteOffset" : 740024
        },
        {
            "buffer" : 0,
            "byteLength" : 1464,
            "byteOffset" : 741488
        },
        {
            "buffer" : 0,
            "byteLength" : 976,
            "byteOffset" : 742952
        },
        {
            "buffer" : 0,
            "byteLength" : 1200,
            "byteOffset" : 743928
        },
        {
            "buffer" : 0,
            "byteLength" : 384,
            "byteOffset" : 745128
        },
        {
            "buffer" : 0,
            "byteLength" : 384,
            "byteOffset" : 745512
        },
        {
            "buffer" : 0,
            "byteLength" : 256,
            "byteOffset" : 745896
        },
        {
            "buffer" : 0,
            "byteLength" : 96,
            "byteOffset" : 746152
        }
    ],
    "samplers" : [
        {
            "magFilter" : 9729,
            "minFilter" : 9987
        }
    ],
    "buffers" : [
        {
            "byteLength" : 746248,
            "uri" : "data:application/octet-stream;base64,"
        }
    ]
}
