# Blender v2.79 (sub 0) OBJ File: 'Body_Pistol_2.blend'
# www.blender.org
mtllib Body_Pistol_2.mtl
o Body_Pistol_2_Cube.224
v 0.296290 -0.053939 0.056203
v 0.133120 0.005071 0.056203
v 0.296290 -0.113692 0.056203
v -0.284466 -0.021599 0.056203
v -0.120094 -0.113692 0.056203
v -0.120094 0.005071 0.056203
v 0.505884 -0.053939 0.056203
v 0.505884 -0.093475 0.056203
v 0.339405 -0.093475 0.056203
v 0.339405 -0.053939 0.056203
v 0.439825 -0.093475 0.056203
v 0.439825 -0.053939 0.056203
v -0.120094 0.076841 0.007203
v -0.120094 0.027841 0.056203
v -0.120094 0.073111 0.025955
v -0.120094 0.062489 0.041851
v -0.120094 0.046592 0.052473
v 0.133120 0.027841 0.056203
v 0.133120 0.076841 0.007203
v 0.133120 0.046592 0.052473
v 0.133120 0.062489 0.041851
v 0.133120 0.073111 0.025955
v -0.258388 -0.021599 0.056203
v -0.258388 0.005071 0.056203
v -0.111251 0.001439 0.047993
v -0.275256 0.001439 0.047993
v -0.275256 0.065922 0.013953
v -0.275256 0.027953 0.047993
v -0.275256 0.060835 0.030973
v -0.275256 0.046938 0.043433
v -0.111251 0.027953 0.047993
v -0.111251 0.065922 0.013953
v -0.111251 0.046938 0.043433
v -0.111251 0.060835 0.030973
v -0.284466 0.005071 0.056203
v -0.275256 0.007161 0.044165
v -0.275256 0.057420 0.029338
v -0.275256 0.061725 0.014511
v -0.275256 0.045661 0.040192
v -0.275256 0.029596 0.044165
v 0.101548 0.005071 0.056203
v 0.101548 0.076841 0.007203
v 0.101548 0.073111 0.025955
v 0.101548 0.062489 0.041851
v 0.101548 0.046592 0.052473
v 0.101548 0.027841 0.056203
v 0.101548 -0.113692 0.056203
v 0.088510 -0.113692 0.056203
v 0.068360 -0.113692 0.056203
v -0.248912 0.001439 0.047993
v -0.248912 0.065922 0.013953
v -0.248912 0.060835 0.030973
v -0.248912 0.046938 0.043433
v -0.248912 0.027953 0.047993
v 0.133120 -0.000015 0.056203
v 0.187044 -0.053939 0.056203
v 0.135760 -0.016679 0.056203
v 0.143419 -0.031711 0.056203
v 0.155348 -0.043640 0.056203
v 0.170380 -0.051300 0.056203
v 0.133120 0.005071 0.000000
v 0.296290 -0.053939 0.000000
v 0.296290 -0.053939 -0.056203
v 0.133120 0.005071 -0.056203
v 0.296290 -0.113692 0.000000
v 0.296290 -0.113692 -0.056203
v -0.284466 -0.021599 -0.056203
v -0.284466 -0.021599 0.000000
v -0.120094 -0.113692 -0.056203
v -0.120094 0.005071 0.000000
v -0.120094 0.005071 -0.056203
v -0.120094 -0.113692 0.000000
v 0.505884 -0.053939 -0.056203
v 0.505884 -0.053939 0.000000
v 0.505884 -0.093475 0.000000
v 0.505884 -0.093475 -0.056203
v -0.120094 0.076841 0.000000
v 0.133120 0.076841 0.000000
v 0.339405 -0.093475 -0.056203
v 0.339405 -0.093475 0.000000
v 0.339405 -0.053939 -0.056203
v 0.339405 -0.053939 0.000000
v 0.439825 -0.093475 -0.056203
v 0.439825 -0.053939 -0.056203
v 0.439825 -0.053939 0.000000
v 0.439825 -0.093475 0.000000
v -0.120094 0.076841 -0.007203
v -0.120094 0.027841 -0.056203
v -0.120094 0.073111 -0.025955
v -0.120094 0.062489 -0.041851
v -0.120094 0.046592 -0.052473
v 0.133120 0.027841 -0.056203
v 0.133120 0.076841 -0.007203
v 0.133120 0.046592 -0.052473
v 0.133120 0.062489 -0.041851
v 0.133120 0.073111 -0.025955
v -0.258388 -0.021599 0.000000
v -0.258388 -0.021599 -0.056203
v -0.258388 0.005071 0.000000
v -0.258388 0.005071 -0.056203
v -0.111251 0.001439 0.000000
v -0.111251 0.001439 -0.047993
v -0.275256 0.001439 0.000000
v -0.275256 0.001439 -0.047993
v -0.275256 0.065922 0.000000
v -0.111251 0.065922 0.000000
v -0.275256 0.065922 -0.013953
v -0.275256 0.027953 -0.047993
v -0.275256 0.060835 -0.030973
v -0.275256 0.046938 -0.043433
v -0.111251 0.027953 -0.047993
v -0.111251 0.065922 -0.013953
v -0.111251 0.046938 -0.043433
v -0.111251 0.060835 -0.030973
v -0.284466 0.005071 0.000000
v -0.284466 0.005071 -0.056203
v -0.275256 0.007161 0.000000
v -0.275256 0.007161 -0.044165
v -0.275256 0.061725 0.000000
v -0.275256 0.057420 -0.029338
v -0.275256 0.061725 -0.014511
v -0.275256 0.045661 -0.040192
v -0.275256 0.029596 -0.044165
v 0.101548 0.005071 -0.056203
v 0.101548 0.076841 0.000000
v 0.101548 0.076841 -0.007203
v 0.101548 0.073111 -0.025955
v 0.101548 0.062489 -0.041851
v 0.101548 0.046592 -0.052473
v 0.101548 0.027841 -0.056203
v 0.101548 -0.113692 0.000000
v 0.101548 -0.113692 -0.056203
v 0.088510 -0.113692 -0.056203
v 0.088510 -0.113692 0.000000
v 0.072509 -0.113692 0.000000
v 0.068360 -0.113692 -0.056203
v -0.248912 0.001439 0.000000
v -0.248912 0.001439 -0.047993
v -0.248912 0.065922 0.000000
v -0.248912 0.065922 -0.013953
v -0.248912 0.060835 -0.030973
v -0.248912 0.046938 -0.043433
v -0.248912 0.027953 -0.047993
v 0.133120 -0.000015 -0.056203
v 0.187044 -0.053939 -0.056203
v 0.135760 -0.016679 -0.056203
v 0.143419 -0.031711 -0.056203
v 0.155348 -0.043640 -0.056203
v 0.170380 -0.051300 -0.056203
v 0.187044 -0.053939 0.000000
v 0.133120 -0.000015 0.000000
v 0.170380 -0.051300 0.000000
v 0.155348 -0.043640 0.000000
v 0.143419 -0.031711 0.000000
v 0.135760 -0.016679 0.000000
vn 0.0000 1.0000 0.0000
vn 0.0000 0.0000 1.0000
vn 0.2175 -0.9761 0.0000
vn 0.0000 -1.0000 0.0000
vn -0.5543 -0.8323 -0.0000
vn 1.0000 -0.0000 0.0000
vn -1.0000 -0.0000 0.0000
vn 0.0785 0.9969 0.0000
vn 0.0000 0.9952 0.0980
vn 0.0000 0.9239 0.3827
vn 0.0000 0.7071 0.7071
vn 0.0000 0.3827 0.9239
vn 0.0000 0.0980 0.9952
vn 0.9969 0.0785 0.0000
vn 0.9511 0.3090 0.0000
vn 0.8090 0.5878 0.0000
vn 0.5878 0.8090 0.0000
vn 0.3090 0.9511 0.0000
vn 0.0000 0.0000 -1.0000
vn 0.0000 0.9952 -0.0980
vn 0.0000 0.9239 -0.3827
vn 0.0000 0.7071 -0.7071
vn 0.0000 0.3827 -0.9239
vn 0.0000 0.0980 -0.9952
vn 0.0000 0.9895 0.1447
vn 0.0000 0.8445 0.5356
vn 0.0000 0.4647 0.8855
vn 0.0000 0.1176 0.9931
vn -0.0000 0.9895 -0.1447
vn -0.0000 0.8445 -0.5356
vn 0.0000 0.4647 -0.8855
vn 0.0000 0.1176 -0.9931
usemtl Black
s 1
f 6//1 70//1 99//1 24//1
f 47//2 3//2 1//2 56//2 60//2 59//2 58//2 57//2 55//2 2//2 41//2
f 3//3 47//4 131//4 65//3
f 86//4 75//4 8//4 11//4
f 97//4 23//4 4//4 68//4
f 72//5 5//5 23//5 97//5
f 7//2 12//2 11//2 8//2
f 12//1 7//1 74//1 85//1
f 61//6 78//6 19//6 22//6 21//6 20//6 18//6 2//6
f 74//6 7//6 8//6 75//6
f 6//7 14//7 17//7 16//7 15//7 13//7 77//7 70//7
f 1//1 10//1 82//1 62//1
f 56//8 1//1 62//1 150//8
f 65//3 80//3 9//3 3//3
f 10//1 12//1 85//1 82//1
f 80//3 86//4 11//4 9//3
f 42//9 43//10 22//10 19//9
f 43//10 44//11 21//11 22//10
f 44//11 45//12 20//12 21//11
f 45//12 46//13 18//13 20//12
f 42//9 125//1 77//1 13//9
f 1//2 3//2 9//2 10//2
f 5//2 6//2 24//2 23//2
f 23//2 24//2 35//2 4//2
f 24//1 99//1 115//1 35//1
f 9//2 11//2 12//2 10//2
f 36//7 40//7 39//7 37//7 38//7 119//7 117//7
f 2//2 18//13 46//13 41//2
f 19//9 78//1 125//1 42//9
f 47//4 48//4 134//4 131//4
f 17//12 14//13 46//13 45//12
f 48//4 49//4 135//4 134//4
f 49//4 5//4 72//4 135//4
f 16//11 17//12 45//12 44//11
f 15//10 16//11 44//11 43//10
f 42//9 13//9 15//10 43//10
f 41//2 46//13 14//13 6//2
f 41//2 6//2 5//2 49//2 48//2 47//2
f 55//14 57//15 155//15 151//14
f 57//15 58//16 154//16 155//15
f 58//16 59//17 153//17 154//16
f 59//17 60//18 152//18 153//17
f 60//18 56//8 150//8 152//18
f 55//14 151//14 61//6 2//6
f 115//7 68//7 4//7 35//7
f 71//1 100//1 99//1 70//1
f 132//19 124//19 64//19 144//19 146//19 147//19 148//19 149//19 145//19 63//19 66//19
f 66//3 65//3 131//4 132//4
f 86//4 83//4 76//4 75//4
f 97//4 68//4 67//4 98//4
f 72//5 97//5 98//5 69//5
f 73//19 76//19 83//19 84//19
f 84//1 85//1 74//1 73//1
f 61//6 64//6 92//6 94//6 95//6 96//6 93//6 78//6
f 74//6 75//6 76//6 73//6
f 71//7 70//7 77//7 87//7 89//7 90//7 91//7 88//7
f 63//1 62//1 82//1 81//1
f 145//8 150//8 62//1 63//1
f 65//3 66//3 79//3 80//3
f 81//1 82//1 85//1 84//1
f 80//3 79//3 83//4 86//4
f 126//20 93//20 96//21 127//21
f 127//21 96//21 95//22 128//22
f 128//22 95//22 94//23 129//23
f 129//23 94//23 92//24 130//24
f 126//20 87//20 77//1 125//1
f 63//19 81//19 79//19 66//19
f 69//19 98//19 100//19 71//19
f 98//19 67//19 116//19 100//19
f 100//1 116//1 115//1 99//1
f 79//19 81//19 84//19 83//19
f 118//7 117//7 119//7 121//7 120//7 122//7 123//7
f 64//19 124//19 130//24 92//24
f 93//20 126//20 125//1 78//1
f 132//4 131//4 134//4 133//4
f 91//23 129//23 130//24 88//24
f 133//4 134//4 135//4 136//4
f 136//4 135//4 72//4 69//4
f 90//22 128//22 129//23 91//23
f 89//21 127//21 128//22 90//22
f 126//20 127//21 89//21 87//20
f 124//19 71//19 88//24 130//24
f 124//19 132//19 133//19 136//19 69//19 71//19
f 144//14 151//14 155//15 146//15
f 146//15 155//15 154//16 147//16
f 147//16 154//16 153//17 148//17
f 148//17 153//17 152//18 149//18
f 149//18 152//18 150//8 145//8
f 144//14 64//6 61//6 151//14
f 115//7 116//7 67//7 68//7
usemtl White
f 101//6 106//6 32//6 34//6 33//6 31//6 25//6
f 51//25 52//26 34//26 32//25
f 52//26 53//27 33//27 34//26
f 53//27 54//28 31//28 33//27
f 25//2 31//28 54//28 50//2
f 32//25 106//1 139//1 51//25
f 25//4 50//4 137//4 101//4
f 101//6 102//6 111//6 113//6 114//6 112//6 106//6
f 140//29 112//29 114//30 141//30
f 141//30 114//30 113//31 142//31
f 142//31 113//31 111//32 143//32
f 102//19 138//19 143//32 111//32
f 112//29 140//29 139//1 106//1
f 102//4 101//4 137//4 138//4
usemtl Main
f 50//4 26//4 103//4 137//4
f 29//7 37//7 39//7 30//7
f 51//25 139//1 105//1 27//25
f 50//2 54//28 28//28 26//2
f 105//7 119//7 38//7 27//7
f 28//7 40//7 36//7 26//7
f 27//7 38//7 37//7 29//7
f 30//7 39//7 40//7 28//7
f 26//7 36//7 117//7 103//7
f 30//27 28//28 54//28 53//27
f 29//26 30//27 53//27 52//26
f 27//25 29//26 52//26 51//25
f 138//4 137//4 103//4 104//4
f 109//7 110//7 122//7 120//7
f 140//29 107//29 105//1 139//1
f 138//19 104//19 108//32 143//32
f 105//7 107//7 121//7 119//7
f 108//7 104//7 118//7 123//7
f 107//7 109//7 120//7 121//7
f 110//7 108//7 123//7 122//7
f 104//7 103//7 117//7 118//7
f 110//31 142//31 143//32 108//32
f 109//30 141//30 142//31 110//31
f 107//29 140//29 141//30 109//30
