# Blender v2.79 (sub 0) OBJ File: 'Body_Sniper_3.blend'
# www.blender.org
mtllib Body_Sniper_3.mtl
o Body_Sniper_3_Cube.001
v -0.131831 0.084926 0.017998
v -0.134572 0.072602 0.035633
v -0.019657 0.072602 0.035633
v -0.142764 0.072602 0.017998
v -0.011465 0.072602 0.017998
v -0.077114 0.072602 0.035633
v -0.022398 0.084926 0.017998
v -0.077114 0.084926 0.017998
v -0.131831 0.084926 -0.017272
v -0.134572 0.072602 -0.034908
v -0.019657 0.072602 -0.034908
v -0.142764 0.072602 -0.017272
v -0.011465 0.072602 -0.017272
v -0.077114 0.072602 -0.034908
v -0.022398 0.084926 -0.017272
v -0.077114 0.084926 -0.017272
v -0.138465 0.081845 0.017998
v -0.022398 0.084926 0.000363
v -0.021713 0.081845 0.031224
v -0.015764 0.081845 0.017998
v -0.145896 0.060277 0.017998
v -0.131831 0.084926 0.000363
v -0.016916 0.060277 0.035633
v -0.008333 0.060277 0.017998
v -0.013513 0.072602 0.031224
v -0.140716 0.072602 0.031224
v -0.142764 0.072602 0.000363
v -0.011465 0.072602 0.000363
v -0.077114 0.084926 0.000363
v -0.132516 0.081845 0.031224
v -0.077114 0.081845 0.031224
v -0.137313 0.060277 0.035633
v -0.077114 0.060277 0.035633
v -0.116111 0.072602 0.035633
v -0.038118 0.072602 0.035633
v -0.039978 0.084926 0.017998
v -0.114251 0.084926 0.017998
v -0.138465 0.081845 -0.017272
v -0.021713 0.081845 -0.030499
v -0.015764 0.081845 -0.017272
v -0.145896 0.060277 -0.017272
v -0.016916 0.060277 -0.034908
v -0.008333 0.060277 -0.017272
v -0.013513 0.072602 -0.030499
v -0.140716 0.072602 -0.030499
v -0.132516 0.081845 -0.030499
v -0.077114 0.081845 -0.030499
v -0.137313 0.060277 -0.034908
v -0.077114 0.060277 -0.034908
v -0.116111 0.072602 -0.034908
v -0.038118 0.072602 -0.034908
v -0.039978 0.084926 -0.017272
v -0.114251 0.084926 -0.017272
v -0.137513 0.079449 0.027795
v -0.016715 0.079449 0.027795
v -0.143750 0.060277 0.031224
v -0.010478 0.060277 0.031224
v -0.114716 0.081845 0.031224
v -0.039513 0.081845 0.031224
v -0.117972 0.060277 0.035633
v -0.036257 0.060277 0.035633
v -0.137513 0.079449 -0.027070
v -0.138465 0.081845 0.000363
v -0.015764 0.081845 0.000363
v -0.016715 0.079449 -0.027070
v -0.143750 0.060277 -0.030499
v -0.145896 0.060277 0.000363
v -0.008333 0.060277 0.000363
v -0.010478 0.060277 -0.030499
v -0.114251 0.084926 0.000363
v -0.039978 0.084926 0.000363
v -0.114716 0.081845 -0.030499
v -0.039513 0.081845 -0.030499
v -0.117972 0.060277 -0.034908
v -0.036257 0.060277 -0.034908
v 0.330205 -0.047548 -0.026920
v 0.330205 -0.047548 0.029396
v -0.208987 -0.047548 -0.026920
v -0.208987 -0.047548 0.029396
v -0.249695 0.012922 0.041444
v -0.249695 0.012922 -0.040718
v 0.330205 0.012922 0.041444
v 0.330205 0.012922 -0.040718
v 0.422426 -0.047548 -0.026920
v 0.422426 -0.047548 0.029396
v 0.422426 0.012922 0.041444
v 0.422426 0.012922 -0.040718
v -0.249695 0.085285 -0.016901
v -0.249695 0.061002 -0.040718
v -0.249695 0.082032 -0.028810
v -0.249695 0.073144 -0.037528
v -0.249695 0.061002 0.041444
v -0.249695 0.085285 0.017627
v -0.249695 0.073144 0.038253
v -0.249695 0.082032 0.029535
v 0.152257 -0.047548 0.029396
v 0.152257 -0.047548 -0.026920
v 0.152257 0.012922 -0.040718
v 0.152257 0.012922 0.041444
v 0.096424 0.012922 0.041444
v 0.045676 0.073144 0.038253
v 0.045676 0.082032 0.029535
v 0.045676 0.085285 0.017627
v 0.045676 0.082032 -0.028810
v 0.045676 0.073144 -0.037528
v 0.045676 0.061002 -0.040718
v 0.096424 -0.047548 0.029396
v 0.096424 -0.047548 -0.026920
v 0.096424 0.012922 -0.040718
v 0.045676 0.061002 0.041444
v 0.045676 0.085285 -0.016901
v -0.169848 0.012922 0.041444
v -0.169848 0.073144 0.038253
v -0.169848 0.082032 0.029535
v -0.169848 0.085285 0.017627
v -0.169848 0.082032 -0.028810
v -0.169848 0.073144 -0.037527
v -0.169848 0.061002 -0.040718
v -0.169848 -0.047548 0.029396
v -0.169848 -0.047548 -0.026920
v -0.169848 0.012922 -0.040718
v -0.169848 0.061002 0.041444
v -0.169848 0.085285 -0.016901
v 0.015396 -0.047548 0.029396
v 0.015396 -0.047548 -0.026920
v 0.015396 0.012922 -0.040718
v 0.015396 0.061002 0.041444
v 0.015396 0.085285 -0.016901
v 0.015396 0.012922 0.041444
v 0.015396 0.073144 0.038253
v 0.015396 0.082032 0.029535
v 0.015396 0.085285 0.017627
v 0.015396 0.082032 -0.028810
v 0.015396 0.073144 -0.037528
v 0.015396 0.061002 -0.040718
v -0.007020 0.012922 0.041444
v -0.147431 0.012922 0.041444
v -0.007020 0.060692 0.038253
v -0.147431 0.060692 0.038253
v -0.007020 0.069580 0.029535
v -0.147431 0.069580 0.029535
v -0.007020 0.072833 0.017627
v -0.147431 0.072833 0.017627
v -0.007020 0.069580 -0.028810
v -0.147431 0.069580 -0.028810
v -0.007020 0.060692 -0.037527
v -0.147431 0.060692 -0.037527
v -0.007020 0.048550 -0.040718
v -0.147431 0.048550 -0.040718
v -0.113470 -0.047548 0.029396
v -0.007020 -0.047548 0.029396
v -0.113470 -0.047548 -0.026920
v -0.007020 -0.047548 -0.026920
v -0.147431 0.012922 -0.040718
v -0.007020 0.012922 -0.040718
v -0.147431 0.048550 0.041444
v -0.007020 0.048550 0.041444
v -0.147431 0.072833 -0.016901
v -0.007020 0.072833 -0.016901
v 0.153583 0.014644 -0.036303
v 0.330055 0.014644 -0.036303
v 0.330055 0.014644 0.037028
v 0.420217 0.014644 0.037028
v 0.420217 0.014644 -0.036303
v 0.153583 0.090427 0.037028
v 0.330055 0.090427 0.037028
v 0.330055 0.102077 0.034180
v 0.330055 0.110605 0.026399
v 0.330055 0.113727 0.015771
v 0.153583 0.113727 -0.015046
v 0.330055 0.113727 -0.015046
v 0.330055 0.110605 -0.025674
v 0.330055 0.102077 -0.033455
v 0.330055 0.090427 -0.036303
v 0.420217 0.111140 0.026399
v 0.420217 0.114261 0.015771
v 0.420217 0.102611 0.034180
v 0.420217 0.090961 0.037028
v 0.420217 0.102611 -0.033455
v 0.420217 0.090961 -0.036303
v 0.420217 0.111140 -0.025674
v 0.420217 0.114261 -0.015046
v 0.098213 0.014644 -0.036303
v 0.153583 0.014644 0.037028
v 0.047886 0.060778 0.037028
v 0.153583 0.102077 0.034180
v 0.153583 0.110605 0.026399
v 0.153583 0.113727 0.015771
v 0.047886 0.084078 -0.015046
v 0.153583 0.110605 -0.025674
v 0.153583 0.102077 -0.033455
v 0.153583 0.090427 -0.036303
v 0.098213 0.014644 0.037028
v 0.047886 0.072428 0.034180
v 0.047886 0.080956 0.026399
v 0.047886 0.084078 0.015771
v 0.047886 0.080956 -0.025674
v 0.047886 0.072428 -0.033455
v 0.047886 0.060778 -0.036303
v -0.229341 -0.017313 -0.040718
v -0.229341 -0.017313 0.041444
v 0.330205 -0.017313 0.041444
v 0.330205 -0.017313 -0.040718
v 0.422426 -0.017313 0.041444
v 0.422426 -0.017313 -0.040718
v 0.152257 -0.017313 0.041444
v 0.152257 -0.017313 -0.040718
v 0.096424 -0.017313 0.041444
v 0.096424 -0.017313 -0.040718
v -0.169848 -0.017313 0.041444
v -0.169848 -0.017313 -0.040718
v 0.015396 -0.017313 -0.040718
v 0.015396 -0.017313 0.041444
v -0.113470 -0.017313 0.041444
v -0.007020 -0.017313 0.041444
v -0.007020 -0.017313 -0.040718
v -0.113470 -0.017313 -0.040718
v 0.085264 -0.035919 -0.023727
v 0.156370 -0.035919 0.024452
v 0.156370 -0.035919 -0.023727
v 0.012660 -0.071168 -0.018925
v 0.012660 -0.071168 0.019650
v 0.084811 -0.071168 -0.018925
v 0.084811 -0.071168 0.019650
v 0.085264 -0.035919 0.024452
v 0.072888 -0.087574 0.024452
v 0.141765 -0.087574 -0.023727
v 0.141765 -0.087574 0.024452
v 0.072888 -0.087574 -0.023727
v -0.204667 -0.035919 -0.023727
v -0.204667 -0.035919 0.024452
v -0.204667 -0.063610 0.024452
v -0.180704 -0.087574 0.024452
v -0.201457 -0.075592 0.024452
v -0.192685 -0.084363 0.024452
v -0.180704 -0.087574 -0.023727
v -0.204667 -0.063610 -0.023727
v -0.192685 -0.084363 -0.023727
v -0.201457 -0.075592 -0.023727
v 0.052860 -0.166049 -0.023727
v 0.048288 -0.183962 -0.008091
v 0.050574 -0.175005 -0.021632
v 0.048901 -0.181562 -0.015909
v -0.182921 -0.071168 0.001166
v -0.164362 -0.071168 0.019650
v -0.180435 -0.071168 0.010408
v -0.173642 -0.071168 0.017174
v -0.164362 -0.071168 -0.018925
v -0.182921 -0.071168 -0.000441
v -0.173642 -0.071168 -0.016449
v -0.180435 -0.071168 -0.009683
v 0.110866 -0.198641 -0.008091
v 0.115824 -0.180818 -0.023727
v 0.111530 -0.196253 -0.015909
v 0.113345 -0.189730 -0.021632
v 0.115824 -0.180818 0.024452
v 0.110866 -0.198641 0.008817
v 0.113345 -0.189730 0.022357
v 0.111530 -0.196253 0.016634
v 0.023048 -0.174608 -0.000441
v 0.021195 -0.156158 -0.018925
v 0.022800 -0.172136 -0.009683
v 0.022122 -0.165383 -0.016449
v 0.021195 -0.156158 0.019650
v 0.023048 -0.174608 0.001166
v 0.022122 -0.165383 0.017174
v 0.022800 -0.172136 0.010408
v 0.065259 -0.156158 0.019650
v 0.061014 -0.174608 0.001166
v 0.063136 -0.165383 0.017174
v 0.061583 -0.172136 0.010408
v 0.061014 -0.174608 -0.000441
v 0.065259 -0.156158 -0.018925
v 0.061583 -0.172136 -0.009683
v 0.063136 -0.165383 -0.016449
v -0.154791 -0.177085 0.019650
v -0.172533 -0.186127 0.001166
v -0.163662 -0.181606 0.017174
v -0.170156 -0.184916 0.010408
v -0.149025 -0.182125 0.019650
v -0.154692 -0.201721 0.001166
v -0.151858 -0.191923 0.017174
v -0.153932 -0.199096 0.010408
v -0.149025 -0.182124 -0.018925
v -0.154692 -0.201721 -0.000441
v -0.151858 -0.191923 -0.016449
v -0.153932 -0.199096 -0.009683
v -0.154791 -0.177085 -0.018925
v -0.172533 -0.186127 -0.000441
v -0.163662 -0.181606 -0.016449
v -0.170156 -0.184916 -0.009683
v 0.048288 -0.183962 0.008817
v 0.052860 -0.166049 0.024452
v 0.048901 -0.181562 0.016634
v 0.050574 -0.175005 0.022357
v 0.067019 -0.148509 0.019650
v 0.020313 -0.147369 0.019650
v 0.066961 -0.148757 -0.018925
v 0.020374 -0.147982 -0.018925
vn 0.0000 0.9933 0.1160
vn 0.0000 0.9739 0.2269
vn 0.0000 0.9935 0.1142
vn 0.0000 1.0000 0.0000
vn -0.4455 0.8896 0.1006
vn -0.4212 0.9070 0.0000
vn -0.4467 0.8884 0.1060
vn -0.4665 0.8593 0.2098
vn -0.5670 0.5030 0.6523
vn -0.5688 0.1333 0.8116
vn 0.0000 0.0000 1.0000
vn 0.0000 0.4305 0.9026
vn 0.5688 0.1333 0.8116
vn 0.5670 0.5030 0.6523
vn -0.9374 0.3394 0.0785
vn -0.8976 0.4342 0.0760
vn -0.9067 0.4217 0.0000
vn -0.9421 0.3355 0.0000
vn -0.9692 0.2463 0.0000
vn -0.9669 0.2438 0.0753
vn -0.9588 0.2399 0.1520
vn -0.9300 0.3325 0.1570
vn -0.8809 0.4450 0.1611
vn 0.9374 0.3394 0.0785
vn 0.8976 0.4342 0.0760
vn 0.8809 0.4450 0.1611
vn 0.9300 0.3325 0.1570
vn 0.9588 0.2399 0.1520
vn 0.9669 0.2438 0.0753
vn 0.9692 0.2463 -0.0000
vn 0.9421 0.3355 -0.0000
vn 0.9067 0.4217 -0.0000
vn 0.4455 0.8896 0.1006
vn 0.4665 0.8593 0.2098
vn 0.4467 0.8884 0.1060
vn 0.4212 0.9070 -0.0000
vn 0.0000 0.9933 -0.1160
vn 0.0000 0.9935 -0.1142
vn 0.0000 0.9739 -0.2269
vn -0.4455 0.8896 -0.1006
vn -0.4665 0.8593 -0.2098
vn -0.4467 0.8884 -0.1060
vn -0.5670 0.5030 -0.6523
vn 0.0000 0.4305 -0.9026
vn 0.0000 0.0000 -1.0000
vn -0.5688 0.1333 -0.8116
vn 0.5670 0.5030 -0.6523
vn 0.5688 0.1333 -0.8116
vn -0.9374 0.3394 -0.0785
vn -0.8976 0.4342 -0.0760
vn -0.8809 0.4450 -0.1611
vn -0.9300 0.3325 -0.1570
vn -0.9588 0.2399 -0.1520
vn -0.9669 0.2438 -0.0753
vn 0.9374 0.3394 -0.0785
vn 0.9300 0.3325 -0.1570
vn 0.8809 0.4450 -0.1611
vn 0.8976 0.4342 -0.0760
vn 0.9669 0.2438 -0.0753
vn 0.9588 0.2399 -0.1520
vn 0.4455 0.8896 -0.1006
vn 0.4467 0.8884 -0.1060
vn 0.4665 0.8593 -0.2098
vn 0.0000 -1.0000 0.0000
vn 0.0000 0.1281 -0.9918
vn 0.0464 0.1480 -0.9879
vn -1.0000 0.0000 -0.0000
vn -0.8295 -0.5584 0.0000
vn 0.0000 0.9911 -0.1329
vn 0.0000 0.9911 0.1329
vn -0.0000 -0.1885 0.9821
vn -0.0000 -0.3702 0.9290
vn 0.0000 0.2542 -0.9672
vn 0.0572 0.2538 -0.9656
vn 0.0000 0.7002 -0.7139
vn 0.1610 0.6911 -0.7046
vn 0.2031 0.6856 -0.6990
vn 0.0000 0.9647 -0.2635
vn 0.0000 0.9646 0.2635
vn 0.0000 0.7002 0.7139
vn 0.2031 0.6856 0.6990
vn 0.1610 0.6911 0.7046
vn 0.0000 0.1281 0.9918
vn 0.0464 0.1480 0.9879
vn 0.0572 0.2538 0.9656
vn 0.0000 0.2542 0.9672
vn 0.0000 -0.1198 0.9928
vn 0.4820 0.8677 -0.1215
vn 0.4826 0.8687 -0.1120
vn 0.4826 0.8687 0.1120
vn 0.4820 0.8677 0.1215
vn 0.0242 0.1076 -0.9939
vn 0.0242 0.1076 0.9939
vn 0.0795 0.2534 0.9641
vn 0.4723 0.8503 0.2323
vn 0.4723 0.8503 -0.2323
vn 0.0795 0.2534 -0.9641
vn -0.0000 -0.4152 -0.9097
vn 1.0000 -0.0000 0.0000
vn -0.0423 -0.1449 -0.9885
vn -0.1340 -0.0683 -0.9886
vn 0.0095 -0.1236 -0.9923
vn -0.6529 -0.7470 -0.1253
vn -0.6529 -0.7470 0.1253
vn -0.6528 -0.7469 0.1261
vn -0.6528 -0.7469 -0.1261
vn 0.0000 -0.1123 -0.9937
vn 0.0095 -0.1236 0.9923
vn -0.1340 -0.0683 0.9886
vn -0.0423 -0.1449 0.9885
vn -0.1373 -0.0124 -0.9904
vn 0.1496 -0.9807 -0.1256
vn 0.0748 -0.9885 -0.1317
vn 0.0748 -0.9885 0.1317
vn 0.1496 -0.9807 0.1256
vn -0.0000 -0.9912 -0.1327
vn 0.0000 -0.9912 0.1327
vn 0.0000 -0.1123 0.9937
vn -0.9880 -0.0893 0.1261
vn -0.9875 -0.0892 0.1295
vn -0.9875 -0.0892 -0.1295
vn -0.9880 -0.0893 -0.1261
vn 0.0733 -0.9630 -0.2595
vn -0.0000 -0.9660 -0.2584
vn 0.0000 -0.7078 -0.7065
vn 0.0528 -0.7041 -0.7081
vn 0.0539 -0.7040 -0.7081
vn 0.0000 -0.2593 -0.9658
vn 0.0192 -0.2574 -0.9661
vn 0.0000 -0.9660 0.2584
vn 0.0733 -0.9630 0.2595
vn 0.0528 -0.7041 0.7081
vn 0.0000 -0.7078 0.7065
vn 0.0539 -0.7040 0.7081
vn 0.0192 -0.2574 0.9661
vn 0.0000 -0.2593 0.9658
vn -0.0659 -0.2265 -0.9718
vn -0.2150 -0.1096 -0.9704
vn -0.4653 -0.5324 -0.7071
vn -0.6357 -0.7273 -0.2588
vn -0.2150 -0.1096 0.9704
vn -0.0659 -0.2265 0.9718
vn -0.4653 -0.5324 0.7071
vn -0.6357 -0.7273 0.2588
vn 0.1065 -0.6984 -0.7078
vn 0.1456 -0.9548 -0.2593
vn 0.1065 -0.6984 0.7078
vn 0.1456 -0.9548 0.2593
vn -0.1373 -0.0124 0.9904
vn -0.2578 -0.0233 0.9659
vn -0.7042 -0.0636 0.7071
vn -0.9620 -0.0869 0.2588
vn -0.2578 -0.0233 -0.9659
vn -0.7042 -0.0636 -0.7071
vn -0.9620 -0.0869 -0.2588
vn -0.0004 0.1194 0.9929
vn -0.0007 0.1200 0.9928
vn -0.0004 0.1194 -0.9929
vn -0.0007 0.1200 -0.9928
vn -0.0196 0.1298 0.9914
vn -0.0007 0.2375 0.9714
vn -0.0302 0.2374 0.9710
vn -0.0989 0.6707 0.7351
vn -0.0020 0.6740 0.7387
vn -0.0869 0.6714 0.7360
vn -0.1342 0.9508 0.2792
vn -0.0028 0.9595 0.2818
vn -0.0029 0.9898 0.1424
vn -0.1335 0.9812 0.1395
vn -0.1335 0.9812 -0.1395
vn -0.0029 0.9898 -0.1424
vn -0.0028 0.9595 -0.2818
vn -0.1342 0.9508 -0.2792
vn -0.0869 0.6714 -0.7360
vn -0.0020 0.6740 -0.7387
vn -0.0989 0.6707 -0.7351
vn -0.0302 0.2374 -0.9710
vn -0.0007 0.2375 -0.9714
vn -0.0196 0.1298 -0.9914
vn -0.0059 0.9898 0.1423
vn -0.0057 0.9595 0.2818
vn -0.0040 0.6740 0.7387
vn -0.0014 0.2375 0.9714
vn -0.0014 0.2375 -0.9714
vn -0.0040 0.6740 -0.7387
vn -0.0057 0.9595 -0.2818
vn -0.0059 0.9898 -0.1423
vn -0.0665 0.2369 -0.9692
vn -0.0377 0.1343 -0.9902
vn -0.1858 0.6623 -0.7259
vn -0.2674 0.9533 -0.1406
vn -0.2599 0.9265 -0.2721
vn -0.2599 0.9265 0.2721
vn -0.2674 0.9533 0.1406
vn -0.1858 0.6623 0.7259
vn -0.0377 0.1343 0.9902
vn -0.0665 0.2369 0.9692
vn -0.9689 0.2473 -0.0000
vn 0.9634 -0.2680 0.0000
vn 0.9628 -0.2701 0.0000
vn 0.9623 -0.2721 0.0000
vn -0.2257 -0.9621 0.1534
vn -0.2257 -0.9622 0.1525
vn -0.2257 -0.9622 -0.1525
vn -0.2257 -0.9621 -0.1534
vn -0.0257 -0.1096 0.9936
vn -0.0247 -0.1055 0.9941
vn -0.1305 -0.9914 0.0000
vn -0.2588 -0.9659 0.0000
vn -0.7071 -0.7071 0.0000
vn -0.9659 -0.2588 0.0000
vn -0.9914 -0.1305 0.0000
vn -0.0505 -0.2152 0.9753
vn -0.1475 -0.6288 0.7635
vn -0.2177 -0.9281 0.3020
vn -0.2177 -0.9281 -0.3020
vn -0.1475 -0.6288 -0.7635
vn -0.0505 -0.2152 -0.9753
vn -0.0257 -0.1096 -0.9936
vn -0.0247 -0.1055 -0.9941
vn 0.8256 0.3881 0.4097
vn 0.8710 0.2228 0.4378
vn 0.8597 0.2748 0.4305
vn -0.0000 0.9316 -0.3635
vn 0.0000 0.9316 0.3635
vn 0.6257 0.6713 -0.3972
vn 0.8863 0.1139 0.4488
vn 0.6257 0.6713 0.3972
vn 0.5861 0.7968 -0.1472
vn 0.5861 0.7968 0.1472
vn 0.5332 0.8430 0.0709
vn 0.5332 0.8430 -0.0709
vn 0.8863 0.1139 -0.4488
vn 0.8710 0.2228 -0.4378
vn 0.8597 0.2748 -0.4305
vn 0.8256 0.3881 -0.4097
vn 0.6268 0.7497 -0.2121
vn 0.6149 0.7886 0.0000
vn 0.0000 0.1018 0.9948
vn -0.0464 0.1480 0.9879
vn -0.0572 0.2538 0.9656
vn -0.2031 0.6856 0.6990
vn -0.1610 0.6911 0.7046
vn -0.1610 0.6911 -0.7046
vn -0.2031 0.6856 -0.6990
vn -0.0572 0.2538 -0.9656
vn 0.0000 0.1018 -0.9948
vn -0.0464 0.1480 -0.9879
vn 0.6269 0.7497 0.2121
vn -0.0795 0.2534 -0.9641
vn -0.0242 0.1076 -0.9939
vn -0.4820 0.8677 -0.1215
vn -0.4826 0.8687 -0.1120
vn -0.4723 0.8503 -0.2323
vn -0.4723 0.8503 0.2323
vn -0.4826 0.8687 0.1120
vn -0.4820 0.8677 0.1215
vn -0.0242 0.1076 0.9939
vn -0.0795 0.2534 0.9641
usemtl Black
s 1
f 1//1 30//2 58//2 37//3
f 1//1 37//3 70//4 22//4
f 1//5 22//6 63//6 17//7
f 1//5 17//7 54//8 30//8
f 2//9 30//9 54//9 26//9
f 2//10 26//10 56//10 32//10
f 2//11 32//11 60//11 34//11
f 2//12 34//12 58//12 30//12
f 3//12 19//12 59//12 35//12
f 3//11 35//11 61//11 23//11
f 3//13 23//13 57//13 25//13
f 3//14 25//14 55//14 19//14
f 4//15 17//16 63//17 27//18
f 4//15 27//18 67//19 21//20
f 4//15 21//20 56//21 26//22
f 4//15 26//22 54//23 17//16
f 5//24 20//25 55//26 25//27
f 5//24 25//27 57//28 24//29
f 5//24 24//29 68//30 28//31
f 5//24 28//31 64//32 20//25
f 6//12 31//12 58//12 34//12
f 6//11 34//11 60//11 33//11
f 6//11 33//11 61//11 35//11
f 6//12 35//12 59//12 31//12
f 7//33 19//34 55//34 20//35
f 7//33 20//35 64//36 18//36
f 7//1 18//4 71//4 36//3
f 7//1 36//3 59//2 19//2
f 8//3 31//2 59//2 36//3
f 8//3 36//3 71//4 29//4
f 8//3 29//4 70//4 37//3
f 8//3 37//3 58//2 31//2
f 9//37 53//38 72//39 46//39
f 9//40 46//41 62//41 38//42
f 9//40 38//42 63//6 22//6
f 9//37 22//4 70//4 53//38
f 10//43 45//43 62//43 46//43
f 10//44 46//44 72//44 50//44
f 10//45 50//45 74//45 48//45
f 10//46 48//46 66//46 45//46
f 11//44 51//44 73//44 39//44
f 11//47 39//47 65//47 44//47
f 11//48 44//48 69//48 42//48
f 11//45 42//45 75//45 51//45
f 12//49 27//18 63//17 38//50
f 12//49 38//50 62//51 45//52
f 12//49 45//52 66//53 41//54
f 12//49 41//54 67//19 27//18
f 13//55 44//56 65//57 40//58
f 13//55 40//58 64//32 28//31
f 13//55 28//31 68//30 43//59
f 13//55 43//59 69//60 44//56
f 14//44 50//44 72//44 47//44
f 14//44 47//44 73//44 51//44
f 14//45 51//45 75//45 49//45
f 14//45 49//45 74//45 50//45
f 15//61 40//62 65//63 39//63
f 15//37 39//39 73//39 52//38
f 15//37 52//38 71//4 18//4
f 15//61 18//36 64//36 40//62
f 16//38 52//38 73//39 47//39
f 16//38 47//39 72//39 53//38
f 16//38 53//38 70//4 29//4
f 16//38 29//4 71//4 52//38
f 120//64 119//64 79//64 78//64
f 121//45 81//45 89//65 118//66
f 211//45 200//45 81//45 121//45
f 81//67 80//67 92//67 94//67 95//67 93//67 88//67 90//67 91//67 89//67
f 200//68 201//68 80//68 81//68
f 123//69 88//69 93//70 115//70
f 77//64 76//64 84//64 85//64
f 202//71 77//72 85//72 204//71
f 76//64 77//64 96//64 97//64
f 97//64 96//64 107//64 108//64
f 91//73 117//74 118//66 89//65
f 90//75 116//76 117//77 91//75
f 88//69 123//69 116//78 90//78
f 95//79 114//79 115//70 93//70
f 94//80 113//81 114//82 95//80
f 92//83 122//84 113//85 94//86
f 80//11 112//11 122//84 92//83
f 201//87 210//71 112//11 80//11
f 158//88 123//89 115//90 143//91
f 217//45 211//45 121//45 154//45
f 154//45 121//45 118//66 149//92
f 152//64 150//64 119//64 120//64
f 108//64 107//64 124//64 125//64
f 210//71 214//71 137//11 112//11
f 112//11 137//11 156//93 122//84
f 122//84 156//93 139//94 113//85
f 113//81 139//82 141//81 114//82
f 114//95 141//95 143//91 115//90
f 123//89 158//88 145//96 116//96
f 116//76 145//77 147//76 117//77
f 117//74 147//97 149//92 118//66
f 125//64 124//64 151//64 153//64
f 153//64 151//64 150//64 152//64
f 153//98 152//98 217//98 216//98
f 125//98 153//98 216//98 212//98
f 150//72 151//72 215//71 214//71
f 119//72 150//72 214//71 210//71
f 151//72 124//72 213//71 215//71
f 108//98 125//98 212//98 209//98
f 152//98 120//98 211//98 217//98
f 79//72 119//72 210//71 201//87
f 97//98 108//98 209//98 207//98
f 124//72 107//72 208//71 213//71
f 76//98 97//98 207//98 203//98
f 107//72 96//72 206//71 208//71
f 85//99 84//99 205//99 204//99
f 78//68 79//68 201//68 200//68
f 96//72 77//72 202//71 206//71
f 120//98 78//98 200//98 211//98
f 76//98 203//98 205//98 84//98
f 284//100 288//101 299//45 261//102
f 285//103 281//104 277//105 289//106
f 261//102 299//45 298//45 273//107
f 264//108 297//11 276//109 280//110
f 299//45 288//101 248//111 221//45
f 298//45 299//45 221//45 223//45
f 285//112 260//113 265//114 281//115
f 260//113 272//116 269//117 265//114
f 268//118 296//11 297//11 264//108
f 277//119 244//120 249//121 289//122
f 272//116 260//113 262//123 274//124
f 274//125 262//126 263//127 275//125
f 275//128 263//129 261//102 273//107
f 265//114 269//117 271//130 267//131
f 267//132 271//133 270//133 266//134
f 266//135 270//136 268//118 264//108
f 288//101 284//100 286//137 290//138
f 290//139 286//139 287//139 291//139
f 291//140 287//140 285//103 289//106
f 280//110 276//109 278//141 282//142
f 282//143 278//143 279//143 283//143
f 283//144 279//144 277//105 281//104
f 284//100 261//102 263//129 286//137
f 286//145 263//127 262//126 287//145
f 287//146 262//123 260//113 285//112
f 264//108 280//110 282//142 266//135
f 266//134 282//147 283//147 267//132
f 267//131 283//148 281//115 265//114
f 276//109 245//149 247//150 278//141
f 278//151 247//151 246//151 279//151
f 279//152 246//152 244//120 277//119
f 248//111 288//101 290//138 250//153
f 250//154 290//154 291//154 251//154
f 251//155 291//155 289//122 249//121
f 297//11 296//11 224//11 222//11
f 276//109 297//11 222//11 245//149
usemtl Grey
f 166//156 162//11 163//11 178//157
f 161//45 174//158 180//159 164//45
f 184//11 162//11 166//156 165//160
f 165//160 166//156 167//161 186//162
f 186//163 167//164 168//164 187//165
f 187//166 168//167 169//168 188//169
f 170//170 171//171 172//172 190//173
f 190//174 172//175 173//175 191//176
f 191//177 173//178 174//158 192//179
f 176//180 169//168 168//167 175//181
f 175//182 168//164 167//164 177//182
f 177//183 167//161 166//156 178//157
f 180//159 174//158 173//178 179//184
f 179//185 173//175 172//175 181//185
f 181//186 172//172 171//171 182//187
f 171//171 169//168 176//180 182//187
f 198//188 191//177 192//179 199//189
f 197//190 190//174 191//176 198//190
f 189//191 170//170 190//173 197//192
f 195//193 187//166 188//169 196//194
f 194//195 186//163 187//165 195//195
f 185//196 165//160 186//162 194//197
f 193//11 184//11 165//160 185//196
f 171//171 170//170 188//169 169//168
f 161//45 160//45 192//179 174//158
f 170//170 189//191 196//194 188//169
f 160//45 183//45 199//189 192//179
f 292//198 294//198 295//198 293//198 226//198 229//198 240//198 242//198 243//198 241//198
f 256//199 258//199 259//199 257//199 252//199 254//199 255//199 253//199 227//200 228//200
f 220//4 218//4 225//4 219//4
f 229//45 236//45 238//45 239//45 237//45 230//45 218//45
f 228//200 227//200 220//201 219//201
f 227//45 229//45 218//45 220//45
f 257//202 292//203 241//204 252//205
f 228//11 226//11 293//206 256//207
f 219//11 225//11 226//11 228//11
f 226//64 233//208 236//208 229//64
f 218//4 230//4 231//4 225//4
f 225//11 231//11 232//11 234//11 235//11 233//11 226//11
f 236//208 233//208 235//209 238//209
f 238//210 235//210 234//210 239//210
f 239//211 234//211 232//212 237//212
f 232//212 231//67 230//67 237//212
f 256//207 293//206 295//213 258//213
f 258//214 295//214 294//214 259//214
f 259//215 294//215 292//203 257//202
f 252//205 241//204 243//216 254//216
f 254//217 243//217 242//217 255//217
f 255//218 242//218 240//219 253//220
f 253//220 240//219 229//45 227//45
usemtl White
f 203//45 83//45 87//45 205//45
f 206//71 202//71 82//11 99//11
f 204//99 205//99 87//99 86//99
f 102//221 101//222 194//223 195//221
f 98//224 109//224 183//224 160//224
f 100//225 99//225 184//225 193//225
f 109//226 106//226 199//226 183//226
f 101//222 110//227 185//227 194//223
f 110//228 100//228 193//228 185//228
f 111//229 103//230 196//231 189//232
f 106//233 105//234 198//235 199//233
f 105//234 104//236 197//236 198//235
f 82//225 86//225 163//225 162//225
f 87//224 83//224 161//224 164//224
f 104//237 111//229 189//232 197//237
f 83//224 98//224 160//224 161//224
f 208//71 206//71 99//11 100//11
f 203//45 207//45 98//45 83//45
f 86//238 87//238 164//238 163//238
f 213//71 208//71 100//11 129//11
f 129//11 100//11 110//239 127//240
f 127//240 110//239 101//86 130//241
f 130//242 101//80 102//80 131//243
f 131//79 102//79 103//70 132//70
f 128//69 111//69 104//78 133//78
f 133//244 104//75 105//75 134//245
f 134//246 105//73 106//247 135//248
f 103//230 102//249 195//249 196//231
f 207//45 209//45 109//45 98//45
f 99//225 82//225 162//225 184//225
f 109//45 126//45 135//248 106//247
f 209//45 212//45 126//45 109//45
f 111//69 128//69 132//70 103//70
f 146//250 134//246 135//248 148//251
f 144//245 133//244 134//245 146//244
f 159//252 128//253 133//254 144//254
f 140//255 131//255 132//256 142//257
f 138//243 130//242 131//243 140//242
f 157//258 127//240 130//241 138//259
f 136//11 129//11 127//240 157//258
f 215//71 213//71 129//11 136//11
f 214//71 215//71 136//11 137//11
f 137//11 136//11 157//258 156//93
f 156//93 157//258 138//259 139//94
f 139//82 138//243 140//242 141//81
f 141//79 140//79 142//70 143//70
f 158//69 159//69 144//78 145//78
f 145//77 144//245 146//244 147//76
f 147//97 146//250 148//251 149//92
f 126//45 155//45 148//251 135//248
f 155//45 154//45 149//92 148//251
f 212//45 216//45 155//45 126//45
f 216//45 217//45 154//45 155//45
f 128//253 159//252 142//257 132//256
f 159//69 158//69 143//70 142//70
f 163//99 164//99 180//99 179//99 181//99 182//99 176//99 175//99 177//99 178//99
f 82//11 202//71 204//71 86//11
