# Blender v2.79 (sub 0) OBJ File: 'Body_SMG_1.blend'
# www.blender.org
mtllib Body_SMG_1.mtl
o Body_SMG_1_Cylinder.000
v -0.220851 -0.000000 -0.072218
v 0.215293 0.000000 -0.072218
v -0.220851 -0.009051 0.071648
v 0.215293 -0.009051 0.071648
v -0.220851 0.009051 0.071648
v 0.215293 0.009051 0.071648
v -0.220851 0.026585 0.067146
v 0.215293 0.026585 0.067146
v -0.220851 0.042448 0.058425
v 0.215293 0.042449 0.058425
v -0.220851 0.055645 0.046033
v 0.215293 0.055645 0.046033
v -0.220851 0.065344 0.030749
v 0.215293 0.065345 0.030749
v -0.220851 0.070938 0.013532
v 0.215293 0.070939 0.013532
v -0.220851 0.072075 -0.004535
v 0.215293 0.072075 -0.004535
v -0.220851 0.068683 -0.022317
v 0.215293 0.068683 -0.022317
v -0.220851 0.060975 -0.038696
v 0.215293 0.060975 -0.038696
v -0.220851 0.049436 -0.052644
v 0.215293 0.049436 -0.052644
v -0.220851 0.034791 -0.063285
v 0.215293 0.034791 -0.063285
v -0.220851 0.017960 -0.069949
v 0.215293 0.017960 -0.069949
v -0.189022 -0.000000 -0.072218
v 0.183464 0.000000 -0.072218
v 0.183464 -0.009051 0.071648
v -0.189022 -0.009051 0.071648
v 0.183464 0.009051 0.071648
v -0.189022 0.009051 0.071648
v 0.183464 0.026585 0.067146
v -0.189022 0.026585 0.067146
v 0.183464 0.042449 0.058425
v -0.189022 0.042448 0.058425
v 0.183464 0.055645 0.046033
v -0.189022 0.055645 0.046033
v 0.183464 0.065345 0.030749
v -0.189022 0.065344 0.030749
v 0.183464 0.070938 0.013532
v -0.189022 0.070938 0.013532
v 0.183464 0.072075 -0.004535
v -0.189022 0.072075 -0.004535
v 0.183464 0.068683 -0.022317
v -0.189022 0.068683 -0.022317
v 0.183464 0.060975 -0.038696
v -0.189022 0.060975 -0.038696
v 0.183464 0.049436 -0.052644
v -0.189022 0.049436 -0.052644
v 0.183464 0.034791 -0.063285
v -0.189022 0.034791 -0.063285
v 0.183464 0.017960 -0.069949
v -0.189022 0.017960 -0.069949
v 0.014202 -0.043673 0.065303
v -0.451930 -0.043673 0.065303
v -0.451930 -0.131413 0.018986
v -0.451930 -0.079750 0.065303
v -0.451930 -0.124492 0.042145
v -0.451930 -0.105582 0.059098
v 0.014202 -0.136150 0.065303
v 0.014202 -0.187813 0.018986
v 0.014202 -0.161982 0.059098
v 0.014202 -0.180892 0.042145
v -0.451930 -0.051458 0.060094
v -0.451930 -0.119845 0.039920
v -0.451930 -0.125702 0.019745
v -0.451930 -0.103844 0.054688
v -0.451930 -0.081986 0.060094
v -0.420645 -0.043673 0.065303
v -0.420645 -0.131413 0.018986
v -0.420645 -0.124492 0.042145
v -0.420645 -0.105582 0.059098
v -0.420645 -0.079750 0.065303
v -0.248436 -0.043673 0.065303
v -0.248436 -0.131413 0.018986
v -0.248436 -0.124492 0.042145
v -0.248436 -0.105582 0.059098
v -0.248436 -0.079750 0.065303
v -0.202299 -0.043673 0.065303
v -0.202298 -0.187813 0.018986
v -0.202298 -0.180892 0.042145
v -0.202298 -0.161982 0.059098
v -0.202298 -0.136150 0.065303
v 0.014202 -0.057317 0.056605
v 0.014202 -0.172098 0.023959
v 0.014202 -0.167220 0.040282
v 0.014202 -0.153891 0.052231
v 0.014202 -0.135684 0.056605
v -0.018760 -0.043673 0.065303
v -0.018760 -0.187813 0.018986
v -0.018760 -0.180892 0.042145
v -0.018760 -0.161982 0.059098
v -0.018760 -0.136150 0.065303
v 0.014202 -0.043673 -0.000000
v 0.014202 -0.043673 -0.065303
v -0.451930 -0.043673 -0.000000
v -0.451930 -0.043673 -0.065303
v -0.451930 -0.131413 -0.000000
v 0.014202 -0.187813 -0.000000
v -0.451930 -0.131413 -0.018986
v -0.451930 -0.079750 -0.065303
v -0.451930 -0.124492 -0.042145
v -0.451930 -0.105582 -0.059098
v 0.014202 -0.136150 -0.065303
v 0.014202 -0.187813 -0.018986
v 0.014202 -0.161982 -0.059098
v 0.014202 -0.180892 -0.042145
v -0.451930 -0.051458 -0.000000
v -0.451930 -0.051458 -0.060094
v -0.451930 -0.125702 -0.000000
v -0.451930 -0.119845 -0.039920
v -0.451930 -0.125702 -0.019745
v -0.451930 -0.103844 -0.054688
v -0.451930 -0.081986 -0.060094
v -0.420645 -0.043673 0.000000
v -0.420645 -0.043673 -0.065303
v -0.420645 -0.131413 0.000000
v -0.420645 -0.131413 -0.018986
v -0.420645 -0.124492 -0.042145
v -0.420645 -0.105582 -0.059098
v -0.420645 -0.079750 -0.065303
v -0.248436 -0.043673 -0.000000
v -0.248436 -0.043673 -0.065303
v -0.248436 -0.131413 -0.000000
v -0.248436 -0.131413 -0.018986
v -0.248436 -0.124492 -0.042145
v -0.248436 -0.105582 -0.059098
v -0.248436 -0.079750 -0.065303
v -0.202299 -0.043673 -0.000000
v -0.202299 -0.043673 -0.065303
v -0.202298 -0.187813 -0.000000
v -0.202298 -0.187813 -0.018986
v -0.202298 -0.180892 -0.042145
v -0.202299 -0.161982 -0.059098
v -0.202299 -0.136150 -0.065303
v 0.014202 -0.057317 -0.056605
v 0.014202 -0.057317 -0.000000
v 0.014202 -0.172098 -0.000000
v 0.014202 -0.172098 -0.023959
v 0.014202 -0.167220 -0.040282
v 0.014202 -0.153891 -0.052231
v 0.014202 -0.135684 -0.056605
v -0.018760 -0.043673 -0.000000
v -0.018760 -0.043673 -0.065303
v -0.018760 -0.187813 0.000000
v -0.018760 -0.187813 -0.018986
v -0.018760 -0.180892 -0.042145
v -0.018760 -0.161982 -0.059098
v -0.018760 -0.136150 -0.065303
v 0.357049 -0.048615 0.076474
v 0.006611 -0.048615 0.076474
v 0.006611 -0.195764 0.009801
v 0.006611 -0.129091 0.076474
v 0.006611 -0.190689 0.035316
v 0.006611 -0.176236 0.056946
v 0.006611 -0.154606 0.071398
v 0.357049 -0.129091 0.076474
v 0.357049 -0.195764 0.009801
v 0.357049 -0.154606 0.071398
v 0.357049 -0.176236 0.056946
v 0.357049 -0.190689 0.035316
v -0.254159 -0.048615 0.076474
v -0.318777 -0.048615 0.076474
v -0.525347 -0.017505 0.076474
v -0.477954 -0.048615 0.076474
v 0.239333 -0.190689 0.035316
v 0.239333 -0.176236 0.056946
v 0.239333 -0.154606 0.071398
v 0.239333 -0.129091 0.076474
v 0.239333 -0.048615 0.076474
v 0.239333 -0.195764 0.009801
v 0.298876 -0.048615 0.076474
v 0.298876 -0.195764 0.009801
v 0.298876 -0.190689 0.035316
v 0.298876 -0.176236 0.056946
v 0.298876 -0.154606 0.071398
v 0.298876 -0.129091 0.076474
v -0.211498 -0.048615 0.076474
v 0.211498 -0.190689 0.035316
v 0.211498 -0.176236 0.056946
v 0.211498 -0.154606 0.071398
v 0.211498 -0.129091 0.076474
v 0.211498 -0.048615 0.076474
v 0.211498 -0.195764 0.009801
v -0.211498 0.002613 0.076474
v 0.006611 0.002613 0.076474
v 0.211498 0.002613 0.076474
v -0.525347 -0.017505 0.071096
v -0.525347 0.030190 0.027033
v -0.254159 0.028700 0.071096
v -0.254159 0.076843 0.027033
v -0.318777 0.030190 0.027033
v -0.318777 -0.017953 0.071096
v -0.211498 0.076843 0.027033
v -0.211498 0.028700 0.071096
v -0.525347 0.000531 0.064194
v -0.525347 0.022676 0.043791
v -0.254159 0.047034 0.064145
v -0.254159 0.069248 0.043814
v -0.318777 0.022595 0.043814
v -0.318777 0.000381 0.064145
v -0.211498 0.069248 0.043814
v -0.211498 0.047034 0.064145
v 0.357049 0.019580 0.017591
v 0.357049 0.014504 0.040124
v 0.357049 0.000050 0.059227
v 0.357049 -0.021583 0.071991
v 0.239333 0.001319 0.076474
v 0.239333 0.076843 0.017591
v 0.239333 0.035679 0.071991
v 0.239333 0.057312 0.059227
v 0.239333 0.071767 0.040124
v 0.298876 0.019580 0.017591
v 0.298876 0.014504 0.040124
v 0.298876 0.000050 0.059227
v 0.298876 -0.021584 0.071991
v 0.211498 0.076843 0.017591
v 0.211498 0.035679 0.071992
v 0.211498 0.057312 0.059227
v 0.211498 0.071767 0.040124
v 0.357049 -0.048615 0.000000
v 0.357049 -0.048615 -0.076474
v -0.525347 0.030190 -0.000000
v 0.006611 -0.048615 0.000000
v 0.006611 -0.048615 -0.076474
v 0.006611 -0.195764 0.000000
v 0.357049 -0.195764 0.000000
v 0.006611 -0.195764 -0.009801
v 0.006611 -0.129091 -0.076474
v 0.006611 -0.190689 -0.035316
v 0.006611 -0.176236 -0.056946
v 0.006611 -0.154606 -0.071398
v 0.357049 -0.129091 -0.076474
v 0.357049 -0.195764 -0.009801
v 0.357049 -0.154606 -0.071398
v 0.357049 -0.176236 -0.056946
v 0.357049 -0.190689 -0.035316
v -0.254159 0.076843 -0.000000
v -0.254159 -0.048615 -0.000000
v -0.254159 -0.048615 -0.076474
v -0.318777 0.030190 0.000000
v -0.318777 -0.048615 0.000000
v -0.318777 -0.048615 -0.076474
v -0.477954 -0.048615 -0.000000
v -0.525347 -0.017505 -0.000000
v -0.525347 -0.017505 -0.076474
v -0.477954 -0.048615 -0.076474
v 0.357049 0.019580 0.000000
v 0.239333 0.076843 0.000000
v 0.239333 -0.190689 -0.035316
v 0.239333 -0.176236 -0.056946
v 0.239333 -0.154606 -0.071398
v 0.239333 -0.129091 -0.076474
v 0.239333 -0.048615 -0.076474
v 0.239333 -0.195764 0.000000
v 0.239333 -0.195764 -0.009801
v 0.298876 -0.048615 -0.076474
v 0.298876 -0.195764 0.000000
v 0.298876 -0.195764 -0.009801
v 0.298876 0.019580 0.000000
v 0.298876 -0.190689 -0.035316
v 0.298876 -0.176236 -0.056946
v 0.298876 -0.154606 -0.071398
v 0.298876 -0.129091 -0.076474
v -0.211498 -0.048615 -0.000000
v -0.211498 -0.048615 -0.076474
v -0.211498 0.076843 -0.000000
v 0.211498 0.076843 0.000000
v 0.211498 -0.190689 -0.035316
v 0.211498 -0.176236 -0.056946
v 0.211498 -0.154606 -0.071398
v 0.211498 -0.129091 -0.076474
v 0.211498 -0.048615 -0.076474
v 0.211498 -0.195764 0.000000
v 0.211498 -0.195764 -0.009801
v -0.211498 0.002613 -0.076474
v 0.006611 0.002613 -0.076474
v 0.211498 0.002613 -0.076474
v 0.006611 0.002603 -0.000000
v 0.211498 0.002605 0.000000
v -0.211498 0.002601 -0.000000
v -0.525347 -0.017505 -0.071096
v -0.525347 0.030190 -0.027033
v -0.254159 0.028700 -0.071096
v -0.254159 0.076843 -0.027033
v -0.318777 0.030190 -0.027033
v -0.318777 -0.017953 -0.071096
v -0.211498 0.076843 -0.027033
v -0.211498 0.028700 -0.071096
v -0.525347 0.000531 -0.064194
v -0.525347 0.022676 -0.043791
v -0.254159 0.047034 -0.064145
v -0.254159 0.069248 -0.043814
v -0.318777 0.022595 -0.043814
v -0.318777 0.000381 -0.064145
v -0.211498 0.069248 -0.043814
v -0.211498 0.047034 -0.064145
v 0.357049 0.019580 -0.017591
v 0.357049 0.014504 -0.040124
v 0.357049 0.000050 -0.059227
v 0.357049 -0.021583 -0.071991
v 0.239333 0.001319 -0.076474
v 0.239333 0.076843 -0.017591
v 0.239333 0.035679 -0.071991
v 0.239333 0.057312 -0.059227
v 0.239333 0.071767 -0.040124
v 0.298876 0.019580 -0.017591
v 0.298876 0.014504 -0.040124
v 0.298876 0.000050 -0.059227
v 0.298876 -0.021584 -0.071991
v 0.211498 0.076843 -0.017591
v 0.211498 0.035679 -0.071992
v 0.211498 0.057312 -0.059227
v 0.211498 0.071767 -0.040124
v 0.357049 -0.129091 0.000000
vn -0.0000 0.2487 -0.9686
vn -0.0000 0.1253 -0.9921
vn -0.0000 0.4818 -0.8763
vn -0.0000 0.6845 -0.7290
vn -0.0000 0.8443 -0.5358
vn -0.0000 0.9511 -0.3090
vn -0.0000 0.9980 -0.0628
vn -0.0000 0.9823 0.1874
vn -0.0000 0.9048 0.4258
vn -0.0000 0.7705 0.6374
vn -0.0000 0.5878 0.8090
vn 0.0000 0.1253 0.9921
vn 0.0000 0.3681 0.9298
vn 0.0000 0.0000 1.0000
vn 0.0000 -0.1176 0.9931
vn -0.0316 -0.0845 0.9959
vn 0.0000 -0.9895 0.1447
vn 0.0000 -1.0000 0.0000
vn -0.0000 1.0000 0.0000
vn -0.7711 -0.6308 0.0862
vn -0.7702 -0.6300 0.0996
vn -0.7740 -0.6332 0.0000
vn -0.1081 -0.1481 0.9831
vn 0.0000 -0.4647 0.8855
vn -0.1237 -0.3645 0.9230
vn 0.0000 -0.6675 0.7446
vn 0.0000 -0.9581 0.2864
vn -0.0530 -0.4233 0.9044
vn -0.6961 -0.5695 0.4372
vn -0.7310 -0.5980 0.3287
vn -0.6322 -0.5172 0.5769
vn 0.0000 0.0000 -1.0000
vn -0.0316 -0.0845 -0.9959
vn 0.0000 -0.1176 -0.9931
vn 0.0000 -0.9895 -0.1447
vn -0.7711 -0.6308 -0.0862
vn -0.7702 -0.6300 -0.0996
vn -0.1081 -0.1481 -0.9831
vn 0.0000 -0.4647 -0.8855
vn -0.1237 -0.3645 -0.9230
vn 0.0000 -0.6675 -0.7446
vn 0.0000 -0.9581 -0.2864
vn -0.0530 -0.4233 -0.9044
vn -0.6961 -0.5695 -0.4372
vn -0.6322 -0.5172 -0.5769
vn -0.7310 -0.5980 -0.3287
vn -1.0000 0.0000 -0.0000
vn 1.0000 0.0000 -0.0000
vn -0.5854 0.8108 0.0000
vn -0.5750 0.7964 0.1875
vn -0.5778 0.8003 0.1602
vn -0.0480 0.2270 0.9727
vn 0.0077 0.2756 0.9612
vn 0.0148 0.1931 0.9811
vn -0.0105 0.1463 0.9892
vn -0.1029 0.2438 0.9643
vn -0.0387 0.0842 0.9957
vn 0.0000 -0.0980 0.9952
vn -0.0210 0.2142 0.9766
vn -0.0208 0.0347 0.9992
vn -0.0271 0.0452 0.9986
vn 0.0000 -0.9952 0.0980
vn 0.0000 -0.9239 0.3827
vn 0.0000 -0.7071 0.7071
vn 0.0000 -0.3827 0.9239
vn -0.0000 0.5242 0.8516
vn -0.1908 0.5375 0.8214
vn -0.0000 0.9775 0.2109
vn -0.5488 -0.8360 0.0000
vn -0.0000 0.9939 0.1106
vn 0.0000 0.0821 0.9966
vn 0.0182 0.0612 0.9980
vn 0.0011 0.0453 0.9990
vn 0.0474 0.0840 0.9953
vn 0.6932 0.7208 0.0000
vn 0.6912 0.7187 0.0763
vn 0.6907 0.7182 0.0841
vn -0.0000 1.0000 -0.0001
vn -0.2619 0.7681 0.5843
vn -0.2591 0.7922 0.5525
vn -0.0000 0.8096 0.5870
vn 0.0003 0.8106 0.5855
vn 0.0001 0.9777 0.2100
vn -0.1649 0.4897 0.8561
vn 0.0005 0.5256 0.8507
vn 0.0000 0.3417 0.9398
vn 0.1140 0.2917 0.9497
vn 0.0000 0.6654 0.7465
vn 0.2705 0.6148 0.7409
vn -0.0000 0.9070 0.4211
vn 0.1824 0.3599 0.9150
vn 0.0016 0.3265 0.9452
vn 0.2855 0.6566 0.6981
vn 0.6489 0.6747 0.3516
vn 0.6632 0.6896 0.2910
vn -0.5778 0.8003 -0.1602
vn -0.5750 0.7964 -0.1875
vn -0.0480 0.2270 -0.9727
vn -0.0105 0.1463 -0.9892
vn 0.0148 0.1931 -0.9811
vn 0.0077 0.2756 -0.9612
vn -0.1029 0.2438 -0.9643
vn -0.0387 0.0842 -0.9957
vn 0.0000 -0.0980 -0.9952
vn -0.0210 0.2142 -0.9766
vn -0.0271 0.0452 -0.9986
vn -0.0208 0.0347 -0.9992
vn 0.0000 -0.9952 -0.0980
vn 0.0000 -0.9239 -0.3827
vn 0.0000 -0.7071 -0.7071
vn 0.0000 -0.3827 -0.9239
vn -0.1908 0.5375 -0.8214
vn -0.0000 0.5242 -0.8516
vn -0.0000 0.9775 -0.2109
vn -0.0000 0.9939 -0.1106
vn 0.0182 0.0612 -0.9980
vn 0.0000 0.0821 -0.9966
vn 0.0011 0.0453 -0.9990
vn 0.0474 0.0840 -0.9953
vn 0.6907 0.7182 -0.0841
vn 0.6912 0.7187 -0.0763
vn -0.0000 1.0000 0.0001
vn -0.2619 0.7681 -0.5843
vn -0.2591 0.7922 -0.5525
vn -0.0000 0.8096 -0.5870
vn 0.0003 0.8106 -0.5855
vn 0.0001 0.9777 -0.2100
vn -0.1649 0.4897 -0.8561
vn 0.0005 0.5256 -0.8507
vn 0.1140 0.2917 -0.9497
vn -0.0000 0.3417 -0.9398
vn 0.2705 0.6148 -0.7409
vn -0.0000 0.6654 -0.7465
vn -0.0000 0.9070 -0.4211
vn 0.0016 0.3265 -0.9452
vn 0.1824 0.3599 -0.9150
vn 0.2855 0.6566 -0.6981
vn 0.6632 0.6896 -0.2910
vn 0.6489 0.6747 -0.3516
usemtl White
s 1
f 56//1 55//1 30//2 29//2
f 54//3 53//3 55//1 56//1
f 52//4 51//4 53//3 54//3
f 50//5 49//5 51//4 52//4
f 48//6 47//6 49//5 50//5
f 46//7 45//7 47//6 48//6
f 44//8 43//8 45//7 46//7
f 42//9 41//9 43//8 44//8
f 40//10 39//10 41//9 42//9
f 38//11 37//11 39//10 40//10
f 34//12 33//12 35//13 36//13
f 32//14 31//14 33//12 34//12
f 77//14 72//14 76//15 81//16
f 78//17 73//17 120//18 127//18
f 77//19 125//19 118//19 72//19
f 82//19 132//19 125//19 77//19
f 83//20 78//21 127//22 134//22
f 82//14 77//14 81//16 86//23
f 75//24 80//25 81//16 76//15
f 74//26 79//26 80//25 75//24
f 73//17 78//17 79//27 74//27
f 92//14 82//14 86//23 96//15
f 93//17 83//17 134//18 148//18
f 92//19 146//19 132//19 82//19
f 80//25 85//28 86//23 81//16
f 79//29 84//30 85//31 80//31
f 78//21 83//20 84//30 79//29
f 85//28 95//24 96//15 86//23
f 84//26 94//26 95//24 85//28
f 83//17 93//17 94//27 84//27
f 126//32 131//33 124//34 119//32
f 128//35 127//18 120//18 121//35
f 126//19 119//19 118//19 125//19
f 133//19 126//19 125//19 132//19
f 135//36 134//22 127//22 128//37
f 133//32 138//38 131//33 126//32
f 123//39 124//34 131//33 130//40
f 122//41 123//39 130//40 129//41
f 121//35 122//42 129//42 128//35
f 147//32 152//34 138//38 133//32
f 149//35 148//18 134//18 135//35
f 147//19 133//19 132//19 146//19
f 130//40 131//33 138//38 137//43
f 129//44 130//45 137//45 136//46
f 128//37 129//44 136//46 135//36
f 137//43 138//38 152//34 151//39
f 136//41 137//43 151//39 150//41
f 135//35 136//42 150//42 149//35
usemtl Main
f 31//14 4//14 6//12 33//12
f 33//12 6//12 8//13 35//13
f 35//13 8//13 10//11 37//11
f 37//11 10//11 12//10 39//10
f 39//10 12//10 14//9 41//9
f 41//9 14//9 16//8 43//8
f 43//8 16//8 18//7 45//7
f 45//7 18//7 20//6 47//6
f 47//6 20//6 22//5 49//5
f 49//5 22//5 24//4 51//4
f 51//4 24//4 26//3 53//3
f 53//3 26//3 28//1 55//1
f 55//1 28//1 2//2 30//2
f 27//1 56//1 29//2 1//2
f 25//3 54//3 56//1 27//1
f 23//4 52//4 54//3 25//3
f 21//5 50//5 52//4 23//4
f 19//6 48//6 50//5 21//5
f 17//7 46//7 48//6 19//6
f 15//8 44//8 46//7 17//7
f 13//9 42//9 44//8 15//8
f 11//10 40//10 42//9 13//9
f 9//11 38//11 40//10 11//10
f 7//13 36//13 38//11 9//11
f 36//13 35//13 37//11 38//11
f 5//12 34//12 36//13 7//13
f 3//14 32//14 34//12 5//12
f 72//19 118//19 99//19 58//19
f 61//47 62//47 70//47 68//47
f 97//48 57//48 87//48 140//48
f 73//17 59//17 101//18 120//18
f 93//17 64//17 66//27 94//27
f 94//26 66//26 65//24 95//24
f 95//24 65//24 63//15 96//15
f 72//14 58//14 60//15 76//15
f 101//47 59//47 69//47 113//47
f 60//47 58//47 67//47 71//47
f 59//47 61//47 68//47 69//47
f 62//47 60//47 71//47 70//47
f 58//47 99//47 111//47 67//47
f 62//24 75//24 76//15 60//15
f 61//26 74//26 75//24 62//24
f 59//17 73//17 74//27 61//27
f 65//48 66//48 89//48 90//48
f 64//48 102//48 141//48 88//48
f 57//48 63//48 91//48 87//48
f 63//48 65//48 90//48 91//48
f 66//48 64//48 88//48 89//48
f 57//19 97//19 146//19 92//19
f 64//17 93//17 148//18 102//18
f 57//14 92//14 96//15 63//15
f 119//19 100//19 99//19 118//19
f 105//47 114//47 116//47 106//47
f 97//48 140//48 139//48 98//48
f 121//35 120//18 101//18 103//35
f 149//35 150//42 110//42 108//35
f 150//41 151//39 109//39 110//41
f 151//39 152//34 107//34 109//39
f 119//32 124//34 104//34 100//32
f 101//47 113//47 115//47 103//47
f 104//47 117//47 112//47 100//47
f 103//47 115//47 114//47 105//47
f 106//47 116//47 117//47 104//47
f 100//47 112//47 111//47 99//47
f 106//39 104//34 124//34 123//39
f 105//41 106//39 123//39 122//41
f 103//35 105//42 122//42 121//35
f 109//48 144//48 143//48 110//48
f 108//48 142//48 141//48 102//48
f 98//48 139//48 145//48 107//48
f 107//48 145//48 144//48 109//48
f 110//48 143//48 142//48 108//48
f 98//19 147//19 146//19 97//19
f 108//35 102//18 148//18 149//35
f 98//32 107//34 152//34 147//32
usemtl Black
f 67//47 111//47 113//47 69//47 68//47 70//47 71//47
f 140//48 87//48 91//48 90//48 89//48 88//48 141//48
f 112//47 117//47 116//47 114//47 115//47 113//47 111//47
f 140//48 141//48 142//48 143//48 144//48 145//48 139//48
f 241//49 244//49 195//50 194//51
f 181//18 165//18 242//18 268//18
f 196//52 191//53 167//54 168//54 166//55
f 193//56 196//52 166//55 165//57
f 185//58 172//58 173//14 186//14
f 198//59 193//56 165//57 181//60 188//61
f 161//62 176//62 261//18 230//18
f 164//63 177//63 176//62 161//62
f 177//63 164//63 163//64 178//64
f 178//64 163//64 162//65 179//65
f 187//62 155//62 229//18 277//18
f 193//56 198//59 206//66 201//67
f 165//18 166//18 245//18 242//18
f 270//19 241//19 194//68 197//68
f 247//69 168//69 167//69 248//69
f 166//18 168//18 247//18 245//18
f 179//65 162//65 160//58 180//58
f 252//19 271//19 220//70 212//70
f 187//62 182//63 157//63 155//62
f 180//58 160//58 153//71 175//72
f 186//14 190//73 189//14 154//14
f 224//48 251//48 207//48 208//48 209//48 210//48 153//48
f 190//47 221//47 222//47 223//47 220//47 271//47 283//47
f 153//48 160//48 318//48 224//48
f 176//62 177//63 169//63 174//62
f 182//63 169//63 170//64 183//64
f 183//64 170//64 171//65 184//65
f 184//65 171//65 172//58 185//58
f 173//14 211//74 190//73 186//14
f 176//62 174//62 258//18 261//18
f 169//63 177//63 178//64 170//64
f 170//64 178//64 179//65 171//65
f 171//65 179//65 180//58 172//58
f 172//58 180//58 175//72 173//14
f 154//18 181//18 268//18 227//18
f 159//65 184//65 185//58 156//58
f 158//64 183//64 184//65 159//65
f 157//63 182//63 183//64 158//64
f 175//72 211//74 173//14
f 156//58 185//58 186//14 154//14
f 174//62 169//63 182//63 187//62
f 263//75 252//75 212//76 216//77
f 174//62 187//62 277//18 258//18
f 189//14 188//61 181//60 154//14
f 284//19 188//78 189//78 282//19
f 282//19 189//78 190//78 283//19
f 203//79 202//80 194//51 195//50
f 202//80 205//81 197//68 194//68
f 200//82 203//79 195//83 192//83
f 226//47 248//47 167//47 191//47 199//47 200//47 192//47
f 196//52 193//56 201//67 204//84
f 270//48 197//48 205//48 206//48 198//48 188//48 284//48
f 244//19 226//19 192//83 195//83
f 202//80 203//79 204//84 201//67
f 203//79 200//82 199//85 204//84
f 205//81 202//80 201//67 206//66
f 191//53 196//52 204//84 199//85
f 251//19 263//19 216//70 207//70
f 175//72 153//71 210//86 219//87
f 219//87 210//86 209//88 218//89
f 218//89 209//88 208//90 217//90
f 217//90 208//90 207//70 216//70
f 190//73 211//74 213//91 221//92
f 221//92 213//91 214//93 222//88
f 222//88 214//93 215//90 223//90
f 223//90 215//90 212//70 220//70
f 211//74 175//72 219//87 213//91
f 213//91 219//87 218//89 214//93
f 214//93 218//89 217//94 215//95
f 215//95 217//94 216//77 212//76
f 318//48 160//48 162//48 163//48 164//48 161//48 230//48
f 229//47 155//47 157//47 158//47 159//47 156//47 154//47 227//47
f 241//49 288//96 289//97 244//49
f 269//18 268//18 242//18 243//18
f 290//98 246//99 250//100 249//100 285//101
f 287//102 243//103 246//99 290//98
f 275//104 276//32 257//32 256//104
f 292//105 279//106 269//107 243//103 287//102
f 237//108 230//18 261//18 262//108
f 240//109 237//108 262//108 264//109
f 264//109 265//110 239//110 240//109
f 265//110 266//111 238//111 239//110
f 278//108 277//18 229//18 231//108
f 287//102 295//112 300//113 292//105
f 243//18 242//18 245//18 246//18
f 270//19 291//114 288//114 241//19
f 247//69 248//69 249//69 250//69
f 246//18 245//18 247//18 250//18
f 266//111 267//104 236//104 238//111
f 252//19 306//115 314//115 271//19
f 278//108 231//108 233//109 272//109
f 267//104 260//116 225//117 236//104
f 276//32 228//32 280//32 281//118
f 224//48 225//48 304//48 303//48 302//48 301//48 251//48
f 281//47 283//47 271//47 314//47 317//47 316//47 315//47
f 225//48 224//48 318//48 236//48
f 262//108 259//108 253//109 264//109
f 272//109 273//110 254//110 253//109
f 273//110 274//111 255//111 254//110
f 274//111 275//104 256//104 255//111
f 257//32 276//32 281//118 305//119
f 262//108 261//18 258//18 259//108
f 253//109 254//110 265//110 264//109
f 254//110 255//111 266//111 265//110
f 255//111 256//104 267//104 266//111
f 256//104 257//32 260//116 267//104
f 228//18 227//18 268//18 269//18
f 235//111 232//104 275//104 274//111
f 234//110 235//111 274//111 273//110
f 233//109 234//110 273//110 272//109
f 260//116 257//32 305//119
f 232//104 228//32 276//32 275//104
f 259//108 278//108 272//109 253//109
f 263//75 310//120 306//121 252//75
f 259//108 258//18 277//18 278//108
f 280//32 228//32 269//107 279//106
f 284//19 282//19 280//122 279//122
f 282//19 283//19 281//122 280//122
f 297//123 289//97 288//96 296//124
f 296//124 288//114 291//114 299//125
f 294//126 286//127 289//127 297//123
f 226//47 286//47 294//47 293//47 285//47 249//47 248//47
f 290//98 298//128 295//112 287//102
f 270//48 284//48 279//48 292//48 300//48 299//48 291//48
f 244//19 289//127 286//127 226//19
f 296//124 295//112 298//128 297//123
f 297//123 298//128 293//129 294//126
f 299//125 300//113 295//112 296//124
f 285//101 293//129 298//128 290//98
f 251//19 301//115 310//115 263//19
f 260//116 313//130 304//131 225//117
f 313//130 312//132 303//133 304//131
f 312//132 311//134 302//134 303//133
f 311//134 310//115 301//115 302//134
f 281//118 315//135 307//136 305//119
f 315//135 316//133 308//137 307//136
f 316//133 317//134 309//134 308//137
f 317//134 314//115 306//115 309//134
f 305//119 307//136 313//130 260//116
f 307//136 308//137 312//132 313//130
f 308//137 309//138 311//139 312//132
f 309//138 306//121 310//120 311//139
f 318//48 230//48 237//48 240//48 239//48 238//48 236//48
f 229//47 227//47 228//47 232//47 235//47 234//47 233//47 231//47
