# Blender v2.79 (sub 0) OBJ File: 'Grip_Pistol_2.blend'
# www.blender.org
mtllib Grip_Pistol_2.mtl
o Grip_Pistol_2_Cube.227
v 0.006607 0.037562 0.021326
v 0.250997 0.096648 0.021326
v 0.157491 0.096648 0.021326
v 0.121523 0.037562 0.021326
v 0.157491 0.073530 0.021326
v 0.135288 0.040299 0.021326
v 0.146957 0.048096 0.021326
v 0.154754 0.059765 0.021326
v 0.250997 0.073530 0.021326
v 0.250997 0.059765 0.021326
v 0.250997 0.048096 0.021326
v 0.250997 0.040299 0.021326
v 0.250997 0.037562 0.021326
v 0.006607 0.019925 0.021326
v 0.121523 0.019925 0.021326
v 0.250997 0.019925 0.021326
v 0.022539 0.104577 0.009712
v 0.022539 0.036106 0.009712
v 0.090872 0.036106 0.009712
v 0.090872 0.104577 0.009712
v 0.085884 0.045814 0.009712
v 0.085884 0.083569 0.009712
v 0.082335 0.057782 0.009712
v 0.082335 0.071601 0.009712
v 0.022539 0.083569 0.009712
v 0.022539 0.045814 0.009712
v 0.022539 0.070984 0.009712
v 0.022539 0.058399 0.009712
v 0.250997 0.048096 0.000000
v 0.006607 0.037562 -0.021326
v 0.250997 0.096648 -0.021326
v 0.121523 0.019925 0.000000
v 0.146957 0.048096 0.000000
v 0.157491 0.096648 -0.021326
v 0.121523 0.037562 -0.021326
v 0.157491 0.073530 -0.021326
v 0.135288 0.040299 -0.021326
v 0.146957 0.048096 -0.021326
v 0.154754 0.059765 -0.021326
v 0.250997 0.037562 0.000000
v 0.121523 0.037562 0.000000
v 0.250997 0.073530 -0.021326
v 0.250997 0.059765 -0.021326
v 0.154754 0.059765 0.000000
v 0.250997 0.048096 -0.021326
v 0.157491 0.073530 0.000000
v 0.250997 0.040299 -0.021326
v 0.135288 0.040299 0.000000
v 0.250997 0.037562 -0.021326
v 0.250997 0.040299 0.000000
v 0.006607 0.019925 -0.021326
v 0.121523 0.019925 -0.021326
v 0.250997 0.019925 -0.021326
v 0.250997 0.059765 0.000000
v 0.250997 0.073530 0.000000
v 0.006607 0.019925 0.000000
v 0.006607 0.037562 0.000000
v 0.157491 0.096648 0.000000
v 0.250997 0.096648 0.000000
v 0.250997 0.019925 0.000000
v 0.022539 0.104577 0.000000
v 0.022539 0.104577 -0.009712
v 0.022539 0.036106 -0.009712
v 0.022539 0.036106 0.000000
v 0.090872 0.104577 0.000000
v 0.090872 0.036106 0.000000
v 0.090872 0.036106 -0.009712
v 0.090872 0.104577 -0.009712
v 0.085884 0.083569 0.000000
v 0.085884 0.045814 0.000000
v 0.082335 0.071601 0.000000
v 0.082335 0.057782 0.000000
v 0.085884 0.045814 -0.009712
v 0.085884 0.083569 -0.009712
v 0.082335 0.057782 -0.009712
v 0.082335 0.071601 -0.009712
v 0.022539 0.083569 -0.009712
v 0.022539 0.045814 -0.009712
v 0.022539 0.070984 -0.009712
v 0.022539 0.058399 -0.009712
v 0.022539 0.045814 0.000000
v 0.022539 0.083569 0.000000
v 0.022539 0.058399 0.000000
v 0.022539 0.070984 0.000000
v -0.138792 -0.095352 0.040838
v -0.088772 -0.141414 0.006518
v -0.100195 -0.130895 0.040838
v -0.091833 -0.138596 0.024480
v -0.138792 -0.095352 -0.040838
v -0.088772 -0.141414 -0.006518
v -0.100195 -0.130895 -0.040838
v -0.091833 -0.138596 -0.024480
v 0.001971 0.060346 0.040838
v -0.044950 0.008447 0.040838
v -0.091871 -0.043452 0.040838
v 0.040568 0.024803 0.040838
v -0.006353 -0.027096 0.040838
v -0.053275 -0.078995 0.040838
v 0.048931 0.017102 0.024480
v 0.002010 -0.034797 0.024480
v -0.044912 -0.086696 0.024480
v 0.051992 0.014283 0.006518
v 0.005071 -0.037616 0.006518
v -0.041851 -0.089515 0.006518
v 0.001971 0.060346 -0.040838
v -0.044950 0.008447 -0.040838
v -0.091871 -0.043452 -0.040838
v 0.040568 0.024803 -0.040838
v -0.006353 -0.027096 -0.040838
v -0.053274 -0.078995 -0.040838
v 0.048931 0.017102 -0.024480
v 0.002010 -0.034797 -0.024480
v -0.044912 -0.086696 -0.024480
v 0.051992 0.014283 -0.006518
v 0.005071 -0.037616 -0.006518
v -0.041851 -0.089515 -0.006518
v -0.021489 0.034396 0.040838
v -0.032227 0.022519 0.040838
v -0.057673 -0.005625 0.040838
v -0.079149 -0.029380 0.040838
v -0.068411 -0.017503 0.040838
v -0.104594 -0.057525 0.040838
v -0.126070 -0.081279 0.040838
v -0.115332 -0.069402 0.040838
v 0.011627 -0.017820 0.040838
v 0.033059 0.005885 0.040838
v 0.024166 -0.007646 0.040838
v -0.035295 -0.069719 0.040838
v -0.013863 -0.046014 0.040838
v -0.022755 -0.059545 0.040838
v -0.082216 -0.121618 0.040838
v -0.060784 -0.097913 0.040838
v -0.069677 -0.111445 0.040838
v 0.019990 -0.025521 0.024480
v 0.041421 -0.001816 0.024480
v 0.032528 -0.015347 0.024480
v -0.026932 -0.077420 0.024480
v -0.005500 -0.053715 0.024480
v -0.014393 -0.067246 0.024480
v -0.073853 -0.129319 0.024480
v -0.052421 -0.105614 0.024480
v -0.061314 -0.119146 0.024480
v 0.044482 -0.004635 0.006518
v 0.023051 -0.028340 0.006518
v 0.035590 -0.018166 0.006518
v -0.002439 -0.056534 0.006518
v -0.023871 -0.080239 0.006518
v -0.011331 -0.070065 0.006518
v -0.049360 -0.108433 0.006518
v -0.070792 -0.132138 0.006518
v -0.058253 -0.121964 0.006518
v -0.032227 0.022519 -0.040838
v -0.021489 0.034396 -0.040838
v -0.079149 -0.029380 -0.040838
v -0.057672 -0.005626 -0.040838
v -0.068411 -0.017503 -0.040838
v -0.126070 -0.081279 -0.040838
v -0.104594 -0.057525 -0.040838
v -0.115332 -0.069402 -0.040838
v 0.033059 0.005885 -0.040838
v 0.011627 -0.017820 -0.040838
v 0.024166 -0.007646 -0.040838
v -0.013863 -0.046014 -0.040838
v -0.035295 -0.069719 -0.040838
v -0.022755 -0.059545 -0.040838
v -0.060784 -0.097913 -0.040838
v -0.082215 -0.121618 -0.040838
v -0.069677 -0.111445 -0.040838
v 0.041421 -0.001816 -0.024480
v 0.019990 -0.025521 -0.024480
v 0.032528 -0.015347 -0.024480
v -0.005500 -0.053715 -0.024480
v -0.026932 -0.077420 -0.024480
v -0.014393 -0.067246 -0.024480
v -0.052421 -0.105614 -0.024480
v -0.073853 -0.129319 -0.024480
v -0.061314 -0.119146 -0.024480
v 0.023051 -0.028340 -0.006518
v 0.044482 -0.004635 -0.006518
v 0.035590 -0.018166 -0.006518
v -0.023871 -0.080239 -0.006518
v -0.002439 -0.056534 -0.006518
v -0.011331 -0.070065 -0.006518
v -0.070792 -0.132138 -0.006518
v -0.049360 -0.108433 -0.006518
v -0.058253 -0.121964 -0.006518
v -0.098346 -0.126655 0.037197
v -0.196516 -0.037502 0.010303
v -0.192952 -0.040715 0.023750
v -0.183216 -0.049493 0.033594
v -0.169915 -0.061483 0.037197
v -0.072757 0.090630 0.023750
v -0.063020 0.081853 0.033594
v -0.049719 0.069862 0.037197
v 0.016486 0.010180 0.037197
v -0.076321 0.093843 0.010303
v -0.039193 -0.063022 0.037197
v -0.137363 0.026130 0.010303
v -0.133799 0.022917 0.023750
v -0.124062 0.014139 0.033594
v -0.110761 0.002149 0.037197
v 0.139432 0.154295 0.037197
v 0.044824 0.233596 0.010303
v 0.071426 0.209615 0.037197
v 0.048389 0.230383 0.023750
v 0.058126 0.221605 0.033594
v -0.204027 -0.031636 0.003483
v -0.188138 -0.045960 0.040535
v -0.172250 -0.060283 0.046267
v -0.199769 -0.035474 0.024875
v -0.078264 -0.145009 0.046267
v -0.219306 -0.048585 0.003483
v -0.203418 -0.062909 0.040535
v -0.187529 -0.077232 0.046267
v -0.215049 -0.052423 0.024875
v -0.093543 -0.161958 0.046267
v -0.098346 -0.126655 -0.037197
v -0.098346 -0.126655 0.000000
v -0.196516 -0.037502 0.000000
v -0.196516 -0.037502 -0.010303
v -0.192952 -0.040715 -0.023750
v -0.183216 -0.049493 -0.033594
v -0.169915 -0.061483 -0.037197
v 0.016486 0.010180 0.000000
v -0.072757 0.090630 -0.023750
v -0.063020 0.081853 -0.033594
v -0.049719 0.069862 -0.037197
v 0.016486 0.010180 -0.037197
v -0.076321 0.093843 0.000000
v -0.076321 0.093843 -0.010303
v -0.039193 -0.063022 -0.037197
v -0.137363 0.026130 0.000000
v -0.137363 0.026130 -0.010303
v -0.039193 -0.063022 0.000000
v -0.133799 0.022917 -0.023750
v -0.124062 0.014139 -0.033594
v -0.110761 0.002149 -0.037197
v 0.044824 0.233596 0.000000
v 0.139432 0.154295 0.000000
v 0.139432 0.154295 -0.037197
v 0.044824 0.233596 -0.010303
v 0.071426 0.209615 -0.037197
v 0.048389 0.230383 -0.023750
v 0.058126 0.221605 -0.033594
v -0.204027 -0.031636 0.000000
v -0.204027 -0.031636 -0.003483
v -0.188138 -0.045960 -0.040535
v -0.172250 -0.060283 -0.046267
v -0.199769 -0.035474 -0.024875
v -0.078264 -0.145009 -0.046267
v -0.078264 -0.145009 0.000000
v -0.093543 -0.161958 0.000000
v -0.219306 -0.048585 0.000000
v -0.219306 -0.048585 -0.003482
v -0.203418 -0.062909 -0.040535
v -0.187529 -0.077232 -0.046267
v -0.215049 -0.052423 -0.024875
v -0.093543 -0.161958 -0.046267
vn 1.0000 0.0000 0.0000
vn -0.5556 0.8315 0.0000
vn 0.0000 1.0000 0.0000
vn 0.0000 0.0000 1.0000
vn -0.9808 0.1951 0.0000
vn 0.0000 -1.0000 0.0000
vn -0.1951 0.9808 0.0000
vn -1.0000 0.0000 0.0000
vn -0.8315 0.5556 0.0000
vn 0.0000 0.0000 -1.0000
vn 0.7787 -0.6275 0.0000
vn 0.7608 -0.6490 0.0000
vn -0.7268 0.6653 0.1707
vn -0.7376 0.6752 0.0000
vn -0.7324 0.6809 0.0000
vn -0.7217 0.6709 0.1702
vn -0.3010 0.2755 0.9130
vn -0.3009 0.2797 0.9117
vn -0.0732 0.0680 0.9950
vn -0.0728 0.0666 0.9951
vn -0.4429 0.4055 0.7996
vn -0.4398 0.4089 0.7996
vn -0.6898 0.6413 0.3361
vn -0.6947 0.6360 0.3361
vn 0.7651 -0.6439 0.0000
vn 0.7324 -0.6809 0.0000
vn -0.7056 0.6238 0.3361
vn -0.7117 0.6169 0.3360
vn -0.7446 0.6455 0.1702
vn -0.7382 0.6526 0.1707
vn -0.3056 0.2701 0.9131
vn -0.3108 0.2694 0.9115
vn -0.4538 0.3934 0.7996
vn -0.4499 0.3977 0.7996
vn -0.0738 0.0652 0.9951
vn -0.0746 0.0647 0.9951
vn -0.7556 0.6550 0.0000
vn -0.7492 0.6623 0.0000
vn -0.7268 0.6653 -0.1707
vn -0.7217 0.6709 -0.1702
vn -0.3010 0.2755 -0.9130
vn -0.0728 0.0666 -0.9951
vn -0.0732 0.0680 -0.9950
vn -0.3009 0.2797 -0.9117
vn -0.4429 0.4055 -0.7996
vn -0.4398 0.4089 -0.7996
vn -0.6947 0.6360 -0.3361
vn -0.6898 0.6413 -0.3361
vn -0.7056 0.6238 -0.3361
vn -0.7382 0.6526 -0.1707
vn -0.7446 0.6455 -0.1702
vn -0.7117 0.6169 -0.3360
vn -0.3056 0.2701 -0.9131
vn -0.4499 0.3977 -0.7996
vn -0.4538 0.3934 -0.7996
vn -0.3108 0.2694 -0.9115
vn -0.0738 0.0652 -0.9951
vn -0.0746 0.0647 -0.9951
vn 0.9730 -0.2310 0.0000
vn 0.9587 0.2844 0.0000
vn 0.9587 -0.2844 0.0000
vn 0.8895 0.4570 0.0000
vn -0.6696 -0.7427 -0.0000
vn 0.6424 0.7632 0.0699
vn 0.6184 0.7843 0.0495
vn 0.6131 0.7891 0.0384
vn 0.6378 0.7671 0.0683
vn 0.6635 0.7460 0.0577
vn 0.6618 0.7472 0.0608
vn 0.6089 0.7931 0.0180
vn 0.6155 0.7881 0.0000
vn 0.6134 0.7898 0.0059
vn -0.0969 0.0874 0.9914
vn -0.3714 0.3348 0.8660
vn -0.6432 0.5799 0.5000
vn -0.7364 0.6638 0.1305
vn -0.7427 0.6696 0.0000
vn 0.7427 -0.6696 0.0000
vn 0.6723 0.7398 0.0265
vn 0.6739 0.7388 0.0091
vn 0.6746 0.7381 0.0000
vn 0.6424 0.7632 -0.0699
vn 0.6378 0.7671 -0.0683
vn 0.6131 0.7891 -0.0384
vn 0.6184 0.7843 -0.0495
vn 0.6635 0.7460 -0.0577
vn 0.6618 0.7472 -0.0608
vn 0.6089 0.7931 -0.0180
vn 0.6134 0.7898 -0.0059
vn -0.0969 0.0874 -0.9914
vn -0.3714 0.3348 -0.8660
vn -0.6432 0.5799 -0.5000
vn -0.7364 0.6638 -0.1305
vn 0.6723 0.7398 -0.0265
vn 0.6739 0.7388 -0.0091
vn 0.7369 -0.6666 0.1123
vn 0.5453 -0.8310 0.1096
vn 0.5453 -0.8310 -0.1096
vn 0.7369 -0.6666 -0.1123
vn 0.7413 -0.3760 0.5560
vn 0.8159 -0.4264 0.3905
vn 0.8523 -0.3383 0.3990
vn 0.7797 -0.3095 0.5443
vn 0.8810 -0.4603 -0.1091
vn 0.8159 -0.4264 -0.3905
vn 0.8523 -0.3383 -0.3990
vn 0.9239 -0.3668 -0.1090
vn 0.4557 -0.8834 -0.1095
vn 0.4202 -0.8144 -0.4002
vn 0.5048 -0.7692 -0.3918
vn 0.4557 -0.8833 -0.1095
vn 0.5453 -0.8310 -0.1095
vn 0.7413 -0.3760 -0.5560
vn 0.7797 -0.3095 -0.5443
vn 0.3839 -0.7442 -0.5466
vn 0.4474 -0.6991 -0.5578
vn 0.4557 -0.8834 0.1095
vn 0.8810 -0.4603 0.1091
vn 0.9239 -0.3668 0.1090
vn 0.4557 -0.8833 0.1095
vn 0.4202 -0.8144 0.4002
vn 0.5048 -0.7692 0.3918
vn 0.3839 -0.7442 0.5466
vn 0.4474 -0.6991 0.5578
vn 0.6801 -0.6152 -0.3988
vn 0.6093 -0.5505 -0.5707
vn 0.6801 -0.6152 0.3988
vn 0.6093 -0.5505 0.5707
vn -0.7418 0.6706 0.0000
vn 0.6774 0.7356 -0.0000
vn -0.6774 -0.7356 0.0000
usemtl Black
s off
f 13//1 40//1 50//1 12//1
f 7//2 33//2 48//2 6//2
f 4//3 41//3 57//3 1//3
f 8//4 7//4 11//4 10//4
f 7//4 6//4 12//4 11//4
f 6//4 4//4 13//4 12//4
f 5//4 8//4 10//4 9//4
f 3//4 5//4 9//4 2//4
f 13//4 4//4 15//4 16//4
f 4//4 1//4 14//4 15//4
f 5//5 46//5 44//5 8//5
f 14//6 56//6 32//6 15//6
f 11//1 29//1 54//1 10//1
f 6//7 48//7 41//7 4//7
f 9//1 55//1 59//1 2//1
f 10//1 54//1 55//1 9//1
f 1//8 57//8 56//8 14//8
f 8//9 44//9 33//9 7//9
f 16//1 60//1 40//1 13//1
f 3//8 58//8 46//8 5//8
f 12//1 50//1 29//1 11//1
f 2//3 59//3 58//3 3//3
f 15//6 32//6 60//6 16//6
f 49//1 47//1 50//1 40//1
f 38//2 37//2 48//2 33//2
f 35//3 30//3 57//3 41//3
f 39//10 43//10 45//10 38//10
f 38//10 45//10 47//10 37//10
f 37//10 47//10 49//10 35//10
f 36//10 42//10 43//10 39//10
f 34//10 31//10 42//10 36//10
f 49//10 53//10 52//10 35//10
f 35//10 52//10 51//10 30//10
f 36//5 39//5 44//5 46//5
f 51//6 52//6 32//6 56//6
f 45//1 43//1 54//1 29//1
f 37//7 35//7 41//7 48//7
f 42//1 31//1 59//1 55//1
f 43//1 42//1 55//1 54//1
f 30//8 51//8 56//8 57//8
f 39//9 38//9 33//9 44//9
f 53//1 49//1 40//1 60//1
f 34//8 36//8 46//8 58//8
f 47//1 45//1 29//1 50//1
f 31//3 34//3 58//3 59//3
f 52//6 53//6 60//6 32//6
s 1
f 224//11 239//12 202//12 195//11
f 198//13 232//14 219//15 188//16
f 200//17 190//18 191//19 201//20
f 199//21 189//22 190//18 200//17
f 198//13 188//16 189//23 199//24
f 201//20 191//19 187//4 197//4
f 234//25 197//25 187//26 218//26
f 192//27 205//28 203//29 196//30
f 193//31 206//32 205//33 192//34
f 194//35 204//36 206//32 193//31
f 196//30 203//29 238//37 229//38
f 195//4 202//4 204//36 194//35
f 224//11 195//11 197//25 234//25
f 194//35 201//20 197//4 195//4
f 196//30 198//13 199//24 192//27
f 192//34 199//21 200//17 193//31
f 193//31 200//17 201//20 194//35
f 196//30 229//38 232//14 198//13
f 224//11 228//11 240//12 239//12
f 233//39 220//40 219//15 232//14
f 236//41 237//42 223//43 222//44
f 235//45 236//41 222//44 221//46
f 233//39 235//47 221//48 220//40
f 237//42 231//10 217//10 223//43
f 234//25 218//26 217//26 231//25
f 225//49 230//50 241//51 243//52
f 226//53 225//54 243//55 244//56
f 227//57 226//53 244//56 242//58
f 230//50 229//38 238//37 241//51
f 228//10 227//57 242//58 240//10
f 224//11 234//25 231//25 228//11
f 227//57 228//10 231//10 237//42
f 230//50 225//49 235//47 233//39
f 225//54 226//53 236//41 235//45
f 226//53 227//57 237//42 236//41
f 230//50 233//39 232//14 229//38
usemtl Grey
s off
f 26//8 81//8 64//8 18//8
f 66//6 19//6 18//6 64//6
f 17//8 61//8 82//8 25//8
f 22//4 20//4 17//4 25//4
f 20//59 22//59 69//59 65//59
f 20//3 65//3 61//3 17//3
f 19//4 21//4 26//4 18//4
f 22//4 25//4 27//4 24//4
f 24//4 27//4 28//4 23//4
f 23//4 28//4 26//4 21//4
f 21//60 70//60 72//60 23//60
f 23//1 72//1 71//1 24//1
f 24//61 71//61 69//61 22//61
f 81//8 26//8 28//8 83//8
f 83//8 28//8 27//8 84//8
f 84//8 27//8 25//8 82//8
f 21//62 19//62 66//62 70//62
f 78//8 63//8 64//8 81//8
f 66//6 64//6 63//6 67//6
f 62//8 77//8 82//8 61//8
f 74//10 77//10 62//10 68//10
f 68//59 65//59 69//59 74//59
f 68//3 62//3 61//3 65//3
f 67//10 63//10 78//10 73//10
f 74//10 76//10 79//10 77//10
f 76//10 75//10 80//10 79//10
f 75//10 73//10 78//10 80//10
f 73//60 75//60 72//60 70//60
f 75//1 76//1 71//1 72//1
f 76//61 74//61 69//61 71//61
f 81//8 83//8 80//8 78//8
f 83//8 84//8 79//8 80//8
f 84//8 82//8 77//8 79//8
f 73//62 70//62 66//62 67//62
s 1
f 212//63 253//63 252//63 216//63 214//63 213//63 215//63
f 190//64 189//65 210//66 208//67
f 191//68 190//64 208//67 209//69
f 188//70 219//71 245//71 207//72
f 209//73 208//74 213//74 214//73
f 211//4 209//73 214//73 216//4
f 208//74 210//75 215//75 213//74
f 207//76 245//77 253//77 212//76
f 251//78 211//78 216//78 252//78
f 210//75 207//76 212//76 215//75
f 189//65 188//70 207//72 210//66
f 187//79 191//68 209//69 211//80
f 218//81 187//79 211//80 251//81
f 254//63 257//63 255//63 256//63 258//63 252//63 253//63
f 222//82 247//83 249//84 221//85
f 223//86 248//87 247//83 222//82
f 220//88 246//89 245//71 219//71
f 248//90 256//90 255//91 247//91
f 250//10 258//10 256//90 248//90
f 247//91 255//91 257//92 249//92
f 246//93 254//93 253//77 245//77
f 251//78 252//78 258//78 250//78
f 249//92 257//92 254//93 246//93
f 221//85 249//84 246//89 220//88
f 217//94 250//95 248//87 223//86
f 218//81 251//81 250//95 217//94
usemtl White
f 145//96 144//97 178//98 180//99
f 160//10 153//10 105//10 108//10
f 132//100 141//101 101//102 98//103
f 109//10 106//10 152//10 161//10
f 163//10 155//10 106//10 109//10
f 110//10 107//10 154//10 164//10
f 91//10 89//10 157//10 167//10
f 166//10 158//10 107//10 110//10
f 185//104 175//105 113//106 116//107
f 90//108 92//109 176//110 184//98
f 116//111 113//109 173//110 181//112
f 182//104 172//105 112//106 115//107
f 115//108 112//109 170//110 178//98
f 179//104 169//105 111//106 114//107
f 172//105 163//113 109//114 112//106
f 169//105 160//113 108//114 111//106
f 92//109 91//115 167//116 176//110
f 175//105 166//113 110//114 113//106
f 113//109 110//115 164//116 173//110
f 112//109 109//115 161//116 170//110
f 103//117 115//108 178//98 144//97
f 146//118 182//104 115//107 103//119
f 104//120 116//111 181//112 147//97
f 86//117 90//108 184//98 150//97
f 149//118 185//104 116//107 104//119
f 141//101 149//118 104//119 101//102
f 88//121 86//117 150//97 140//122
f 101//121 104//120 147//97 137//122
f 138//101 146//118 103//119 100//102
f 100//121 103//117 144//97 134//122
f 135//101 143//118 102//119 99//102
f 87//123 88//121 140//122 131//124
f 87//4 131//4 123//4 85//4
f 98//4 128//4 120//4 95//4
f 129//4 97//4 94//4 119//4
f 97//4 125//4 118//4 94//4
f 126//100 135//101 99//102 96//103
f 97//123 100//121 134//122 125//124
f 129//100 138//101 100//102 97//103
f 98//123 101//121 137//122 128//124
f 98//4 95//4 122//4 132//4
f 160//10 162//10 153//10
f 165//10 164//10 154//10 156//10
f 163//10 165//10 156//10 155//10
f 168//10 167//10 157//10 159//10
f 166//10 168//10 159//10 158//10
f 125//4 127//4 117//4 118//4
f 185//104 186//99 177//125 175//105
f 186//99 184//98 176//110 177//125
f 182//104 183//99 174//125 172//105
f 183//99 181//112 173//110 174//125
f 179//104 180//99 171//125 169//105
f 180//99 178//98 170//110 171//125
f 175//105 177//125 168//126 166//113
f 177//125 176//110 167//116 168//126
f 172//105 174//125 165//126 163//113
f 174//125 173//110 164//116 165//126
f 169//105 171//125 162//126 160//113
f 171//125 170//110 161//116 162//126
f 143//118 145//96 180//99 179//104
f 148//96 147//97 181//112 183//99
f 146//118 148//96 183//99 182//104
f 151//96 150//97 184//98 186//99
f 149//118 151//96 186//99 185//104
f 143//118 179//104 114//107 102//119
f 141//101 142//127 151//96 149//118
f 142//127 140//122 150//97 151//96
f 138//101 139//127 148//96 146//118
f 139//127 137//122 147//97 148//96
f 135//101 136//127 145//96 143//118
f 136//127 134//122 144//97 145//96
f 132//100 133//128 142//127 141//101
f 133//128 131//124 140//122 142//127
f 129//100 130//128 139//127 138//101
f 130//128 128//124 137//122 139//127
f 126//100 127//128 136//127 135//101
f 127//128 125//124 134//122 136//127
f 127//4 126//4 117//4
f 128//4 130//4 121//4 120//4
f 130//4 129//4 119//4 121//4
f 131//4 133//4 124//4 123//4
f 133//4 132//4 122//4 124//4
f 126//4 96//4 93//4 117//4
f 162//10 161//10 152//10 153//10
f 105//129 153//129 117//129 93//129
f 153//129 152//129 118//129 117//129
f 152//129 106//129 94//129 118//129
f 106//129 155//129 119//129 94//129
f 155//129 156//129 121//129 119//129
f 156//129 154//129 120//129 121//129
f 154//129 107//129 95//129 120//129
f 107//129 158//129 122//129 95//129
f 158//129 159//129 124//129 122//129
f 159//129 157//129 123//129 124//129
f 157//129 89//129 85//129 123//129
f 111//130 108//130 105//130 93//130 96//130 99//130 102//130 114//130
f 87//131 85//131 89//131 91//131 92//131 90//131 86//131 88//131
