# Blender v2.79 (sub 0) OBJ File: 'Handguard_Pistol_3.blend'
# www.blender.org
mtllib Handguard_Pistol_3.mtl
o Handguard_Pistol_3_Cube.231
v 0.146210 0.080921 0.049798
v 0.146210 -0.033094 0.007647
v 0.146210 0.009057 0.049798
v 0.146210 -0.027447 0.028723
v 0.146210 -0.012019 0.044151
v 0.146210 0.080921 -0.049798
v 0.146210 -0.033094 -0.007647
v 0.146210 0.009057 -0.049798
v 0.146210 -0.027447 -0.028723
v 0.146210 -0.012019 -0.044151
v 0.146210 -0.008876 0.039209
v 0.146210 0.009841 0.044224
v 0.146210 -0.022577 0.025508
v 0.146210 -0.027592 0.006791
v 0.146210 0.080921 0.044224
v 0.146210 -0.008876 -0.039209
v 0.146210 0.009841 -0.044224
v 0.146210 -0.022577 -0.025508
v 0.146210 -0.027592 -0.006791
v 0.146210 0.080921 -0.044224
v 0.106560 0.080921 0.049798
v 0.027260 0.080921 0.049798
v -0.052041 0.080921 0.049798
v -0.131341 0.080921 0.049798
v 0.106560 -0.012019 0.044151
v 0.027260 -0.012019 0.044151
v -0.052041 -0.012019 0.044151
v -0.131341 -0.012019 0.044151
v 0.106560 -0.027447 0.028723
v 0.027260 -0.027447 0.028723
v -0.052041 -0.027447 0.028723
v -0.131341 -0.027447 0.028723
v 0.106560 -0.033094 0.007647
v 0.027260 -0.033094 0.007647
v -0.052041 -0.033094 0.007647
v -0.131341 -0.033094 0.007647
v 0.106560 0.080921 -0.049798
v 0.027260 0.080921 -0.049798
v -0.052041 0.080921 -0.049798
v -0.131341 0.080921 -0.049798
v 0.106560 -0.012019 -0.044151
v 0.027260 -0.012019 -0.044151
v -0.052041 -0.012019 -0.044151
v -0.131341 -0.012019 -0.044151
v 0.106560 -0.027447 -0.028723
v 0.027260 -0.027447 -0.028723
v -0.052041 -0.027447 -0.028723
v -0.131341 -0.027447 -0.028723
v 0.106560 -0.033094 -0.007647
v 0.027260 -0.033094 -0.007647
v -0.052041 -0.033094 -0.007647
v -0.131341 -0.033094 -0.007647
v -0.131342 0.009057 0.049798
v -0.052041 0.009057 0.049798
v 0.027259 0.009057 0.049798
v 0.106560 0.009057 0.049798
v -0.131342 0.009057 -0.049798
v -0.052041 0.009057 -0.049798
v 0.027259 0.009057 -0.049798
v 0.106560 0.009057 -0.049798
v 0.085058 0.080921 0.049798
v 0.048762 0.080921 0.049798
v 0.066910 0.080921 0.049798
v 0.005757 0.080921 0.049798
v -0.030539 0.080921 0.049798
v -0.012391 0.080921 0.049798
v -0.073543 0.080921 0.049798
v -0.109839 0.080921 0.049798
v -0.091691 0.080921 0.049798
v 0.048799 -0.021677 0.044151
v 0.085020 -0.021677 0.044151
v 0.066910 -0.025040 0.044151
v -0.030501 -0.021677 0.044151
v 0.005720 -0.021677 0.044151
v -0.012390 -0.025040 0.044151
v -0.109802 -0.021677 0.044151
v -0.073581 -0.021677 0.044151
v -0.091691 -0.025040 0.044151
v 0.048799 -0.037105 0.028723
v 0.085020 -0.037105 0.028723
v 0.066910 -0.040468 0.028723
v -0.030501 -0.037105 0.028723
v 0.005720 -0.037105 0.028723
v -0.012390 -0.040468 0.028723
v -0.109802 -0.037105 0.028723
v -0.073581 -0.037105 0.028723
v -0.091691 -0.040468 0.028723
v 0.085020 -0.042752 0.007647
v 0.048799 -0.042752 0.007647
v 0.066910 -0.046116 0.007647
v 0.005720 -0.042752 0.007647
v -0.030501 -0.042752 0.007647
v -0.012390 -0.046116 0.007647
v -0.073581 -0.042752 0.007647
v -0.109802 -0.042752 0.007647
v -0.091691 -0.046116 0.007647
v 0.048762 0.080921 -0.049798
v 0.085058 0.080921 -0.049798
v 0.066910 0.080921 -0.049798
v -0.030539 0.080921 -0.049798
v 0.005757 0.080921 -0.049798
v -0.012391 0.080921 -0.049798
v -0.109839 0.080921 -0.049798
v -0.073543 0.080921 -0.049798
v -0.091691 0.080921 -0.049798
v 0.085020 -0.021677 -0.044151
v 0.048799 -0.021677 -0.044151
v 0.066910 -0.025040 -0.044151
v 0.005720 -0.021677 -0.044151
v -0.030501 -0.021677 -0.044151
v -0.012390 -0.025040 -0.044151
v -0.073581 -0.021677 -0.044151
v -0.109802 -0.021677 -0.044151
v -0.091691 -0.025040 -0.044151
v 0.085020 -0.037105 -0.028723
v 0.048799 -0.037105 -0.028723
v 0.066910 -0.040468 -0.028723
v 0.005720 -0.037105 -0.028723
v -0.030501 -0.037105 -0.028723
v -0.012390 -0.040468 -0.028723
v -0.073581 -0.037105 -0.028723
v -0.109802 -0.037105 -0.028723
v -0.091691 -0.040468 -0.028723
v 0.048799 -0.042752 -0.007647
v 0.085020 -0.042752 -0.007647
v 0.066910 -0.046116 -0.007647
v -0.030501 -0.042752 -0.007647
v 0.005720 -0.042752 -0.007647
v -0.012390 -0.046116 -0.007647
v -0.109802 -0.042752 -0.007647
v -0.073581 -0.042752 -0.007647
v -0.091691 -0.046116 -0.007647
v -0.109840 0.009057 0.049798
v -0.073543 0.009057 0.049798
v -0.091691 0.009057 0.049798
v -0.030539 0.009057 0.049798
v 0.005757 0.009057 0.049798
v -0.012391 0.009057 0.049798
v 0.048762 0.009057 0.049798
v 0.085057 0.009057 0.049798
v 0.066910 0.009057 0.049798
v -0.109840 0.009057 -0.049798
v -0.073543 0.009057 -0.049798
v -0.091691 0.009057 -0.049798
v -0.030539 0.009057 -0.049798
v 0.005757 0.009057 -0.049798
v -0.012391 0.009057 -0.049798
v 0.048762 0.009057 -0.049798
v 0.085057 0.009057 -0.049798
v 0.066910 0.009057 -0.049798
v -0.131341 0.072473 -0.043119
v -0.131342 0.007333 -0.043119
v -0.131341 -0.029164 -0.006622
v -0.131341 -0.024274 -0.024870
v -0.131341 -0.010915 -0.038229
v -0.131341 -0.024274 0.024870
v -0.131341 -0.029164 0.006622
v -0.131341 -0.010915 0.038229
v -0.131342 0.007333 0.043119
v -0.131341 0.072473 0.043119
vn -1.0000 0.0000 0.0000
vn 1.0000 0.0000 0.0000
vn 0.0000 -0.9917 0.1286
vn -0.2931 -0.9480 0.1239
vn -0.2931 -0.9480 -0.1239
vn 0.0000 -0.9917 -0.1286
vn 0.0000 -0.9914 0.1305
vn 0.2111 -0.9688 0.1298
vn 0.2111 -0.9688 -0.1298
vn 0.0000 -0.9914 -0.1305
vn 0.0785 -0.4575 0.8857
vn 0.1860 -0.8417 0.5070
vn 0.0000 -0.8660 0.5000
vn 0.0000 -0.5000 0.8660
vn 0.0785 -0.4575 -0.8857
vn 0.0120 -0.1188 -0.9928
vn 0.0000 -0.1305 -0.9914
vn 0.0000 -0.5000 -0.8660
vn 0.1860 -0.8417 -0.5070
vn 0.0000 -0.8660 -0.5000
vn 0.0000 0.0000 -1.0000
vn -0.0160 -0.0966 -0.9952
vn 0.0000 -0.1071 -0.9943
vn 0.0160 -0.0966 -0.9952
vn -0.0240 -0.1070 -0.9940
vn 0.0286 -0.1880 -0.9817
vn -0.4060 -0.9055 0.1235
vn -0.4060 -0.9055 -0.1235
vn -0.3550 -0.7917 -0.4972
vn -0.2596 -0.8393 -0.4778
vn 0.2931 -0.9480 -0.1239
vn 0.2596 -0.8393 -0.4778
vn 0.3550 -0.7917 -0.4972
vn 0.4060 -0.9055 -0.1235
vn 0.2281 -0.6885 -0.6885
vn 0.3022 -0.6740 -0.6740
vn -0.0477 -0.2128 -0.9759
vn -0.0286 -0.1880 -0.9817
vn -0.0000 -0.2130 -0.9770
vn -0.3022 -0.6740 -0.6740
vn -0.2281 -0.6885 -0.6885
vn 0.2931 -0.9480 0.1239
vn 0.4060 -0.9055 0.1235
vn -0.3550 -0.7917 0.4972
vn -0.2596 -0.8393 0.4778
vn 0.2596 -0.8393 0.4778
vn 0.3550 -0.7917 0.4972
vn -0.0160 -0.0966 0.9952
vn -0.0240 -0.1070 0.9940
vn -0.0477 -0.2128 0.9759
vn -0.0286 -0.1880 0.9817
vn 0.0000 -0.1071 0.9943
vn 0.0160 -0.0966 0.9952
vn 0.0286 -0.1880 0.9817
vn -0.0000 -0.2130 0.9770
vn 0.0000 -0.1305 0.9914
vn 0.0120 -0.1188 0.9928
vn 0.2281 -0.6885 0.6885
vn -0.3022 -0.6740 0.6740
vn -0.2281 -0.6885 0.6885
vn 0.3022 -0.6740 0.6740
vn 0.0000 0.0000 1.0000
vn 0.0000 -0.0861 -0.9963
vn 0.0000 -0.8732 -0.4874
vn 0.0000 -0.7071 -0.7071
vn 0.0000 -0.1716 -0.9852
vn 0.0000 -0.8732 0.4874
vn 0.0000 -0.7071 0.7071
vn 0.0000 -0.1716 0.9852
vn 0.0000 -0.0861 0.9963
usemtl Black
s off
f 40//1 151//1 160//1 24//1
s 1
f 12//2 11//2 13//2 14//2 19//2 18//2 16//2 17//2 20//2 15//2
f 152//1 155//1 154//1 153//1 157//1 156//1 158//1 159//1 160//1 151//1
usemtl White
f 90//3 89//4 124//5 126//6
f 3//2 5//2 11//2 12//2
f 9//2 10//2 16//2 18//2
f 8//2 6//2 20//2 17//2
f 7//2 9//2 18//2 19//2
f 5//2 4//2 13//2 11//2
f 2//7 33//8 49//9 7//10
f 1//2 3//2 12//2 15//2
f 4//2 2//2 14//2 13//2
f 10//2 8//2 17//2 16//2
f 25//11 29//12 4//13 5//14
f 29//12 33//8 2//7 4//13
f 41//15 60//16 8//17 10//18
f 45//19 41//15 10//18 9//20
f 49//9 45//19 9//20 7//10
f 6//21 8//17 60//16 37//21
f 97//21 148//22 59//23 38//21
f 38//21 59//23 146//24 101//21
f 100//21 145//22 58//23 39//21
f 39//21 58//23 143//24 104//21
f 103//21 142//22 57//25 40//21
f 106//26 149//24 60//16 41//15
f 34//27 50//28 124//5 89//4
f 52//28 48//29 122//30 130//5
f 131//31 121//32 47//33 51//34
f 51//28 47//29 119//30 127//5
f 128//31 118//32 46//33 50//34
f 50//28 46//29 116//30 124//5
f 125//31 115//32 45//19 49//9
f 121//32 112//35 43//36 47//33
f 44//37 57//25 142//22 113//38
f 118//32 109//35 42//36 46//33
f 43//39 58//23 145//22 110//38
f 115//32 106//35 41//15 45//19
f 42//39 59//23 148//22 107//38
f 48//29 44//40 113//41 122//30
f 112//26 143//24 58//23 43//39
f 47//29 43//40 110//41 119//30
f 109//26 146//24 59//23 42//39
f 46//29 42//40 107//41 116//30
f 91//42 128//31 50//34 34//43
f 35//27 51//28 127//5 92//4
f 94//42 131//31 51//34 35//43
f 36//27 52//28 130//5 95//4
f 52//1 36//1 157//1 153//1
f 32//44 36//27 95//4 85//45
f 86//46 94//42 35//43 31//47
f 31//44 35//27 92//4 82//45
f 83//46 91//42 34//43 30//47
f 30//44 34//27 89//4 79//45
f 80//46 88//42 33//8 29//12
f 133//48 53//49 28//50 76//51
f 54//52 134//53 77//54 27//55
f 136//48 54//52 27//55 73//51
f 55//52 137//53 74//54 26//55
f 139//48 55//52 26//55 70//51
f 3//56 56//57 25//11 5//14
f 71//58 80//46 29//12 25//11
f 26//59 30//44 79//45 70//60
f 74//58 83//46 30//47 26//61
f 27//59 31//44 82//45 73//60
f 77//58 86//46 31//47 27//61
f 28//59 32//44 85//45 76//60
f 3//56 1//62 21//62 56//57
f 139//48 62//62 22//62 55//52
f 55//52 22//62 64//62 137//53
f 136//48 65//62 23//62 54//52
f 54//52 23//62 67//62 134//53
f 133//48 68//62 24//62 53//49
f 56//57 140//53 71//54 25//11
f 37//21 60//16 149//24 98//21
f 97//21 99//21 150//63 148//22
f 99//21 98//21 149//24 150//63
f 100//21 102//21 147//63 145//22
f 102//21 101//21 146//24 147//63
f 103//21 105//21 144//63 142//22
f 105//21 104//21 143//24 144//63
f 131//31 132//6 123//64 121//32
f 132//6 130//5 122//30 123//64
f 128//31 129//6 120//64 118//32
f 129//6 127//5 119//30 120//64
f 125//31 126//6 117//64 115//32
f 126//6 124//5 116//30 117//64
f 121//32 123//64 114//65 112//35
f 123//64 122//30 113//41 114//65
f 118//32 120//64 111//65 109//35
f 120//64 119//30 110//41 111//65
f 115//32 117//64 108//65 106//35
f 117//64 116//30 107//41 108//65
f 112//26 114//66 144//63 143//24
f 114//66 113//38 142//22 144//63
f 109//26 111//66 147//63 146//24
f 111//66 110//38 145//22 147//63
f 106//26 108//66 150//63 149//24
f 108//66 107//38 148//22 150//63
f 88//42 90//3 126//6 125//31
f 93//3 92//4 127//5 129//6
f 91//42 93//3 129//6 128//31
f 96//3 95//4 130//5 132//6
f 94//42 96//3 132//6 131//31
f 88//42 125//31 49//9 33//8
f 86//46 87//67 96//3 94//42
f 87//67 85//45 95//4 96//3
f 83//46 84//67 93//3 91//42
f 84//67 82//45 92//4 93//3
f 80//46 81//67 90//3 88//42
f 81//67 79//45 89//4 90//3
f 77//58 78//68 87//67 86//46
f 78//68 76//60 85//45 87//67
f 74//58 75//68 84//67 83//46
f 75//68 73//60 82//45 84//67
f 71//58 72//68 81//67 80//46
f 72//68 70//60 79//45 81//67
f 70//51 72//69 141//70 139//48
f 72//69 71//54 140//53 141//70
f 73//51 75//69 138//70 136//48
f 75//69 74//54 137//53 138//70
f 76//51 78//69 135//70 133//48
f 78//69 77//54 134//53 135//70
f 139//48 141//70 63//62 62//62
f 141//70 140//53 61//62 63//62
f 136//48 138//70 66//62 65//62
f 138//70 137//53 64//62 66//62
f 133//48 135//70 69//62 68//62
f 135//70 134//53 67//62 69//62
f 56//57 21//62 61//62 140//53
f 53//1 159//1 158//1 28//1
f 52//1 153//1 154//1 48//1
f 24//1 160//1 159//1 53//1
f 48//1 154//1 155//1 44//1
f 44//1 155//1 152//1 57//1
f 32//1 156//1 157//1 36//1
f 57//1 152//1 151//1 40//1
f 28//1 158//1 156//1 32//1
f 2//2 7//2 19//2 14//2
