# Blender v2.79 (sub 0) OBJ File: 'Stock_Grenade_1.blend'
# www.blender.org
mtllib Stock_Grenade_1.mtl
o Stock_Grenade_1_Cube.233
v -0.591923 -0.320090 0.043466
v -0.591923 -0.320090 -0.043466
v -0.642066 -0.320090 0.043466
v -0.642066 -0.320090 -0.043466
v -0.591923 -0.260138 0.043466
v -0.591923 -0.200187 0.043466
v -0.591923 -0.140235 0.043466
v -0.591923 -0.080284 0.043466
v -0.591923 -0.020332 0.043466
v -0.591923 0.039620 0.043466
v -0.591923 0.099571 0.043466
v -0.591923 0.099571 -0.043466
v -0.591923 0.039620 -0.043466
v -0.591923 -0.020332 -0.043466
v -0.591923 -0.080284 -0.043466
v -0.591923 -0.140235 -0.043466
v -0.591923 -0.200187 -0.043466
v -0.591923 -0.260138 -0.043466
v -0.642066 -0.260138 0.043466
v -0.642066 -0.200187 0.043466
v -0.642066 -0.140235 0.043466
v -0.642066 -0.080284 0.043466
v -0.642066 -0.020332 0.043466
v -0.642066 0.039620 0.043466
v -0.642066 0.099571 0.043466
v -0.642066 0.099571 -0.043466
v -0.642066 0.039620 -0.043466
v -0.642066 -0.020332 -0.043466
v -0.642066 -0.080284 -0.043466
v -0.642066 -0.140235 -0.043466
v -0.642066 -0.200187 -0.043466
v -0.642066 -0.260138 -0.043466
v -0.666907 -0.313079 0.043466
v -0.666907 -0.267148 0.043466
v -0.666907 -0.267148 -0.043466
v -0.666907 -0.313079 -0.043466
v -0.666907 -0.253128 0.043466
v -0.666907 -0.207197 0.043466
v -0.666907 -0.207197 -0.043466
v -0.666907 -0.253128 -0.043466
v -0.666907 -0.193176 0.043466
v -0.666907 -0.147245 0.043466
v -0.666907 -0.147245 -0.043466
v -0.666907 -0.193176 -0.043466
v -0.666907 -0.133225 0.043466
v -0.666907 -0.087294 0.043466
v -0.666907 -0.087294 -0.043466
v -0.666907 -0.133225 -0.043466
v -0.666907 -0.073273 0.043466
v -0.666907 -0.027342 0.043466
v -0.666907 -0.027342 -0.043466
v -0.666907 -0.073273 -0.043466
v -0.666907 -0.013322 0.043466
v -0.666907 0.032609 0.043466
v -0.666907 0.032609 -0.043466
v -0.666907 -0.013322 -0.043466
v -0.666907 0.046630 0.043466
v -0.666907 0.092561 0.043466
v -0.666907 0.092561 -0.043466
v -0.666907 0.046630 -0.043466
v -0.620770 0.112561 0.054718
v -0.620770 -0.329274 0.054718
v -0.532089 0.112561 0.054718
v -0.620770 0.031928 0.054718
v -0.532089 0.031928 0.054718
v -0.239401 0.031928 0.054718
v -0.327646 0.112561 0.054718
v -0.239401 0.048113 0.054718
v -0.293876 0.107655 0.054718
v -0.265247 0.093684 0.054718
v -0.246119 0.072776 0.054718
v -0.532089 -0.264962 0.054718
v -0.596401 -0.329274 0.054718
v -0.536985 -0.289573 0.054718
v -0.550926 -0.310437 0.054718
v -0.571790 -0.324378 0.054718
v -0.539444 0.039593 0.037475
v -0.539444 -0.201239 0.037475
v -0.376686 0.039593 0.037475
v -0.433392 -0.201239 0.037475
v -0.539444 -0.132040 0.037475
v -0.376686 -0.132040 0.037475
v -0.279952 0.039593 0.037475
v -0.279952 -0.132040 0.037475
v -0.547971 -0.041454 0.041457
v -0.377940 -0.041454 0.041457
v -0.547971 -0.076612 0.041457
v -0.490210 -0.041454 0.041457
v -0.490210 -0.076612 0.041457
v -0.547971 -0.261925 0.041457
v -0.490210 -0.261925 0.041457
v -0.322574 0.018949 0.031349
v -0.104822 0.018949 0.031349
v -0.322574 -0.038787 0.031349
v -0.322574 -0.056691 0.013445
v -0.104822 -0.056691 0.013445
v -0.104822 -0.038787 0.031349
v -0.187463 0.027546 0.037475
v 0.000000 0.027546 0.037476
v -0.187463 -0.060161 0.037475
v 0.000000 -0.027546 0.037476
v -0.097914 0.027546 0.037476
v -0.097914 -0.060161 0.037475
v -0.187463 -0.067292 0.037475
v -0.187463 -0.098187 0.006581
v -0.187463 -0.082740 0.033336
v -0.187463 -0.094048 0.022028
v -0.097914 -0.098187 0.006581
v -0.097914 -0.067292 0.037475
v -0.097914 -0.094048 0.022028
v -0.097914 -0.082740 0.033336
v -0.399349 -0.076612 0.041457
v -0.377940 -0.051449 0.041457
v -0.479762 -0.201239 0.037475
v -0.479762 0.039593 0.037475
v -0.479762 -0.132040 0.037475
v -0.539444 -0.258857 0.037475
v -0.479762 -0.258857 0.037475
v -0.596401 0.031928 0.054718
v -0.596401 0.112561 0.054718
v -0.620770 0.112561 -0.054718
v -0.620770 -0.329274 -0.054718
v -0.532089 0.112561 -0.054718
v -0.620770 0.031928 -0.054718
v -0.532089 0.031928 -0.054718
v -0.239401 0.031928 -0.054718
v -0.327646 0.112561 -0.054718
v -0.239401 0.048113 -0.054718
v -0.293876 0.107655 -0.054718
v -0.265247 0.093684 -0.054718
v -0.246119 0.072776 -0.054718
v -0.532089 -0.264962 -0.054718
v -0.596401 -0.329274 -0.054718
v -0.536985 -0.289573 -0.054718
v -0.550926 -0.310437 -0.054718
v -0.571790 -0.324378 -0.054718
v -0.620770 0.112561 -0.000000
v -0.620770 -0.329274 -0.000000
v -0.532089 0.112561 -0.000000
v -0.532089 0.031928 -0.000000
v -0.620770 0.031928 -0.000000
v -0.239401 0.031928 -0.000000
v -0.327646 0.112561 -0.000000
v -0.293876 0.107655 -0.000000
v -0.265247 0.093684 -0.000000
v -0.246119 0.072776 -0.000000
v -0.239401 0.048113 -0.000000
v -0.596401 -0.329274 -0.000000
v -0.571790 -0.324378 -0.000000
v -0.550926 -0.310437 -0.000000
v -0.536985 -0.289573 -0.000000
v -0.532089 -0.264962 -0.000000
v -0.539444 0.039593 -0.037475
v -0.539444 -0.201239 -0.037475
v -0.539444 0.039593 -0.000000
v -0.539444 -0.201239 -0.000000
v -0.376686 0.039593 -0.000000
v -0.376686 0.039593 -0.037475
v -0.433392 -0.201239 -0.037475
v -0.433392 -0.201239 -0.000000
v -0.539444 -0.132040 -0.037475
v -0.539444 -0.132040 -0.000000
v -0.376686 -0.132040 -0.037475
v -0.376686 -0.132040 -0.000000
v -0.279952 0.039593 -0.000000
v -0.279952 0.039593 -0.037475
v -0.279952 -0.132040 -0.000000
v -0.279952 -0.132040 -0.037475
v -0.547971 -0.041454 -0.000000
v -0.547971 -0.041454 -0.041457
v -0.377940 -0.041454 -0.000000
v -0.377940 -0.041454 -0.041457
v -0.547971 -0.076612 -0.000000
v -0.547971 -0.076612 -0.041457
v -0.479762 0.039593 -0.000000
v -0.479762 -0.201239 -0.000000
v -0.490210 -0.041454 -0.000000
v -0.490210 -0.041454 -0.041457
v -0.490210 -0.076612 -0.000000
v -0.490210 -0.076612 -0.041457
v -0.547971 -0.261925 -0.000000
v -0.547971 -0.261925 -0.041457
v -0.490210 -0.261925 -0.041457
v -0.490210 -0.261925 -0.000000
v -0.322574 0.018949 -0.000000
v -0.322574 0.018949 -0.031349
v -0.322574 -0.056691 -0.000000
v -0.104822 0.018949 -0.000000
v -0.104822 0.018949 -0.031349
v -0.104822 -0.056691 -0.000000
v -0.322574 -0.038787 -0.031349
v -0.322574 -0.056691 -0.013445
v -0.104822 -0.056691 -0.013445
v -0.104822 -0.038787 -0.031349
v -0.187463 0.027546 -0.037475
v 0.000000 0.027546 -0.037476
v -0.187463 0.027546 -0.000000
v 0.000000 0.027546 -0.000000
v -0.187463 -0.060161 -0.000000
v -0.187463 -0.060161 -0.037475
v 0.000000 -0.027546 -0.037476
v 0.000000 -0.027546 -0.000000
v -0.097914 0.027546 -0.037476
v -0.097914 0.027546 -0.000000
v -0.097914 -0.060161 -0.037475
v -0.097914 -0.060161 -0.000000
v -0.187463 -0.098187 -0.000000
v -0.097914 -0.098187 -0.000000
v -0.187463 -0.067292 -0.037475
v -0.187463 -0.098187 -0.006581
v -0.187463 -0.082740 -0.033336
v -0.187463 -0.094048 -0.022028
v -0.097914 -0.098187 -0.006581
v -0.097914 -0.067292 -0.037475
v -0.097914 -0.094048 -0.022028
v -0.097914 -0.082740 -0.033336
v -0.377940 -0.051449 -0.000000
v -0.399349 -0.076612 -0.000000
v -0.399349 -0.076612 -0.041457
v -0.377940 -0.051449 -0.041457
v -0.479762 -0.201239 -0.037475
v -0.479762 0.039593 -0.037475
v -0.479762 -0.132040 -0.037475
v -0.539444 -0.258857 -0.037475
v -0.539444 -0.258857 -0.000000
v -0.479762 -0.258857 -0.037475
v -0.479762 -0.258857 -0.000000
v -0.596401 0.031928 -0.054718
v -0.596401 0.112561 -0.054718
v -0.596401 0.112561 -0.000000
vn 0.0000 0.0000 -1.0000
vn 0.0000 -1.0000 0.0000
vn 0.0000 0.0000 1.0000
vn 1.0000 0.0000 0.0000
vn 0.0000 1.0000 0.0000
vn -1.0000 0.0000 0.0000
vn -0.2716 0.9624 0.0000
vn -0.2716 -0.9624 0.0000
vn 0.7735 -0.6338 0.0000
vn 0.3160 -0.9487 0.0000
vn -0.0000 -0.1305 0.9914
vn -0.0000 -0.5000 0.8660
vn -0.0000 -0.7071 0.7071
vn -0.0000 -0.9659 0.2588
vn -0.0000 -0.9914 0.1305
vn -0.0000 -0.1305 -0.9914
vn -0.0000 -0.5000 -0.8660
vn -0.0000 -0.7071 -0.7071
vn -0.0000 -0.9659 -0.2588
vn -0.0000 -0.9914 -0.1305
vn 0.7616 -0.6480 0.0000
vn 0.9952 -0.0980 0.0000
vn 0.9912 0.1326 0.0000
vn 0.0980 -0.9952 0.0000
vn 0.3827 -0.9239 0.0000
vn 0.7071 -0.7071 0.0000
vn 0.9239 -0.3827 0.0000
vn 0.8759 0.4824 0.0000
vn 0.5987 0.8010 0.0000
vn 0.2947 0.9556 0.0000
vn 0.0721 0.9974 0.0000
usemtl Black
s off
f 18//1 2//1 4//1 32//1
f 2//2 1//2 3//2 4//2
f 1//3 5//3 19//3 3//3
f 5//3 6//3 20//3 19//3
f 6//3 7//3 21//3 20//3
f 7//3 8//3 22//3 21//3
f 8//3 9//3 23//3 22//3
f 9//3 10//3 24//3 23//3
f 10//3 11//3 25//3 24//3
f 12//1 13//1 27//1 26//1
f 13//1 14//1 28//1 27//1
f 14//1 15//1 29//1 28//1
f 15//1 16//1 30//1 29//1
f 16//1 17//1 31//1 30//1
f 17//1 18//1 32//1 31//1
f 1//4 2//4 18//4 5//4
f 5//4 18//4 17//4 6//4
f 6//4 17//4 16//4 7//4
f 7//4 16//4 15//4 8//4
f 8//4 15//4 14//4 9//4
f 9//4 14//4 13//4 10//4
f 10//4 13//4 12//4 11//4
f 25//5 11//5 12//5 26//5
f 33//6 34//6 35//6 36//6
f 19//3 34//3 33//3 3//3
f 32//7 35//7 34//7 19//7
f 4//1 36//1 35//1 32//1
f 3//8 33//8 36//8 4//8
f 37//6 38//6 39//6 40//6
f 20//3 38//3 37//3 19//3
f 31//7 39//7 38//7 20//7
f 32//1 40//1 39//1 31//1
f 19//8 37//8 40//8 32//8
f 41//6 42//6 43//6 44//6
f 21//3 42//3 41//3 20//3
f 30//7 43//7 42//7 21//7
f 31//1 44//1 43//1 30//1
f 20//8 41//8 44//8 31//8
f 45//6 46//6 47//6 48//6
f 22//3 46//3 45//3 21//3
f 29//7 47//7 46//7 22//7
f 30//1 48//1 47//1 29//1
f 21//8 45//8 48//8 30//8
f 49//6 50//6 51//6 52//6
f 23//3 50//3 49//3 22//3
f 28//7 51//7 50//7 23//7
f 29//1 52//1 51//1 28//1
f 22//8 49//8 52//8 29//8
f 53//6 54//6 55//6 56//6
f 24//3 54//3 53//3 23//3
f 27//7 55//7 54//7 24//7
f 28//1 56//1 55//1 27//1
f 23//8 53//8 56//8 28//8
f 57//6 58//6 59//6 60//6
f 25//3 58//3 57//3 24//3
f 26//7 59//7 58//7 25//7
f 27//1 60//1 59//1 26//1
f 24//8 57//8 60//8 27//8
s 1
f 162//6 156//6 78//6 81//6
f 164//9 82//9 80//9 160//9
f 116//3 82//3 79//3 115//3
f 176//2 160//2 80//2 114//2
f 115//5 79//5 157//5 175//5
f 114//3 80//3 82//3 116//3
f 79//5 83//5 165//5 157//5
f 155//6 162//6 81//6 77//6
f 165//4 83//4 84//4 167//4
f 82//3 84//3 83//3 79//3
f 164//2 167//2 84//2 82//2
f 78//3 114//3 116//3 81//3
f 204//5 102//5 99//5 198//5
f 206//10 202//10 101//10 103//10
f 102//3 98//3 100//3 103//3
f 198//4 99//4 101//4 202//4
f 98//6 197//6 199//6 100//6
f 99//3 102//3 103//3 101//3
f 206//4 103//4 109//4 111//4 110//4 108//4 208//4
f 197//5 98//5 102//5 204//5
f 103//3 100//3 104//11 109//11
f 100//6 199//6 207//6 105//6 107//6 106//6 104//6
f 104//11 106//12 111//12 109//11
f 106//12 107//13 110//13 111//12
f 107//14 105//15 108//15 110//14
f 207//2 208//2 108//15 105//15
f 77//5 115//5 175//5 155//5
f 114//3 78//3 117//3 118//3
f 81//3 116//3 115//3 77//3
f 225//2 227//2 118//2 117//2
f 78//6 156//6 225//6 117//6
f 176//4 114//4 118//4 227//4
f 162//6 161//6 154//6 156//6
f 164//9 160//9 159//9 163//9
f 223//1 222//1 158//1 163//1
f 176//2 221//2 159//2 160//2
f 222//5 175//5 157//5 158//5
f 221//1 223//1 163//1 159//1
f 158//5 157//5 165//5 166//5
f 155//6 153//6 161//6 162//6
f 165//4 167//4 168//4 166//4
f 163//1 158//1 166//1 168//1
f 164//2 163//2 168//2 167//2
f 154//1 161//1 223//1 221//1
f 204//5 198//5 196//5 203//5
f 206//10 205//10 201//10 202//10
f 203//1 205//1 200//1 195//1
f 198//4 202//4 201//4 196//4
f 195//6 200//6 199//6 197//6
f 196//1 201//1 205//1 203//1
f 206//4 208//4 213//4 215//4 216//4 214//4 205//4
f 197//5 204//5 203//5 195//5
f 205//1 214//16 209//16 200//1
f 200//6 209//6 211//6 212//6 210//6 207//6 199//6
f 209//16 214//16 216//17 211//17
f 211//17 216//17 215//18 212//18
f 212//19 215//19 213//20 210//20
f 207//2 210//20 213//20 208//2
f 153//5 155//5 175//5 222//5
f 221//1 226//1 224//1 154//1
f 161//1 153//1 222//1 223//1
f 225//2 224//2 226//2 227//2
f 154//6 224//6 225//6 156//6
f 176//4 227//4 226//4 221//4
usemtl Grey
f 88//5 86//5 171//5 177//5
f 86//3 88//3 89//3 112//3 113//3
f 85//6 169//6 173//6 87//6
f 88//3 85//3 87//3 89//3
f 89//2 179//2 218//2 112//2
f 87//3 90//3 91//3 89//3
f 85//5 88//5 177//5 169//5
f 90//2 181//2 184//2 91//2
f 89//4 91//4 184//4 179//4
f 173//6 181//6 90//6 87//6
f 187//2 190//2 96//2 95//2
f 188//4 93//4 97//4 96//4 190//4
f 185//6 187//6 95//6 94//6 92//6
f 92//5 93//5 188//5 185//5
f 94//13 95//13 96//13 97//13
f 94//3 97//3 93//3 92//3
f 217//21 113//21 112//21 218//21
f 171//4 86//4 113//4 217//4
f 178//5 177//5 171//5 172//5
f 172//1 220//1 219//1 180//1 178//1
f 170//6 174//6 173//6 169//6
f 178//1 180//1 174//1 170//1
f 180//2 219//2 218//2 179//2
f 174//1 180//1 183//1 182//1
f 170//5 169//5 177//5 178//5
f 182//2 183//2 184//2 181//2
f 180//4 179//4 184//4 183//4
f 173//6 174//6 182//6 181//6
f 187//2 192//2 193//2 190//2
f 188//4 190//4 193//4 194//4 189//4
f 185//6 186//6 191//6 192//6 187//6
f 186//5 185//5 188//5 189//5
f 191//18 194//18 193//18 192//18
f 191//1 186//1 189//1 194//1
f 217//21 218//21 219//21 220//21
f 171//4 217//4 220//4 172//4
usemtl White
f 140//4 65//4 72//22 152//22
f 63//3 120//3 119//3 65//3
f 65//3 66//3 68//3 71//3 70//3 69//3 67//3 63//3
f 147//23 68//23 66//4 142//4
f 140//2 142//2 66//2 65//2
f 148//24 149//25 76//25 73//24
f 149//25 150//26 75//26 76//25
f 150//26 151//27 74//27 75//26
f 151//27 152//22 72//22 74//27
f 72//3 65//3 119//3 73//3 76//3 75//3 74//3
f 71//28 68//23 147//23 146//28
f 70//29 71//28 146//28 145//29
f 69//30 70//29 145//29 144//30
f 67//31 69//30 144//30 143//31
f 63//5 67//31 143//31 139//5
f 230//5 120//5 63//5 139//5
f 140//4 152//22 132//22 125//4
f 123//1 125//1 228//1 229//1
f 125//1 123//1 127//1 129//1 130//1 131//1 128//1 126//1
f 147//23 142//4 126//4 128//23
f 140//2 125//2 126//2 142//2
f 148//24 133//24 136//25 149//25
f 149//25 136//25 135//26 150//26
f 150//26 135//26 134//27 151//27
f 151//27 134//27 132//22 152//22
f 132//1 134//1 135//1 136//1 133//1 228//1 125//1
f 131//28 146//28 147//23 128//23
f 130//29 145//29 146//28 131//28
f 129//30 144//30 145//29 130//29
f 127//31 143//31 144//30 129//30
f 123//5 139//5 143//31 127//31
f 230//5 139//5 123//5 229//5
usemtl Main
f 137//5 61//5 120//5 230//5
f 148//24 73//24 62//2 138//2
f 61//6 137//6 141//6 64//6
f 64//6 141//6 138//6 62//6
f 73//3 119//3 64//3 62//3
f 119//3 120//3 61//3 64//3
f 137//5 230//5 229//5 121//5
f 148//24 138//2 122//2 133//24
f 121//6 124//6 141//6 137//6
f 124//6 122//6 138//6 141//6
f 133//1 122//1 124//1 228//1
f 228//1 124//1 121//1 229//1
